<svg viewBox="0 0 15.067 23.938" xmlns="http://www.w3.org/2000/svg">
  <g aria-label="4" style="fill:#eb8900;stroke-width:1.85208">
    <path d="m102.567 160.098-1.301.087c-.03-.723-.03-1.475-.03-2.227 0-1.823.059-4.079.203-6.711l-4.657.838.347 8.36-2.343.145c.347-3.326.868-7.087 1.562-11.282l-5.15.781-.925 13.654 1.649 2.401c1.794-.202 3.616-.376 5.438-.52l.203 4.686 4.223-1.128a54.959 54.959 0 0 1-.318-3.76c.203 0 .463 0 .81-.03h.84z" style="font-size:28.9278px;font-family:BadaBoom;-inkscape-font-specification:&quot;BadaBoom, Normal&quot;" transform="translate(-88.097 -146.372)" aria-label="4"/>
  </g>
  <g style="fill:none;stroke:#000;stroke-width:2.38125">
    <path d="m101.307 158.322-1.27.085c-.028-.706-.028-1.44-.028-2.173 0-1.778.056-3.98.197-6.548l-4.543.818.338 8.157-2.286.14c.339-3.245.847-6.914 1.524-11.006l-5.023.762-.903 13.321 1.608 2.342a160.86 160.86 0 0 1 5.306-.508l.198 4.572 4.12-1.1a53.621 53.621 0 0 1-.31-3.67c.197 0 .451 0 .79-.027h.818z" style="font-size:28.2222px;font-family:BadaBoom;-inkscape-font-specification:&quot;BadaBoom, Normal&quot;" transform="translate(-88.097 -146.372)" aria-label="4"/>
  </g>
</svg>
