<svg viewBox="0 0 49.054 23.814" xmlns="http://www.w3.org/2000/svg">
  <g aria-label="FREE" style="fill:#eb8900;stroke-width:1.85208">
    <path d="m96.427 197.829-4.715 1.07v-1.562c0-.492 0-1.012.029-1.533a51.447 51.447 0 0 1 5.12-.608l-.752-5.264-9.402 1.388.984 20.25 4.6-1.244a106.16 106.16 0 0 1-.521-7.493c1.822-.405 3.558-.752 5.265-1.041zM111.296 207.317c-.81-1.128-1.62-2.227-2.401-3.355-.955-1.331-1.736-2.46-2.314-3.414 2.198-2.112 3.298-4.223 3.298-6.393 0-.405-.03-.81-.116-1.244-.347-1.764-1.823-2.661-4.397-2.661-1.88 0-4.195.434-6.914 1.33-.029.145 0 1.158.087 3.096l.55 13.133.144 3.76 4.224-1.243c-.232-2.141-.376-4.426-.463-6.827l.029-.03 4.686 7.811c1.591-1.764 2.806-3.066 3.587-3.963zm-5.583-10.906c0 .492-.318 1.129-.984 1.91a7.532 7.532 0 0 1-1.793 1.533c-.029-.637-.029-1.273-.029-1.91 0-.636 0-1.272.029-1.909.781-.289 1.388-.434 1.822-.434.637 0 .955.26.955.81zM121.45 204.367l-5.092.78-.057-1.128c-.03-.376-.03-.752-.03-1.128l2.43-.52a58.824 58.824 0 0 1 2.402-.463l-.579-3.906-4.31.984v-1.591c0-.52 0-1.041.029-1.591 1.62-.26 3.268-.463 4.975-.608l-.752-5.264-9.112 1.388.954 20.25c4.021-1.07 7.32-1.736 9.894-1.968zM133.484 204.367l-5.092.78-.058-1.128c-.028-.376-.028-.752-.028-1.128l2.43-.52c.78-.174 1.59-.319 2.4-.463l-.578-3.906-4.31.984v-1.591c0-.52 0-1.041.029-1.591 1.62-.26 3.268-.463 4.975-.608l-.752-5.264-9.112 1.388.954 20.25c4.021-1.07 7.32-1.736 9.894-1.968z" style="font-size:28.9278px;font-family:BadaBoom;-inkscape-font-specification:&quot;BadaBoom, Normal&quot;" transform="translate(-85.182 -187.756)"/>
  </g>
  <g  style="fill:none;stroke:#000;stroke-width:2.11667">
    <path d="m95.768 196.668-4.6 1.044v-1.524c0-.48 0-.988.028-1.496a50.19 50.19 0 0 1 4.995-.593l-.734-5.136-9.172 1.355.96 19.755 4.487-1.213a103.57 103.57 0 0 1-.508-7.31c1.778-.395 3.471-.734 5.137-1.016zM110.274 205.925c-.79-1.101-1.58-2.174-2.342-3.274-.932-1.298-1.694-2.4-2.258-3.33 2.145-2.06 3.217-4.12 3.217-6.238 0-.395-.028-.79-.113-1.213-.338-1.722-1.778-2.597-4.29-2.597-1.834 0-4.092.424-6.744 1.299-.029.14 0 1.129.084 3.02l.536 12.812.142 3.67 4.12-1.214c-.226-2.089-.367-4.318-.452-6.66l.029-.029 4.572 7.62c1.552-1.721 2.737-2.991 3.5-3.866zm-5.447-10.64c0 .48-.31 1.1-.96 1.863-.507.592-1.1 1.1-1.75 1.495-.027-.62-.027-1.241-.027-1.862s0-1.242.028-1.863c.762-.282 1.355-.423 1.778-.423.62 0 .931.254.931.79zM120.18 203.046l-4.967.762-.056-1.1c-.029-.368-.029-.735-.029-1.101l2.371-.508c.762-.17 1.552-.31 2.343-.452l-.565-3.81-4.205.96v-1.553c0-.508 0-1.016.028-1.552 1.58-.254 3.19-.451 4.854-.593l-.733-5.136-8.89 1.355.931 19.755c3.923-1.044 7.14-1.693 9.652-1.919zM131.92 203.046l-4.967.762-.056-1.1c-.028-.368-.028-.735-.028-1.101l2.37-.508c.763-.17 1.553-.31 2.343-.452l-.564-3.81-4.206.96v-1.553c0-.508 0-1.016.029-1.552 1.58-.254 3.189-.451 4.854-.593l-.734-5.136-8.89 1.355.931 19.755c3.923-1.044 7.14-1.693 9.652-1.919z" style="font-size:28.2222px;font-family:BadaBoom;-inkscape-font-specification:&quot;BadaBoom, Normal&quot;" transform="translate(-85.182 -187.756)"/>
  </g>
</svg>
