<svg viewBox="0 0 70.2 23.814" xmlns="http://www.w3.org/2000/svg">
  <g aria-label="FREIER" style="fill:#eb8900;stroke-width:1.85208">
    <path d="m99.399 227.783-4.716 1.07v-1.562c0-.492 0-1.013.03-1.533a51.447 51.447 0 0 1 5.12-.608l-.753-5.265-9.401 1.389.983 20.25 4.6-1.245c-.26-2.458-.434-4.975-.52-7.492 1.822-.405 3.557-.752 5.264-1.041zM114.268 237.27c-.81-1.127-1.62-2.227-2.401-3.355-.955-1.33-1.736-2.459-2.315-3.413 2.199-2.112 3.298-4.224 3.298-6.393 0-.405-.029-.81-.116-1.244-.347-1.765-1.822-2.662-4.397-2.662-1.88 0-4.194.434-6.913 1.331-.03.145 0 1.157.086 3.095l.55 13.134.145 3.76 4.223-1.244c-.231-2.14-.376-4.426-.463-6.827l.03-.028 4.685 7.81c1.591-1.765 2.806-3.066 3.587-3.963zm-5.584-10.905c0 .492-.318 1.128-.983 1.91a7.532 7.532 0 0 1-1.794 1.533c-.029-.637-.029-1.273-.029-1.91 0-.636 0-1.273.03-1.909.78-.29 1.388-.434 1.822-.434.636 0 .954.26.954.81zM124.421 234.32l-5.091.781-.058-1.128c-.029-.376-.029-.752-.029-1.128l2.43-.52c.781-.174 1.591-.319 2.401-.464l-.579-3.905-4.31.984v-1.591c0-.521 0-1.042.03-1.591 1.62-.26 3.268-.463 4.975-.608l-.752-5.265-9.113 1.389.955 20.25c4.02-1.071 7.319-1.736 9.893-1.968zM131.624 240.28a111.994 111.994 0 0 1-.52-9.836c-.03-3.269.028-6.509.173-9.778l-4.628.897.78 19.96zM143.311 234.32l-5.091.781-.058-1.128c-.03-.376-.03-.752-.03-1.128l2.43-.52c.782-.174 1.592-.319 2.402-.464l-.579-3.905-4.31.984v-1.591c0-.521 0-1.042.029-1.591 1.62-.26 3.269-.463 4.976-.608l-.753-5.265-9.112 1.389.955 20.25c4.02-1.071 7.319-1.736 9.893-1.968zM158.353 237.27c-.81-1.127-1.62-2.227-2.4-3.355-.955-1.33-1.736-2.459-2.315-3.413 2.199-2.112 3.298-4.224 3.298-6.393 0-.405-.029-.81-.116-1.244-.347-1.765-1.822-2.662-4.397-2.662-1.88 0-4.194.434-6.913 1.331-.03.145 0 1.157.086 3.095l.55 13.134.145 3.76 4.223-1.244c-.231-2.14-.376-4.426-.463-6.827l.03-.028 4.685 7.81c1.591-1.765 2.806-3.066 3.587-3.963zm-5.583-10.905c0 .492-.318 1.128-.983 1.91a7.532 7.532 0 0 1-1.794 1.533c-.029-.637-.029-1.273-.029-1.91 0-.636 0-1.273.03-1.909.78-.29 1.388-.434 1.822-.434.636 0 .954.26.954.81z" style="font-size:28.9278px;font-family:BadaBoom;-inkscape-font-specification:&quot;BadaBoom, Normal&quot;" transform="translate(-88.153 -217.71)"/>
  </g>
  <g style="fill:none;stroke:#000;stroke-width:2.11667">
    <path d="m98.74 226.621-4.6 1.045v-1.524c0-.48 0-.988.027-1.496a50.19 50.19 0 0 1 4.996-.593l-.734-5.136-9.172 1.354.96 19.756 4.487-1.214a103.57 103.57 0 0 1-.508-7.31c1.778-.394 3.471-.733 5.136-1.015zM113.246 235.878c-.79-1.1-1.58-2.173-2.343-3.273-.931-1.299-1.693-2.4-2.258-3.33 2.145-2.06 3.218-4.121 3.218-6.238 0-.395-.028-.79-.113-1.213-.339-1.722-1.778-2.597-4.29-2.597-1.834 0-4.092.424-6.745 1.298-.028.142 0 1.13.085 3.02l.536 12.813.141 3.669 4.12-1.214c-.225-2.088-.366-4.318-.451-6.66l.028-.028 4.572 7.62c1.552-1.722 2.738-2.992 3.5-3.867zm-5.447-10.64c0 .48-.31 1.101-.96 1.863-.508.593-1.1 1.1-1.75 1.496-.028-.62-.028-1.242-.028-1.863 0-.62 0-1.241.028-1.862.762-.283 1.355-.424 1.778-.424.621 0 .932.254.932.79zM123.152 233l-4.967.762-.057-1.101c-.028-.367-.028-.734-.028-1.1l2.37-.509c.763-.169 1.553-.31 2.343-.451l-.564-3.81-4.206.96v-1.553c0-.508 0-1.016.029-1.552 1.58-.254 3.189-.452 4.854-.593l-.734-5.136-8.89 1.354.931 19.756c3.923-1.044 7.14-1.693 9.652-1.92zM130.179 238.813c-.31-3.189-.48-6.406-.508-9.595-.028-3.19.028-6.35.17-9.54l-4.516.876.762 19.473zM141.58 233l-4.966.762-.057-1.101c-.028-.367-.028-.734-.028-1.1l2.37-.509c.763-.169 1.553-.31 2.343-.451l-.564-3.81-4.205.96v-1.553c0-.508 0-1.016.028-1.552 1.58-.254 3.189-.452 4.854-.593l-.734-5.136-8.89 1.354.932 19.756c3.922-1.044 7.14-1.693 9.652-1.92zM156.256 235.878c-.79-1.1-1.58-2.173-2.342-3.273-.932-1.299-1.694-2.4-2.258-3.33 2.145-2.06 3.217-4.121 3.217-6.238 0-.395-.028-.79-.113-1.213-.338-1.722-1.778-2.597-4.29-2.597-1.834 0-4.092.424-6.744 1.298-.029.142 0 1.13.084 3.02l.537 12.813.14 3.669 4.121-1.214c-.226-2.088-.367-4.318-.451-6.66l.028-.028 4.572 7.62c1.552-1.722 2.737-2.992 3.5-3.867zm-5.447-10.64c0 .48-.31 1.101-.96 1.863-.507.593-1.1 1.1-1.749 1.496-.028-.62-.028-1.242-.028-1.863 0-.62 0-1.241.028-1.862.762-.283 1.355-.424 1.778-.424.62 0 .931.254.931.79z" style="font-size:28.2222px;font-family:BadaBoom;-inkscape-font-specification:&quot;BadaBoom, Normal&quot;" transform="translate(-88.153 -217.71)"/>
  </g>
</svg>
