<svg viewBox="0 0 47.309 25.471" xmlns="http://www.w3.org/2000/svg">
  <g aria-label="200" style="fill:#eb8900;stroke-width:1.85208">
    <path d="M94.056 121.647c.029-2.314-1.042-4.28-3.211-5.9-1.36-.984-2.72-1.476-4.137-1.476-.665 0-1.33.145-1.967.434-2.199 1.07-3.298 3.674-3.298 7.868l5.034-.925c-.03-.29-.058-.55-.058-.753 0-.839.318-1.244.954-1.244.492 0 .868.232 1.186.724.26.405.405.868.405 1.36 0 .202 0 .375-.028.578-.145.897-.955 1.793-2.46 2.69-2.776 1.649-4.454 3.298-5.004 4.918-.26.723-.376 1.533-.376 2.43 0 1.07.174 2.256.55 3.558l12.265-.608-.55-5.293-6.566.376c.318-.868.954-1.533 1.938-2.025 3.5-1.707 5.294-3.963 5.323-6.711zM110.255 124.887a15.298 15.298 0 0 0-1.33-7.232c-1.244-2.777-3.067-4.165-5.41-4.165s-4.281 1.388-5.785 4.137a16.2 16.2 0 0 0-2.054 7.26c-.116 2.604.318 5.005 1.33 7.232 1.244 2.777 3.038 4.166 5.41 4.166 2.343 0 4.281-1.389 5.785-4.137 1.244-2.227 1.91-4.657 2.054-7.26zm-3.471 1.823c-.058 1.186-.318 2.227-.781 3.124-.608 1.128-1.446 1.678-2.517 1.678-1.128 0-1.967-.492-2.517-1.504-.433-.84-.636-1.852-.578-3.038.058-1.273.376-2.574.955-3.905.723-1.707 1.59-2.546 2.632-2.546 1.012 0 1.794.81 2.314 2.46.376 1.243.55 2.487.492 3.73zM126.223 124.887a15.298 15.298 0 0 0-1.33-7.232c-1.244-2.777-3.067-4.165-5.41-4.165s-4.281 1.388-5.785 4.137a16.199 16.199 0 0 0-2.054 7.26c-.116 2.604.318 5.005 1.33 7.232 1.244 2.777 3.038 4.166 5.41 4.166 2.343 0 4.281-1.389 5.786-4.137 1.244-2.227 1.909-4.657 2.053-7.26zm-3.47 1.823c-.059 1.186-.32 2.227-.782 3.124-.607 1.128-1.446 1.678-2.517 1.678-1.128 0-1.967-.492-2.516-1.504-.434-.84-.637-1.852-.579-3.038.058-1.273.376-2.574.955-3.905.723-1.707 1.59-2.546 2.632-2.546 1.013 0 1.794.81 2.314 2.46.376 1.243.55 2.487.492 3.73z" style="font-size:28.9278px;font-family:BadaBoom;-inkscape-font-specification:&quot;BadaBoom, Normal&quot;" transform="translate(-78.94 -110.814)"/>
  </g>
  <g style="fill:none;stroke:#000;stroke-width:2.38125">
    <path d="M92.775 119.963c.028-2.258-1.016-4.177-3.133-5.757-1.326-.96-2.653-1.44-4.036-1.44-.649 0-1.298.141-1.919.423-2.145 1.045-3.217 3.585-3.217 7.677l4.91-.903c-.028-.282-.056-.536-.056-.734 0-.818.31-1.213.932-1.213.48 0 .846.225 1.157.705.254.395.395.847.395 1.327 0 .197 0 .366-.028.564-.142.875-.932 1.75-2.4 2.625-2.709 1.608-4.346 3.217-4.882 4.797-.254.706-.367 1.496-.367 2.371 0 1.044.17 2.201.537 3.471l11.966-.592-.536-5.165-6.407.367c.31-.847.931-1.496 1.891-1.976 3.415-1.665 5.165-3.866 5.193-6.547zM108.58 123.124a14.925 14.925 0 0 0-1.299-7.056c-1.213-2.71-2.991-4.064-5.277-4.064s-4.177 1.355-5.645 4.036a15.804 15.804 0 0 0-2.004 7.084c-.112 2.54.31 4.882 1.299 7.055 1.213 2.71 2.963 4.064 5.277 4.064 2.286 0 4.177-1.354 5.645-4.036 1.213-2.173 1.862-4.543 2.003-7.083zm-3.387 1.778c-.057 1.157-.31 2.173-.762 3.048-.593 1.1-1.411 1.637-2.456 1.637-1.1 0-1.919-.48-2.455-1.468-.423-.818-.62-1.806-.564-2.963.056-1.242.366-2.512.93-3.81.706-1.665 1.553-2.484 2.57-2.484.987 0 1.749.79 2.257 2.4.367 1.213.536 2.426.48 3.64zM124.158 123.124a14.925 14.925 0 0 0-1.298-7.056c-1.214-2.71-2.992-4.064-5.278-4.064-2.286 0-4.177 1.355-5.644 4.036a15.804 15.804 0 0 0-2.004 7.084c-.113 2.54.31 4.882 1.298 7.055 1.214 2.71 2.964 4.064 5.278 4.064 2.286 0 4.177-1.354 5.644-4.036 1.214-2.173 1.863-4.543 2.004-7.083zm-3.387 1.778c-.056 1.157-.31 2.173-.762 3.048-.592 1.1-1.41 1.637-2.455 1.637-1.1 0-1.92-.48-2.455-1.468-.424-.818-.621-1.806-.565-2.963.057-1.242.367-2.512.932-3.81.705-1.665 1.552-2.484 2.568-2.484.988 0 1.75.79 2.258 2.4.366 1.213.536 2.426.48 3.64z" style="font-size:28.2222px;font-family:BadaBoom;-inkscape-font-specification:&quot;BadaBoom, Normal&quot;" transform="translate(-78.94 -110.814)"/>
  </g>
</svg>
