<svg xmlns="http://www.w3.org/2000/svg" viewBox="0 0 625.785 152.157"><path fill-rule="evenodd" d="M18.563 79.617q-.004.031-.003.063c-.037.007.003-.063.003-.063M306.274 117.9c-.963.459-1.92.932-2.897 1.362a1.3 1.3 0 0 1-.8.046c-.173-.053-.318-.286-.343-.466-.028-.176.04-.451.184-.575 1.263-1.072 2.572-.039 3.86-.377.01 0-.005.01-.005.01"/><path fill-rule="evenodd" d="M71.159 86.606c2.226-.102 4.358-.367 5.823-1.534-4.155-1.172-5.02-1.207-6.63-.029-.436.321-.258.903-.211 1.351.012.103.66.226 1.018.212m141.385-22.098c1.394.483 3.709.021 4.093-.776-.09-.173-.077-.399-.267-.462-1.386-.483-3.744-.025-4.096.794-.06.14.07.377.27.444m63.132-2.102c1.184.24 2.377.6 3.629.603 4.321.01 8.667-.106 13.003-.173.039.025.068.056.109.081l.206-.095c.807-.053 1.617-.092 2.42-.173.395-.042 1.1-.19 1.106-.268.037-.586-.6-.73-1.645-.36-.667.233-1.261.526-1.881.8a1 1 0 0 1-.102.008q-.11.004-.213.007c-.72-.477-1.199-1.235-2.135-1.408-4.524-.822-9.274-1.048-14.191-.004-.375.081-.756.339-.91.554-.074.102.315.37.604.427zm121.213 54.786c1.289.025 2.64.063 3.903-.12.681-.099 1.22-.646 1.825-.988-.63-.26-1.215-.73-1.91-.74-2.294-.04-4.283.638-4.542 1.322.24.187.44.522.724.526m17.472-.579c1.11-.095 1.404-.515.767-.91-.226-.134-.823-.26-1.055-.187-.614.201-1.116.515-1.668.787.66.116 1.325.367 1.956.31m18.314.283.316-.19c.045.087.09.175.107.302l.214-.497-.321.194c-.18-.36-.558-.41-1.156-.116.282.113.564.222.84.307m3.287-64.372c1.268.515 3.044.843 4.701.886 4.008.102 7.96-.455 11.871-1.288 1.117-.236 2.503.01 3.76.035.068.007.096-.01.124-.035 1.736-.59 3.388-.247 5.119-.183 2.187.084 4.436.08 6.663-.064.591-.039 1.234-.702 1.708-1.125.112-.103-.254-.455-.57-.558-2.345-.755-5.017-.818-7.75-.462-2.368.304-3.907 1.288-5.17 2.392l-.096.028c-.524-1.38-1.398-2.452-4.29-2.991-4.785-.9-9.661.063-14.475.116-1.41.014-2.976.78-2.819 1.355.186.677.384 1.56 1.224 1.894m47.925 65.13c1.968-.275 3.884-.716 5.812-1.104.056.046.118.077.17.127q.125-.04.241-.081c.164.197.3.44.559.48 3.354.476 6.848.455 10.372.13.84-.081 1.662-.459 2.44-.744.361-.13.92-.501.874-.533-.434-.303-.885-.72-1.51-.8-4.443-.558-8.67.112-12.735 1.467a.5.5 0 0 0-.095-.11c-.102.022-.203.043-.316.064-1.5-1.2-3.613-1.5-6.257-.723-.626.18-1.314.8-1.257 1.143.045.3 1.184.758 1.702.684m45.626.205c.76-.085 1.714-.498 2.091-.882.355-.37.417-1.055.017-1.323-.767-.505-2.052-1.21-2.948-1.1-1.635.204-3.168.923-4.684 1.48-.226.086-.113.466-.164.706 1.297 1.105 3.349 1.376 5.688 1.119M512.95 29.255c.186.021.378.039.564.064l.62.158c.198.237.4.473.598.713q.509-.149 1.026-.304-.812-.207-1.624-.409c-.13-.155-.26-.314-.389-.465-.287.091-.524.162-.795.243-4.943-.603-9.954-.554-15.777.65 8.213 1.09 10.49 1.005 15.777-.65m31.398 76.327c1.133.074 1.494-.25.857-.78-.175-.14-.744-.2-1.116-.165-.197.017-.36.32-.541.493.26.16.485.434.8.452m-27.254-79.647c.14-.017.236-.028.36-.049.44.257.852.543 1.393.716.952.31 2.023.53 3.055.78.93-.328 1.804-.674 2.678-1.016q-1.337.509-2.672 1.02c-.147-.202-.237-.41-.384-.604-.935-1.256-1.003-1.298-4.07-.896q-.1-.06-.203-.12l-.405.053c-1.122-.607-2.531-.808-4.132-.381-1.928.515-3.755 1.168-5.62 1.76.298-1.887-.215-2.427-2.548-2.42-.756.003-1.708.247-2.334.54-.93.434-.231 1.376 1.144 1.545 1.235.155 2.509.233 3.766.342 1.251-.204 2.491-.43 3.754-.606 1.984-.276 3.98-.523 5.97-.78.079.042.174.07.248.116m41.798 77.844.237-.264-.412.046s.192.222.175.218m-23.315-77.59c.547-.532.096-.698-1.161-.455l-.05.526c.416-.018 1.099.035 1.211-.07m15.226 34.1c2.057 1.002 4.673 1.15 7.328.652 2.097-.388 4.064-1.1 6.037-1.725 1.071-.338 1.505-1.442.924-1.943-.744-.639-1.894-.95-3.218-.738-2.142.342-4.222.858-8.01 1.655.028-.007-1.573.427-3.118.917-.338.11-.67.434-.66.635.012.201.407.399.717.547m14.368 2.138c2.593 1.026 5.649 1.02 8.856.48.761-1.355.04-2.389-1.838-3.137-2.238-.889-7.367.014-8.072 1.468-.175.356.451.952 1.054 1.189m.513-18.913c-2.83-1.17-6.026-1.753-9.864-.973.23.426.467.853.699 1.284 1.437.014 2.672.226 3.404.952-1.516.036-2.891-.077-3.641-.822-2.103.081-4.397.656-6.128-.278l-.095.024c.456 1.143.484 2.396 3.275 2.703 2.142.232 4.086.92 6.251 1.026 1.872.088 3.377-.645 3.37-1.88.813-.275 1.8-.48 2.357-.861.429-.286.677-1.055.372-1.175m-14.447-.211q2.054-.426 4.098-.85c-1.657-.494-2.96-.12-4.098.85m-174.075-.374c-.005-.05-.045-.092-.033-.141-.147.045-.294.077-.44.116-.85-.265-1.674-.635-2.59-.656-.965-.021-2.01.236-3.032.437-.1-.053-.209-.099-.31-.158-.19.045-.376.095-.568.144-2.451-.86-5.01-.617-7.639.222-.041-.046-.104-.074-.143-.123l-.57.102c-3.15-.952-6.376-.063-9.583.512-.039-.021-.084-.032-.12-.053-.469.056-.944.116-1.414.173-.77.042-1.541.077-2.28.035-1.7-.092-3.14.205-4.5.8-.393-.33-.477-.987-1.015-1.096-4.392-.896-8.841-1.168-13.158.822-.156-.004-.196.004-.257.007-.358-.35-.556-.918-1.06-.985-2.53-.324-5.16-.127-7.573.657-.546.18-1.047.917-.869 1.248.633 1.19 2.204 1.898 4.54 2.071 1.657-1.002 1.367-2.974 4.962-2.991.022.02.04.053.065.07.066-.032.128-.05.193-.077 4.702.194 9.36.532 14.177.282l6.775-.843c.39-.021.784-.043 1.173-.057.12-.017.239-.042.36-.063 1.112.663 2.53.783 4.204.48 1.791-.328 3.587-.66 5.38-.992.139.043.275.067.408.113.103-.035.207-.06.305-.091.746.79 2.067 1.008 3.674.72 1.35-.244 2.651-.608 3.965-.943.116.043.23.067.345.113.176-.028.358-.063.533-.099 1.62.854 3.551.762 5.623.22q.129.041.257.08c.07-.021.144-.035.215-.056.045.494.937.846 1.18.614 1.128-1.094.024-.939-1.18-.614zm-74.894.469c-3.56 1.034-6.864 2.385-10.24 3.637-.127.046-.066.48.146.579 1.414.656 3.364.606 4.867.169 3.149-.914 6.094-2.085 9.1-3.143-.63-1.08-2.206-1.729-3.873-1.242m-9.098.494c-.623-.198-1.64-.06-2.483-.074-.03.451-.343.994-.017 1.33.472.494 1.465.423 2.33 0 .888-.438 1.078-.97.17-1.256m-27.862 1.21c-.262.067-.343.37-.505.571.356.06.785.226 1.04.163.261-.07.343-.374.506-.575-.354-.064-.784-.23-1.041-.16m-8.588-.476c-2.62.268-3.849 1.39-2.747 2.988.468.275 1.168.86 2.174 1.199.465.159 2.124-.106 2.209-.275.452-.91.585-1.856.81-2.787.154-.656-1.16-1.256-2.446-1.125m-22.969 2.903c-.507-.9-.858-1.93-3.359-1.485-.583.102-1.013.568-1.511.868.333.12.637.317 1.018.352 1.28.127 2.588.194 3.891.286q1.54-.45 3.08-.903c-1.431-.194-2.074.596-3.119.882m-20.517-1.115c-3.917-.077-7.86-.067-11.791-.085l-.11.353.427-.296c.523.582.751 1.587 1.573 1.707 3.37.505 6.942.399 10.466-.38.362-.078.902-.495.845-.54-.39-.297-.864-.745-1.41-.759M.301 98.47c1.204-.296 2.453-.65 3.702-.74 7.677-.572 15.364-.996 23.033-1.645 3.559-.303 7.085-.991 10.613-1.538.282-.042.603-.377.649-.578.051-.23-.085-.635-.32-.664-1.71-.208-3.442-.42-5.211-.487-2.938-.109-3.292-1.16-3.11-2.458 8.477-1.394 17.065-1.927 25.662-2.435 2.221-.13 4.444-.54 6.65-.867.371-.057.876-.36.927-.558.047-.183-.36-.511-.686-.547-3.47-.328-6.918-.885-10.458-.85-8.707.078-16.723-1.383-25.212-1.75-.649-.028-1.476-.606-1.54-1.001-.052-.346.708-.95 1.366-1.154 2.475-.766 5.123-1.365 6.598-2.843.223-.223.6-.604.457-.692-.473-.293-1.081-.617-1.765-.684-.843-.081-1.878.2-2.699.099-.608-.075-1.462-.512-1.407-.78.103-.448.79-.907 1.345-1.32.248-.183.766-.331 1.185-.38 4.968-.604 9.935-1.394 14.911-1.722 9.523-.62 19-.893 28.284-3.147 3.787-.92 8.157-1.4 12.168-1.443 8.236-.091 16.395-1.118 24.567-1.485 6.01-.271 11.82-.974 17.63-1.898 7.6-1.217 15.27-2.148 22.985-2.656 15.019-.988 30.046-1.845 45.072-2.702 7.714-.441 15.416-.604 23.14-.992 22.304-1.122 44.656-2.307 66.862-2.272 17.64.032 35.35-.716 53.01-.991 19.07-.296 38.156-.74 57.233-1.125 7.728-.156 15.454-.276 23.188-.498 2.232-.067 4.504-.416 6.753-.66 1.274-.14 2.373-1.001 2.007-1.725-.215-.426-.682-1.012-1.308-1.1-1.663-.23-3.568-.099-5.226-.339-7.773-1.125-15.638-1.32-24.032-.656-8.114.638-16.303.462-24.448.56-4.527.057-9.025-.13-13.554-.08-13.582.137-27.206.614-40.787.709-10.873.077-21.814.42-32.734.966-7.714.389-15.383.759-23.069.727-7.672-.032-15.403.145-23.122.42-4.067.145-8.189.931-12.24 1.02-15.027.328-30.044 1.488-45.071 2.427-12.307.765-24.62 1.435-36.849 2.952-6.9.858-13.568.29-20.325.364-1.989.021-3.871-.865-6.32-.713-11.833.748-23.671 1.425-35.503 2.089-1.811.102-3.63.038-5.43 0-.37-.007-1.004-.293-.952-.388.216-.381.527-.96 1.02-1.062 2.617-.554 5.292-1.256 7.954-1.418 10.464-.625 20.86-2.3 31.358-2.283 1.345.004 2.863-.025 4.07-.346 5.734-1.538 11.733-1.439 17.572-1.77a405 405 0 0 0 24.333-2.124c-.006.038-.008.077-.018.113l.505-.145c3.836-.085 7.633-1.157 11.544-.646 2.647.35 5.216-.511 7.715-1.143 1.757-.444 3.444-.525 5.043-.042.002-.046.048-.081.062-.123 1.026.18 2.09.296 1.329-.681-.166-.205-1.17.187-1.33.68a5 5 0 0 1-.227-.038c-5.504-1.595-11.27-1.7-17.378.07-2.227.642-4.483 1.27-6.758 1.923-.106.004-.208.014-.315.014a3 3 0 0 1-.172.018c.115-.706-.099-1.454-1.573-1.496-4.494-.127-9-.028-13.523.9-2.143.44-4.447.677-6.682.825-12.703.833-25.401 1.626-38.104 2.392-3.619.222-7.237.314-10.909.469.168-.35.151-.67.425-.794.73-.324 1.622-.54 2.38-.857.356-.145.85-.554.765-.61-.455-.321-1.07-.833-1.634-.801-3.17.17-6.34.455-9.507.734-2.253.204-4.58.72-6.74.642-6.748-.244-13.546-.01-20.35.19-3.278.095-6.136-.49-8.887-1.227-.358-.1-.859-.448-.774-.519.436-.37.995-.72 1.6-1.016.334-.166.848-.318 1.259-.321 9.964-.141 19.919-1.715 29.89-1.665 2.692.014 5.448-.286 8.172-.483 4.082-.3 8.162-.741 12.24-.942 13.656-.664 27.313-1.228 40.97-1.884 2.711-.127 5.474-.367 8.148-.762 9.08-1.355 18.229-1.358 27.143-1.284 9.089.074 18.089-.272 27.172-.84 3.58-.222 7.303.067 10.704-.515 4.188-.716 8.163-.49 12.207-.653 4.076-.165 8.135.24 12.2 0 12.756-.762 25.398-.942 38.039-.705 6.706.127 13.553-.293 20.34-.526 6.76-.233 13.539-.667 20.301-.811 16.351-.357 32.721-1.404 49.09-2.392 8.629-.519 17.227-.67 25.837-.723 13.135-.078 26.324-.522 39.497-.812 4.583-.102 8.856-.628 13.236-1.943 4.679-1.404 9.696-1.345 13.957.328 1.015.398 2.125.903 3.332.97 6.64.377 13.348 1.122 19.594-1.937.857-.423 2.711-.138 3.962-.42 2.064-.462 2.6-1.361 1.652-2.642-3.805-.067-7.88-.046-11.877-.233-4.459-.208-8.833-.734-13.05 1.214-.535.25-1.837.187-2.604.042-2.43-.462-5.135-.71-6.69-1.969l-.204.18c-.124-.046-.26-.084-.383-.13q.218-.02.445-.035c.88-2.04-.22-3.521-3.59-4.396-1.709-.445-3.388-.92-5.08-1.386 4.736-.879 9.431-1.302 14.245-.812 2.103.215 4.448-.05 6.674-.074 7.7-.081 15.395-.141 23.09-.226 17.226-.19 34.306.43 51.617-.225 2.66-.103 5.293.254 7.926.426 1.082.074 1.86 1.253 1.144 1.838-.485.399-1.291.688-1.911 1.045-1.359.776-1.173 2.166.355 2.26 3.095.188 6.246.216 9.301.46 1.246.102 2.768.423 3.388.941 1.883 1.577 3.636 3.264 3.044 5.377-.102.37-1.026.949-1.669 1.033-3.247.417-6.217.198-8.833-.853-3.117-1.246-6.308-2.449-9.662-3.507-.93-.293-2.587-.102-3.85.067-.811.106-1.465.667-2.294.885-4.402 1.168-6.978 3.43-10.321 5.229-.451.243-.502.97-.203 1.305.327.36 1.251.744 1.973.74 4.977-.027 9.972-.02 14.966-.278 11.888-.617 23.517-.5 34.797 1.023 2.83.385 5.35-.324 7.3-1.88 2.914.388 5.88.783 9.087 1.206.107-1.344.203-2.522.293-3.669 2.565-.825 4.994-1.608 6.961-2.243 4.499.222 8.507.38 12.464.642 1.28.08 2.553.342 3.619.695.637.211 1.206.748 1.161 1.153-.045.378-.834.981-1.488 1.119-1.657.345-3.76.173-4.645 1.333-1.562 2.036-4.177 1.524-6.697 1.263-1.837.625-1.978 1.693-2.666 2.593-1.077 1.411-1.82 2.882-2.954 4.283-.637.79-2.046.991-3.405.67-1.865-.448-3.387-.37-4.385.878-1.082 1.348-2.689 2.04-5.4 1.637-.75-.113-1.725.1-2.712.166-1.9 1.44-4.008 2.865-5.699 4.406-.625.568-.693 1.542-.248 2.12.654.854 1.917 1.56 3.061 2.262 1.934 1.192 2.035 2.536.896 4.106-.462.635-.44 1.344-.642 2.007 4.075.854 8.202.759 12.255.664a15.7 15.7 0 0 0 7.4-2.018c1.675-.946 1.551-2.61-.535-3.122-1.16-.29-2.57-.314-3.782-.561-1.015-.208-1.91-.565-3.213-.967 2.717-1.552 5.011-2.868 7.311-4.184-.034.036.05.057.135.074-.04.046-.067.092-.107.138.412-.067.254-.102.107-.138.744-.906 1.336-1.841 2.3-2.653.71-.603 1.996-1.404 3.01-1.456 3.027-.152 3.749-1.242 4.476-2.488.406-.687.953-1.65 2.441-1.397.913.16 1.483 1.094 1.736 1.757.547 1.447-.034 2.9-1.076 4.371-.468.656-.31 1.429-.294 2.134.006.127.891.353 1.094.28 1.127-.392 2.305-.798 3.196-1.33 2.633-1.574 1.105-3.998 4.465-5.451.484.349 1.296.66 1.386 1.058.463 1.958.175 3.884-2.61 5.592-.608.37-1.38.815-1.505 1.241-.857 2.907-2.232 5.797-2.615 8.721-1.071-1.009-2.092-2.039-3.264-3.013-.406-.338-1.184-.546-1.849-.772-.761-.261-2.604.458-3.1 1.249-.451.72-.649 1.481-1.173 2.183-2.074 2.823-5.13 4.907-11.257 4.696-.733-.025-1.635.307-2.362.56-.293.096-.49.445-.468.657.017.226.254.575.553.614 1.212.155 2.53.412 3.726.26 2.204-.27 4.447-1.142 6.55-.557.863.24 1.24 1.115 1.375 1.757.051.237-1.257.9-1.871.9-2.204.017-4.374-.166-6.257-.265-4.6 1.68-8.94 3.225-13.196 4.844-.654.25-1.314.885-1.223 1.249.084.352 1.042.673 1.764.85 2.215.533 4.481 1.009 6.736 1.5l.09.165c-.778.162-1.578.388-2.288.356-6.094-.31-11.635 1.094-17.12 2.547-1.093.29-2.215.988-2.677 1.609-.812 1.087.287 2.826 1.792 3.217.722.19 1.742.353 2.48.216 2.176-.413 4.37-.872 6.365-1.514 1.629-.529 2.502-.074 3.534.265 2.683.885 5.096.24 7.452-.762 1.663-.706 2.356-1.658 2.04-2.66-.343-1.115-1.014-2.187-1.578-3.274.107-.021.214-.046.322-.064 3.201.988 6.488 1.923 8.213 3.853.614.688.699 2.254-.192 2.808-4.369 2.716-8.805 5.366-15.812 5.708-4.047.201-8.1.48-12.023 1.39-2.199.511-4.127 1.164-4.916 2.59 2.537 1.474 5.152 2.93 7.633 4.458 1.24.766.924 1.771.27 2.756-.276.426-.57.853-.857 1.28 0 .028-.028.06-.062.092l-.034.053v-.148c-1.217-.466-2.88-.424-3.404.306-1.753 2.438-3.907 2.58-6.956 1.101-.513-.247-1.72-.197-2.565-.099-3.332.381-5.913 1.514-8.241 2.89-1.77 1.04-2.047 2.222-2.227 3.503-.383 2.649-.936 2.864-5.767 2.97-1.195.025-2.66-.494-3.697.857-.062.448-.107 1.182-.294 1.909-.366 1.429-2.446 2.505-4.532 2.296-1.747-.176-3.472-.836-5.118-.67-5.626.554-10.637-.028-15.84-.744-3.76-.519-8.044-.304-12.114-.201-1.73.046-3.58.54-5.23 1.005-1.36.381-1.652 1.002-.982 1.817 1.049 1.295-1.082 2.381-2.147 3.443-.496.49-2.312.684-3.574.907-1.663.296-3.743.169-4.104 1.545-.806-2.152-3.427-3.087-7.39-3.182-.727-.021-1.41-.223-2.097-.385l-.006-.3-.372.216c.124.024.254.056.378.084-4.504.536-4.566.54-4.51 2.745.006.243.164.483.141.727-.056.73-1.629 1.344-2.796 1.143-3.128-.533-5.35-1.588-6.082-3.366-.39-.931-.203-1.965-.536-2.91-.947-2.696-4.537-4.008-9.735-3.542-1.302.116-2.83.353-3.816.818-4.667 2.205-10.169 3.846-14.245 6.47-.32.205-1.595.042-2.367-.056-.209-.028-.214-.445-.248-.688-.197-1.27.62-2.441 1.663-3.627 2.057-2.342.8-2.963-3.901-3.051-2.255-.046-4.52-.057-6.793-.014-14.052.257-28.114.525-42.177.804-15.893.318-31.778.522-47.686 1.012-16.332.501-32.634.413-49.027 1.867-1.791.158-3.613-.004-5.428 0-13.118.042-26.258.225-39.443.73-17.724.677-35.442 1.012-53.163 1.983-16.795.92-33.582 1.425-50.395 2.734-9.519.74-19.072.783-28.598 2.088-2.35.325-5.21.586-7.311-.635 4.034-.85 7.927-1.686 11.842-2.476a13.2 13.2 0 0 1 2.716-.251c2.238.025 4.447.176 6.684.194 1.326.01 2.806.046 4.01-.243 5.355-1.288 10.852-1.161 16.278-1.478 15.451-.904 30.904-1.69 46.356-2.52 5.46-.296 10.968-.835 16.369-.814 15.383.06 30.852-1.097 46.266-1.383 14.054-.268 28.167-.991 42.2-1.037 15.402-.053 30.877-.826 46.309-1.182 8.618-.205 17.27-.688 25.91-1.048 3.083-.691 6.132-.593 9.245-.54 2.604.05 5.284-.165 7.917-.395.633-.056 1.208-.638 1.81-.977-.315-.152-.584-.41-.96-.444-6.352-.568-12.272.645-18.094 2.346-.576-1.814-3.105-2.131-5.971-2.064-29.03.73-58.083 1.75-87.08 2.01-22.212.198-44.565 1.235-66.866 2.079-11.829.444-23.68 1.344-35.516 1.908-12.274.586-24.541.988-36.813 1.528-2.722.12-5.45.511-8.182.698-11.832.815-23.668 1.616-35.5 2.392-11.814.78-23.632 1.489-35.44 2.318-2.228.151-4.432.716-6.649 1.097.064.056.11.091.159.134l-.284.18s.07-.268.11-.314c-.03.007-.11.314-.11.314.313-1.609-.026-2.233-1.424-2.209-1.732.036-3.493.283-5.218.29-1.258.004-2.575-.13-3.678-.399-.562-.138-.818-.684-1-1.087-.07-.151.388-.532.726-.61 2.931-.656 5.892-1.263 8.842-1.887-.033.07-.102.127-.154.19q.196-.051.385-.11c.536.188 1.054.393 1.65.512.265.053.926-.088 1.09-.232.653-.572.276-.879-.916-.72-.625.085-1.217.268-1.824.44l-.208-.073c.954-1.094 2.336-1.965 4.369-2.586 1.518-.459 3.582-.614 4.067-1.8-.012-.955-.025-1.894-.037-3.044 3.089-.836 6.217-1.679 9.345-2.526q.125.049.248.092.15-.052.296-.099c.952.702 2.349.91 3.952.642 1.411-.24 2.77-.61 4.145-.942.083.043.164.067.247.113q.195-.063.383-.127c.448.201.886.41 1.382.568.096.029.803-.292.773-.335-.481-.74-1.31-.508-2.155-.233q-.096-.045-.2-.091l-.43.105c-2.591-1.301-5.328-.638-8.097.3-.05-.038-.108-.056-.158-.095q-.189.049-.386.102c-.988-.342-1.912-.797-3.024-.93-5.18-.636-10.509-.893-15.972-.795-3.557.064-7.18.254-10.885-.36-1.996-1.619-4.128-3.34-6.59-5.333-2.427-.427-6.79.9-8.87-1.256.202-.247.332-.508.607-.71.555-.416 1.233-.786 1.793-1.202 2.35-1.754 1.753-3.567-1.274-4.174-2.924-.589-5.934-.762-9.195-.525-4.066.289-8.134.416-12.201.568-.212.01-.511-.353-.569-.572-.05-.197.076-.582.29-.635"/><path fill-rule="evenodd" d="M387.307 53.427c-.466.176-.953.296-1.359.536-.705.423-.98.346-.78-.321.036-.113.449-.219.678-.237.49-.031.974-.004 1.46-.004.018.004 0 .025 0 .025M371.746 70.187a.4.4 0 0 1-.127-.046c.042.018.088.032.127.046M371.456 70.064q.084.038.163.077l-.152-.05zM335.73 122.754c.974-1.125 2.505-1.88 2.946-3.376.318-1.08 1.454-1.59 2.52-1.94 3.227-1.058 6.476-2.046 9.732-3.027.603-.18 1.016.138 1.104.73.032.22.04.554-.109.678-1.665 1.41-3.4 2.759-5.045 4.187-1.63 1.415-3.178 2.904-4.706 4.308-1.383-.124-2.53-.1-3.56-.353-1.026-.25-1.936-.773-2.896-1.175l-.183.198c.035-.081.099-.187.148-.286.021.021.028.035.05.056M160.416 121.096c1.112.05 2.237.04 3.346.106 1.252.078 1.833.875 2.336 1.725-4.08-.211-8.23-.08-12.414.096-4.287.183-8.701.917-12.854-.075 1.76-.518 3.558-1.29 5.232-1.248 4.782.137 9.6-.801 14.354-.604M140.83 122.948q-.28.08-.557.156l.152-.244c.137.036.27.053.405.088M356.312 107.793c1.739-.942 3.51-1.834 5.274-2.74 1.506-.78 3.009-1.57 4.536-2.315.205-.095.724-.032.784.092.176.38.366.85.25 1.241-.141.459-.494.999-.931 1.284-2.124 1.376-4.304 2.678-6.241 3.87-1.164.194-2.004.43-2.819.424-.458 0-.927-.357-1.266-.663-.385-.34-.219-.854.413-1.193M357.973 103.599c-.427.218-1.111.172-1.601.06-.484-.117-.904-.434-1.274-.738-.095-.074.039-.437.162-.631 1.496-2.378 4.043-3.542 6.925-4.706.515.24 1.274.448 1.8.871.61.49.444 1.595-.16 1.933-1.94 1.09-3.87 2.198-5.852 3.21M393.78 67.961c2.83.258 3.948 3.01 6.858 3.246.455.035.86.518 1.171.882.304.356.614.797.642 1.234.025.441-.211.98-.529 1.351-.113.13-1.072.029-1.213-.197-.815-1.327-1.831-1.397-3.232-.36-.134.099-.44.021-.698-.01q-2.126-2.82-4.251-5.642c.434-.225.882-.54 1.252-.504M125.79 123.16q-.096.02-.193.035l.1-.183c.033.042.062.099.094.148M140.273 123.104c-.101-.04-.205-.06-.307-.092.151-.053.302-.088.452-.145z"/><path fill-rule="evenodd" d="M126.51 124.02c-.297-.02-.493-.504-.72-.86 4.813-.843 9.63-1.725 14.176-.148-4.501 1.513-8.987 1.351-13.457 1.009M125.597 123.195c-.045-.014-.09-.017-.136-.031.078-.05.153-.088.229-.141zM125.461 123.164c-2.638 1.778-5.515 1.919-8.454 1.601-.23-.028-.422-.208-.634-.31.38-.321.808-.928 1.127-.914 2.643.117 5.37-1.132 7.961-.377M10.674 81.617c-.21-.046-.47-.275-.479-.452-.013-.211.148-.543.353-.677 1.472-.963 3.072-1.53 4.779-1.104.996.25 1.92.642 3.032.335-1.782.787-3.52 1.637-5.342 2.244-.674.222-1.569-.177-2.343-.346M18.545 79.634c.018-.017-.022.053-.022.053-.057.022-.11.014-.164.032z"/><path fill="none" d="M268.851 135.137c-.483-2.025-.776-3.19-1.02-4.36-.028-.149.28-.526.374-.519.261.014.621.116.717.293.927 1.707 1.601 3.496 1.51 5.5-.011.176-.272.511-.42.525-.25.021-.657-.084-.73-.25-.293-.65-.484-1.344-.431-1.19"/><path fill-rule="evenodd" d="M180.835 127.182c2.526.494 5.078-1.02 7.603-.364-2.5 1.33-5.039 1.436-7.603.364M188.71 126.878c-.09-.031-.183-.035-.272-.06.139-.077.283-.137.426-.225zM345.33 127.337c1.63-.808 3.09-.74 4.339.342-1.394 1.256-2.89 1.203-4.413.674-.184-.063-.41-.296-.381-.434a.97.97 0 0 1 .455-.582M365.427 92.705c.681.137.819.607.494 1.182-.416.74-1.076 1.238-1.986 1.26-1.09.024-2.173-.064-3.256-.11 1.048-1.747 2.494-2.784 4.748-2.332M213.994 125.39c.471-.085.993.099 1.466.229.227.06.582.332.553.381-.213.353-.508.67-.776.998-.516.053-1.115.254-1.527.113-.38-.13-.744-.607-.757-.973-.008-.223.65-.678 1.04-.748M124.364 130.244c-.367.321-.711.829-1.117.91-.48.099-1.031-.148-1.516-.307-.229-.074-.378-.296-.565-.451.438-.272.843-.66 1.317-.787 1.215-.335 1.854-.07 1.881.635M194.275 120.659c.723-.6 1.532-.61 2.331-.332.01.004-.144.53-.328.621-.495.244-1.04.43-1.583.55-.24.057-.52-.098-.78-.162.117-.229.17-.515.36-.677M1.612 82.552c.063-.37.039-.699.134-.734a25 25 0 0 1 2.329-.78c.132-.035.328.187.495.29-.183.194-.33.483-.552.557-.766.258-1.557.438-2.406.667M395.897 76.59c-.476.49-.98.536-1.337.102-.127-.155-.148-.469-.053-.663.444-.885.942-1.75 2.208-1.866.706.96-.106 1.69-.818 2.427M396.715 74.163c-.017-.021-.024-.042-.042-.067.035 0 .07.007.106.01l.032.046c-.032 0-.06.01-.096.01M397.047 87.096c.272-.272 1.037-.445 1.407-.325.664.215.477 1.284-.345 1.697-.364.183-.946-.01-1.436-.039.113-.455.067-1.023.374-1.333M57.87 120.493l-.812.808c-.247.057-.5.152-.735.145-.15-.007-.272-.166-.412-.258.413-.233.809-.494 1.24-.677.202-.085.475-.018.719-.018M200.715 126.166c1.06-.258 2.101-.43 2.485.642-.748.159-1.498.353-2.251.451-.702.096-1.044-.197-.856-.663.07-.176.39-.37.622-.43M203.489 126.885c-.073.032-.146.067-.22.096-.02-.06-.046-.113-.069-.173.06-.01.118-.028.178-.039.032.046.076.074.111.116M311.798 122.956c.71-.127 1.08.08 1.04.666a1.07 1.07 0 0 1-.292.639c-.857.836-1.912.914-2.727.233-.039-.194-.19-.434-.102-.575.451-.748 1.29-.819 2.081-.963M191.661 126.67c-.371.286-.708.72-1.122.84-.794.219-1.228-.162-1.534-.677.673-.113 1.35-.24 2.025-.329.206-.028.422.106.631.166"/><path fill-rule="evenodd" d="M188.713 126.882c-.002-.004.15-.29.15-.29.041.089.095.163.142.24-.096.018-.194.032-.292.05M183.07 120.86c.595.19 1.258.173 1.995-.01.756-.188 1.412-.05 1.799.525-1.598.794-2.703.155-3.794-.515M186.965 121.502c-.03-.053-.07-.078-.101-.127.066-.032.123-.046.189-.081.024.056.06.088.085.138a3 3 0 0 1-.173.067zM376.014 124.984c.025.145.127.385.067.423-.208.145-.472.212-.72.31-.035-.169-.155-.45-.105-.479.23-.123.5-.176.758-.254M206.753 126.48c-.41.303-.78.74-1.236.878-.804.24-1.55.13-2.028-.473.705-.306 1.396-.652 2.122-.832.332-.085.757.272 1.142.427M16.803 117.67l-.612-.048.513-.357zM50.287 121.894l-.632-.004.473-.399zM104.665 124.96c-.121.147-.21.366-.368.433-.178.074-.415.01-.63.01.127-.154.22-.373.386-.447.167-.07.406-.004.612.004M167.37 122.303c.62-.49.869-.498.814.099-.002.017-.475.014-.711.08-.451.135-.887.315-1.33.474.386-.226.876-.374 1.227-.653M175.837 121.467l-.646.07.415-.444z"/><path fill-rule="evenodd" d="M187.138 121.432c.64-.237 1.272-.484 1.92-.678.172-.05.41.13.617.201-.285.339-.503.85-.865.985-.727.271-1.352.098-1.672-.508M174.782 127.637c-.142.17-.283.342-.426.508q-.346-.028-.693-.06c.138-.166.247-.416.425-.483.2-.075.46.017.694.035M392.447 68.356c.024.035.056.07.08.11-.063.031-.133.074-.2.102.028-.124.007-.23.017-.346.043.032.074.067.12.099-.004.007-.017.025-.017.035M392.344 68.222q-1.312-1.014-1.63-2.547c1.179.543 1.736 1.383 1.63 2.547M207.58 130.699q.066.001.135.007l-.119.152c-.065-.004-.122-.01-.18-.014a3 3 0 0 1 .167-.078l-.004-.067M206.038 130.837c.377-.17.897-.04 1.378.007-.385.176-.766.366-1.167.458-.671.155-.816-.194-.21-.465M403.94 81.9c-.162.12-.314.289-.497.341-.085.025-.23-.176-.35-.271.163-.13.314-.304.498-.364.078-.028.233.187.35.293M350.34 100.992c.687.035.754.356.15.79-.144.102-.44.039-.662.053-.043-.18-.184-.41-.1-.526.117-.155.42-.328.611-.317M319.14 113.85c-.216.06-.49-.08-.738-.134.155-.194.275-.476.476-.55.177-.07.448.092.678.152-.138.183-.244.483-.417.532M296.893 123.763c.18.11.459.18.519.34.07.161-.064.405-.11.613q-.278-.177-.557-.353.075-.297.148-.6M324.964 118.796c.063-.095.099-.18.137-.264.49-.537 1.027-.815 1.754-.279.06.039-.16.487-.198.483-.515-.02-1.016-.095-1.524-.155zM334.22 117.854q-.31-.012-.62-.024.502-.222 1.009-.438zM31.58 119.385q.086-.09.176-.18c.103.43.041.47-.177.18M372.352 41.478l.015-.183.363.02-.226.096c.13.106.307.254.307.254zM182.049 120.772l.143-.388.184.063c.235.13.464.272.694.413a2.5 2.5 0 0 1-.728-.374zM385.575 63.848c.187-.459.296-.967 1.224-1.09 1.485-.198.72.86 1.09 1.262l.039.106q-1.231 0-2.473.018c-.029.028-.06.063-.089.092.007-.014-.257-.081-.257-.081q.083-.214.166-.427.146.059.3.12M219.108 120.687l-.469.219.036-.487z"/><path fill-rule="evenodd" d="M390.365 63.22c1.242.631.35 1.446.297 2.215.017.106.038.17.052.24-.945-.519-1.862-1.034-2.786-1.549l-.04-.106c.777-.398 1.225-1.435 2.477-.8M207.58 130.699c-.123-.007-.244-.018-.365-.021.229-.357.345-.332.364.021M383.617 76.375l-.194-.293.469-.06zM404.19 88.147l-.373-.236.412-.187zM324.79 117.745c.396.134.488.402.311.787-.176-.124-.384-.219-.515-.37-.05-.057.13-.272.205-.417M335.762 122.44c.032.025-.017.135-.08.258-.41-.476-.382-.586.08-.258"/><path fill="#fdfbf1" d="M62.111 147.32q2.109.806 2.946 2.976l-.124 1.799-5.302 8.34-.651 1.799q7.72 4.155 7.72 9.612 0 .279-.03.558l-.063 1.209q-.651 9.395-8.278 13.115l-.31-2.976h-.528q-1.55 0-6.077 4.155H50.36l-.062.589h2.108l-1.116 1.178-1.55-.558-2.76 1.798-6.635-3.007.496.589-.093 1.178h-.496q-2.604-.93-2.356-4.124-1.799-.744-2.79-5.395l2.666-.589-.031.59.558-.59h.527q2.542 3.008 11.193 5.364.124-1.426 6.077-4.155l.59-.62.092-1.178-1.674 1.178h-.527l.03-.589q2.915-4.03 3.07-5.953l-2.046-1.21-2.17 1.21-1.55-.62q-.652 1.798-3.287 1.798H47.57q-1.055 0-.869-2.387l-3.534-2.388q-1.054 0-.93-1.798 5.395-12.526 10.883-12.526l.124-1.799-10.666 1.798h-.527l.062-.589h1.023l.062-.62q-6.325 0-6.201-1.798l.062-.59.62-1.798-.93-1.178.03-.62 3.721-.558h1.023v.558q-2.108 0-2.201 1.21 9.519-2.388 22.79-2.388m-13.766 8.96-.062.62q-3.721 4.125-5.364 8.93h-.527l-.465-.589.03-.589q1.892-4.682 6.388-8.371m40.648-9.952q3.504 1.395 5.798 4.744l-.527.527q.838 3.69 2.636 3.69l.527-.528 1.581 6.326-.527 2.108.527 1.581q-.992 9.426-11.069 21.084-1.581 0-1.581 1.054l-.527-.527h-.527l-3.163 1.054-3.162-.527h-.528v.528l4.217 1.054v.527h-3.69l-4.743-3.69v.527l1.054 2.636h-.527q-1.613-.465-3.69-6.326h-.527v1.055l1.054 3.162q-1.984 0-3.69-13.177 4.31-20.557 7.38-20.557 0-1.55 2.108-2.636h.527q-4.216 5.178-4.216 6.853l3.69-4.744q0-1.581 11.595-5.798m-12.65 27.936v2.636l.527 5.27q13.705-12.68 13.705-23.192v-3.69l.527.528 1.581-.528v-.527l-.527-.527v-.527q-2.294 0-11.596 6.325-4.217 9.21-4.217 14.232m15.286-17.394-.527 5.798v.527h.527l1.054-4.217-.527-2.108zm-18.449.527-3.162 8.96.527 1.582-.527-.527h-.527v.527l.527 2.635h.527v-1.581l-.527-.527q1.364 0 2.635-6.852 1.055 0 1.055-2.636v-1.581zm8.961 28.463v.527h.527l2.109-.527v-.527h-1.055zm29.146-9.922 2.046 2.016-.062.589 1.147 1.116-.03.59h-1.21l-.031.588h1.21l-.063.527q-3.472.9-3.534 2.016h1.209q-.31 4.589-8.124 4.589l-1.798-.59v-2.48q1.922.775 2.418-.062l-2.76-1.457 1.861-3.69-1.55-1.488q.155-2.357 6.635-2.357 1.24 0 2.636.093m46.136-32.308q.341 1.582 4.217 1.582l4.217 18.448h3.69v.527l-3.163.527v.527q1.581 0 1.581 1.054h4.217v.528q0 1.178-5.27 2.108l1.053 3.163-.527 1.58.527 3.163-.527.528h.527l-.527.527.527 6.325v3.162l-.527-.527h-.527l1.581 7.907h-1.054q0-1.581-1.054-1.581v.527l.527 1.581h-.527l-.527-.527h-.527q0 1.581-1.054 1.581l-2.636-8.96h-.527v2.108h-.527l-1.054-6.325 1.581 1.054v-.527q-.434-4.744-1.581-4.744l.527-.527v-1.582h-1.054v1.582h-.527v-2.109l.527-.527h-.527l-.528.527v-2.108h.528l.527.527h.527l-.527-.527v-3.163l-11.597 2.636v1.054l3.69-1.054 2.109.527 2.635-.527v1.054q-11.07 1.984-11.07 5.271-1.394 5.798-3.162 7.38v1.054h-1.58l-.528-.527h-.527v.527l-1.581-1.055 1.054-3.162h-.527q-1.582 0-1.582 4.217l-1.054-1.055.527-3.162-1.581-1.581 8.96-21.611h.528q0 1.58 1.054 1.58l.527-2.635-.527.527h-.527v-2.108l.527-2.635.527.527h.527l-.527-.527v-.528l1.054-2.108h.527l.527.527h.528v-.527q0-1.054-1.582-1.054l2.636-7.38h2.108l-.527.528v.527q3.659-2.109 6.852-2.109m-3.162 12.124-4.217 11.069h1.054q5.271 0 5.798-3.163l-2.108-7.906zm-4.744 3.162-1.054 3.69-.527-.527h-.528l.528 2.108h.527l1.58-4.744v-.527zm-5.798 4.744-.527.527v1.054h.527l.527-1.581zm3.162 2.108-.527 2.109h.527l.527-.527v-1.582zm-4.744.527-.527 2.109h.527l1.055-2.109zm8.961 1.582v.527h1.054q4.744-.527 4.744-1.581h-.527zm7.38 11.596h1.054v3.163h-.527zm7.379 3.69v1.054l.527 2.108h.527v-1.054l-.527-2.108zm-5.271 1.581v1.054l1.581-.527v-1.054zm19.41-40.835.496.527v.527l.527-.527h2.635q1.054 0 .992 2.636h.528q.062-1.581 1.116-1.581t.992 1.58l3.72-.526 5.644 1.054 2.108-.527q4.03 0 6.201 4.217l-.558 3.69.496.526v.528l-1.147 3.162h-.527l.031-1.054h-.527q-4.093 9.922-11.534 13.705l-8.558 3.69-.279 8.96.434 2.635q-1.054 0-2.821 5.271l-.528.528h-.527l-4.154-2.109.682-4.217-1.52-2.108 1.303-7.38-.527-.527 1.922-10.014-.527-.528.558-.527h1.054l-.062 2.109h.527l.093-2.636-.465-1.581h1.054l.062-2.636-1.023-1.054-.062 2.109h-.527q.124-3.349-2.976-5.271l-.435-3.163.093-2.108q6.915-2.822 6.946-3.69l.03-.527-1.022-1.054-.528.527-.496-2.109.558-.527zm4.588 20.557h1.055q6.79-2.852 11.906-9.488h-1.581q-10.573.713-10.635 3.163zm13.426-7.38q-1.674 2.977-13.488 8.961l-.527.528v.527h1.055q7.782-2.388 13.487-10.015zm-21.425 11.07-.031.527.496.527-.527.527-.062 1.054h1.054l.124-2.635zm39.75-22.386h6.325q11.069 2.077 11.069 9.487v3.163l-5.271 7.38h.527l5.27-4.744v1.054q-2.697 6.015-6.851 7.906l-3.163 1.054v2.109q1.147 0 11.07 13.704 2.107.869 4.216 4.217v.527l-2.636-2.108v.527q2.636 2.79 2.636 4.217H239l-2.636 1.581h-.527l-1.054-1.581-.527.527h-.527q-10.542-8.62-14.759-17.394l-2.636-5.271q-1.86 0-2.108 6.325.341 5.27-.527 6.418-1.55 1.271-.527 2.542v1.055h-1.581q-1.055 0-1.055-2.109h-.527q0 2.109-1.984 1.582l-2.326-3.101.62-4.806v-2.108l3.163-14.76h.527v2.11h.527l2.636-11.07q-1.054 0-1.054 2.109h-.527v-1.055h-3.163v-.527q0-1.054 3.163-1.581v-.527h-1.055l-3.162 1.054h-.527q0-1.054 2.108-1.054v-.527q-2.108 0-2.108-1.581zm.527 18.975h.527q8.278-3.969 11.596-8.433v-1.055q0-1.798-6.325-3.69l-3.163 1.055zm10.542-13.177q1.054 2.387 2.108 2.635v-1.054zm3.162 3.162-.527 2.636h.527l.527-.527v-2.109zm-19.503 1.582h.528v1.58l-.528 2.11h-.527v-1.582zm17.922 2.108-2.636 3.69h.527l2.636-3.163v-.527zm5.27 1.054h1.055l-.527 1.582h-.527zm-24.246 1.582h.527v2.108h-.527zm-1.054 6.852v2.108h.527v-2.108zm15.813 15.813v.527l2.108 2.108q-1.023-2.387-2.108-2.635m2.636 3.69v.527l2.108 1.58v-.526zm26.417-25.332.899.124 1.891-.31.093-.496-.9-.155-1.89.31zm.434 5.426.899.093-.155-1.644-.9-.093zm-11.193-7.938v-.34l1.736-.435 1.271.682 2.76-.186.372.59.062-.528.372.59 5.457.154 2.697.341-.558.465-.093.528 7.008-.745-.187 1.055q-1.364-.186-1.55.868l.465.062 1.427-.341-.093.527-.528.465-.093.527q1.179.155 1.179.992 0 .093-.031.248l-8.062 1.644-.093.527 1.767.217-.062.527-5.55.372 1.179-1.457-.465-.062q-4.093-.093-4.837 1.55l-.093.527-1.799-.248-.34-.59-.125.528.372.589-1.798-.248.124-.527.527-.434.062-.527-.527.465-1.705-.217-.031-.372-3.535-1.21.186-.744h2.79l.156-.744q-1.303-.34-.993-1.736l-3.472-.961.155-.713q.34-1.52 4.496-1.675m52.616-12.247q2.109.806 2.946 2.976l-.124 1.799-5.302 8.34-.651 1.799q7.72 4.155 7.72 9.612 0 .279-.03.558l-.063 1.209q-.65 9.395-8.278 13.115l-.31-2.976h-.527q-1.55 0-6.078 4.155h-1.054l-.062.589h2.109l-1.117 1.178-1.55-.558-2.76 1.798-6.635-3.007.496.589-.093 1.178h-.496q-2.604-.93-2.356-4.124-1.798-.744-2.79-5.395l2.666-.589-.031.59.558-.59h.527q2.543 3.008 11.193 5.364.124-1.426 6.077-4.155l.59-.62.092-1.178-1.674 1.178h-.527l.031-.589q2.915-4.03 3.07-5.953l-2.047-1.21-2.17 1.21-1.55-.62q-.652 1.798-3.287 1.798h-1.054q-1.054 0-.868-2.387l-3.535-2.388q-1.054 0-.93-1.798 5.395-12.527 10.883-12.527l.124-1.798-10.666 1.798h-.527l.062-.589h1.023l.062-.62q-6.325 0-6.201-1.798l.062-.59.62-1.798-.93-1.178.03-.62 3.721-.558h1.024v.558q-2.109 0-2.202 1.21 9.519-2.388 22.79-2.388m-13.766 8.96-.062.62q-3.72 4.125-5.364 8.93h-.527l-.465-.589.03-.589q1.892-4.682 6.388-8.371m30.944 19.658 2.046 2.016-.062.589 1.147 1.116-.03.59h-1.21l-.03.588h1.208l-.062.527q-3.472.9-3.534 2.016h1.209q-.31 4.589-8.124 4.589l-1.798-.59v-2.48q1.922.775 2.418-.062l-2.76-1.457 1.861-3.69-1.55-1.488q.155-2.357 6.635-2.357 1.24 0 2.636.093m53.082-30.633h1.054l-.093 1.054-1.24 2.108-.465-.527h-.527zm-19.534.527h1.054l1.489 1.054.03-.527q2.822.527 4 2.635 1.83 0 3.783 11.07l7.286-11.07.558-.527h.528l-.031.527-7.473 13.178h1.054q8.279-16.34 9.86-16.34l1.489 1.054.03-.527q2.264 0 5.365 5.27l-.156 1.582-.558.527.465.527-.186 2.109h-1.054l.775 3.162-1.023 5.798-.155 1.582.496.527-.062.527-1.116 1.054.93 1.054-1.116 1.054.93 1.055-.558.527h-.527l.496.527L371.705 188q-1.581 0-1.705 1.58-1.582 0-1.83 2.636h-1.581l-2.977-2.108.806-3.163-.775-3.162 3.566-22.665q-2.636 2.759-5.767 11.596-.28 3.07-2.48 4.217h-.528l.031-.528.59-.527.061-.527-.496-.527 1.148-1.054.124-1.581h-1.055q-.217 2.883-2.48 4.216h-.527l-2.388-2.635q-1.395 0-1.674-4.744-2.697-5.488-2.48-7.906h-.528l-1.085 6.325-.372 4.217-.65 1.58.278 2.636-.992 11.596q-1.054 0-1.21 1.582l-2.852 2.635h-.527l-3.566-1.581.776-2.635-.031-5.799.217-2.635.558-.527-.465-.527.062-.527q.713-8.062 3.1-17.395h.527l-.496-.527.062-.527.713-2.108-.372-2.109.062-.527h.527l-.093 1.054h.527l.156-1.58-.497-.528 1.923-3.69.124-1.581-.59.527h-.526l-.466-.527.125-1.581h.527l.496.527h.527zm13.209 23.72.403 1.58h.527q.217-2.821 6.511-14.231l.744-2.636q-3.938 4.9-8.185 15.286m9.394-11.07-.558.527-1.178 13.178h.527l1.52-11.07-.497-.527h.527l-.465-.527.031-.527.59-.527.03-.527zm-3.441 27.41-.372 4.216h.527l.775-2.636-.403-1.58zm31.006-42.262q.34 1.582 4.216 1.582l4.217 18.448h3.69v.527l-3.163.527v.527q1.582 0 1.582 1.054h4.216v.528q0 1.178-5.27 2.108l1.054 3.163-.528 1.58.528 3.163-.528.528h.528l-.528.527.528 6.325v3.162l-.528-.527h-.527l1.582 7.907h-1.055q0-1.581-1.054-1.581v.527l.527 1.581h-.527l-.527-.527h-.527q0 1.581-1.054 1.581l-2.636-8.96h-.527v2.108h-.527l-1.054-6.325 1.581 1.054v-.527q-.434-4.744-1.581-4.744l.527-.527v-1.582h-1.054v1.582h-.527v-2.109l.527-.527h-.527l-.527.527v-2.108h.527l.527.527h.527l-.527-.527v-3.163l-11.596 2.636v1.054l3.69-1.054 2.108.527 2.635-.527v1.054q-11.069 1.984-11.069 5.271-1.395 5.798-3.162 7.38v1.054h-1.582l-.527-.527h-.527v.527l-1.581-1.055 1.054-3.162h-.527q-1.581 0-1.581 4.217l-1.055-1.055.527-3.162-1.58-1.581 8.96-21.611h.527q0 1.58 1.054 1.58l.527-2.635-.527.527h-.527v-2.108l.527-2.635.527.527h.527l-.527-.527v-.528l1.054-2.108h.528l.527.527h.527v-.527q0-1.054-1.582-1.054l2.636-7.38h2.108l-.527.528v.527q3.659-2.109 6.853-2.109m-3.163 12.124-4.217 11.069h1.054q5.271 0 5.798-3.163l-2.108-7.906zm-4.744 3.162-1.054 3.69-.527-.527h-.527l.527 2.108h.527l1.581-4.744v-.527zm-5.798 4.744-.527.527v1.054h.527l.527-1.581zm3.163 2.108-.528 2.109h.528l.527-.527v-1.582zm-4.744.527-.527 2.109h.527l1.054-2.109zm8.96 1.582v.527h1.055q4.743-.527 4.743-1.581h-.527zm7.38 11.596h1.054v3.163h-.527zm7.38 3.69v1.054l.526 2.108h.527v-1.054l-.527-2.108zm-5.272 1.581v1.054l1.581-.527v-1.054zm24.99-38.51q-.123 1.582 1.985 1.582l.961 2.108-.558.528h.527q-3.782 11.162-4.62 25.827l-.186 3.163.528.527-.031.527-.559.527h.528l-.559.527.31 3.69-.061 1.054q-2.822 3.41-2.946 5.271h-2.108l-2.543-1.054.744-3.69-2.015-2.108.961-7.907.527-9.487 1.147-1.582.124-2.108-.496-.527.031-.527h1.054l.031-.527-.496-.527 2.14-10.015h-.527l.558-.527.155-3.163-.496-.527.03-.527zm-5.828 9.488-.186 3.69h.527l.186-3.69zm-.806 5.271-.186 3.163h.527l.186-3.163zm-.807 4.744-.155 3.163h.528l.155-3.163zm-.093 21.084-.155 2.636 1.086-1.054.124-1.582z" aria-label="30. Apr-3. Mai" font-family="Edo SZ" font-size="63.5" letter-spacing="0" style="line-height:1.25;-inkscape-font-specification:&quot;Edo SZ&quot;" transform="rotate(-2.087 -2020.84 -2693.327)" word-spacing="0"/></svg>
