<svg xmlns="http://www.w3.org/2000/svg" width="284.89" height="37.837" viewBox="0 0 75.377 10.011"><g stroke-width=".164" aria-label="COMING SOON"><path d="M3.804.307h.108q1.58 0 2.391 1.304v.109h-.217l.109.108v.109q-.652-.077-.652-.217-2.538 0-3.804 2.608l-.217.76.326 2.065h.326q1.355 0 3.042-1.956h.11v.109q-1.158 1.668-2.61 1.956v.109h.11q1.138 0 2.825-1.956l.326.434v.326q0 .352-1.63 1.63l-.109.11H4.13v.216q1.847-.9 1.847-1.304h.218v.109q-1.368 1.63-3.152 1.63v.109h.543l.435-.109h.109v.109l-1.304.21q-.825 0-1.74-1.188v.108l.544.87v.102h-.326Q.294 8.087.11 7.045L0 5.632q0-2.723 1.087-3.478v.109L.435 3.35v.108h.109q0-1.035 2.716-2.934l-.326.109h-.108V.524zM2.608.742h.109V.85l-.76.326q0-.217.651-.434zm-.978.76v.109l-.543.543v-.108zM.326 6.72v.326l.109.435h.108v-.11L.435 6.72zM11.315.128q1.279 0 2.39.76l-.108.11v.108l.435.652h-.217l-.11-.109h-.108l.326 2.391h.109q0-.543.217-.543v.435q0 .613-1.087 2.825h.11q-.768 1.055-2.283 1.956l-.543.11h-.11q-2.582 0-3.26-2.066l-.434-.652.109-.108-.11-.761v-.218q0-.9 1.74-3.151v.109q-.8 1.074-1.304 2.39v.11h.108Q7.582 2.882 10.12.453L9.359.89H9.25q0-.499 2.065-.76zm-.543 1.847-.11-.108v.108l.11.11-.761.651q-.901 0-1.739 3.043 0 .87.978 1.522h.109q1.189 0 2.717-2.5.543-1.19.543-1.739v-.87q0-.3-1.087-.434h-.108l-.109.109h-.109v-.109zm3.151.326h.218v.544h-.218zM8.381 3.497l-.326.652h.108l.326-.652zm4.238.652-.435 1.087h.326l.326-.761-.108-.326zm.76.435-.108.326v.217h.109l.109-.435v-.108zm-6.411.434v.87h.109v-.87zm5.108.326-.435.544h.109l.434-.544zM8.598 7.735v.109l.544.326V8.06zM20.195.006h.217l-.019.218-.256.434-.095-.108h-.11zm-4.027.11h.217l.307.216.006-.108q.582.108.825.543.377 0 .78 2.282L19.805.767l.115-.109h.109l-.007.11-1.54 2.716h.217Q20.406.115 20.732.115l.307.217.006-.108q.467 0 1.106 1.086l-.032.327-.115.108.096.109-.038.435h-.218l.16.652-.21 1.195-.033.326.103.109-.013.108-.23.218.191.217-.23.217.192.218-.115.109h-.109l.103.108-.269 3.043q-.326 0-.352.326-.326 0-.377.544h-.326l-.613-.435.166-.652-.16-.652.735-4.673q-.543.569-1.189 2.39-.057.633-.511.87h-.109l.006-.109.122-.108.013-.11-.103-.108.237-.217.025-.326h-.217q-.045.594-.511.87h-.109l-.492-.544q-.288 0-.345-.978-.557-1.132-.512-1.63h-.109L16.43 4.57l-.077.87-.134.325.057.544-.204 2.39q-.218 0-.25.326l-.588.544h-.108l-.736-.326.16-.544-.006-1.195.045-.543.115-.109-.096-.109.013-.108q.147-1.662.639-3.587h.109l-.103-.108.013-.109.147-.435-.077-.434.013-.11h.109l-.02.218h.11l.031-.326-.102-.108.396-.761.026-.326-.122.108h-.108L15.586.55l.025-.326h.11l.101.108h.11zm2.723 4.89.083.326h.109q.044-.582 1.342-2.935l.154-.543q-.812 1.01-1.688 3.151zm1.937-2.283-.115.109-.243 2.717h.109l.313-2.282-.102-.109h.108l-.096-.109.007-.108.121-.11.007-.108zm-.71 5.651-.076.87h.108l.16-.543-.083-.327zM24.644.198q-.026.326.41.326l.197.435-.115.109h.109q-.78 2.301-.953 5.325l-.038.652.109.108-.007.11-.115.108h.109l-.115.108.064.761-.013.218q-.582.703-.607 1.086h-.435l-.524-.217.153-.76-.415-.435.198-1.63.109-1.957L23 4.22l.026-.434-.103-.11.007-.108h.217l.007-.108-.103-.11.441-2.064h-.108l.115-.109.032-.652-.103-.108.007-.11zm-1.202 1.956-.038.761h.109l.038-.76zm-.166 1.087-.038.652h.108l.039-.652zm-.166.978-.032.652h.109l.031-.652zm-.02 4.347-.031.544.223-.218.026-.326zM27.47.211l.76.652q0-.326.218-.326h.109l1.521 3.912v.218h-.108l-.218-.652h-.108v.217l.76 1.847h.109q.435-2.825 1.253-5.9l.326.217.326-.108.652.326v.108q-.326 0-.326.435h.109l.108.109h.11l.108-.544h.217v.109l-.109.109.11.108v.11q-.82 2.511-1.471 7.204h-.218l.218-1.74q-.218 0-.652 2.066-.403.326-.761.326v.217h-.109q0-.217-.434-.217v-.761q0-.492-2.174-5.434h-.109q-.434 1.937-.76 5.217l-.109-.109q-.652.192-.652.543h-.217q-.218-.409-.218-1.412h-.108v.978h-.218l-.108-.544q0-2.953 1.304-7.172zm-1.521 2.717v.109l.108.108-.108.109v.217h.108l.109-.434-.109-.11zm4.13 1.739q.28 0 .434.87v.108h-.109zM38.094.339l.096.108h.109L38.31.34q1.797.46 1.707 1.304l.14.652h-.216q.044-.435-.173-.435h-.109l.058.544-.02.108h-.217q-.217 0-.179-.326l-.121.109h-.109q-.543-.435-1.042-.435-1.087 0-2.525 2.282l-.345 1.196Q35 6.783 36.349 7.403l-.026.217h-.217l-.013.109h.217q.774 0 2.276-1.957l.013-.108h-.109q-.863 1.042-1.579 1.521h-.108l1.349-1.412h-.761q.025-.218-.3-.218l-.096-.109.012-.108q.02-.218 1.119-.326l.026-.218-.122.11h-.652l-.569-.762.122-.108.006-.109 1.189.109 2.857-.326.013-.109q-.543 0-.518-.217h.11l.095.108.121-.108h.11q1.156.332 1.13.543l-.006.109-.121.108-.013.109h.435l-.026.217h-.109l-1.758.218-.012.108h.108l.991-.108-.025.217q-1.087 0-1.183.87l-.518 1.738.102.109-.012.109-.173.543.02.87-.237.217.09.108q-.448.141-.487.544h-.326q-.217 0-.115-.978h-.108l-.084.76h-.326l.058-.543-.026-.76h-.217q-.62.434-1.247.434h-.543l-.185-.217.006-.109h.217l.013-.109q-2.256 0-2.442-1.521-.128-.703-.128-1.407 0-.434.051-.875l.02-.218q.096-.83.78-2.173h.108l-.025.217-.41.76-.006.11h.109q.109-.991 2.116-2.5h.109l.012-.109h-.108l-.34.109q.32-.543 2.02-.543zM35.85.99h.109l-.844.76.013-.108zm1.598.217-.006.109h.76l.007-.109zm-2.333.544-.02.108-.479.435.013-.109zm4.807 1.738h.435l-.243.218zm-3.228 3.695h.109l-.237.218h-.108zm.53 1.087.921-.435.026-.217h-.109zm-.792.326-.006.109h.543l.006-.109zM48.444 0q.288.217 1.828.217l-.006.109h-.76l-.007.109q1.361 0 1.7.652l-.013.217h-.543l-.006.109.754.108-.006.11h-.652l-.007.108q.326 0 .313.217-1.937 0-3.458 1.413l-.006.109q2.103.562 3.33 2.5l-.006.108q-.397 1.406-2.219 2.608l-.664.109-.007.109h.218q-.013.294-1.995.652l.013-.218h.543l.013-.108q-.697 0-1.26-.761-.485-.25-.485-.953 0-.064.006-.134l.339-.217.313.217h.218Q49 6.91 49.096 5.434q-1.285-.652-1.7-.652l-.007.108-1.068-.434.103.108-.007.218q-1.355-.997-1.323-1.522l.85-1.521.57-.435-.014.217zm-1.483 2.934-.007.109 1.918-1.195.882-.218.013-.217h-.217q-1.72.64-2.59 1.521zm.6 4.456h.11l.23-.217h-.109zm1.957 0-.467.543h.109l.467-.543zm-1.362.87v.108h.109l.454-.326zm-1.233.76-.007.109h.435l.55-.109v-.109h-.11zM56.128.128q1.278 0 2.39.76l-.108.11v.108l.435.652h-.217l-.11-.109h-.108l.326 2.391h.109q0-.543.217-.543v.435q0 .613-1.087 2.825h.11q-.768 1.055-2.283 1.956l-.543.11h-.11q-2.582 0-3.26-2.066l-.434-.652.109-.108-.11-.761v-.218q0-.9 1.74-3.151v.109q-.8 1.074-1.304 2.39v.11h.108q.397-1.593 2.935-4.022l-.761.435h-.109q0-.499 2.065-.76zm-.543 1.847-.11-.108v.108l.11.11-.761.651q-.901 0-1.739 3.043 0 .87.978 1.522h.109q1.189 0 2.717-2.5.543-1.19.543-1.739v-.87q0-.3-1.087-.434h-.108l-.109.109h-.109v-.109zm3.151.326h.218v.544h-.218zm-5.542 1.196-.326.652h.108l.326-.652zm4.238.652-.435 1.087h.326l.326-.761-.108-.326zm.76.435-.108.326v.217h.109l.109-.435v-.108zm-6.411.434v.87h.109v-.87zm5.108.326-.435.544h.109l.434-.544zM53.41 7.735v.109l.544.326V8.06zM64.119.128q1.278 0 2.39.76l-.108.11v.108l.435.652h-.217l-.11-.109h-.108l.326 2.391h.109q0-.543.217-.543v.435q0 .613-1.087 2.825h.11q-.768 1.055-2.283 1.956l-.543.11h-.11q-2.582 0-3.26-2.066l-.434-.652.109-.108-.11-.761v-.218q0-.9 1.74-3.151v.109q-.8 1.074-1.304 2.39v.11h.108q.397-1.593 2.935-4.022l-.761.435h-.109q0-.499 2.065-.76zm-.543 1.847-.11-.108v.108l.11.11-.761.651q-.901 0-1.739 3.043 0 .87.978 1.522h.109q1.189 0 2.717-2.5.543-1.19.543-1.739v-.87q0-.3-1.087-.434h-.108l-.109.109h-.109v-.109zm3.151.326h.218v.544h-.218zm-5.542 1.196-.326.652h.108l.326-.652zm4.238.652-.435 1.087h.326l.326-.761-.108-.326zm.76.435-.108.326v.217h.109l.109-.435v-.108zm-6.411.434v.87h.109v-.87zm5.108.326-.435.544h.109l.434-.544zm-3.478 2.391v.109l.544.326V8.06zM69.451.211l.76.652q0-.326.218-.326h.109l1.521 3.912v.218h-.108l-.218-.652h-.108v.217l.76 1.847h.109q.435-2.825 1.253-5.9l.326.217.326-.108.652.326v.108q-.326 0-.326.435h.109l.108.109h.11l.108-.544h.217v.109l-.109.109.11.108v.11q-.82 2.511-1.471 7.204h-.218l.218-1.74q-.218 0-.652 2.066-.403.326-.761.326v.217h-.109q0-.217-.434-.217v-.761q0-.492-2.174-5.434h-.109q-.434 1.937-.76 5.217l-.109-.109q-.652.192-.652.543h-.217q-.218-.409-.218-1.412h-.108v.978h-.218l-.108-.544q0-2.953 1.304-7.172zm-1.522 2.717v.109l.11.108-.11.109v.217h.11l.108-.434-.109-.11zm4.13 1.739q.281 0 .435.87v.108h-.109z"/></g></svg>