<svg xmlns="http://www.w3.org/2000/svg" viewBox="0 0 625.785 152.157"><path d="M-78.186 155.002c-.002.02-.002.042-.002.063-.038.007.002-.063.002-.063m287.711 38.283c-.963.459-1.92.931-2.897 1.362a1.302 1.302 0 0 1-.8.046c-.173-.053-.318-.286-.343-.466-.028-.176.04-.452.184-.575 1.263-1.073 2.572-.039 3.86-.378.01 0-.005.011-.005.011" style="fill:#000;fill-opacity:1;fill-rule:evenodd;stroke:none;stroke-width:.0352778" transform="translate(96.749 -75.385)"/><path d="M-25.59 161.99c2.226-.101 4.358-.366 5.823-1.534-4.155-1.17-5.02-1.206-6.63-.028-.436.321-.258.903-.211 1.351.012.103.66.226 1.018.212zm141.386-22.097c1.394.483 3.708.021 4.093-.776-.092-.173-.078-.399-.268-.462-1.386-.484-3.744-.025-4.095.793-.062.141.07.378.27.445zm63.131-2.103c1.184.24 2.377.6 3.629.604 4.321.01 8.667-.106 13.003-.173.04.024.068.056.109.08.07-.031.138-.063.206-.095.807-.052 1.617-.091 2.42-.172.395-.043 1.1-.19 1.106-.268.037-.586-.6-.73-1.645-.36-.666.233-1.261.525-1.881.8a.874.874 0 0 1-.102.007c-.072.004-.145.004-.213.007-.72-.476-1.199-1.234-2.135-1.407-4.524-.822-9.274-1.048-14.191-.004-.375.081-.756.339-.91.554-.074.102.315.37.604.427zm121.213 54.787c1.289.024 2.64.063 3.903-.12.681-.1 1.22-.646 1.825-.988-.63-.261-1.215-.73-1.91-.74-2.294-.04-4.283.638-4.542 1.322.24.187.44.522.724.526zm17.472-.579c1.11-.095 1.404-.515.767-.91-.226-.134-.823-.261-1.055-.187-.614.201-1.116.515-1.668.787.66.116 1.325.367 1.956.31zm18.314.282.316-.19c.045.088.09.176.107.303l.214-.497-.32.194c-.181-.36-.559-.41-1.157-.117.282.113.564.223.84.307zm3.287-64.371c1.268.515 3.044.843 4.701.885 4.008.103 7.96-.455 11.871-1.287 1.117-.237 2.503.01 3.76.035.068.007.096-.01.124-.035 1.737-.59 3.388-.247 5.119-.184a64.78 64.78 0 0 0 6.663-.063c.591-.039 1.234-.702 1.708-1.125.112-.103-.254-.456-.57-.558-2.345-.755-5.017-.818-7.75-.462-2.368.303-3.907 1.288-5.17 2.392-.034.01-.062.017-.096.028-.524-1.38-1.398-2.452-4.29-2.992-4.785-.9-9.661.064-14.475.117-1.41.014-2.976.78-2.819 1.355.187.677.384 1.559 1.224 1.894zm47.925 65.13c1.968-.275 3.884-.716 5.812-1.104.056.046.118.077.17.127.084-.029.163-.053.242-.081.163.197.298.44.558.48 3.354.476 6.849.454 10.372.13.84-.081 1.663-.459 2.44-.745.361-.13.92-.5.874-.532-.434-.304-.885-.72-1.51-.801-4.442-.557-8.67.113-12.734 1.468a.469.469 0 0 0-.096-.11l-.316.064c-1.5-1.2-3.613-1.5-6.257-.724-.626.18-1.313.801-1.257 1.143.045.3 1.184.759 1.702.685zm45.626.204c.76-.084 1.714-.497 2.091-.882.355-.37.417-1.054.017-1.322-.766-.505-2.052-1.21-2.948-1.101-1.635.205-3.168.924-4.684 1.482-.226.084-.113.465-.164.705 1.297 1.104 3.349 1.376 5.688 1.118zm-16.561-88.603c.186.021.377.039.563.063l.62.159c.198.236.4.473.598.713.338-.1.682-.201 1.026-.304-.541-.137-1.083-.275-1.624-.409-.13-.155-.259-.314-.389-.466-.287.092-.524.163-.794.244-4.944-.603-9.955-.554-15.778.649 8.213 1.09 10.49 1.005 15.778-.65zm31.397 76.327c1.133.074 1.494-.25.857-.78-.174-.141-.744-.201-1.116-.166-.197.018-.36.321-.541.494.26.159.485.434.8.452zm-27.254-79.647c.14-.017.236-.028.36-.05.44.258.852.544 1.393.717.952.31 2.023.529 3.055.78.93-.329 1.804-.674 2.678-1.016-.891.338-1.782.68-2.672 1.019-.147-.201-.237-.41-.384-.603-.935-1.256-1.003-1.298-4.07-.896l-.202-.12-.406.053c-1.122-.607-2.531-.808-4.132-.381-1.928.515-3.754 1.167-5.62 1.76.298-1.887-.214-2.427-2.548-2.42-.756.003-1.708.247-2.334.54-.93.434-.231 1.376 1.144 1.545 1.235.155 2.509.233 3.766.342 1.251-.205 2.491-.43 3.754-.607 1.984-.275 3.98-.522 5.97-.78.079.043.174.071.248.117zm41.798 77.844.237-.265-.412.046s.192.223.175.22zm-23.315-77.59c.547-.533.096-.698-1.16-.455l-.052.526c.418-.018 1.1.035 1.212-.07zm15.226 34.1c2.057 1.002 4.673 1.15 7.328.652 2.097-.388 4.064-1.1 6.037-1.725 1.071-.338 1.505-1.443.924-1.944-.744-.638-1.894-.949-3.218-.737-2.142.342-4.222.857-8.01 1.655.028-.007-1.573.426-3.118.917-.338.11-.67.434-.66.635.012.2.407.398.717.547zm14.368 2.137c2.593 1.027 5.649 1.02 8.856.48.761-1.354.04-2.388-1.838-3.136-2.237-.889-7.367.014-8.072 1.468-.174.356.451.952 1.054 1.188zm.513-18.912c-2.83-1.171-6.026-1.753-9.864-.974.23.427.468.854.699 1.284 1.437.015 2.672.226 3.404.953-1.516.035-2.891-.078-3.641-.822-2.103.081-4.397.656-6.127-.279l-.096.025c.456 1.143.484 2.395 3.275 2.702 2.142.233 4.086.921 6.251 1.027 1.872.088 3.377-.646 3.371-1.88.812-.276 1.798-.48 2.356-.861.429-.286.677-1.055.372-1.175zm-14.447-.212c1.37-.282 2.734-.568 4.098-.85-1.657-.494-2.96-.12-4.098.85zm-174.075-.374c-.005-.049-.045-.091-.033-.14-.147.045-.294.077-.44.116-.85-.265-1.674-.635-2.59-.656-.965-.022-2.01.236-3.032.437-.1-.053-.209-.099-.31-.159-.19.046-.376.095-.568.145-2.451-.86-5.01-.617-7.639.222-.041-.046-.104-.074-.143-.123l-.57.102c-3.15-.953-6.376-.064-9.583.512-.039-.022-.083-.032-.12-.053-.469.056-.944.116-1.414.172-.77.043-1.541.078-2.28.036-1.7-.092-3.14.204-4.5.8-.393-.331-.477-.987-1.015-1.097-4.391-.896-8.841-1.167-13.158.822-.156-.004-.196.004-.257.007-.358-.349-.556-.917-1.06-.984-2.53-.324-5.16-.127-7.573.656-.546.18-1.047.918-.869 1.25.633 1.188 2.204 1.897 4.54 2.07 1.657-1.002 1.367-2.974 4.962-2.992.022.022.04.053.065.071.066-.032.128-.05.193-.078 4.702.194 9.36.533 14.177.283 2.26-.283 4.515-.561 6.775-.843.39-.022.784-.043 1.173-.057.12-.017.239-.042.361-.063 1.111.663 2.529.783 4.203.48 1.791-.329 3.587-.66 5.38-.992.14.042.275.067.409.113.102-.035.206-.06.304-.092.746.79 2.068 1.01 3.674.72 1.35-.243 2.651-.607 3.965-.942.116.042.23.067.345.113.177-.028.358-.064.533-.099 1.62.854 3.551.762 5.623.219.085.028.172.056.257.08.07-.02.144-.034.215-.055.045.493.937.846 1.18.613 1.128-1.093.024-.938-1.18-.613zm-74.894.47c-3.56 1.033-6.864 2.384-10.24 3.637-.127.046-.066.48.146.578 1.414.656 3.364.607 4.867.17 3.149-.914 6.094-2.085 9.1-3.144-.63-1.08-2.206-1.728-3.873-1.241zm-9.098.494c-.623-.198-1.64-.06-2.483-.075-.03.452-.343.995-.017 1.33.472.494 1.465.424 2.33 0 .888-.437 1.078-.97.17-1.255zm-27.862 1.21c-.262.067-.343.37-.505.571.356.06.785.226 1.04.162.261-.07.343-.374.506-.575-.353-.063-.784-.229-1.041-.158zm-8.588-.477c-2.62.268-3.848 1.39-2.747 2.988.468.275 1.168.861 2.174 1.2.465.159 2.124-.106 2.209-.275.452-.91.585-1.856.81-2.787.154-.657-1.16-1.256-2.446-1.126zm-22.969 2.904c-.507-.9-.857-1.93-3.359-1.486-.583.103-1.013.568-1.511.868.333.12.637.318 1.018.353 1.28.127 2.588.194 3.891.286 1.026-.3 2.053-.6 3.08-.903-1.431-.194-2.074.596-3.119.882zm-20.517-1.115c-3.916-.078-7.86-.067-11.791-.085l-.11.353.427-.296c.523.582.751 1.587 1.573 1.707 3.37.505 6.942.399 10.466-.38.362-.079.902-.495.845-.54-.39-.297-.864-.745-1.41-.76zm-212.934 52.056c1.204-.297 2.453-.65 3.702-.741 7.677-.572 15.364-.995 23.033-1.644 3.559-.303 7.085-.991 10.613-1.538.282-.042.603-.378.649-.579.051-.229-.085-.635-.32-.663-1.71-.208-3.442-.42-5.211-.487-2.937-.11-3.292-1.16-3.11-2.459 8.477-1.393 17.065-1.926 25.662-2.434 2.221-.13 4.445-.54 6.65-.868.371-.056.876-.36.927-.557.047-.183-.36-.511-.686-.547-3.469-.328-6.918-.885-10.458-.85-8.707.078-16.723-1.383-25.212-1.75-.648-.028-1.476-.607-1.54-1.002-.052-.345.708-.949 1.366-1.153 2.475-.766 5.123-1.365 6.598-2.844.223-.222.6-.603.457-.691-.473-.293-1.081-.617-1.765-.684-.843-.082-1.878.2-2.698.098-.61-.074-1.463-.511-1.407-.78.102-.447.79-.906 1.344-1.319.249-.183.766-.331 1.185-.38 4.968-.604 9.935-1.394 14.911-1.722 9.523-.621 19-.893 28.284-3.147 3.787-.92 8.157-1.4 12.168-1.443 8.236-.092 16.395-1.118 24.567-1.485 6.01-.272 11.82-.974 17.63-1.898 7.6-1.217 15.27-2.148 22.985-2.656 15.019-.988 30.046-1.845 45.072-2.703 7.714-.44 15.416-.603 23.14-.991 22.304-1.122 44.656-2.307 66.862-2.272 17.64.032 35.35-.716 53.01-.991 19.07-.297 38.157-.741 57.233-1.126 7.728-.155 15.454-.275 23.188-.497 2.232-.067 4.504-.416 6.753-.66 1.274-.14 2.373-1.002 2.007-1.725-.215-.427-.682-1.012-1.308-1.1-1.663-.23-3.568-.1-5.226-.34-7.773-1.124-15.638-1.318-24.032-.655-8.113.638-16.303.462-24.448.56-4.527.057-9.025-.13-13.554-.08-13.582.137-27.206.613-40.787.709-10.873.077-21.814.42-32.734.966-7.714.388-15.383.759-23.069.727-7.672-.032-15.403.145-23.122.42-4.067.144-8.189.931-12.24 1.02-15.027.327-30.044 1.488-45.071 2.426-12.307.766-24.62 1.436-36.848 2.953-6.901.857-13.57.29-20.326.364-1.989.02-3.871-.865-6.32-.713-11.833.748-23.671 1.425-35.503 2.088-1.811.103-3.63.04-5.43 0-.37-.007-1.004-.292-.952-.388.216-.38.527-.96 1.02-1.062 2.617-.553 5.292-1.255 7.954-1.418 10.464-.624 20.86-2.3 31.358-2.282 1.345.004 2.863-.025 4.07-.346 5.734-1.538 11.733-1.44 17.572-1.77a405 405 0 0 0 24.333-2.125c-.006.04-.008.078-.018.113l.505-.144c3.836-.085 7.633-1.157 11.544-.646 2.647.35 5.216-.511 7.715-1.143 1.757-.444 3.444-.526 5.043-.042.002-.046.048-.081.062-.124 1.026.18 2.09.297 1.329-.68-.166-.205-1.17.186-1.33.68a4.532 4.532 0 0 1-.227-.038c-5.504-1.595-11.27-1.7-17.378.07-2.227.642-4.483 1.27-6.758 1.923-.106.004-.208.014-.315.014a3.174 3.174 0 0 1-.172.017c.115-.705-.099-1.453-1.572-1.495-4.495-.127-9.002-.029-13.524.9-2.143.44-4.447.677-6.682.825-12.703.832-25.4 1.626-38.104 2.392-3.619.222-7.237.314-10.908.469.167-.35.15-.67.424-.794.73-.325 1.622-.54 2.38-.857.356-.145.85-.554.765-.61-.455-.322-1.07-.833-1.634-.801-3.17.169-6.34.455-9.506.733-2.254.205-4.58.72-6.742.643-6.747-.244-13.545-.011-20.348.19-3.279.095-6.137-.49-8.888-1.228-.358-.098-.859-.448-.774-.518.436-.37.995-.72 1.6-1.016.334-.166.848-.318 1.259-.321 9.964-.141 19.919-1.715 29.89-1.665 2.692.014 5.448-.286 8.172-.484 4.082-.3 8.163-.74 12.24-.942 13.656-.663 27.313-1.227 40.97-1.883 2.711-.127 5.474-.367 8.148-.762 9.08-1.355 18.229-1.359 27.143-1.285 9.089.075 18.089-.271 27.172-.84 3.58-.221 7.303.068 10.704-.514 4.188-.716 8.164-.49 12.207-.653 4.076-.166 8.135.24 12.2 0 12.756-.762 25.398-.942 38.039-.705 6.706.127 13.553-.293 20.34-.526 6.76-.233 13.539-.667 20.301-.811 16.351-.357 32.721-1.404 49.09-2.392 8.629-.519 17.227-.67 25.837-.723 13.135-.078 26.324-.523 39.497-.812 4.583-.102 8.856-.628 13.236-1.944 4.679-1.404 9.696-1.344 13.957.328 1.015.4 2.125.904 3.332.97 6.64.378 13.348 1.122 19.594-1.936.857-.424 2.711-.138 3.963-.42 2.063-.462 2.598-1.362 1.651-2.642-3.805-.067-7.88-.046-11.877-.233-4.459-.208-8.833-.734-13.05 1.213-.535.25-1.837.187-2.604.043-2.43-.462-5.135-.71-6.69-1.969l-.204.18c-.124-.046-.26-.085-.383-.13.146-.014.293-.025.445-.036.88-2.039-.22-3.52-3.59-4.395-1.709-.445-3.388-.921-5.08-1.387 4.736-.878 9.431-1.301 14.245-.811 2.103.215 4.448-.05 6.674-.074 7.7-.081 15.395-.141 23.09-.226 17.226-.19 34.306.43 51.617-.226 2.66-.102 5.293.254 7.926.427 1.082.074 1.86 1.252 1.144 1.838-.485.399-1.29.688-1.911 1.044-1.358.776-1.172 2.166.355 2.262 3.095.187 6.246.215 9.301.458 1.246.103 2.768.424 3.388.942 1.883 1.577 3.636 3.263 3.044 5.376-.102.37-1.026.95-1.669 1.034-3.246.416-6.217.198-8.833-.854-3.117-1.245-6.307-2.448-9.661-3.506-.93-.293-2.588-.103-3.85.067-.812.106-1.466.667-2.295.885-4.402 1.168-6.978 3.43-10.321 5.228-.451.244-.502.97-.203 1.306.327.36 1.251.744 1.973.74 4.977-.028 9.972-.02 14.966-.278 11.888-.618 23.518-.501 34.797 1.023 2.83.384 5.35-.325 7.3-1.88 2.914.388 5.88.783 9.087 1.206.107-1.344.203-2.522.293-3.669 2.565-.825 4.994-1.608 6.962-2.243 4.498.222 8.506.38 12.463.642 1.28.08 2.553.342 3.619.695.637.211 1.206.747 1.161 1.153-.045.378-.834.98-1.488 1.118-1.657.346-3.76.173-4.645 1.334-1.561 2.035-4.177 1.524-6.697 1.263-1.837.624-1.978 1.693-2.666 2.593-1.077 1.41-1.82 2.882-2.954 4.283-.637.79-2.046.99-3.404.67-1.866-.448-3.388-.37-4.386.878-1.082 1.348-2.689 2.04-5.4 1.637-.75-.113-1.725.099-2.712.166-1.9 1.44-4.008 2.864-5.699 4.406-.625.568-.693 1.542-.248 2.12.654.854 1.917 1.56 3.061 2.262 1.934 1.192 2.035 2.536.896 4.106-.462.635-.44 1.344-.642 2.007 4.075.854 8.202.759 12.255.663a15.698 15.698 0 0 0 7.401-2.017c1.674-.946 1.55-2.611-.536-3.122-1.16-.29-2.57-.314-3.782-.561-1.015-.209-1.91-.565-3.213-.967 2.717-1.552 5.011-2.868 7.311-4.184-.034.035.05.056.135.074-.039.046-.067.092-.107.138.412-.067.254-.103.107-.138.745-.906 1.336-1.841 2.3-2.653.71-.603 1.996-1.404 3.01-1.457 3.028-.151 3.75-1.241 4.476-2.487.406-.688.953-1.65 2.441-1.397.913.159 1.483 1.094 1.736 1.757.547 1.446-.034 2.9-1.076 4.37-.468.657-.31 1.43-.294 2.135.006.127.891.353 1.094.279 1.127-.392 2.306-.797 3.196-1.33 2.633-1.573 1.105-3.997 4.465-5.45.484.349 1.296.66 1.386 1.058.463 1.958.175 3.884-2.61 5.591-.608.37-1.38.815-1.505 1.242-.856 2.907-2.232 5.796-2.615 8.72-1.071-1.008-2.091-2.038-3.264-3.012-.406-.339-1.184-.547-1.849-.772-.76-.261-2.604.458-3.1 1.248-.451.72-.648 1.482-1.173 2.184-2.074 2.822-5.13 4.907-11.257 4.696-.733-.025-1.634.306-2.362.56-.293.096-.49.445-.468.657.017.225.254.575.553.613 1.212.156 2.53.413 3.726.262 2.204-.272 4.448-1.143 6.55-.558.863.24 1.24 1.115 1.376 1.757.05.236-1.258.9-1.872.9-2.204.017-4.374-.166-6.257-.265-4.6 1.68-8.94 3.224-13.196 4.844-.654.25-1.314.885-1.223 1.248.084.353 1.043.674 1.764.85 2.215.533 4.481 1.01 6.736 1.5l.09.166c-.778.162-1.578.388-2.288.356-6.094-.31-11.635 1.094-17.12 2.547-1.093.29-2.215.988-2.677 1.609-.812 1.086.287 2.826 1.792 3.217.722.19 1.742.353 2.48.215 2.176-.412 4.37-.871 6.365-1.513 1.629-.53 2.502-.074 3.534.264 2.683.886 5.096.24 7.452-.762 1.663-.705 2.356-1.658 2.04-2.66-.343-1.114-1.014-2.187-1.578-3.273.107-.021.215-.046.322-.064 3.201.988 6.488 1.923 8.213 3.853.614.688.699 2.254-.192 2.808-4.369 2.716-8.805 5.365-15.812 5.708-4.047.2-8.1.48-12.023 1.39-2.199.511-4.127 1.164-4.916 2.589 2.537 1.475 5.152 2.932 7.633 4.46 1.24.765.924 1.77.27 2.754-.276.427-.57.854-.857 1.28 0 .03-.028.06-.062.093a7.814 7.814 0 0 1-.033.052v-.148c-1.218-.465-2.88-.423-3.405.307-1.753 2.438-3.907 2.579-6.956 1.1-.513-.246-1.72-.197-2.565-.098-3.331.381-5.913 1.513-8.241 2.89-1.77 1.04-2.046 2.222-2.227 3.502-.383 2.65-.936 2.865-5.766 2.97-1.196.026-2.661-.493-3.698.858-.062.448-.107 1.182-.293 1.909-.367 1.428-2.447 2.504-4.533 2.296-1.747-.176-3.472-.836-5.118-.67-5.626.554-10.637-.028-15.84-.744-3.76-.52-8.044-.304-12.114-.202-1.73.046-3.58.54-5.23 1.006-1.36.38-1.652 1.002-.982 1.817 1.049 1.294-1.082 2.38-2.147 3.443-.496.49-2.311.684-3.574.906-1.663.297-3.743.17-4.104 1.546-.806-2.152-3.427-3.087-7.39-3.182-.727-.022-1.41-.223-2.097-.385l-.006-.3-.372.215c.124.025.254.057.378.085-4.504.536-4.566.54-4.51 2.745.006.243.164.483.141.726-.056.73-1.629 1.344-2.796 1.143-3.128-.532-5.35-1.587-6.082-3.365-.389-.931-.203-1.965-.536-2.91-.947-2.696-4.537-4.008-9.735-3.542-1.302.116-2.83.352-3.816.818-4.667 2.205-10.169 3.845-14.244 6.47-.322.205-1.596.042-2.368-.056-.209-.029-.214-.445-.248-.688-.197-1.27.62-2.442 1.663-3.627 2.057-2.342.8-2.963-3.9-3.051a174.743 174.743 0 0 0-6.793-.015c-14.053.258-28.115.526-42.178.805-15.893.317-31.778.522-47.686 1.012-16.332.501-32.634.413-49.027 1.866-1.791.16-3.613-.004-5.428 0-13.117.043-26.258.226-39.443.73-17.724.678-35.442 1.013-53.162 1.983-16.796.921-33.583 1.426-50.396 2.734-9.519.741-19.072.784-28.598 2.089-2.349.324-5.21.585-7.311-.635 4.034-.85 7.927-1.686 11.842-2.477a13.22 13.22 0 0 1 2.716-.25c2.238.025 4.447.176 6.684.194 1.326.01 2.806.046 4.01-.244 5.355-1.287 10.853-1.16 16.278-1.478 15.451-.903 30.904-1.69 46.356-2.519 5.46-.296 10.968-.836 16.369-.814 15.383.06 30.852-1.098 46.266-1.383 14.054-.268 28.167-.992 42.2-1.038 15.402-.052 30.878-.825 46.309-1.181 8.618-.205 17.27-.688 25.91-1.048 3.083-.692 6.132-.593 9.245-.54 2.604.05 5.284-.166 7.917-.395.633-.056 1.208-.638 1.81-.977-.315-.152-.584-.41-.96-.445-6.352-.568-12.272.646-18.094 2.346-.576-1.813-3.105-2.13-5.97-2.063-29.03.73-58.084 1.75-87.08 2.01-22.213.198-44.566 1.235-66.867 2.078-11.829.445-23.68 1.344-35.516 1.909-12.274.585-24.54.988-36.813 1.527-2.722.12-5.45.512-8.182.699-11.832.815-23.668 1.616-35.5 2.392-11.814.78-23.631 1.488-35.44 2.317-2.228.152-4.432.717-6.649 1.098.064.056.11.091.159.134l-.284.18s.07-.269.11-.314c-.03.007-.11.314-.11.314.313-1.61-.026-2.234-1.424-2.209-1.732.035-3.493.282-5.218.29-1.258.003-2.575-.131-3.678-.4-.562-.137-.818-.684-1-1.086-.07-.151.389-.532.726-.61 2.931-.656 5.892-1.263 8.842-1.887-.033.07-.102.127-.154.19.13-.035.26-.07.385-.11.536.188 1.055.392 1.65.512.265.053.926-.088 1.09-.233.653-.571.276-.878-.915-.72-.626.085-1.218.269-1.825.442l-.208-.074c.954-1.094 2.336-1.965 4.37-2.586 1.517-.459 3.58-.614 4.066-1.8-.012-.955-.025-1.894-.037-3.044l9.345-2.526c.084.032.166.064.248.092.1-.035.198-.067.296-.099.953.702 2.349.91 3.952.642 1.411-.24 2.77-.61 4.145-.942.083.043.164.067.247.113.13-.042.258-.085.383-.127.448.201.886.41 1.382.568.096.028.803-.293.773-.335-.481-.74-1.31-.508-2.155-.233-.065-.032-.13-.06-.2-.092l-.43.106c-2.59-1.301-5.328-.638-8.097.3-.05-.039-.108-.056-.158-.095-.126.032-.254.067-.386.102-.988-.342-1.912-.797-3.024-.931-5.18-.635-10.509-.893-15.972-.794-3.557.064-7.18.254-10.885-.36-1.996-1.619-4.127-3.34-6.59-5.334-2.427-.427-6.79.9-8.87-1.256.202-.247.333-.508.607-.709.555-.416 1.233-.786 1.793-1.203 2.35-1.753 1.753-3.566-1.274-4.173-2.924-.59-5.934-.762-9.195-.526-4.066.29-8.134.417-12.201.568-.212.01-.511-.352-.569-.571-.05-.198.076-.582.29-.635" style="fill:#000;fill-opacity:1;fill-rule:evenodd;stroke:none;stroke-width:.0445937" transform="translate(96.749 -75.385)"/><path d="M290.558 128.811c-.466.177-.953.297-1.358.537-.706.423-.981.345-.78-.321.035-.113.448-.22.677-.237.49-.032.974-.004 1.46-.004.018.004 0 .025 0 .025m-15.56 16.761a.437.437 0 0 1-.127-.046c.042.017.088.032.127.046m-.29-.124c.057.025.11.053.163.078-.05-.018-.1-.032-.152-.05l-.01-.028m-35.726 52.692c.973-1.126 2.504-1.881 2.945-3.377.318-1.08 1.454-1.59 2.52-1.94 3.227-1.058 6.476-2.046 9.732-3.027.604-.18 1.016.138 1.104.73.032.219.04.554-.109.678-1.665 1.41-3.4 2.758-5.045 4.187-1.63 1.415-3.178 2.903-4.706 4.307-1.383-.123-2.53-.098-3.56-.352-1.026-.25-1.936-.773-2.895-1.175l-.184.198c.035-.082.099-.187.148-.286.021.021.028.035.05.056m-175.315-1.658c1.112.05 2.237.039 3.346.106 1.252.078 1.833.875 2.336 1.725-4.08-.212-8.23-.081-12.414.095-4.287.184-8.701.917-12.854-.074 1.76-.518 3.559-1.291 5.232-1.249 4.782.138 9.6-.8 14.354-.603m-19.586 1.852c-.186.053-.372.106-.557.155l.152-.243c.137.035.27.053.405.088m215.482-15.155c1.739-.942 3.51-1.835 5.274-2.741 1.506-.78 3.009-1.57 4.536-2.314.205-.096.724-.032.784.091.176.381.366.85.25 1.242-.141.459-.494.998-.931 1.284-2.124 1.376-4.304 2.678-6.24 3.87-1.165.194-2.005.43-2.82.423-.458 0-.927-.356-1.266-.663-.385-.338-.219-.853.413-1.192m1.661-4.195c-.427.22-1.111.173-1.601.06-.484-.116-.903-.434-1.274-.737-.095-.074.039-.437.162-.631 1.496-2.378 4.043-3.542 6.925-4.706.515.24 1.274.448 1.8.87.61.491.444 1.595-.16 1.934-1.94 1.09-3.87 2.198-5.852 3.21m35.807-35.637c2.83.257 3.948 3.009 6.858 3.245.455.036.861.519 1.171.882.304.357.614.798.642 1.235.025.441-.211.98-.529 1.351-.113.13-1.072.028-1.213-.197-.815-1.327-1.831-1.397-3.232-.36-.134.099-.44.02-.698-.01l-4.251-5.642c.434-.226.882-.54 1.252-.504M29.042 198.545c-.064.014-.13.025-.194.035l.1-.183c.033.042.062.099.094.148" style="fill:#000;fill-opacity:1;fill-rule:evenodd;stroke:none;stroke-width:.0352778" transform="translate(96.749 -75.385)"/><path d="M43.524 198.488c-.101-.038-.205-.06-.307-.091.151-.053.302-.088.452-.145a10.77 10.77 0 0 1-.145.236m-13.764.918c-.296-.022-.492-.505-.718-.861 4.812-.843 9.63-1.725 14.175-.148-4.501 1.513-8.987 1.35-13.457 1.009m-.912-.826c-.045-.014-.09-.017-.136-.032.078-.049.153-.088.229-.14l-.093.172m-.136-.032c-2.638 1.778-5.515 1.92-8.454 1.602-.23-.028-.422-.208-.634-.31.38-.321.808-.928 1.127-.914 2.643.116 5.37-1.133 7.961-.378m-114.787-41.546c-.21-.046-.47-.275-.479-.452-.013-.211.148-.543.353-.677 1.472-.963 3.073-1.531 4.779-1.104.996.25 1.92.642 3.032.335-1.782.787-3.52 1.637-5.342 2.244-.674.222-1.569-.177-2.343-.346m7.871-1.982c.018-.018-.022.052-.022.052-.057.021-.11.014-.164.032l.186-.085" style="fill:#000;fill-opacity:1;fill-rule:evenodd;stroke:none;stroke-width:.0352778" transform="translate(96.749 -75.385)"/><path d="M172.102 210.522c-.483-2.025-.776-3.19-1.02-4.36-.028-.149.28-.526.374-.52.261.015.621.117.717.294.927 1.707 1.601 3.496 1.51 5.5-.011.176-.272.51-.42.525-.25.021-.657-.085-.73-.25-.293-.65-.484-1.345-.431-1.19" style="fill:none;fill-opacity:1;fill-rule:evenodd;stroke:none;stroke-width:.0352778" transform="translate(96.749 -75.385)"/><path d="M84.086 202.567c2.526.493 5.078-1.02 7.603-.364-2.5 1.33-5.039 1.436-7.603.364m7.876-.304c-.092-.032-.184-.035-.273-.06.139-.077.283-.137.426-.226l-.153.286m156.618.459c1.63-.808 3.091-.741 4.34.342-1.394 1.256-2.89 1.203-4.413.674-.184-.064-.41-.297-.381-.434a.973.973 0 0 1 .455-.582m20.097-34.632c.681.137.819.606.494 1.181-.416.741-1.076 1.239-1.986 1.26-1.09.025-2.173-.064-3.256-.11 1.048-1.746 2.494-2.783 4.748-2.331m-151.433 32.684c.471-.084.993.1 1.466.23.227.06.582.331.553.38-.213.354-.508.671-.776 1-.516.052-1.115.253-1.527.112-.38-.13-.744-.607-.757-.974-.008-.222.65-.677 1.04-.748m-89.628 4.855c-.368.32-.712.829-1.118.91-.48.099-1.031-.148-1.516-.307-.229-.074-.378-.296-.565-.452.438-.271.843-.66 1.318-.786 1.214-.335 1.853-.07 1.88.635m69.911-9.585c.723-.6 1.532-.61 2.331-.332.01.004-.144.53-.328.621a7.12 7.12 0 0 1-1.583.55c-.24.057-.52-.098-.78-.162.117-.23.17-.515.36-.677m-192.663-38.107c.063-.37.039-.699.134-.734a24.67 24.67 0 0 1 2.329-.78c.132-.035.329.187.495.29-.183.194-.33.483-.552.557-.766.257-1.557.437-2.406.667m394.285-5.962c-.476.49-.98.536-1.337.102-.127-.155-.148-.47-.053-.663.444-.886.942-1.75 2.208-1.866.706.96-.105 1.69-.818 2.427" style="fill:#000;fill-opacity:1;fill-rule:evenodd;stroke:none;stroke-width:.0352778" transform="translate(96.749 -75.385)"/><path d="M299.966 149.548c-.017-.022-.024-.043-.042-.067.035 0 .07.007.106.01.01.014.021.028.032.046-.032 0-.06.01-.096.01m.332 12.933c.272-.271 1.037-.444 1.408-.324.663.215.476 1.284-.346 1.697-.364.183-.946-.01-1.436-.04.113-.454.067-1.022.374-1.333M-38.88 195.878c-.272.272-.543.54-.81.808-.248.056-.5.151-.736.144-.149-.007-.272-.165-.412-.257.413-.233.809-.494 1.24-.677.202-.085.475-.018.719-.018m142.845 5.672c1.06-.257 2.101-.43 2.485.643-.748.158-1.498.352-2.25.451-.703.095-1.045-.197-.857-.663.07-.176.39-.37.622-.43m2.774.719c-.073.032-.146.067-.219.095-.021-.06-.047-.112-.07-.172.06-.011.118-.029.178-.04.032.047.076.075.111.117m108.31-3.93c.708-.127 1.079.081 1.04.667a1.067 1.067 0 0 1-.293.639c-.857.836-1.912.913-2.727.232-.039-.194-.19-.433-.102-.575.451-.747 1.291-.818 2.081-.963m-120.137 3.715c-.371.286-.708.72-1.122.84-.794.218-1.228-.163-1.534-.678.674-.113 1.35-.24 2.025-.328.206-.028.422.106.631.166m-2.948.212c-.002-.004.151-.29.151-.29.04.089.094.163.14.24-.095.018-.193.032-.291.05m-5.644-6.022c.596.19 1.26.173 1.996-.01.756-.188 1.412-.05 1.799.525-1.598.794-2.703.155-3.794-.515m3.895.642c-.03-.053-.07-.078-.101-.127.066-.032.123-.046.189-.081.024.056.06.088.085.137a3.065 3.065 0 0 1-.173.067v.004m189.049 3.482c.025.144.127.384.067.423-.208.145-.472.212-.72.31-.035-.169-.155-.451-.105-.48.23-.123.5-.176.758-.253m-169.261 1.496c-.41.303-.78.74-1.236.878-.804.24-1.55.13-2.028-.473.705-.307 1.396-.652 2.122-.832.332-.085.757.271 1.142.427m-189.95-8.809-.612-.05.513-.356zm33.485 4.222-.633-.004.473-.398zm54.377 3.066c-.12.148-.21.367-.368.434-.178.074-.415.01-.63.01.127-.155.22-.373.386-.447.167-.07.406-.004.612.004m62.704-2.657c.62-.49.87-.498.815.098-.002.018-.475.015-.711.082-.45.134-.887.314-1.33.472.386-.225.876-.374 1.227-.652m8.467-.836-.646.07.415-.444zm11.302-.036c.64-.236 1.27-.483 1.92-.677.171-.05.409.13.616.201-.285.339-.503.85-.865.984-.727.272-1.352.1-1.672-.508m-12.356 6.206c-.142.169-.282.342-.426.508-.23-.018-.463-.04-.693-.06.138-.166.247-.417.425-.484.2-.074.46.018.694.036m217.665-59.282c.024.036.056.071.08.11-.063.032-.133.074-.2.103.028-.124.007-.23.017-.346.043.032.074.067.12.099-.004.007-.017.024-.017.035m-.103-.134c-.874-.677-1.418-1.524-1.63-2.547 1.179.543 1.736 1.383 1.63 2.547M110.83 206.084c.046 0 .09.004.136.007l-.119.151-.18-.014a2.77 2.77 0 0 1 .167-.077.755.755 0 0 1-.004-.067" style="fill:#000;fill-opacity:1;fill-rule:evenodd;stroke:none;stroke-width:.0352778" transform="translate(96.749 -75.385)"/><path d="M109.29 206.221c.376-.169.896-.038 1.377.007-.385.177-.766.367-1.166.459-.672.155-.817-.194-.212-.466m197.902-48.937c-.162.12-.314.29-.497.342-.085.025-.23-.176-.35-.271.163-.13.315-.304.498-.364.078-.028.233.187.35.293m-53.602 19.092c.688.036.755.357.152.79-.145.103-.441.04-.663.053-.043-.18-.184-.409-.1-.525.117-.155.42-.328.611-.318m-31.2 12.859c-.215.06-.49-.081-.737-.134.155-.194.275-.476.476-.55.177-.07.448.091.678.151-.138.184-.244.484-.417.533m-22.246 9.913c.18.11.459.18.519.339.07.162-.064.406-.11.614-.186-.117-.37-.237-.557-.353.05-.198.099-.399.148-.6m28.071-4.967c.063-.095.099-.18.137-.265.49-.536 1.027-.814 1.754-.278.06.039-.159.487-.198.483-.515-.021-1.016-.095-1.524-.155l-.17.215m9.258-.941-.621-.026c.335-.148.67-.292 1.009-.437l-.388.462M-65.17 194.77l.177-.18c.103.43.041.47-.177.18m340.773-77.907.015-.184.363.022-.226.095c.13.106.307.254.307.254l-.459-.187M85.3 196.157l.143-.388.184.063c.235.13.464.272.694.413a2.477 2.477 0 0 1-.727-.374l-.294.286m203.526-56.925c.187-.458.296-.966 1.224-1.09 1.485-.197.72.861 1.09 1.263l.039.106c-.822 0-1.644.007-2.473.018-.029.028-.06.063-.089.091.007-.014-.257-.08-.257-.08l.166-.428c.099.04.197.082.3.12m-166.466 56.84-.47.219.036-.487z" style="fill:#000;fill-opacity:1;fill-rule:evenodd;stroke:none;stroke-width:.0352778" transform="translate(96.749 -75.385)"/><path d="M293.616 138.604c1.242.632.35 1.447.297 2.216.017.106.038.17.053.24-.946-.519-1.863-1.034-2.787-1.549l-.04-.106c.777-.398 1.225-1.436 2.477-.8M110.83 206.084c-.122-.007-.243-.018-.364-.021.23-.357.345-.332.364.02m176.038-54.323-.194-.293.469-.06zm20.574 11.772-.374-.237.412-.187zm-79.4 29.598c.395.134.487.402.31.786-.176-.123-.384-.218-.515-.37-.049-.056.13-.272.205-.416m10.971 4.695c.032.025-.017.134-.08.258-.41-.476-.382-.586.08-.258" style="fill:#000;fill-opacity:1;fill-rule:evenodd;stroke:none;stroke-width:.0352778" transform="translate(96.749 -75.385)"/><g aria-label="6.-9. Juli" style="font-size:3.175px;line-height:1.25;font-family:Aller;-inkscape-font-specification:&quot;Aller, Normal&quot;;letter-spacing:0;word-spacing:0;fill:#fdfbf1;stroke-width:.264583"><path d="M140.882 167.379c.127-4.572-1.778-7.62-5.779-9.08-1.841-.699-3.81-1.017-5.778-1.017-2.223 0-4.572.445-6.985 1.334 1.714-5.27 3.81-7.874 6.413-7.874.572 0 1.207.381 1.906 1.206.571.572 1.079 1.207 1.65 1.842l5.398-9.207c-2.984-4.636-6.604-6.986-10.922-6.986-5.016 0-8.953 2.794-11.938 8.319-2.476 4.572-3.746 9.588-3.81 14.986-.063 5.461 1.08 10.477 3.429 14.986 2.858 5.524 6.731 8.318 11.748 8.318 3.873 0 7.302-1.841 10.287-5.588 2.794-3.492 4.254-7.239 4.381-11.239zm-9.207 1.968c.19.445.253.826.253 1.207 0 1.143-.889 2.159-2.603 2.985-1.016.444-1.968.698-2.794.698-2.096 0-3.683-1.587-4.699-4.699 1.016-.445 2.095-.762 3.302-1.08 0 0 .699-.19 2.095-.635.953-.317 1.588-.444 1.969-.444 1.016 0 1.841.635 2.477 1.968zM159.805 180.27c0-1.652-.762-2.922-2.222-3.81-1.334-.826-2.794-1.08-4.509-.89a8.901 8.901 0 0 0-4.572 2.096c-1.46 1.27-2.159 2.73-2.159 4.381 0 1.715.762 2.985 2.223 3.81 1.333.826 2.794 1.08 4.508.826 1.715-.254 3.239-.953 4.572-2.032 1.46-1.27 2.159-2.73 2.159-4.382zM184.697 160.077l-20.066 2.476 2.604 9.461c5.651-1.143 12.001-1.968 19.05-2.54zM222.416 151.06c0-4.255-1.714-7.747-5.143-10.351-3.239-2.477-7.049-3.556-11.367-3.239-4.381.318-8.191 2.033-11.43 5.017-3.429 3.112-5.143 6.858-5.143 11.113 0 4.381 1.714 7.81 5.143 10.414 3.239 2.476 7.049 3.492 11.43 3.175.699-.064 1.46-.127 2.35-.318l-4.128 15.24 9.97 1.842c1.587-8.192 3.937-17.272 7.048-27.115.826-1.841 1.27-3.746 1.27-5.778zm-11.557 3.238c0 2.54-2.54 4.445-5.143 4.636-2.604.19-5.08-1.397-5.08-3.937 0-2.477 2.54-4.446 5.08-4.636 1.27-.064 2.413.19 3.429.889 1.143.826 1.714 1.841 1.714 3.048zM241.149 180.27c0-1.652-.762-2.922-2.223-3.81-1.333-.826-2.794-1.08-4.508-.89a8.901 8.901 0 0 0-4.572 2.096c-1.461 1.27-2.16 2.73-2.16 4.381 0 1.715.763 2.985 2.223 3.81 1.334.826 2.794 1.08 4.509.826 1.714-.254 3.238-.953 4.572-2.032 1.46-1.27 2.159-2.73 2.159-4.382zM292.774 181.73a195.063 195.063 0 0 1-1.206-21.59c0-7.303.127-14.478.444-21.463l-10.223 1.968 1.27 31.75-7.43-1.206-3.111 10.986 5.905 1.206c3.239.699 5.017 1.016 5.398 1.016zM322.302 181.73c-.762-7.176-1.143-14.415-1.207-21.59-.063-7.176.127-14.287.445-21.463l-10.224 1.968.953 24.638-5.588 3.747a194.495 194.495 0 0 1-.19-14.986c.063-5.144.253-10.287.507-15.367l-10.223 1.969.571 38.925 7.303 3.556c1.714-1.27 3.048-2.222 4-2.794 1.842-1.333 3.239-2.222 4.128-2.73l.254 6.858zM346.178 168.649l-10.541 1.714c-.254-5.27-.381-10.604-.318-15.875.064-5.27.19-10.54.445-15.811l-10.224 1.968 1.715 43.815c8.064-2.349 14.859-3.81 20.51-4.318zM361.989 181.73a245.835 245.835 0 0 1-1.143-21.59 403.29 403.29 0 0 1 .381-21.463l-10.16 1.968 1.715 43.815z" style="font-size:63.5px;font-family:BadaBoom;-inkscape-font-specification:&quot;BadaBoom, Normal&quot;" transform="translate(96.749 -75.385)"/></g></svg>