<svg xmlns="http://www.w3.org/2000/svg" xml:space="preserve" id="Layer_1" x="0" y="0" style="enable-background:new 0 0 625.8 152.2" version="1.1" viewBox="0 0 625.8 152.2"><style>.st0{fill-rule:evenodd;clip-rule:evenodd}.st4{fill:#fff}</style><path d="M18.6 79.6s0 .1 0 0c-.1.1 0 0 0 0m287.7 38.3c-1 .5-1.9.9-2.9 1.4-.3.1-.5.1-.8 0-.2-.1-.3-.3-.3-.5s0-.5.2-.6c1.2-1 2.5 0 3.8-.3" class="st0"/><path d="M71.2 86.6c2.2-.1 4.4-.4 5.8-1.5-4.2-1.2-5-1.2-6.6 0-.4.3-.3.9-.2 1.4 0 0 .6.1 1 .1zm141.3-22.1c1.4.5 3.7 0 4.1-.8-.1-.2-.1-.4-.3-.5-1.4-.5-3.7 0-4.1.8 0 .2.1.4.3.5zm63.2-2.1c1.2.2 2.4.6 3.6.6 4.3 0 8.7-.1 13-.2l.1.1c.1 0 .1-.1.2-.1.8-.1 1.6-.1 2.4-.2.4 0 1.1-.2 1.1-.3 0-.6-.6-.7-1.6-.4-.7.2-1.3.5-1.9.8H292.3c-.7-.5-1.2-1.2-2.1-1.4-4.5-.8-9.3-1-14.2 0-.4.1-.8.3-.9.6-.1.2.3.4.6.5zm121.2 54.8c1.3 0 2.6.1 3.9-.1.7-.1 1.2-.6 1.8-1-.6-.3-1.2-.7-1.9-.7-2.3 0-4.3.6-4.5 1.3.2.2.4.5.7.5zm17.5-.6c1.1-.1 1.4-.5.8-.9-.2-.1-.8-.3-1.1-.2-.6.2-1.1.5-1.7.8.7.1 1.3.4 2 .3zm18.3.3.3-.2c0 .1.1.2.1.3l.2-.5-.3.2c-.2-.4-.6-.4-1.2-.1l.9.3zm3.3-64.4c1.3.5 3 .8 4.7.9 4 .1 8-.5 11.9-1.3 1.1-.2 2.5 0 3.8 0h.1c1.7-.6 3.4-.2 5.1-.2 2.2.1 4.4.1 6.7-.1.6 0 1.2-.7 1.7-1.1.1-.1-.3-.5-.6-.6-2.3-.8-5-.8-7.8-.5-2.4.3-3.9 1.3-5.2 2.4h-.1c-.5-1.4-1.4-2.5-4.3-3-4.8-.9-9.7.1-14.5.1-1.4 0-3 .8-2.8 1.4.2.8.4 1.7 1.3 2zm47.9 65.2c2-.3 3.9-.7 5.8-1.1.1 0 .1.1.2.1s.2-.1.2-.1c.2.2.3.4.6.5 3.4.5 6.8.5 10.4.1.8-.1 1.7-.5 2.4-.7.4-.1.9-.5.9-.5-.4-.3-.9-.7-1.5-.8-4.4-.6-8.7.1-12.7 1.5l-.1-.1-.3.1c-1.5-1.2-3.6-1.5-6.3-.7-.6.2-1.3.8-1.3 1.1 0 .2 1.2.6 1.7.6zm45.6.2c.8-.1 1.7-.5 2.1-.9.4-.4.4-1.1 0-1.3-.8-.5-2.1-1.2-2.9-1.1-1.6.2-3.2.9-4.7 1.5-.2.1-.1.5-.2.7 1.3 1 3.4 1.3 5.7 1.1zM513 29.3c.2 0 .4 0 .6.1l.6.2c.2.2.4.5.6.7.3-.1.7-.2 1-.3-.5-.1-1.1-.3-1.6-.4-.1-.2-.3-.3-.4-.5-.3 0-.6.1-.8.2-4.9-.6-10-.6-15.8.6 8.2 1.1 10.5 1 15.8-.6zm31.3 76.3c1.1.1 1.5-.2.9-.8-.2-.1-.7-.2-1.1-.2-.2 0-.4.3-.5.5.2.2.4.5.7.5zm-27.2-79.7c.1 0 .2 0 .4-.1.4.3.9.5 1.4.7 1 .3 2 .5 3.1.8.9-.3 1.8-.7 2.7-1-.9.3-1.8.7-2.7 1-.1-.2-.2-.4-.4-.6-.9-1.3-1-1.3-4.1-.9l-.2-.1-.4.1c-1.1-.6-2.5-.8-4.1-.4-1.9.5-3.8 1.2-5.6 1.8.3-1.9-.2-2.4-2.5-2.4-.8 0-1.7.2-2.3.5-.9.4-.2 1.4 1.1 1.5 1.2.2 2.5.2 3.8.3 1.3-.2 2.5-.4 3.8-.6 2-.3 4-.5 6-.8-.2.2-.1.2 0 .2zm41.8 77.9.2-.3h-.4c0 .1.2.3.2.3zm-23.3-77.6c.5-.5.1-.7-1.2-.5l-.1.5c.5 0 1.2.1 1.3 0zm15.2 34.1c2.1 1 4.7 1.1 7.3.7 2.1-.4 4.1-1.1 6-1.7 1.1-.3 1.5-1.4.9-1.9-.7-.6-1.9-.9-3.2-.7-2.1.3-4.2.9-8 1.7 0 0-1.6.4-3.1.9-.3.1-.7.4-.7.6.1 0 .5.2.8.4zm14.4 2.1c2.6 1 5.6 1 8.9.5.8-1.4 0-2.4-1.8-3.1-2.2-.9-7.4 0-8.1 1.5-.3.3.4.9 1 1.1zm.5-18.9c-2.8-1.2-6-1.8-9.9-1 .2.4.5.9.7 1.3 1.4 0 2.7.2 3.4 1-1.5 0-2.9-.1-3.6-.8-2.1.1-4.4.7-6.1-.3h-.1c.5 1.1.5 2.4 3.3 2.7 2.1.2 4.1.9 6.3 1 1.9.1 3.4-.6 3.4-1.9.8-.3 1.8-.5 2.4-.9.2-.2.5-1 .2-1.1zm-14.5-.2c1.4-.3 2.7-.6 4.1-.8-1.6-.5-2.9-.2-4.1.8zm-174-.4c-.1-.1-.3 0-.4 0-.9-.3-1.7-.6-2.6-.7-1 0-2 .2-3 .4-.1-.1-.2-.1-.3-.2-.2 0-.4.1-.6.1-2.5-.9-5-.6-7.6.2l-.1-.1-.6.1c-3.1-1-6.4-.1-9.6.5 0 0-.1 0-.1-.1-.5.1-.9.1-1.4.2-.8 0-1.5.1-2.3 0-1.7-.1-3.1.2-4.5.8-.4-.3-.5-1-1-1.1-4.4-.9-8.8-1.2-13.2.8h-.3c-.4-.3-.6-.9-1.1-1-2.5-.3-5.2-.1-7.6.7-.5.2-1 .9-.9 1.2.6 1.2 2.2 1.9 4.5 2.1 1.7-1 1.4-3 5-3 0 0 0 .1.1.1s.1-.1.2-.1c4.7.2 9.4.5 14.2.3 2.3-.3 4.5-.6 6.8-.8.4 0 .8 0 1.2-.1.1 0 .2 0 .4-.1 1.1.7 2.5.8 4.2.5 1.8-.3 3.6-.7 5.4-1 .1 0 .3.1.4.1s.2-.1.3-.1c.7.8 2.1 1 3.7.7 1.4-.2 2.7-.6 4-.9.1 0 .2.1.3.1.2 0 .4-.1.5-.1 1.6.9 3.6.8 5.6.2.1 0 .2.1.3.1-.1.3 0 .2.1.2 0 .5.9.8 1.2.6 1.1-1.1 0-.9-1.2-.6zm-74.9.5c-3.6 1-6.9 2.4-10.2 3.6-.1 0-.1.5.1.6 1.4.7 3.4.6 4.9.2 3.1-.9 6.1-2.1 9.1-3.1-.7-1.1-2.3-1.8-3.9-1.3zm-9.1.5c-.6-.2-1.6-.1-2.5-.1 0 .5-.3 1 0 1.3.5.5 1.5.4 2.3 0 .9-.4 1.1-.9.2-1.2zm-27.9 1.2c-.3.1-.3.4-.5.6.4.1.8.2 1 .2.3-.1.3-.4.5-.6-.3-.1-.7-.3-1-.2zm-8.6-.5c-2.6.3-3.8 1.4-2.7 3 .5.3 1.2.9 2.2 1.2.5.2 2.1-.1 2.2-.3.5-.9.6-1.9.8-2.8.1-.6-1.2-1.2-2.5-1.1zm-22.9 2.9c-.5-.9-.9-1.9-3.4-1.5-.6.1-1 .6-1.5.9.3.1.6.3 1 .4 1.3.1 2.6.2 3.9.2 1.1-.3 2.1-.6 3.1-.9-1.5-.1-2.1.6-3.1.9zm-20.6-1.1c-3.9-.1-7.9-.1-11.8-.1l-.1.4.4-.3c.5.6.8 1.6 1.6 1.7 3.4.5 6.9.4 10.5-.4.4-.1.9-.5.8-.5-.3-.3-.8-.8-1.4-.8zM.3 98.5c1.2-.3 2.5-.6 3.7-.7 7.7-.6 15.4-1 23-1.6 3.6-.3 7.1-1 10.6-1.5.3 0 .6-.4.6-.6.1-.2-.1-.6-.3-.7-1.7-.2-3.4-.4-5.2-.5-2.9-.1-3.3-1.2-3.1-2.5 8.5-1.4 17.1-1.9 25.7-2.4 2.2-.1 4.4-.5 6.7-.9.4-.1.9-.4.9-.6s-.4-.5-.7-.5c-3.5-.3-6.9-.9-10.5-.9-8.7.1-16.7-1.4-25.2-1.7-.6 0-1.5-.6-1.5-1-.1-.3.7-.9 1.4-1.2 2.5-.8 5.1-1.4 6.6-2.8.2-.2.6-.6.5-.7-.5-.3-1.1-.6-1.8-.7-.8-.1-1.9.2-2.7.1-.6-.1-1.5-.5-1.4-.8.1-.4.8-.9 1.3-1.3.2-.2.8-.3 1.2-.4C35 74 40 73.2 45 72.9c9.5-.6 19-.9 28.3-3.1 3.8-.9 8.2-1.4 12.2-1.4 8.2-.1 16.4-1.1 24.6-1.5 6-.3 11.8-1 17.6-1.9 7.6-1.2 15.3-2.1 23-2.7 15-1 30-1.8 45.1-2.7 7.7-.4 15.4-.6 23.1-1 22.3-1.1 44.7-2.3 66.9-2.3 17.6 0 35.4-.7 53-1 19.1-.3 38.2-.7 57.2-1.1 7.7-.2 15.5-.3 23.2-.5 2.2-.1 4.5-.4 6.8-.7 1.3-.1 2.4-1 2-1.7-.2-.4-.7-1-1.3-1.1-1.7-.2-3.6-.1-5.2-.3-7.8-1.1-15.6-1.3-24-.7-8.1.6-16.3.5-24.4.6-4.5.1-9-.1-13.6-.1-13.6.1-27.2.6-40.8.7-10.9.1-21.8.4-32.7 1-7.7.4-15.4.8-23.1.7-7.7 0-15.4.1-23.1.4-4.1.1-8.2.9-12.2 1-15 .3-30 1.5-45.1 2.4-12.3.8-24.6 1.4-36.8 3-6.9.9-13.6.3-20.3.4-2 0-3.9-.9-6.3-.7-12.1.7-24 1.4-35.8 2-1.8.1-3.6 0-5.4 0-.4 0-1-.3-1-.4.2-.4.5-1 1-1.1 2.6-.6 5.3-1.3 8-1.4 10.5-.6 20.9-2.3 31.4-2.3 1.3 0 2.9 0 4.1-.3 5.7-1.5 11.7-1.4 17.6-1.8 8.1-.5 16.2-1.2 24.3-2.1v.1l.5-.1c3.8-.1 7.6-1.2 11.5-.6 2.6.3 5.2-.5 7.7-1.1 1.8-.4 3.4-.5 5 0 0 0 0-.1.1-.1 1 .2 2.1.3 1.3-.7-.2-.2-1.2.2-1.3.7h-.2c-5.5-1.6-11.3-1.7-17.4.1-2.2.6-4.5 1.3-6.8 1.9h-.5c.1-.7-.1-1.5-1.6-1.5-4.5-.1-9 0-13.5.9-2.1.4-4.4.7-6.7.8L103.3 54c-3.6.2-7.2.3-10.9.5.2-.4.2-.7.4-.8.7-.3 1.6-.5 2.4-.9.4-.1.8-.6.8-.6-.5-.3-1.1-.8-1.6-.8-3.2.2-6.3.5-9.5.7-2.3.2-4.6.7-6.7.6-6.7-.2-13.5 0-20.3.2-3.3.1-6.1-.5-8.9-1.2-.4-.1-.9-.4-.8-.5.4-.4 1-.7 1.6-1 .3-.2.8-.3 1.3-.3 10-.1 19.9-1.7 29.9-1.7 2.7 0 5.4-.3 8.2-.5 4.1-.3 8.2-.7 12.2-.9 13.7-.7 27.3-1.2 41-1.9 2.7-.1 5.5-.4 8.1-.8 9.1-1.4 18.2-1.4 27.1-1.3 9.1.1 18.1-.3 27.2-.8 3.6-.2 7.3.1 10.7-.5 4.2-.7 8.2-.5 12.2-.7 4.1-.2 8.1.2 12.2 0 12.8-.8 25.4-.9 38-.7 6.7.1 13.6-.3 20.3-.5 6.8-.2 13.5-.7 20.3-.8 16.4-.4 32.7-1.4 49.1-2.4 8.6-.5 17.2-.7 25.8-.7 13.1-.1 26.3-.5 39.5-.8 4.6-.1 8.9-.6 13.2-1.9 4.7-1.4 9.7-1.3 14 .3 1 .4 2.1.9 3.3 1 6.6.4 13.3 1.1 19.6-1.9.9-.4 2.7-.1 4-.4 2.1-.5 2.6-1.4 1.7-2.6-3.8-.1-7.9 0-11.9-.2-4.5-.2-8.8-.7-13 1.2-.5.2-1.8.2-2.6 0-2.4-.5-5.1-.7-6.7-2l-.2.2c-.1 0-.3-.1-.4-.1h.4c.9-2-.2-3.5-3.6-4.4-1.7-.4-3.4-.9-5.1-1.4 4.7-.9 9.4-1.3 14.2-.8 2.1.2 4.4-.1 6.7-.1 7.7-.1 15.4-.1 23.1-.2 17.2-.2 34.3.4 51.6-.2 2.7-.1 5.3.3 7.9.4 1.1.1 1.9 1.3 1.1 1.8-.5.4-1.3.7-1.9 1-1.4.8-1.2 2.2.4 2.3 3.1.2 6.2.2 9.3.5 1.2.1 2.8.4 3.4.9 1.9 1.6 3.6 3.3 3 5.4-.1.4-1 .9-1.7 1-3.2.4-6.2.2-8.8-.9-3.1-1.2-6.3-2.4-9.7-3.5-.9-.3-2.6-.1-3.8.1-.8.1-1.5.7-2.3.9-4.4 1.2-7 3.4-10.3 5.2-.5.2-.5 1-.2 1.3.3.4 1.3.7 2 .7 5 0 10 0 15-.3 11.9-.6 23.5-.5 34.8 1 2.8.4 5.4-.3 7.3-1.9 2.9.4 5.9.8 9.1 1.2.1-1.3.2-2.5.3-3.7 2.6-.8 5-1.6 7-2.2 4.5.2 8.5.4 12.5.6 1.3.1 2.6.3 3.6.7.6.2 1.2.7 1.2 1.2 0 .4-.8 1-1.5 1.1-1.7.3-3.8.2-4.6 1.3-1.6 2-4.2 1.5-6.7 1.3-1.8.6-2 1.7-2.7 2.6-1.1 1.4-1.8 2.9-3 4.3-.6.8-2 1-3.4.7-1.9-.4-3.4-.4-4.4.9-1.1 1.3-2.7 2-5.4 1.6-.8-.1-1.7.1-2.7.2-1.9 1.4-4 2.9-5.7 4.4-.6.6-.7 1.5-.2 2.1.7.9 1.9 1.6 3.1 2.3 1.9 1.2 2 2.5.9 4.1-.5.6-.4 1.3-.6 2 4.1.9 8.2.8 12.3.7 2.6 0 5.1-.7 7.4-2 1.7-.9 1.5-2.6-.5-3.1-1.2-.3-2.6-.3-3.8-.6-1-.2-1.9-.6-3.2-1 2.7-1.6 5-2.9 7.3-4.2 0 0 0 .1.1.1l-.1.1c.4-.1.3-.1.1-.1.7-.9 1.3-1.8 2.3-2.7.7-.6 2-1.4 3-1.5 3-.2 3.8-1.2 4.5-2.5.4-.7 1-1.7 2.4-1.4.9.2 1.5 1.1 1.7 1.8.5 1.4 0 2.9-1.1 4.4-.5.7-.3 1.4-.3 2.1 0 .1.9.4 1.1.3 1.1-.4 2.3-.8 3.2-1.3 2.6-1.6 1.1-4 4.5-5.4.5.3 1.3.7 1.4 1.1.5 2 .2 3.9-2.6 5.6-.6.4-1.4.8-1.5 1.2-.9 2.9-2.2 5.8-2.6 8.7-1.1-1-2.1-2-3.3-3-.4-.3-1.2-.5-1.8-.8-.8-.3-2.6.5-3.1 1.2s-.6 1.5-1.2 2.2c-2.1 2.8-5.1 4.9-11.3 4.7-.7 0-1.6.3-2.4.6-.3.1-.5.4-.5.7 0 .2.3.6.6.6 1.2.2 2.5.4 3.7.3 2.2-.3 4.4-1.1 6.5-.6.9.2 1.2 1.1 1.4 1.8 0 .2-1.3.9-1.9.9-2.2 0-4.4-.2-6.3-.3-4.6 1.7-8.9 3.2-13.2 4.8-.7.2-1.3.9-1.2 1.2.1.4 1 .7 1.8.9 2.2.5 4.5 1 6.7 1.5l.1.2c-.8.2-1.6.4-2.3.4-6.1-.3-11.6 1.1-17.1 2.5-1.1.3-2.2 1-2.7 1.6-.8 1.1.3 2.8 1.8 3.2.7.2 1.7.4 2.5.2 2.2-.4 4.4-.9 6.4-1.5 1.6-.5 2.5-.1 3.5.3 2.7.9 5.1.2 7.5-.8 1.7-.7 2.4-1.7 2-2.7-.3-1.1-1-2.2-1.6-3.3.1 0 .2 0 .3-.1 3.2 1 6.5 1.9 8.2 3.9.6.7.7 2.3-.2 2.8-4.4 2.7-8.8 5.4-15.8 5.7-4 .2-8.1.5-12 1.4-2.2.5-4.1 1.2-4.9 2.6 2.5 1.5 5.2 2.9 7.6 4.5 1.2.8.9 1.8.3 2.8-.3.4-.6.9-.9 1.3 0 0 0 .1-.1.1v.1-.1c-1.2-.5-2.9-.4-3.4.3-1.8 2.4-3.9 2.6-7 1.1-.5-.2-1.7-.2-2.6-.1-3.3.4-5.9 1.5-8.2 2.9-1.8 1-2 2.2-2.2 3.5-.4 2.6-.9 2.9-5.8 3-1.2 0-2.7-.5-3.7.9-.1.4-.1 1.2-.3 1.9-.4 1.4-2.4 2.5-4.5 2.3-1.7-.2-3.5-.8-5.1-.7-5.6.6-10.6 0-15.8-.7-3.8-.5-8-.3-12.1-.2-1.7 0-3.6.5-5.2 1-1.4.4-1.7 1-1 1.8 1 1.3-1.1 2.4-2.1 3.4-.5.5-2.3.7-3.6.9-1.7.3-3.7.2-4.1 1.5-.8-2.2-3.4-3.1-7.4-3.2-.7 0-1.4-.2-2.1-.4v-.3l-.4.2c.1 0 .3.1.4.1-4.5.5-4.6.5-4.5 2.7 0 .2.2.5.1.7-.1.7-1.6 1.3-2.8 1.1-3.1-.5-5.4-1.6-6.1-3.4-.4-.9-.2-2-.5-2.9-.9-2.7-4.5-4-9.7-3.5-1.3.1-2.8.4-3.8.8-4.7 2.2-10.2 3.8-14.2 6.5-.3.2-1.6 0-2.4-.1-.2 0-.2-.4-.2-.7-.2-1.3.6-2.4 1.7-3.6 2.1-2.3.8-3-3.9-3.1-2.3 0-4.5-.1-6.8 0-14.1.3-28.1.5-42.2.8-15.9.3-31.8.5-47.7 1-16.3.5-32.6.4-49 1.9-1.8.2-3.6 0-5.4 0-13.1 0-26.3.2-39.4.7-17.7.7-35.4 1-53.2 2-16.8.9-33.6 1.4-50.4 2.7-9.5.7-19.1.8-28.6 2.1-2.3.3-5.2.6-7.3-.6 4-.9 7.9-1.7 11.8-2.5.9-.2 1.8-.3 2.7-.2 2.2 0 4.4.2 6.7.2 1.3 0 2.8 0 4-.2 5.4-1.3 10.9-1.2 16.3-1.5 15.5-.9 30.9-1.7 46.4-2.5 5.5-.3 11-.8 16.4-.8 15.4.1 30.9-1.1 46.3-1.4 14.1-.3 28.2-1 42.2-1 15.4-.1 30.9-.8 46.3-1.2 8.6-.2 17.3-.7 25.9-1 3.1-.7 6.1-.6 9.2-.5 2.6.1 5.3-.2 7.9-.4.6-.1 1.2-.6 1.8-1-.3-.2-.6-.4-1-.4-6.4-.6-12.3.6-18.1 2.3-.6-1.8-3.1-2.1-6-2.1-29 .7-58.1 1.8-87.1 2-22.2.2-44.6 1.2-66.9 2.1-11.8.4-23.7 1.3-35.5 1.9-12.3.6-24.5 1-36.8 1.5-2.7.1-5.4.5-8.2.7-11.8.8-23.7 1.6-35.5 2.4s-23.6 1.5-35.4 2.3c-2.2.2-4.4.7-6.6 1.1.1.1.1.1.2.1l-.3.2.1-.3-.1.3c.3-1.6 0-2.2-1.4-2.2-1.7 0-3.5.3-5.2.3-1.3 0-2.6-.1-3.7-.4-.6-.1-.8-.7-1-1.1-.1-.2.4-.5.7-.6 2.9-.7 5.9-1.3 8.8-1.9 0 .1-.1.1-.2.2.1 0 .3-.1.4-.1.5.2 1.1.4 1.7.5.3.1.9-.1 1.1-.2.7-.6.3-.9-.9-.7-.6.1-1.2.3-1.8.4l-.2-.1c1-1.1 2.3-2 4.4-2.6 1.5-.5 3.6-.6 4.1-1.8v-3l9.3-2.5c.1 0 .2.1.2.1.1 0 .2-.1.3-.1 1 .7 2.3.9 4 .6 1.4-.2 2.8-.6 4.1-.9.1 0 .2.1.2.1.1 0 .3-.1.4-.1.4.2.9.4 1.4.6.1 0 .8-.3.8-.3-.5-.7-1.3-.5-2.2-.2-.1 0-.1-.1-.2-.1l-.4.1c-2.6-1.3-5.3-.6-8.1.3 0 0-.1-.1-.2-.1s-.3.1-.4.1c-1-.3-1.9-.8-3-.9-5.2-.6-10.5-.9-16-.8-3.6.1-7.2.3-10.9-.4-2-1.6-4.1-3.3-6.6-5.3-2.4-.4-6.8.9-8.9-1.3.2-.2.3-.5.6-.7l1.8-1.2c2.3-1.8 1.8-3.6-1.3-4.2-2.9-.6-5.9-.8-9.2-.5-4.1.3-8.1.4-12.2.6-.2 0-.5-.4-.6-.6-.1-.6 0-1 .2-1" class="st0"/><path d="M387.3 53.4c-.5.2-1 .3-1.4.5-.7.4-1 .3-.8-.3 0-.1.4-.2.7-.2h1.5m-15.6 16.8h-.1.1m-.2-.1c.1 0 .1.1.2.1-.1-.1-.2-.1-.2-.1m-35.8 52.7c1-1.1 2.5-1.9 2.9-3.4.3-1.1 1.5-1.6 2.5-1.9 3.2-1.1 6.5-2 9.7-3 .6-.2 1 .1 1.1.7 0 .2 0 .6-.1.7-1.7 1.4-3.4 2.8-5 4.2-1.6 1.4-3.2 2.9-4.7 4.3-1.4-.1-2.5-.1-3.6-.4-.9-.3-1.8-.8-2.8-1.2l-.2.2c.1-.1.1-.2.2-.2 0-.1 0-.1 0 0m-175.3-1.7c1.1.1 2.2 0 3.3.1 1.3.1 1.8.9 2.3 1.7-4.1-.2-8.2-.1-12.4.1-4.3.2-8.7.9-12.9-.1 1.8-.5 3.6-1.3 5.2-1.2 4.9.1 9.8-.8 14.5-.6m-19.6 1.8c-.2.1-.4.1-.6.2l.2-.2h.4m215.5-15.1c1.7-.9 3.5-1.8 5.3-2.7 1.5-.8 3-1.6 4.5-2.3.2-.1.7 0 .8.1.2.4.4.9.2 1.2-.1.5-.5 1-.9 1.3-2.1 1.4-4.3 2.7-6.2 3.9-1.2.2-2 .4-2.8.4-.5 0-.9-.4-1.3-.7-.4-.4-.2-.9.4-1.2m1.7-4.2c-.4.2-1.1.2-1.6.1s-.9-.4-1.3-.7c-.1-.1 0-.4.2-.6 1.5-2.4 4-3.5 6.9-4.7.5.2 1.3.4 1.8.9.6.5.4 1.6-.2 1.9-1.9 1-3.8 2.1-5.8 3.1M393.8 68c2.8.3 3.9 3 6.9 3.2.5 0 .9.5 1.2.9.3.4.6.8.6 1.2 0 .4-.2 1-.5 1.4-.1.1-1.1 0-1.2-.2-.8-1.3-1.8-1.4-3.2-.4-.1.1-.4 0-.7 0l-4.3-5.6c.4-.3.8-.6 1.2-.5m-268 55.2h-.2l.1-.2c0 .1.1.1.1.2" class="st0"/><path d="M140.3 123.1c-.1 0-.2-.1-.3-.1.2-.1.3-.1.5-.1-.1 0-.2.1-.2.2m-13.8.9c-.3 0-.5-.5-.7-.9 4.8-.8 9.6-1.7 14.2-.1-4.5 1.5-9 1.4-13.5 1m-.9-.8s.1-.1 0 0m-.1 0c-2.6 1.8-5.5 1.9-8.5 1.6-.2 0-.4-.2-.6-.3.4-.3.8-.9 1.1-.9 2.6.1 5.4-1.2 8-.4M10.7 81.6c-.2 0-.5-.3-.5-.5s.1-.5.4-.7c1.5-1 3.1-1.5 4.8-1.1 1 .2 1.9.6 3 .3-1.8.8-3.5 1.6-5.3 2.2-.8.4-1.7 0-2.4-.2m7.8-2c.1 0 0 .1 0 0-.1.1-.1.1-.2.1l.2-.1" class="st0"/><path d="M268.9 135.1c-.5-2-.8-3.2-1-4.4 0-.1.3-.5.4-.5.3 0 .6.1.7.3.9 1.7 1.6 3.5 1.5 5.5 0 .2-.3.5-.4.5-.2 0-.7-.1-.7-.2-.4-.6-.6-1.3-.5-1.2" style="fill:none"/><path d="M180.8 127.2c2.5.5 5.1-1 7.6-.4-2.5 1.3-5 1.5-7.6.4m7.9-.3c-.1 0-.2 0-.3-.1.1-.1.3-.1.4-.2l-.1.3m156.6.4c1.6-.8 3.1-.7 4.3.3-1.4 1.3-2.9 1.2-4.4.7-.2-.1-.4-.3-.4-.4.1-.2.3-.4.5-.6m20.1-34.6c.7.1.8.6.5 1.2-.4.7-1.1 1.2-2 1.3-1.1 0-2.2-.1-3.3-.1 1.1-1.8 2.6-2.8 4.8-2.4M214 125.4c.5-.1 1 .1 1.5.2.2.1.6.3.6.4-.2.4-.5.7-.8 1-.5.1-1.1.3-1.5.1-.4-.1-.7-.6-.8-1-.1-.2.6-.6 1-.7m-89.6 4.8c-.4.3-.7.8-1.1.9-.5.1-1-.1-1.5-.3-.2-.1-.4-.3-.6-.5.4-.3.8-.7 1.3-.8 1.2-.2 1.8 0 1.9.7m69.9-9.5c.7-.6 1.5-.6 2.3-.3 0 0-.1.5-.3.6-.5.2-1 .4-1.6.6-.2.1-.5-.1-.8-.2.1-.3.2-.6.4-.7M1.6 82.6c.1-.4 0-.7.1-.7.8-.3 1.5-.6 2.3-.8.1 0 .3.2.5.3-.2.2-.3.5-.6.6-.6.1-1.4.3-2.3.6m394.3-6c-.5.5-1 .5-1.3.1-.1-.2-.1-.5-.1-.7.4-.9.9-1.8 2.2-1.9.7 1-.1 1.8-.8 2.5" class="st0"/><path d="M396.7 74.2c0-.1 0-.1 0 0 0-.1 0-.1 0 0 .1-.1.1-.1 0 0 .1 0 .1 0 0 0m.3 12.9c.3-.3 1-.4 1.4-.3.7.2.5 1.3-.3 1.7-.4.2-.9 0-1.4 0 .1-.5 0-1.1.3-1.4M57.9 120.5l-.8.8c-.2.1-.5.2-.7.1-.1 0-.3-.2-.4-.3.4-.2.8-.5 1.2-.7.2 0 .4.1.7.1m142.8 5.7c1.1-.3 2.1-.4 2.5.6-.7.2-1.5.4-2.2.5s-1-.2-.9-.7c.1-.2.4-.4.6-.4m2.8.7c-.1 0-.1.1-.2.1 0-.1 0-.1-.1-.2h.2s.1 0 .1.1m108.3-3.9c.7-.1 1.1.1 1 .7 0 .2-.1.5-.3.6-.9.8-1.9.9-2.7.2 0-.2-.2-.4-.1-.6.5-.7 1.3-.8 2.1-.9m-120.1 3.7c-.4.3-.7.7-1.1.8-.8.2-1.2-.2-1.5-.7.7-.1 1.4-.2 2-.3.1 0 .4.1.6.2m-3 .2.2-.3c0 .1.1.2.1.2-.1.1-.2.1-.3.1m-5.6-6c.6.2 1.3.2 2 0 .8-.2 1.4-.1 1.8.5-1.6.8-2.7.1-3.8-.5m3.9.6c0-.1-.1-.1-.1-.1.1 0 .1 0 .2-.1 0 .1.1.1.1.1-.1.1-.2.1-.2.1m189 3.5c0 .1.1.4.1.4-.2.1-.5.2-.7.3 0-.2-.2-.5-.1-.5.2-.1.5-.1.7-.2m-169.2 1.5c-.4.3-.8.7-1.2.9-.8.2-1.6.1-2-.5.7-.3 1.4-.7 2.1-.8.2-.1.7.2 1.1.4m-190-8.8-.6-.1.5-.4.1.5zm33.5 4.2h-.6l.5-.4.1.4zm54.4 3.1c-.1.1-.2.4-.4.4-.2.1-.4 0-.6 0 .1-.2.2-.4.4-.4.1-.1.4 0 .6 0m62.7-2.7c.6-.5.9-.5.8.1 0 0-.5 0-.7.1-.5.1-.9.3-1.3.5.3-.3.8-.4 1.2-.7m8.4-.8-.6.1.4-.4.2.3zm11.3-.1c.6-.2 1.3-.5 1.9-.7.2-.1.4.1.6.2-.3.3-.5.9-.9 1-.6.3-1.2.1-1.6-.5m-12.3 6.2c-.1.2-.3.3-.4.5-.2 0-.5 0-.7-.1.1-.2.2-.4.4-.5.2 0 .4.1.7.1m217.6-59.2.1.1c-.1 0-.1.1-.2.1v-.3c.1 0 .1 0 .1.1.1-.1 0-.1 0 0m-.1-.2c-.9-.7-1.4-1.5-1.6-2.5 1.2.5 1.7 1.4 1.6 2.5m-184.7 62.5h.1l-.1.2h-.2l.2-.2M206 130.8c.4-.2.9 0 1.4 0-.4.2-.8.4-1.2.5-.6.2-.8-.2-.2-.5m197.9-48.9c-.2.1-.3.3-.5.3-.1 0-.2-.2-.4-.3.2-.1.3-.3.5-.4.2.1.3.3.4.4M350.3 101c.7 0 .8.4.2.8-.1.1-.4 0-.7.1 0-.2-.2-.4-.1-.5.1-.2.4-.4.6-.4m-31.2 12.8c-.2.1-.5-.1-.7-.1.2-.2.3-.5.5-.6s.4.1.7.2c-.2.2-.3.5-.5.5m-22.2 10c.2.1.5.2.5.3.1.2-.1.4-.1.6-.2-.1-.4-.2-.6-.4.1-.1.1-.3.2-.5m28.1-5c.1-.1.1-.2.1-.3.5-.5 1-.8 1.8-.3.1 0-.2.5-.2.5-.5 0-1-.1-1.5-.2l-.2.3m9.2-.9h-.6c.3-.1.7-.3 1-.4l-.4.4m-302.6 1.5.2-.2c.1.4 0 .5-.2.2m340.8-77.9v-.2h.4l-.2.1.3.3-.5-.2M182 120.8l.1-.4.2.1c.2.1.5.3.7.4-.3-.1-.5-.2-.7-.4l-.3.3m203.6-57c.2-.5.3-1 1.2-1.1 1.5-.2.7.9 1.1 1.3v.1h-2.5l-.1.1-.3-.1.2-.4c.2.1.3.1.4.1m-166.5 56.9-.5.2v-.5l.5.3zM390.4 63.2c1.2.6.4 1.4.3 2.2 0 .1 0 .2.1.2-.9-.5-1.9-1-2.8-1.5V64c.7-.4 1.1-1.4 2.4-.8m-182.8 67.5h-.4c.2-.4.4-.4.4 0m176-54.3-.2-.3.5-.1-.3.4zm20.6 11.7-.4-.2.4-.2v.4zm-79.4 29.6c.4.1.5.4.3.8-.2-.1-.4-.2-.5-.4-.1 0 .1-.2.2-.4m11 4.7s0 .1-.1.3c-.4-.5-.4-.6.1-.3" class="st0"/><g id="w_x2F_year"><path d="M168.5 72.9h2.4c1.6 0 2.4.8 2.4 2.4l-.4.4h.4l1.2-.4c0 .4-1.1 1.1-3.2 2.1v.4L175 76v.4l-6.7 4.5-3.9 6.1h.4l1.6-.4c4.1.6 6.9 1.5 8.5 2.7h.4v.4h-1.2v.4l3.6 1.5c.1 4.1-2.5 8.2-7.8 12.2l-6.4 1.3c-3 .1-5.6-2-7.7-6.3 0-.8-.4-1.2-1.2-1.2l.4-2-.1-4.8c1.9-6.8 5.4-12.1 10.6-15.8l3-2.1zm-7.6 23.8c0 1.4 1.2 2.3 3.7 2.7 3.3-.1 5.8-1.7 7.5-4.9v-.4l-1.6.4-2-.8v.4l-.4-.4h-.4c-2.3.1-4.5 1.1-6.8 3zm7.7-18.6c-4.4 4.4-6.9 7.8-7.4 10.2v.4h.4c.1-.9 2.6-4.5 7.4-10.6h-.4zm.3 14.4v.4h2.8v-.4h-2.8zm4.5 4.3-.8 1.6h.4l.8-1.2v-.4h-.4zm1.5-2.4.4.4h.4v-1.2l-.8.8zM186.2 96.8l1.3 1.3v.4l.7.7v.4h-.8v.4h.8v.3c-1.5.4-2.2.8-2.2 1.3h.8c-.1 1.9-1.8 2.9-5.1 3l-1.1-.4v-1.6c.8.3 1.3.3 1.5-.1l-1.8-.9 1.1-2.4-1-.9c0-1 1.4-1.5 4.2-1.6.5 0 1.1 0 1.6.1zM193.8 86.4v-.2l1.3-.4 1 .3 2.1-.3.3.3v-.3l.3.3 4.1-.3h2.1l-.4.3v.3l5.3-.9-.1.6c-.7 0-1.1.2-1.1.6h.4l1.1-.3v.3l-.4.3v.3c.6 0 .9.2.9.5v.1l-6 1.4v.3h1.4v.3l-4.2.6.8-.9h-.4c-2.1.1-3.3.5-3.6 1.2v.3h-1.4l-.3-.3-.1.3.3.3h-1.4l.1-.3.4-.3v-.3l-.4.3h-1.3v-.2l-2.7-.5.1-.4 2.1-.2.1-.4c-.7-.1-1-.4-.8-.9l-2.7-.3.1-.4c-.2-.5.9-.9 3-1.1zm8.3.7h.7l1.4-.3v-.3h-.7l-1.4.3v.3zm.7 3h.7l-.2-.9h-.7l.2.9zM227.4 71.5c3.2-.1 5.8 1 7.9 3.1v.4h-.8l3.9 4.7 1.8 6.4c-.2 4.5-3 9.9-8.6 16.2-3.9 3.3-6.4 4.9-7.4 4.9v-.4l-2.1 1.2h-.8l-.8-.8 4.5-3.7-5.3 1.7-.4-.4v-.4l.8-.8-.4-.4v-.8l5.7-2.9c.7 0 1.8-1.4 3.4-4.1 1-.6 2-1.7 2.9-3.3v-.4h-.4l-1.2.4-7.6-1.5v.4c-2.4-.4-4.5-1.7-6.3-3.9v-.4l.4-.4v-.4c-.8 0-1.1-.2-1.1-.7v-.1l1.8-4.8c2.9-5.7 6.2-8.7 10.1-8.8zm-4.5 27.4.4.4v.4l-4.5 2.1c0-.5 1.4-1.4 4.1-2.9zm.6-17.3-.1 1.2c-.1 3.2 2 4.8 6.3 4.7h.4c1.2 0 2.3-.6 3.3-1.7-.7-3.7-1.9-5.6-3.8-5.6h-1.2l-4.9 1.4zm3.9 15.2v.4l-1.7 2h-.4v-.4l2.1-2zM248.7 95.7 250 97v.4l.7.7v.4h-.8v.4h.8v.3c-1.5.4-2.2.8-2.2 1.3h.8c-.1 1.9-1.8 2.9-5.1 3l-1.1-.4v-1.6c.8.3 1.3.3 1.5-.1l-1.8-.9 1.1-2.4-1-.9c0-1 1.4-1.5 4.2-1.6.4 0 1 0 1.6.1zM284.5 69.4l.2 2 1.2-.1-.1-1.2 1.6-.2c-.3 22-1.8 33.2-4.6 33.5.1.5-1.2 1.3-3.8 2.4l-.4-.4h-.4l-2 .6-.4-.4v.4c-2.7.3-4.1-.8-4.4-3.2l-2.9-.9-.1-1.2.4.4 1.2-.1v-.4c-.5-3.4-.9-5.1-1.3-5.1l.5-2.5c.7-.1 1.5-.6 2.3-1.4l1.6-.2.6 2.4.8-.1-.1-.8-.4-.4v-.4l.4-.4.8-.1c.1.8.5 1.2 1.3 1.1l-.1 2.8.1 1.2c.3 1.6.8 2.3 1.4 2.3l.8-3.7.4.4.8-.1c1.2-.1 1.9-7.8 2.1-23.2l.1-2.4.4-.4 2-.2zm-15.3 24.1.2 2h.4l-.2-2h-.4zm10.2-2.7h.4c.1.8.4 1.2.9 1.1.1.5-.3.8-1.1.9l.4.4v.4l-.7.9h.4l.4-.4.1.8-1.2.5V95l.4-4.2zm.2-2h.4l.2 1.6h-.4l-.2-1.6zM295.7 70.6l.8 1.2-.4 2 .4.4h.4l.4-2h.8l.4 1.2c-2 7.7-3 13.8-2.9 18.1.3 2.9.9 4.4 1.7 4.4l9-10.6.4-2-.1-11.3.8-.8c.5 0 .8.5.8 1.6h.4c0-1.1.6-1.6 2-1.6l.8 1.6-.4 2c.5 0 .8-.7.8-2h.8l.4.4h.4l-1.5 28.9-.4 1.6c-1.1 0-1.6.6-1.6 1.6h-1.6l.3-4h-.8v2.4l-1.2 1.2v-.4l.3-4c-.8 0-1.2-.5-1.2-1.6h-.4l-6.8 3.3-3.2-.7v.4c-2.8 0-4.7-3.9-5.8-11.9.9-12.1 1.8-18.1 2.9-18.1v-.4h.4v1.6h-.8v.8l.4.4v.4h-.4l.4 1.2-1.2 2h.4l.4-.4-1.1 7.2v1.6h.4c.9-10.4 2.3-15.7 4.4-15.7zm-4.5 16.1-.4.4.1 3.2h.4l.3-3.6h-.4zm.9 9.6v.8l.4 1.2h.4v-.8l-.4-1.2h-.4zm2.9 2v.4c0 .9 1.2 1.7 3.7 2.3h.8v-.4c-1.6 0-3.1-.8-4.5-2.3zm8.7-8.6-2.8 3.3h.4l2.8-3.3h-.4zM320.7 69.9c.5 0 .8.8.8 2.4h.8l1.2-.8.4.4-1.6 22.5c1.7-.8 6.2-1.8 13.6-3h.4v.4c-9.3 1.7-14 3-14 3.9l4.4-1.3v.4l7.6-1.7v.4l.4-.4h.4l.4.4 2-.4h1.6l2.8.4v.4c0 .8-2 1.5-6 2.1v.4l.4-.4h.4l2.8.4.4-.4v1.2l-13.2 3.4-8.4 3.4h-1.2l-1.6-2h-.4v-.4c0-.7.5-1.1 1.6-1.2v-1.2l-1.2-1.6 1.3-18.1h.4v1.6l-.4 2.8h.8l-.7 5.2.4.4-.4 1.6v2h.4l1.2-21.3c.5 0 .8-.4.8-1.2l.4-.4 1-.3zM350.5 69.8c0 .8.5 1.2 1.5 1.2l.8 1.6-.4.4h.4c-1.8 5.7-2.9 12.3-3.2 19.7l-.1 2.4.4.4v.4l-.4.4h.4l-.4.4.3 2.8v.8c-1.4 1.8-2.1 3.1-2.2 4.1H346l-1.9-.8.5-2.8-1.6-1.6.6-6 .3-7.2.9-1.2.1-1.6-.4-.4v-.4h.8V82l-.4-.4 1.5-7.6h-.4l.4-.4.1-2.4-.4-.4v-.4l4.4-.6zm-5.4 14.9-.1 2.4h.4l.1-2.4h-.4zm.3 16.1-.1 2 .8-.8.1-1.2h-.8zm.3-19.7-.1 2.4h.4l.1-2.4h-.4zm.5-4-.1 2.8h.4l.1-2.8h-.4zM385.8 68.3c0 .6 1 1 3 1.3v-.4c4.2 2.9 6.2 6.2 6 9.9l-.2 2.2c-1 2.7-3.5 6.3-7.3 10.8h1.6v.4l-2.4.4v.9h.4l2-.4.4.4v-.4l.4.4h1.2l.4-.4c1.6.4 2.7 1.1 3.4 2.2h1.2c-.6 3.1-1.7 4.7-3.4 4.7-4.8 0-9.4.9-13.8 2.6v-.4l-.4.4c-2.4 0-4.4-.7-6.1-2.2H371v-.4c1.4-1.3 2.1-2.4 2.2-3.4l3.7-3h-.4l-4.1 3.4h-.8v-.9c3.1-1.5 5.7-3.8 7.9-6.9l-.4-.4h.4l.4.4 3.2-1.3-.4-.4v-.4c1.9 0 3.6-2.4 5.2-7.3h-.8c-.1 1.1-.7 2-1.7 2.6v-.4c1.4-2.3 2.2-4 2.3-5.2 0-.6-.7-1.1-2.2-1.7-2.1.6-3.9 1.4-5.2 2.6h-.8l-1.5-.4-1.6.4c-1.3 0-1.9-.7-1.8-2.2 2.8-4 5.2-6 7-6l4.2-1.5zM376.9 71.5h.3c-1.8 1.8-2.8 2.9-2.8 3.4h-.6v-.6l3.1-2.8z" class="st4"/><path d="M380.3 87.3h.3v.6l-3.8 2h-.6zM385.2 82.5v.5l-1.3 1.3v-.4zM411.5 68.6c1.8.7 3.2 1.9 4.4 3.6l-.4.4c.4 1.9 1.1 2.8 2 2.8l.4-.4 1.2 4.8-.4 1.6.4 1.2c-.5 4.8-3.3 10.1-8.4 16-.8 0-1.2.3-1.2.8l-.4-.4h-.4l-2.4.8-2.4-.4h-.4v.4l3.2.8v.4h-2.8l-3.6-2.8v.4l.8 2h-.4c-.8-.2-1.8-1.8-2.8-4.8h-.4v.8l.8 2.4c-1 0-1.9-3.3-2.8-10 2.2-10.4 4.1-15.6 5.6-15.6 0-.8.5-1.5 1.6-2h.4c-2.1 2.6-3.2 4.4-3.2 5.2l2.8-3.6c-.1-.7 2.9-2.2 8.8-4.4zm-12.1 8.5-2.4 6.8.4 1.2-.4-.4h-.4v.4l.4 2h.4v-1.2l-.4-.4c.7 0 1.4-1.7 2-5.2.5 0 .8-.7.8-2v-1.2h-.4zm2.4 12.8v2l.4 4c7-6.4 10.4-12.3 10.4-17.7v-2.8l.4.4 1.2-.4V75l-.4-.4v-.4c-1.2 0-4.1 1.6-8.8 4.8-2.1 4.8-3.2 8.4-3.2 10.9zm4.4 8.8v.4h.4l1.6-.4v-.4h-.8l-1.2.4zm7.3-22-.4 4.4v.4h.4l.8-3.2-.4-1.6h-.4zM433.2 68.3c0 .6 1 1 3 1.3v-.4c4.2 2.9 6.2 6.2 6 9.9l-.2 2.2c-1 2.7-3.5 6.3-7.3 10.8h1.6v.4l-2.4.4v.9h.4l2-.4.4.4v-.4l.4.4h1.2l.4-.4c1.6.4 2.7 1.1 3.4 2.2h1.2c-.6 3.1-1.7 4.7-3.4 4.7-4.8 0-9.4.9-13.8 2.6v-.4l-.4.4c-2.4 0-4.4-.7-6.1-2.2h-1.2v-.4c1.4-1.3 2.1-2.4 2.2-3.4l3.7-3h-.4l-4.1 3.4h-.8v-.9c3.1-1.5 5.7-3.8 7.9-6.9l-.4-.4h.4l.4.4 3.2-1.3-.4-.4v-.4c1.9 0 3.6-2.4 5.2-7.3h-.8c-.1 1.1-.7 2-1.7 2.6v-.4c1.4-2.3 2.2-4 2.3-5.2 0-.6-.7-1.1-2.2-1.7-2.1.6-3.9 1.4-5.2 2.6h-.8l-1.5-.4-1.6.4c-1.3 0-1.9-.7-1.8-2.2 2.8-4 5.2-6 7-6l4.2-1.5zm-8.3 2.2h.4c-2.5 2.7-3.8 4.4-3.8 5.2h-.8v-.8l4.2-4.4zm3.6 15.9h.4v.8l-4.9 3h-.8l5.3-3.8zm-.4-18.1h.4l-.8.8h-.4l.8-.8zm4.5 14.2v.4l-1.3 1.3v-.4l1.3-1.3zM463.8 69.4c1.1.4 1.8 1.2 2.2 2.3l-.1 1.4-4 6.3-.5 1.4c3.9 2.1 5.9 4.5 5.9 7.3v1.3c-.3 4.8-2.4 8.1-6.3 10l-.2-2.3h-.4c-.8 0-2.3 1.1-4.6 3.2h-.8v.4h1.6l-.8.9-1.2-.4-2.1 1.4-5.1-2.3.4.4-.1.9h-.4c-1.3-.5-1.9-1.5-1.8-3.1-.9-.4-1.6-1.7-2.1-4.1l2-.4v.4l.4-.4h.4c1.3 1.5 4.1 2.9 8.5 4.1.1-.7 1.6-1.8 4.6-3.2l.4-.5.1-.9-1.3.9h-.5V94c1.5-2 2.3-3.6 2.3-4.5l-1.6-.9-1.7.9-1.2-.5c-.3.9-1.2 1.4-2.5 1.4h-.8c-.5 0-.8-.6-.7-1.8l-2.7-1.8c-.5 0-.8-.5-.7-1.4 2.7-6.4 5.5-9.5 8.3-9.5l.1-1.4-8.1 1.4h-.4v-.4h.8V75c-3.2 0-4.8-.5-4.7-1.4v-.4l.5-1.4-.7-.9v-.5l2.8-.4h.8v.4c-1.1 0-1.6.3-1.7.9 5.2-1.3 11-1.9 17.7-1.9zm-10.5 6.8v.5c-1.9 2.1-3.2 4.4-4.1 6.8h-.4l-.4-.4v-.4c1-2.5 2.6-4.6 4.9-6.5z" class="st4"/></g></svg>