<?xml version="1.0" encoding="UTF-8" standalone="no"?>
<!-- Created with Inkscape (http://www.inkscape.org/) -->

<svg
   width="625.7854mm"
   height="152.15729mm"
   viewBox="0 0 625.78541 152.15731"
   version="1.1"
   id="svg5914"
   inkscape:version="1.2.2 (b0a8486541, 2022-12-01)"
   sodipodi:docname="date-mark.svg"
   xmlns:inkscape="http://www.inkscape.org/namespaces/inkscape"
   xmlns:sodipodi="http://sodipodi.sourceforge.net/DTD/sodipodi-0.dtd"
   xmlns="http://www.w3.org/2000/svg"
   xmlns:svg="http://www.w3.org/2000/svg">
  <sodipodi:namedview
     id="namedview5916"
     pagecolor="#ffffff"
     bordercolor="#666666"
     borderopacity="1.0"
     inkscape:showpageshadow="2"
     inkscape:pageopacity="0.0"
     inkscape:pagecheckerboard="0"
     inkscape:deskcolor="#d1d1d1"
     inkscape:document-units="mm"
     showgrid="false"
     inkscape:zoom="0.80354936"
     inkscape:cx="799.57752"
     inkscape:cy="345.96506"
     inkscape:window-width="2556"
     inkscape:window-height="1385"
     inkscape:window-x="0"
     inkscape:window-y="0"
     inkscape:window-maximized="1"
     inkscape:current-layer="layer1" />
  <defs
     id="defs5911" />
  <g
     inkscape:label="Layer 1"
     inkscape:groupmode="layer"
     id="layer1"
     transform="translate(96.74894,-75.38477)">
    <path
       d="m -78.185695,155.00155 c -0.0028,0.0212 -0.0028,0.0423 -0.0028,0.0635 -0.03775,0.007 0.0028,-0.0635 0.0028,-0.0635"
       style="fill:#000000;fill-opacity:1;fill-rule:evenodd;stroke:none;stroke-width:0.0352778"
       id="path2214" />
    <path
       d="m 209.52468,193.285 c -0.96308,0.45861 -1.91911,0.93133 -2.8963,1.36172 -0.23283,0.1023 -0.5715,0.11289 -0.80081,0.0459 -0.17286,-0.0529 -0.3175,-0.28575 -0.34219,-0.46567 -0.0282,-0.17639 0.0388,-0.45155 0.18344,-0.57502 1.26295,-1.07245 2.57175,-0.0388 3.85939,-0.37748 0.0106,0 -0.004,0.0106 -0.004,0.0106"
       style="fill:#000000;fill-opacity:1;fill-rule:evenodd;stroke:none;stroke-width:0.0352778"
       id="path2216" />
    <path
       d="m -25.590338,161.99086 c 2.226602,-0.10231 4.35794,-0.36689 5.823551,-1.53459 -4.155009,-1.17122 -5.020846,-1.2065 -6.630765,-0.0282 -0.435173,0.32103 -0.257045,0.90311 -0.210821,1.35114 0.01246,0.10231 0.660087,0.22578 1.018035,0.21167 z m 141.385878,-22.098 c 1.39402,0.4833 3.70856,0.0212 4.093,-0.77611 -0.0913,-0.17286 -0.0772,-0.39864 -0.26776,-0.46214 -1.38557,-0.48331 -3.74351,-0.0247 -4.09526,0.79375 -0.0614,0.14111 0.0699,0.37747 0.27002,0.4445 z m 63.13178,-2.10256 c 1.18376,0.23989 2.37655,0.59972 3.62852,0.60325 4.3213,0.0106 8.66684,-0.10583 13.00336,-0.17286 0.0389,0.0247 0.0682,0.0564 0.1088,0.0811 0.0693,-0.0318 0.13754,-0.0635 0.20575,-0.0953 0.80721,-0.0529 1.61724,-0.0917 2.41995,-0.17286 0.39515,-0.0423 1.10033,-0.1905 1.10653,-0.26811 0.0366,-0.58561 -0.59977,-0.73025 -1.64543,-0.35984 -0.66629,0.23284 -1.26099,0.52564 -1.88105,0.80081 -0.0338,0.004 -0.0682,0.007 -0.10203,0.007 -0.0716,0.004 -0.1443,0.004 -0.21251,0.007 -0.72041,-0.47625 -1.19899,-1.23472 -2.13472,-1.40758 -4.52423,-0.82197 -9.27451,-1.04775 -14.19163,-0.004 -0.37486,0.0811 -0.75592,0.33867 -0.90981,0.55386 -0.0738,0.10231 0.31511,0.37042 0.60428,0.42686 z m 121.21228,54.78639 c 1.28919,0.0247 2.64036,0.0635 3.90305,-0.11994 0.68151,-0.0988 1.2204,-0.64559 1.82524,-0.98778 -0.63078,-0.26106 -1.21533,-0.73025 -1.91036,-0.74084 -2.29312,-0.0388 -4.28241,0.63853 -4.54114,1.32292 0.24013,0.18697 0.43969,0.52211 0.72321,0.52564 z m 17.47235,-0.57856 c 1.11049,-0.0952 1.40361,-0.51505 0.76663,-0.91016 -0.22548,-0.13406 -0.82299,-0.26106 -1.0541,-0.18697 -0.61444,0.20108 -1.11612,0.51505 -1.66856,0.78669 0.65953,0.11642 1.32469,0.36689 1.95603,0.31044 z m 18.31451,0.28223 0.31568,-0.1905 c 0.0451,0.0882 0.0901,0.17639 0.10705,0.30339 l 0.2142,-0.49742 -0.3213,0.19403 c -0.18039,-0.35984 -0.55806,-0.40923 -1.15559,-0.11642 0.28185,0.11289 0.5637,0.22225 0.83991,0.30692 z m 3.28636,-64.37136 c 1.26832,0.51505 3.04396,0.84314 4.70122,0.88547 4.00789,0.10231 7.95941,-0.45508 11.87146,-1.28764 1.11612,-0.23636 2.50282,0.0106 3.75986,0.0353 0.0676,0.007 0.0959,-0.0106 0.12399,-0.0353 1.7362,-0.58914 3.38783,-0.24694 5.11837,-0.18344 2.18714,0.0847 4.4363,0.0811 6.6629,-0.0635 0.59187,-0.0388 1.23449,-0.70203 1.70799,-1.12536 0.11281,-0.10231 -0.25366,-0.45509 -0.56932,-0.55739 -2.34499,-0.75495 -5.0169,-0.81845 -7.75084,-0.46214 -2.36752,0.30339 -3.90642,1.28764 -5.1691,2.39183 -0.0339,0.0106 -0.062,0.0176 -0.0959,0.0282 -0.52423,-1.37936 -1.39797,-2.4518 -4.28973,-2.99155 -4.78578,-0.89959 -9.66177,0.0635 -14.47573,0.11641 -1.40925,0.0141 -2.97633,0.77964 -2.81849,1.35467 0.18603,0.67733 0.38332,1.55928 1.22323,1.89442 z m 47.92549,65.12983 c 1.96731,-0.27517 3.88388,-0.71614 5.81172,-1.1042 0.0564,0.0459 0.1184,0.0776 0.16912,0.127 0.0845,-0.0282 0.16346,-0.0529 0.24238,-0.0811 0.16348,0.19755 0.29876,0.44097 0.55806,0.47977 3.354,0.47625 6.84892,0.45509 10.37202,0.13053 0.83991,-0.0811 1.66292,-0.45861 2.44081,-0.74436 0.36077,-0.13053 0.91883,-0.50094 0.87372,-0.53269 -0.43403,-0.30339 -0.885,-0.71967 -1.5107,-0.80081 -4.44193,-0.55739 -8.66965,0.11289 -12.73391,1.46756 -0.0225,-0.0353 -0.0564,-0.0776 -0.0959,-0.10937 -0.10147,0.0212 -0.20293,0.0423 -0.31568,0.0635 -1.49943,-1.19944 -3.61329,-1.4993 -6.25703,-0.72319 -0.6257,0.17992 -1.31341,0.80081 -1.25705,1.143 0.0451,0.29986 1.18377,0.75847 1.70237,0.68439 z m 45.62563,0.20461 c 0.76099,-0.0847 1.71364,-0.49742 2.09131,-0.88194 0.35513,-0.37042 0.41714,-1.05481 0.0169,-1.32292 -0.76662,-0.50447 -2.05186,-1.21003 -2.94812,-1.10067 -1.63473,0.20461 -3.16798,0.92428 -4.68434,1.48167 -0.22547,0.0847 -0.11265,0.46567 -0.16346,0.70555 1.29651,1.1042 3.34836,1.37584 5.68771,1.11831 z m -16.56141,-88.60366 c 0.18601,0.0212 0.37768,0.0388 0.56369,0.0635 0.20293,0.0529 0.4115,0.10583 0.62007,0.15875 0.19729,0.23636 0.40022,0.47272 0.59751,0.71261 0.33823,-0.0988 0.68207,-0.20108 1.02594,-0.30339 -0.54116,-0.13758 -1.08229,-0.27516 -1.62345,-0.40922 -0.12959,-0.15522 -0.2593,-0.31397 -0.38895,-0.46567 -0.28748,0.0917 -0.52424,0.16228 -0.79481,0.24342 -4.94363,-0.60325 -9.95489,-0.55386 -15.77787,0.64911 8.21306,1.09008 10.49039,1.00542 15.77787,-0.64911 z m 31.39791,76.32699 c 1.13303,0.0741 1.4938,-0.25047 0.85682,-0.77963 -0.17475,-0.14112 -0.74409,-0.20109 -1.11612,-0.16581 -0.19729,0.0176 -0.36077,0.32103 -0.54116,0.49389 0.25931,0.15875 0.48479,0.43392 0.80046,0.45155 z m -27.25475,-79.64663 c 0.14094,-0.0176 0.23676,-0.0282 0.36077,-0.0494 0.43969,0.25753 0.85118,0.54328 1.39233,0.71614 0.95266,0.31044 2.02367,0.52917 3.05525,0.77964 0.93009,-0.32808 1.80383,-0.67381 2.67755,-1.016 -0.89064,0.33867 -1.78129,0.68086 -2.67193,1.01953 -0.14652,-0.20109 -0.23674,-0.40923 -0.3833,-0.60325 -0.93575,-1.25589 -1.00339,-1.29823 -4.0699,-0.89606 -0.0676,-0.0388 -0.13534,-0.0811 -0.20293,-0.11994 -0.13534,0.0176 -0.27057,0.0353 -0.40586,0.0529 -1.12176,-0.60678 -2.53099,-0.80786 -4.13189,-0.381 -1.92785,0.51505 -3.75423,1.16769 -5.62007,1.76036 0.29877,-1.88736 -0.2142,-2.42711 -2.5479,-2.42006 -0.75535,0.003 -1.70801,0.24695 -2.33371,0.53975 -0.93009,0.43392 -0.23111,1.37584 1.14431,1.54517 1.23449,0.15522 2.50845,0.23283 3.76549,0.34219 1.25141,-0.20461 2.49154,-0.43039 3.75422,-0.60677 1.98421,-0.27517 3.97969,-0.52212 5.96955,-0.77964 0.0789,0.0423 0.17475,0.0706 0.24802,0.11641 z m 41.79812,77.84394 0.23676,-0.26458 -0.4115,0.0459 c 0,0 0.19166,0.22225 0.17474,0.21872 z m -23.3145,-77.58994 c 0.54679,-0.53269 0.0959,-0.6985 -1.16121,-0.45508 -0.0169,0.17991 -0.0339,0.35278 -0.0507,0.52564 0.41715,-0.0176 1.09922,0.0353 1.21195,-0.0705 z m 15.22545,34.0995 c 2.0575,1.00188 4.67305,1.15005 7.32806,0.65263 2.09696,-0.38805 4.06426,-1.10066 6.03719,-1.72508 1.07103,-0.33867 1.50508,-1.44286 0.92447,-1.9438 -0.74408,-0.63853 -1.89401,-0.94898 -3.21871,-0.73731 -2.14205,0.34219 -4.22209,0.85725 -8.01012,1.65453 0.0281,-0.007 -1.57272,0.42686 -3.11726,0.91722 -0.33821,0.10936 -0.67079,0.43392 -0.65953,0.635 0.0112,0.20108 0.40587,0.39864 0.7159,0.54681 z m 14.36864,2.13783 c 2.59301,1.02658 5.64824,1.01953 8.85568,0.47978 0.76099,-1.35467 0.0395,-2.38831 -1.83766,-3.1362 -2.23788,-0.889 -7.36751,0.0141 -8.07214,1.46756 -0.17475,0.3563 0.45097,0.9525 1.05412,1.18886 z m 0.51297,-18.91242 c -2.82977,-1.17122 -6.02593,-1.7533 -9.86471,-0.97366 0.23112,0.42686 0.46788,0.85372 0.69899,1.28411 1.43742,0.0141 2.67193,0.22578 3.40474,0.9525 -1.51636,0.0353 -2.89177,-0.0776 -3.64149,-0.82197 -2.10259,0.0811 -4.39683,0.65616 -6.12738,-0.2787 -0.0281,0.007 -0.0676,0.0176 -0.0959,0.0247 0.4566,1.143 0.48477,2.39536 3.27507,2.70227 2.14205,0.23284 4.0868,0.92075 6.2514,1.02659 1.87147,0.0882 3.37655,-0.64559 3.37091,-1.88031 0.81172,-0.27517 1.79819,-0.47978 2.35625,-0.86078 0.42841,-0.28575 0.67645,-1.0548 0.37205,-1.17475 z m -14.44756,-0.21166 c 1.36978,-0.28223 2.73393,-0.56798 4.09809,-0.8502 -1.65728,-0.49389 -2.95942,-0.11994 -4.09809,0.8502 z m -174.07464,-0.37395 c -0.005,-0.0494 -0.0451,-0.0917 -0.0328,-0.14111 -0.14717,0.0459 -0.29425,0.0776 -0.43969,0.11642 -0.85062,-0.26459 -1.67474,-0.635 -2.59074,-0.65617 -0.96506,-0.0212 -2.00902,0.23636 -3.03156,0.43745 -0.10099,-0.0529 -0.20913,-0.0988 -0.31004,-0.15875 -0.19053,0.0459 -0.37656,0.0952 -0.56877,0.14463 -2.45095,-0.86077 -5.01013,-0.61736 -7.63809,0.22225 -0.0417,-0.0459 -0.10482,-0.0741 -0.14381,-0.12347 -0.19053,0.0353 -0.37823,0.067 -0.57046,0.10231 -3.14937,-0.9525 -6.37541,-0.0635 -9.58228,0.51153 -0.0388,-0.0212 -0.0834,-0.0318 -0.11952,-0.0529 -0.469,0.0564 -0.94475,0.11642 -1.41432,0.17286 -0.77,0.0423 -1.54114,0.0776 -2.28072,0.0353 -1.69954,-0.0917 -3.13865,0.20461 -4.49886,0.8008 -0.39347,-0.33161 -0.47745,-0.98777 -1.01522,-1.09714 -4.39176,-0.89605 -8.84158,-1.16769 -13.15781,0.82198 -0.15675,-0.004 -0.19673,0.004 -0.25705,0.007 -0.35794,-0.34925 -0.55637,-0.91722 -1.05975,-0.98425 -2.52986,-0.32455 -5.16064,-0.127 -7.57326,0.65617 -0.54678,0.17992 -1.04735,0.91722 -0.86922,1.24883 0.63247,1.18886 2.20349,1.89795 4.54001,2.07081 1.65727,-1.00189 1.36641,-2.97392 4.96222,-2.99156 0.0214,0.0212 0.0401,0.0529 0.0649,0.0706 0.0654,-0.0318 0.12735,-0.0494 0.19223,-0.0776 4.70235,0.19402 9.36075,0.53269 14.17755,0.28222 2.25929,-0.28222 4.51463,-0.56092 6.77506,-0.84314 0.39065,-0.0212 0.78411,-0.0423 1.17305,-0.0564 0.12064,-0.0176 0.23845,-0.0423 0.36077,-0.0635 1.11104,0.66322 2.52874,0.78316 4.20348,0.47977 1.79087,-0.32808 3.58625,-0.65969 5.3788,-0.9913 0.13982,0.0423 0.27621,0.067 0.40925,0.11289 0.10211,-0.0353 0.20631,-0.06 0.30496,-0.0917 0.7452,0.79023 2.06706,1.00895 3.67361,0.71967 1.34949,-0.24342 2.65106,-0.60678 3.96448,-0.94192 0.11617,0.0423 0.23112,0.067 0.34554,0.11289 0.17644,-0.0282 0.35795,-0.0635 0.53326,-0.0988 1.61895,0.85372 3.55072,0.762 5.62231,0.21872 0.0852,0.0282 0.17193,0.0564 0.25705,0.0811 0.0698,-0.0212 0.14429,-0.0353 0.21533,-0.0564 0.0451,0.49389 0.93743,0.84667 1.18039,0.61384 1.12796,-1.09362 0.0236,-0.93839 -1.18039,-0.61384 z m -74.89445,0.4692 c -3.56031,1.03364 -6.86357,2.38477 -10.23955,3.63714 -0.12683,0.0459 -0.0665,0.47977 0.14599,0.57855 1.41432,0.65617 3.36358,0.60678 4.8664,0.16933 3.14937,-0.91369 6.09469,-2.08491 9.10032,-3.14325 -0.62909,-1.0795 -2.20631,-1.72861 -3.87316,-1.24177 z m -9.0975,0.49389 c -0.62289,-0.19756 -1.64093,-0.06 -2.48365,-0.0741 -0.0293,0.45156 -0.34217,0.99484 -0.0169,1.32997 0.47238,0.49389 1.46562,0.42334 2.33033,0 0.88782,-0.43744 1.07835,-0.97013 0.17023,-1.25588 z m -27.86241,1.21002 c -0.26212,0.067 -0.34273,0.37042 -0.50507,0.5715 0.35625,0.06 0.78523,0.22578 1.04115,0.16228 0.26042,-0.0705 0.34216,-0.37394 0.50507,-0.57503 -0.35344,-0.0635 -0.7841,-0.2293 -1.04115,-0.15875 z m -8.58792,-0.47625 c -2.62006,0.26811 -3.84836,1.38995 -2.74689,2.98803 0.46786,0.27517 1.16797,0.86078 2.17361,1.19945 0.46505,0.15875 2.12401,-0.10584 2.20913,-0.27517 0.45265,-0.91017 0.58568,-1.85561 0.81059,-2.78695 0.15334,-0.65616 -1.16065,-1.25588 -2.44644,-1.12536 z m -22.96839,2.90336 c -0.50789,-0.89958 -0.85795,-1.92969 -3.35907,-1.48519 -0.58343,0.10231 -1.01296,0.56797 -1.51183,0.86783 0.33314,0.11995 0.63697,0.3175 1.01803,0.35278 1.28129,0.127 2.5885,0.19403 3.89176,0.28575 1.02537,-0.29986 2.05299,-0.59972 3.08004,-0.90311 -1.43179,-0.19403 -2.0744,0.59619 -3.11893,0.88194 z m -20.51744,-1.11477 c -3.91656,-0.0776 -7.85962,-0.067 -11.79141,-0.0847 l -0.1088,0.35278 0.42616,-0.29634 c 0.52255,0.58209 0.75141,1.5875 1.57271,1.70745 3.36978,0.50447 6.94249,0.39864 10.46673,-0.381 0.36132,-0.0776 0.90191,-0.49389 0.84498,-0.53975 -0.39065,-0.29633 -0.86472,-0.74436 -1.41037,-0.75847 z m -212.933649,52.05588 c 1.204056,-0.29633 2.452645,-0.64911 3.701233,-0.74083 7.676987,-0.5715 15.364683,-0.99483 23.033779,-1.64394 3.558618,-0.30339 7.084541,-0.99131 10.612719,-1.53811 0.281849,-0.0423 0.602592,-0.37748 0.648815,-0.57856 0.05129,-0.22931 -0.08512,-0.635 -0.320743,-0.66322 -1.708565,-0.20814 -3.440806,-0.41981 -5.210249,-0.48684 -2.937424,-0.10936 -3.291991,-1.16063 -3.109353,-2.45886 8.47631,-1.39347 17.06423,-1.92616 25.66117,-2.43416 2.221529,-0.13053 4.44475,-0.53975 6.651059,-0.86784 0.370349,-0.0564 0.875421,-0.35983 0.926154,-0.55739 0.04679,-0.18344 -0.360766,-0.51152 -0.68602,-0.5468 -3.468989,-0.32808 -6.917687,-0.88547 -10.457702,-0.8502 -8.707424,0.0776 -16.723193,-1.38288 -25.211904,-1.74977 -0.648815,-0.0282 -1.476322,-0.60678 -1.54002,-1.00189 -0.05243,-0.34572 0.708003,-0.94897 1.365274,-1.15359 2.475756,-0.76552 5.12344,-1.36525 6.598071,-2.84338 0.223224,-0.22225 0.599774,-0.60325 0.457159,-0.69145 -0.472379,-0.2928 -1.081171,-0.61736 -1.764372,-0.68439 -0.84329,-0.0811 -1.878237,0.20109 -2.69898,0.0988 -0.608793,-0.0741 -1.462793,-0.51153 -1.406987,-0.77964 0.1026,-0.44803 0.790304,-0.90664 1.344981,-1.31939 0.248026,-0.18344 0.7655,-0.33161 1.184891,-0.381 4.967295,-0.60325 9.934591,-1.39347 14.910907,-1.72155 9.523094,-0.62089 18.998837,-0.89253 28.283487,-3.14678 3.786915,-0.92075 8.157256,-1.40053 12.168524,-1.44286 8.2361732,-0.0917 16.394556,-1.11831 24.567032,-1.4852 6.009572,-0.27164 11.819596,-0.97366 17.629618,-1.89794 7.600889,-1.21708 15.269983,-2.14842 22.985301,-2.65642 15.018574,-0.98778 30.045603,-1.84503 45.072069,-2.70228 7.713626,-0.44097 15.415416,-0.60325 23.140326,-0.9913 22.30322,-1.12183 44.65549,-2.30717 66.8612,-2.27189 17.64033,0.0317 35.35056,-0.71614 53.01061,-0.9913 19.06874,-0.29634 38.15607,-0.74084 57.2327,-1.12537 7.72772,-0.15522 15.45375,-0.27516 23.18766,-0.49741 2.23224,-0.067 4.50395,-0.41628 6.7531,-0.6597 1.27395,-0.14111 2.37317,-1.00189 2.00676,-1.72508 -0.21421,-0.42686 -0.68207,-1.01247 -1.30777,-1.10067 -1.66292,-0.2293 -3.56821,-0.0988 -5.22547,-0.33866 -7.77339,-1.12536 -15.63809,-1.31939 -24.03209,-0.65617 -8.11385,0.63853 -16.30325,0.46214 -24.44809,0.56092 -4.52705,0.0564 -9.0248,-0.13053 -13.55466,-0.0811 -13.58114,0.13758 -27.2057,0.61383 -40.78685,0.70908 -10.87314,0.0776 -21.81394,0.41981 -32.73387,0.96661 -7.71363,0.38806 -15.38272,0.75847 -23.06873,0.72672 -7.67191,-0.0318 -15.40301,0.14464 -23.12171,0.41981 -4.06708,0.14464 -8.18939,0.93133 -12.23955,1.01953 -15.02816,0.32808 -30.04504,1.48872 -45.072074,2.42711 -12.307193,0.76553 -24.620023,1.4358 -36.848297,2.95275 -6.900777,0.85725 -13.568746,0.28928 -20.325215,0.36336 -1.989287,0.0212 -3.87147,-0.86431 -6.319606,-0.71261 -11.833687,0.74789 -23.671884,1.42522 -35.503879,2.08844 -1.811158,0.10231 -3.629644,0.0388 -5.430091,0 -0.370349,-0.007 -1.003945,-0.2928 -0.95152,-0.38805 0.215896,-0.381 0.527056,-0.95956 1.019727,-1.06186 2.61668,-0.55387 5.292549,-1.25589 7.954326,-1.41817 10.46390345,-0.62442 20.859599,-2.30011 31.357326,-2.28247 1.344979,0.004 2.863015,-0.0247 4.070454,-0.34572 5.733923,-1.53812 11.732784,-1.43934 17.571557,-1.77095 8.157256,-0.46919 16.247432,-1.16769 24.333663,-2.12372 -0.0062,0.0388 -0.0079,0.0776 -0.0186,0.11289 0.171927,-0.0494 0.335963,-0.0953 0.505072,-0.14464 3.835957,-0.0847 7.633018,-1.15711 11.543948,-0.64558 2.647684,0.34925 5.216449,-0.51153 7.715318,-1.143 1.757042,-0.4445 3.444187,-0.52564 5.042831,-0.0423 0.0018,-0.0459 0.04792,-0.0811 0.062,-0.12347 1.025929,0.17992 2.090188,0.29633 1.329197,-0.68086 -0.165726,-0.20461 -1.169671,0.18697 -1.329197,0.68086 -0.07723,-0.0106 -0.153333,-0.0247 -0.227733,-0.0388 -5.504499,-1.59455 -11.269426,-1.70038 -17.378209,0.0706 -2.226602,0.64206 -4.482517,1.27 -6.758161,1.92264 -0.105411,0.004 -0.20744,0.0141 -0.314543,0.0141 -0.0575,0.007 -0.117813,0.0141 -0.171927,0.0176 0.11443,-0.70556 -0.09921,-1.45345 -1.572714,-1.49578 -4.494355,-0.127 -9.001111,-0.0282 -13.52365,0.89958 -2.142612,0.44098 -4.446441,0.67734 -6.682062,0.8255 -12.702908,0.83256 -25.400742,1.62631 -38.1036494,2.39184 -3.618933,0.22225 -7.23673954,0.31397 -10.9086598,0.46919 0.1674179,-0.34925 0.1505044,-0.67028 0.4244626,-0.79375 0.7299886,-0.32455 1.6223203,-0.53975 2.3799283,-0.85725 0.3562571,-0.14464 0.85061899,-0.55386 0.76549988,-0.6103 -0.45546628,-0.32103 -1.07046018,-0.83256 -1.63471978,-0.80081 -3.1696681,0.16933 -6.3393346,0.45508 -9.5061838,0.73378 -2.253095,0.20461 -4.580036,0.71967 -6.741249,0.64205 -6.746887,-0.24341 -13.545635,-0.0106 -20.348328,0.1905 -3.278459,0.0952 -6.136966,-0.49036 -8.888371,-1.22766 -0.357948,-0.0988 -0.858509,-0.44803 -0.773392,-0.51859 0.435737,-0.37041 0.994925,-0.71966 1.599209,-1.016 0.334836,-0.1658 0.848927,-0.3175 1.259297,-0.32102 9.963905,-0.14111 19.919354,-1.7145 29.890587,-1.66511 2.691653,0.0141 5.447567,-0.28575 8.1713493,-0.48331 4.0822913,-0.29986 8.16289354,-0.74083 12.2406756,-0.94192 13.6555561,-0.66322 27.3128011,-1.22766 40.9694831,-1.88383 2.711382,-0.127 5.47406,-0.36689 8.148238,-0.762 9.080028,-1.35467 18.228827,-1.35819 27.143128,-1.28411 9.088484,0.0741 18.088467,-0.27164 27.171874,-0.83961 3.58004,-0.22225 7.30326,0.067 10.70404,-0.51506 4.18771,-0.71614 8.16346,-0.49036 12.20686,-0.65264 4.07609,-0.1658 8.13527,0.23989 12.20065,0 12.75533,-0.762 25.39792,-0.94191 38.03826,-0.70555 6.70574,0.127 13.55353,-0.29281 20.33931,-0.52564 6.76098,-0.23283 13.53943,-0.66675 20.3021,-0.81139 16.35114,-0.35631 32.7209,-1.40406 49.09066,-2.39183 8.62794,-0.51859 17.22656,-0.67028 25.83647,-0.7232 13.13471,-0.0776 26.32352,-0.5221 39.49712,-0.81138 4.58285,-0.10231 8.85567,-0.62795 13.2356,-1.94381 4.67867,-1.40405 9.69557,-1.34408 13.95712,0.32809 1.01465,0.39863 2.12515,0.90311 3.33145,0.97013 6.64035,0.37748 13.34835,1.12184 19.59411,-1.93675 0.85682,-0.42333 2.71138,-0.13758 3.96278,-0.4198 2.06313,-0.46214 2.59865,-1.36172 1.65163,-2.64231 -3.80495,-0.067 -7.88047,-0.0459 -11.87708,-0.23283 -4.45885,-0.20814 -8.83313,-0.73378 -13.04959,1.21356 -0.53551,0.25047 -1.83765,0.18697 -2.60427,0.0423 -2.42955,-0.46214 -5.13528,-0.70909 -6.69109,-1.9685 l -0.20293,0.17991 c -0.124,-0.0459 -0.25929,-0.0847 -0.3833,-0.13053 0.14652,-0.0141 0.29311,-0.0247 0.44531,-0.0353 0.87936,-2.03905 -0.21984,-3.52072 -3.59074,-4.395606 -1.70801,-0.4445 -3.38783,-0.92075 -5.07891,-1.386417 4.73504,-0.878417 9.43064,-1.30175 14.24461,-0.811389 2.10258,0.215195 4.44757,-0.04939 6.67417,-0.07408 7.70011,-0.08114 15.39456,-0.141111 23.08902,-0.225778 17.22658,-0.1905 34.30658,0.430389 51.61772,-0.225778 2.66065,-0.102305 5.29311,0.254 7.92557,0.426861 1.08231,0.07408 1.8602,1.252361 1.14431,1.837973 -0.48479,0.398638 -1.29087,0.687916 -1.91093,1.044222 -1.35851,0.776112 -1.17249,2.166052 0.35513,2.261302 3.0947,0.18697 6.24575,0.2152 9.30099,0.45861 1.24578,0.10231 2.76776,0.42334 3.38782,0.94192 1.88275,1.57692 3.63585,3.26319 3.04396,5.37633 -0.10147,0.37042 -1.02592,0.94898 -1.66854,1.03364 -3.24689,0.41628 -6.21758,0.19756 -8.83313,-0.85372 -3.11725,-1.24531 -6.30777,-2.44828 -9.66177,-3.50661 -0.93009,-0.29281 -2.58736,-0.10231 -3.85004,0.067 -0.81172,0.10583 -1.46561,0.66675 -2.29424,0.88547 -4.40248,1.1677 -6.97857,3.429 -10.32128,5.22816 -0.45097,0.24342 -0.50171,0.97014 -0.20294,1.30528 0.32695,0.35984 1.2514,0.74436 1.97294,0.74084 4.97743,-0.0282 9.9718,-0.0212 14.96615,-0.2787 11.88836,-0.61736 23.51743,-0.50094 34.797,1.02306 2.82975,0.38452 5.34948,-0.32456 7.29987,-1.88031 2.91431,0.38806 5.87936,0.78317 9.0868,1.2065 0.10706,-1.34408 0.20293,-2.52236 0.29311,-3.66888 2.56482,-0.8255 4.99435,-1.60867 6.96167,-2.24367 4.4983,0.22225 8.50617,0.381 12.46332,0.64205 1.2796,0.0811 2.55356,0.3422 3.61895,0.69498 0.63697,0.21166 1.2063,0.74789 1.16121,1.15358 -0.0451,0.37747 -0.83427,0.98072 -1.48816,1.1183 -1.65727,0.34572 -3.75986,0.17286 -4.64486,1.3335 -1.56145,2.03553 -4.177,1.524 -6.69672,1.26295 -1.83766,0.62441 -1.97857,1.69333 -2.66629,2.59291 -1.07666,1.41111 -1.82073,2.8822 -2.95377,4.28273 -0.63697,0.79022 -2.04622,0.9913 -3.40472,0.67027 -1.86585,-0.44802 -3.38783,-0.37041 -4.38556,0.87842 -1.08231,1.34761 -2.68883,2.03906 -5.40023,1.63689 -0.74971,-0.11289 -1.72491,0.0988 -2.71138,0.1658 -1.89966,1.43934 -4.00788,2.86456 -5.69897,4.4062 -0.6257,0.56797 -0.69335,1.54164 -0.24802,2.12019 0.65388,0.85373 1.91656,1.55928 3.06087,2.26131 1.93348,1.19239 2.03494,2.53647 0.89628,4.10633 -0.46224,0.635 -0.43969,1.34408 -0.64262,2.00731 4.07552,0.85372 8.20179,0.75847 12.25477,0.66322 2.77902,-0.0635 5.28748,-0.82197 7.40134,-2.01789 1.67417,-0.94544 1.55016,-2.61056 -0.53552,-3.12208 -1.16121,-0.28928 -2.57045,-0.31398 -3.78241,-0.56092 -1.01465,-0.20814 -1.91092,-0.56444 -3.21306,-0.96661 2.71702,-1.55222 5.01127,-2.86808 7.31115,-4.18394 -0.0339,0.0353 0.0508,0.0564 0.13534,0.0741 -0.0395,0.0459 -0.0676,0.0917 -0.10706,0.13758 0.4115,-0.067 0.25366,-0.1023 0.10706,-0.13758 0.74407,-0.90664 1.33596,-1.8415 2.29988,-2.65289 0.71026,-0.60325 1.99548,-1.40406 3.01013,-1.45697 3.02706,-0.1517 3.74858,-1.24178 4.47576,-2.48709 0.40586,-0.68791 0.95264,-1.651 2.4408,-1.397 0.91319,0.15875 1.48253,1.09362 1.73619,1.75684 0.54678,1.44639 -0.0339,2.89983 -1.07667,4.37091 -0.46786,0.65617 -0.31002,1.42875 -0.29311,2.13431 0.006,0.127 0.89064,0.35278 1.09357,0.27869 1.12739,-0.39158 2.30552,-0.79727 3.19616,-1.32997 2.63246,-1.57339 1.10484,-3.99697 4.46448,-5.45041 0.48478,0.34925 1.29651,0.65969 1.38669,1.05833 0.46223,1.95792 0.17474,3.88408 -2.60991,5.59153 -0.6088,0.37041 -1.38105,0.81491 -1.50508,1.24177 -0.85682,2.90689 -2.23224,5.79614 -2.61554,8.72067 -1.07103,-1.00894 -2.09132,-2.03906 -3.26381,-3.01272 -0.40587,-0.33867 -1.18376,-0.54681 -1.84893,-0.77259 -0.76099,-0.26105 -2.60427,0.45862 -3.10033,1.24884 -0.45096,0.71966 -0.64825,1.48166 -1.17248,2.18369 -2.07442,2.82222 -5.12965,4.90714 -11.25704,4.69547 -0.7328,-0.0247 -1.63471,0.30692 -2.36188,0.56092 -0.29313,0.0952 -0.49042,0.4445 -0.46787,0.65617 0.0169,0.22578 0.25366,0.57503 0.55242,0.61383 1.21194,0.15522 2.53099,0.41275 3.72603,0.26106 2.20406,-0.27164 4.44758,-1.143 6.55016,-0.55739 0.86246,0.23989 1.24013,1.11478 1.37543,1.75683 0.0508,0.23636 -1.25706,0.89958 -1.87147,0.89958 -2.20406,0.0176 -4.3743,-0.1658 -6.25705,-0.26458 -4.59975,1.67922 -8.94022,3.22439 -13.19613,4.84364 -0.6539,0.25047 -1.31342,0.88547 -1.22322,1.24883 0.0845,0.35278 1.04284,0.67381 1.76436,0.8502 2.21533,0.53269 4.4814,1.00894 6.73619,1.4993 0.0281,0.0529 0.062,0.11289 0.0901,0.16581 -0.7779,0.16228 -1.57836,0.38805 -2.28862,0.3563 -6.09355,-0.31044 -11.63469,1.09362 -17.11947,2.54706 -1.09357,0.28928 -2.21531,0.98778 -2.67755,1.60867 -0.81172,1.08655 0.28748,2.82575 1.79255,3.21733 0.72154,0.1905 1.74182,0.35278 2.48026,0.21519 2.17589,-0.41275 4.36866,-0.87136 6.36414,-1.51341 1.62909,-0.52917 2.50282,-0.0741 3.53438,0.26458 2.6832,0.88547 5.09582,0.23989 7.45207,-0.762 1.66292,-0.70555 2.35625,-1.65805 2.04059,-2.65994 -0.34386,-1.11478 -1.01465,-2.18723 -1.57835,-3.27378 0.10705,-0.0212 0.21421,-0.0459 0.3213,-0.0635 3.2018,0.98778 6.48816,1.92264 8.21307,3.85233 0.61442,0.68792 0.69898,2.25425 -0.19166,2.80811 -4.36866,2.71639 -8.80495,5.36575 -15.81169,5.70795 -4.04735,0.20108 -8.10033,0.47978 -12.02365,1.38994 -2.19843,0.51153 -4.12627,1.16417 -4.91545,2.58939 2.53664,1.47461 5.15219,2.93158 7.63245,4.45911 1.24015,0.76553 0.92447,1.77095 0.27059,2.7552 -0.27621,0.42686 -0.56934,0.85372 -0.85682,1.28058 0,0.0282 -0.0281,0.06 -0.062,0.0917 -0.0112,0.0176 -0.0225,0.0353 -0.0339,0.0529 v -0.14817 c -1.21758,-0.46566 -2.88048,-0.42333 -3.40472,0.30692 -1.75309,2.43769 -3.90641,2.5788 -6.95602,1.10066 -0.51297,-0.24694 -1.71927,-0.19755 -2.56482,-0.0988 -3.33145,0.381 -5.91318,1.51341 -8.24125,2.88925 -1.77,1.04069 -2.04623,2.2225 -2.22659,3.50308 -0.38332,2.64936 -0.93576,2.86456 -5.76663,2.97039 -1.19504,0.0247 -2.66065,-0.49389 -3.69785,0.85725 -0.062,0.44803 -0.10705,1.1818 -0.29313,1.90853 -0.36639,1.42875 -2.44643,2.50472 -4.53211,2.29658 -1.74746,-0.17639 -3.47237,-0.83608 -5.11837,-0.67028 -5.62569,0.55386 -10.63696,-0.0282 -15.83989,-0.74436 -3.75986,-0.51858 -8.04395,-0.30339 -12.11383,-0.20108 -1.73056,0.0459 -3.57948,0.53975 -5.23111,1.00541 -1.3585,0.381 -1.65164,1.00189 -0.98083,1.81681 1.04847,1.29469 -1.08231,2.38125 -2.1477,3.44311 -0.49604,0.49036 -2.31115,0.68439 -3.57383,0.90664 -1.6629,0.29633 -3.74294,0.16933 -4.10371,1.54517 -0.80608,-2.15195 -3.42728,-3.08681 -7.39007,-3.18206 -0.72716,-0.0212 -1.40924,-0.22225 -2.09695,-0.38453 0,0 -0.006,-0.29986 -0.006,-0.29986 l -0.37203,0.2152 c 0.12399,0.0247 0.25366,0.0564 0.37767,0.0847 -4.50393,0.53623 -4.56594,0.53975 -4.50957,2.74461 0.006,0.24342 0.16346,0.48331 0.14093,0.72673 -0.0564,0.73025 -1.62908,1.34408 -2.79594,1.143 -3.1285,-0.5327 -5.34948,-1.5875 -6.08228,-3.3655 -0.38894,-0.93134 -0.20293,-1.96498 -0.53552,-2.91042 -0.947,-2.69522 -4.53775,-4.00756 -9.73504,-3.54189 -1.30214,0.11642 -2.82975,0.35278 -3.81621,0.81845 -4.66741,2.20486 -10.16909,3.84527 -14.24463,6.46994 -0.3213,0.20461 -1.59526,0.0423 -2.36752,-0.0564 -0.20857,-0.0282 -0.21421,-0.4445 -0.24804,-0.68792 -0.19729,-1.27 0.62008,-2.44122 1.66292,-3.62656 2.05749,-2.34244 0.80044,-2.96333 -3.90078,-3.05152 -2.2548,-0.0459 -4.52085,-0.0565 -6.79256,-0.0141 -14.05296,0.25753 -28.11438,0.52564 -42.17748,0.80434 -15.89286,0.3175 -31.77784,0.52211 -47.68593,1.01247 -16.33256,0.50094 -32.63409,0.41275 -49.02752,1.86619 -1.79087,0.15875 -3.61274,-0.004 -5.42728,0 -13.11778,0.0423 -26.25868,0.22578 -39.44299,0.73025 -17.72432,0.67734 -35.44187,1.01248 -53.162808,1.98262 -16.795909,0.92075 -33.582237,1.42522 -50.395622,2.73402 -9.518583,0.74084 -19.071553,0.78317 -28.59803,2.08845 -2.348925,0.32455 -5.2091217,0.58561 -7.3111466,-0.635 4.0343776,-0.8502 7.9272686,-1.68628 11.8427066,-2.4765 0.865838,-0.17286 1.82976,-0.26459 2.71589,-0.25047 2.237313,0.0247 4.446441,0.17638 6.683753,0.19402 1.326379,0.0106 2.805519,0.0459 4.009577,-0.24341 5.355682,-1.28764 10.852853,-1.16064 16.278435,-1.47814 15.450929,-0.90311 30.903551,-1.68981 46.356171,-2.51884 5.459964,-0.29633 10.967844,-0.83608 16.368624,-0.81491 15.38273,0.06 30.85226,-1.09714 46.26655,-1.38289 14.05352,-0.26811 28.16623,-0.99131 42.19947,-1.03717 15.40188,-0.0529 30.87761,-0.8255 46.30881,-1.1818 8.61836,-0.20461 17.27111,-0.68792 25.91032,-1.04775 3.08286,-0.69145 6.1319,-0.59267 9.24463,-0.53975 2.60428,0.0494 5.28466,-0.16581 7.91712,-0.39511 0.63359,-0.0565 1.208,-0.63853 1.80947,-0.9772 -0.31454,-0.15169 -0.58287,-0.40922 -0.95941,-0.4445 -6.35174,-0.56797 -12.27168,0.64558 -18.09412,2.34597 -0.57608,-1.81327 -3.10482,-2.13077 -5.97067,-2.06375 -29.02926,0.73025 -58.08331,1.74978 -87.07987,2.01084 -22.21247,0.19755 -44.56531,1.23472 -66.86628,2.07786 -11.828612,0.4445 -23.67921,1.34408 -35.515714,1.90853 -12.273936,0.58561 -24.541105,0.98777 -36.812784,1.52752 -2.722092,0.11995 -5.450385,0.51153 -8.18206,0.6985 -11.831995,0.81492 -23.6685014,1.61573 -35.5004967,2.39184 -11.8133943,0.77964 -23.6312973,1.48872 -35.4401813,2.31775 -2.22773,0.15169 -4.43122,0.71614 -6.64824,1.09714 0.06369,0.0564 0.1088,0.0917 0.158398,0.13405 -0.09471,0.06 -0.19053,0.11995 -0.283539,0.17992 0,0 0.06933,-0.26811 0.109918,-0.31397 -0.02931,0.007 -0.109918,0.31397 -0.109918,0.31397 0.312852,-1.60867 -0.02649,-2.23309 -1.423899,-2.20839 -1.73224,0.0353 -3.493792,0.28222 -5.21814,0.28928 -1.258171,0.004 -2.574967,-0.13053 -3.678121,-0.39864 -0.562007,-0.13759 -0.817925,-0.68439 -1.000563,-1.08656 -0.06989,-0.15169 0.388951,-0.53269 0.726606,-0.6103 2.931223,-0.65617 5.891758,-1.26295 8.841584,-1.88736 -0.03269,0.0705 -0.102025,0.127 -0.153333,0.1905 0.130211,-0.0353 0.258737,-0.0706 0.384442,-0.10937 0.536075,0.18698 1.054677,0.39159 1.64994,0.51153 0.264938,0.0529 0.926154,-0.0882 1.090753,-0.23283 0.652198,-0.5715 0.275649,-0.87842 -0.916007,-0.71967 -0.625703,0.0847 -1.217585,0.26811 -1.824686,0.44097 -0.06991,-0.0247 -0.138105,-0.0494 -0.208004,-0.0741 0.954339,-1.09361 2.336524,-1.96497 4.369213,-2.58586 1.518036,-0.45861 3.58173,-0.61383 4.067073,-1.79917 -0.01246,-0.95602 -0.0248,-1.89441 -0.0372,-3.04447 3.089058,-0.83608 6.217012,-1.67922 9.345528,-2.52589 0.08343,0.0318 0.165163,0.0635 0.247464,0.0917 0.09921,-0.0353 0.19842,-0.067 0.29594,-0.0988 0.952647,0.70202 2.348925,0.91016 3.952078,0.64205 1.411498,-0.23989 2.770571,-0.6103 4.144863,-0.94191 0.08343,0.0423 0.164035,0.067 0.247462,0.11288 0.130211,-0.0423 0.257611,-0.0847 0.38275,-0.127 0.447576,0.20109 0.886132,0.40923 1.382186,0.56798 0.09582,0.0282 0.802704,-0.29281 0.772828,-0.33514 -0.481397,-0.74084 -1.310595,-0.508 -2.155014,-0.23284 -0.06483,-0.0318 -0.130211,-0.06 -0.199548,-0.0917 -0.144305,0.0353 -0.28523,0.0706 -0.430664,0.10584 -2.590751,-1.30175 -5.328063,-0.63853 -8.096941,0.29986 -0.0496,-0.0388 -0.108225,-0.0564 -0.157839,-0.0952 -0.125705,0.0317 -0.254227,0.067 -0.385568,0.1023 -0.988724,-0.34219 -1.91206,-0.79728 -3.024797,-0.93133 -5.179246,-0.635 -10.508435,-0.89253 -15.971222,-0.79375 -3.557489,0.0635 -7.180933,0.254 -10.885548,-0.35983 -1.995488,-1.61925 -4.127388,-3.34081 -6.589053,-5.334 -2.427842,-0.42686 -6.790854,0.89958 -8.871459,-1.25589 0.202931,-0.24695 0.333143,-0.508 0.607664,-0.70909 0.554679,-0.41627 1.232805,-0.78669 1.792557,-1.20297 2.350051,-1.7533 1.75366,-3.56658 -1.273955,-4.17336 -2.923332,-0.58914 -5.933473,-0.762 -9.195022,-0.52564 -4.065383,0.28928 -8.133582,0.41628 -12.200654,0.56797 -0.211951,0.0106 -0.511274,-0.35277 -0.56877,-0.5715 -0.05073,-0.19755 0.07609,-0.58208 0.28974,-0.635"
       style="fill:#000000;fill-opacity:1;fill-rule:evenodd;stroke:none;stroke-width:0.0445937"
       id="path2218" />
    <path
       d="m 290.55774,128.81133 c -0.46567,0.17639 -0.9525,0.29633 -1.3582,0.53622 -0.70555,0.42334 -0.98072,0.34573 -0.77964,-0.32102 0.0353,-0.11289 0.44803,-0.21873 0.67734,-0.23637 0.49036,-0.0317 0.97366,-0.004 1.4605,-0.004 0.0176,0.004 0,0.0247 0,0.0247"
       style="fill:#000000;fill-opacity:1;fill-rule:evenodd;stroke:none;stroke-width:0.0352778"
       id="path2220" />
    <path
       d="m 274.99671,145.5718 c -0.0564,-0.0106 -0.0917,-0.0282 -0.127,-0.0459 0.0423,0.0176 0.0882,0.0318 0.127,0.0459"
       style="fill:#000000;fill-opacity:1;fill-rule:evenodd;stroke:none;stroke-width:0.0352778"
       id="path2222" />
    <path
       d="m 274.70743,145.44833 c 0.0564,0.0247 0.10936,0.0529 0.16228,0.0776 -0.0494,-0.0176 -0.0988,-0.0317 -0.15169,-0.0494 -0.004,-0.0106 -0.007,-0.0212 -0.0106,-0.0282"
       style="fill:#000000;fill-opacity:1;fill-rule:evenodd;stroke:none;stroke-width:0.0352778"
       id="path2224" />
    <path
       d="m 238.98163,198.13922 c 0.97366,-1.12536 2.50472,-1.88031 2.94569,-3.37608 0.3175,-1.0795 1.45345,-1.59103 2.51884,-1.94028 3.22791,-1.05834 6.477,-2.04611 9.73313,-3.02684 0.60325,-0.17991 1.016,0.13759 1.1042,0.73025 0.0317,0.21873 0.0388,0.55387 -0.10936,0.67734 -1.66511,1.41111 -3.40078,2.75872 -5.04472,4.18747 -1.62984,1.41464 -3.17853,2.90336 -4.70606,4.30742 -1.38289,-0.12348 -2.52942,-0.0988 -3.55953,-0.35278 -1.02658,-0.25047 -1.93675,-0.77258 -2.8963,-1.17475 l -0.18345,0.19755 c 0.0353,-0.0811 0.0988,-0.18697 0.14817,-0.28575 0.0212,0.0212 0.0282,0.0353 0.0494,0.0564"
       style="fill:#000000;fill-opacity:1;fill-rule:evenodd;stroke:none;stroke-width:0.0352778"
       id="path2234" />
    <path
       d="m 63.666952,196.48116 c 1.112308,0.0494 2.236963,0.0388 3.346097,0.10584 1.251655,0.0776 1.83268,0.87489 2.335741,1.72508 -4.079875,-0.21167 -8.230658,-0.0811 -12.413544,0.0952 -4.287661,0.18344 -8.701264,0.91722 -12.853811,-0.0741 1.759656,-0.51859 3.558117,-1.29117 5.231695,-1.24884 4.781902,0.13759 9.599788,-0.8008 14.353822,-0.60325"
       style="fill:#000000;fill-opacity:1;fill-rule:evenodd;stroke:none;stroke-width:0.0352778"
       id="path2236" />
    <path
       d="m 44.081435,198.33325 c -0.186266,0.0529 -0.372533,0.10583 -0.557741,0.15522 l 0.1524,-0.24342 c 0.136525,0.0353 0.270227,0.0529 0.405341,0.0882"
       style="fill:#000000;fill-opacity:1;fill-rule:evenodd;stroke:none;stroke-width:0.0352778"
       id="path2238" />
    <path
       d="m 259.56268,183.17791 c 1.7392,-0.94191 3.51014,-1.83444 5.27403,-2.74108 1.50636,-0.77964 3.0092,-1.56986 4.53672,-2.31422 0.20461,-0.0953 0.7232,-0.0318 0.78317,0.0917 0.17639,0.381 0.36689,0.85019 0.25047,1.24178 -0.14111,0.45861 -0.49389,0.99836 -0.93133,1.28411 -2.12372,1.37583 -4.30389,2.67758 -6.24064,3.86997 -1.16417,0.19403 -2.00378,0.43039 -2.81869,0.42333 -0.45862,0 -0.92781,-0.3563 -1.26648,-0.66322 -0.38452,-0.33866 -0.21872,-0.85372 0.41275,-1.19239"
       style="fill:#000000;fill-opacity:1;fill-rule:evenodd;stroke:none;stroke-width:0.0352778"
       id="path2240" />
    <path
       d="m 261.22427,178.98339 c -0.42686,0.21872 -1.11125,0.17286 -1.60161,0.06 -0.48331,-0.11642 -0.90312,-0.43392 -1.27353,-0.73731 -0.0953,-0.0741 0.0388,-0.43744 0.16228,-0.63147 1.49577,-2.37772 4.04283,-3.54189 6.92502,-4.70606 0.51506,0.23989 1.27353,0.44803 1.79917,0.87137 0.61031,0.49036 0.4445,1.59455 -0.15875,1.93322 -1.94028,1.09008 -3.86997,2.1978 -5.85258,3.21028"
       style="fill:#000000;fill-opacity:1;fill-rule:evenodd;stroke:none;stroke-width:0.0352778"
       id="path2242" />
    <path
       d="m 297.03121,143.34578 c 2.82928,0.25752 3.94758,3.00919 6.858,3.24555 0.45508,0.0353 0.86078,0.51858 1.17122,0.88195 0.30339,0.3563 0.61384,0.79727 0.64206,1.23472 0.0247,0.44097 -0.21167,0.98072 -0.52917,1.35114 -0.11289,0.13052 -1.07244,0.0282 -1.21355,-0.19756 -0.81492,-1.32644 -1.83092,-1.397 -3.23145,-0.35983 -0.13405,0.0988 -0.44097,0.0212 -0.6985,-0.0106 -1.41817,-1.8803 -2.8328,-3.76061 -4.25097,-5.64091 0.43392,-0.22578 0.88194,-0.53975 1.25236,-0.50447"
       style="fill:#000000;fill-opacity:1;fill-rule:evenodd;stroke:none;stroke-width:0.0352778"
       id="path2244" />
    <path
       d="m 29.041813,198.54491 c -0.06385,0.0141 -0.129822,0.0247 -0.194027,0.0353 l 0.09984,-0.18344 c 0.03316,0.0423 0.06209,0.0988 0.09419,0.14816"
       style="fill:#000000;fill-opacity:1;fill-rule:evenodd;stroke:none;stroke-width:0.0352778"
       id="path2246" />
    <path
       d="m 43.523694,198.48847 c -0.100895,-0.0388 -0.204611,-0.06 -0.306211,-0.0917 0.150988,-0.0529 0.301272,-0.0882 0.451555,-0.14464 0.0071,-0.007 -0.145344,0.23636 -0.145344,0.23636"
       style="fill:#000000;fill-opacity:1;fill-rule:evenodd;stroke:none;stroke-width:0.0352778"
       id="path2248" />
    <path
       d="m 29.760422,199.40569 c -0.296686,-0.0212 -0.492831,-0.50447 -0.718609,-0.86078 4.812242,-0.84314 9.630128,-1.72508 14.17567,-0.14816 -4.501798,1.51341 -8.987367,1.35114 -13.457061,1.00894"
       style="fill:#000000;fill-opacity:1;fill-rule:evenodd;stroke:none;stroke-width:0.0352778"
       id="path2250" />
    <path
       d="m 28.847786,198.58019 c -0.04445,-0.0141 -0.0889,-0.0176 -0.135467,-0.0317 0.07761,-0.0494 0.153106,-0.0882 0.2286,-0.14111 0.0067,-0.0106 -0.09313,0.17286 -0.09313,0.17286"
       style="fill:#000000;fill-opacity:1;fill-rule:evenodd;stroke:none;stroke-width:0.0352778"
       id="path2252" />
    <path
       d="m 28.712319,198.54844 c -2.638425,1.778 -5.515328,1.91911 -8.453967,1.60161 -0.229658,-0.0282 -0.421922,-0.20814 -0.634294,-0.31044 0.379236,-0.32103 0.807861,-0.92781 1.126772,-0.9137 2.643011,0.11642 5.370689,-1.13241 7.961489,-0.37747"
       style="fill:#000000;fill-opacity:1;fill-rule:evenodd;stroke:none;stroke-width:0.0352778"
       id="path2254" />
    <path
       d="m -86.075217,157.0018 c -0.210256,-0.0459 -0.469195,-0.27516 -0.47872,-0.45155 -0.0127,-0.21167 0.148167,-0.54328 0.352778,-0.67734 1.471789,-0.96308 3.072694,-1.53105 4.77908,-1.10419 0.995892,0.25047 1.920875,0.64206 3.031773,0.33514 -1.781881,0.78669 -3.52037,1.63689 -5.341409,2.24367 -0.673805,0.22225 -1.568802,-0.17639 -2.343502,-0.34573"
       style="fill:#000000;fill-opacity:1;fill-rule:evenodd;stroke:none;stroke-width:0.0352778"
       id="path2256" />
    <path
       d="m -78.20404,155.01919 c 0.01835,-0.0176 -0.02222,0.0529 -0.02222,0.0529 -0.05715,0.0212 -0.109714,0.0141 -0.164041,0.0317 0.06138,-0.0282 0.124177,-0.0564 0.186266,-0.0847"
       style="fill:#000000;fill-opacity:1;fill-rule:evenodd;stroke:none;stroke-width:0.0352778"
       id="path2258" />
    <path
       id="path2264"
       style="fill:none;fill-opacity:1;fill-rule:evenodd;stroke:none;stroke-width:0.0352778"
       d="M 172.10202 210.52172 C 171.61871 208.49677 171.32591 207.33261 171.08249 206.16139 C 171.05429 206.01322 171.36119 205.63575 171.45644 205.6428 C 171.71749 205.6569 172.07732 205.75922 172.17257 205.93561 C 173.10038 207.64305 173.77419 209.43164 173.68246 211.43541 C 173.67186 211.6118 173.41082 211.94694 173.26266 211.96105 C 173.01219 211.98225 172.60649 211.87635 172.53241 211.71058 C 172.2396 211.06147 172.0491 210.3665 172.10202 210.52172 " />
    <path
       d="m 84.085729,202.56658 c 2.526594,0.49389 5.078589,-1.01953 7.603419,-0.36336 -2.500489,1.32997 -5.038725,1.4358 -7.603419,0.36336"
       style="fill:#000000;fill-opacity:1;fill-rule:evenodd;stroke:none;stroke-width:0.0352778"
       id="path2266" />
    <path
       d="m 91.961845,202.26319 c -0.09137,-0.0318 -0.183444,-0.0353 -0.272697,-0.06 0.138642,-0.0776 0.283281,-0.13758 0.425803,-0.22578 l -0.153106,0.28575"
       style="fill:#000000;fill-opacity:1;fill-rule:evenodd;stroke:none;stroke-width:0.0352778"
       id="path2268" />
    <path
       d="m 248.58071,202.7218 c 1.62983,-0.80786 3.09033,-0.74083 4.33917,0.3422 -1.39347,1.25589 -2.88925,1.20297 -4.41325,0.6738 -0.18345,-0.0635 -0.40922,-0.29633 -0.381,-0.43391 0.0423,-0.20462 0.24341,-0.47625 0.45508,-0.58209"
       style="fill:#000000;fill-opacity:1;fill-rule:evenodd;stroke:none;stroke-width:0.0352778"
       id="path2270" />
    <path
       d="m 268.67846,168.08961 c 0.68086,0.13758 0.81845,0.60678 0.49389,1.1818 -0.41628,0.74084 -1.07597,1.23825 -1.98614,1.25942 -1.09008,0.0247 -2.17311,-0.0635 -3.25614,-0.10936 1.04775,-1.74625 2.49414,-2.78342 4.74839,-2.33186"
       style="fill:#000000;fill-opacity:1;fill-rule:evenodd;stroke:none;stroke-width:0.0352778"
       id="path2282" />
    <path
       d="m 117.24472,200.77447 c 0.47131,-0.0847 0.99307,0.0988 1.46615,0.2293 0.22683,0.06 0.58173,0.33162 0.5528,0.381 -0.21237,0.35278 -0.50729,0.67028 -0.77576,0.99837 -0.51576,0.0529 -1.11513,0.254 -1.52717,0.11288 -0.37889,-0.13052 -0.74366,-0.60677 -0.75706,-0.97366 -0.008,-0.22225 0.65052,-0.67734 1.04104,-0.74789"
       style="fill:#000000;fill-opacity:1;fill-rule:evenodd;stroke:none;stroke-width:0.0352778"
       id="path2284" />
    <path
       d="m 27.615533,205.62869 c -0.367242,0.32103 -0.711553,0.82903 -1.117953,0.91017 -0.478719,0.0988 -1.030817,-0.14817 -1.515533,-0.30692 -0.2286,-0.0741 -0.378178,-0.29633 -0.56515,-0.45155 0.43815,-0.27164 0.843491,-0.6597 1.317625,-0.7867 1.214966,-0.33514 1.853847,-0.0705 1.881011,0.635"
       style="fill:#000000;fill-opacity:1;fill-rule:evenodd;stroke:none;stroke-width:0.0352778"
       id="path2286" />
    <path
       d="m 97.526209,196.04372 c 0.723195,-0.59972 1.531761,-0.61031 2.330803,-0.33161 0.0099,0.004 -0.144286,0.52916 -0.327731,0.62089 -0.4953,0.24341 -1.040341,0.43039 -1.583266,0.55033 -0.239536,0.0564 -0.519642,-0.0988 -0.780345,-0.16228 0.117122,-0.2293 0.169686,-0.51505 0.360539,-0.67733"
       style="fill:#000000;fill-opacity:1;fill-rule:evenodd;stroke:none;stroke-width:0.0352778"
       id="path2288" />
    <path
       d="m -95.13702,157.93666 c 0.06315,-0.37041 0.03881,-0.6985 0.133703,-0.73377 0.762353,-0.29634 1.541639,-0.56092 2.329039,-0.77964 0.131939,-0.0353 0.328789,0.18697 0.495652,0.28928 -0.183444,0.19402 -0.330905,0.4833 -0.552802,0.55738 -0.765881,0.25753 -1.556103,0.43745 -2.405592,0.66675"
       style="fill:#000000;fill-opacity:1;fill-rule:evenodd;stroke:none;stroke-width:0.0352778"
       id="path2296" />
    <path
       d="m 299.14788,151.97472 c -0.47625,0.49036 -0.98073,0.53622 -1.33703,0.10231 -0.127,-0.15523 -0.14817,-0.4692 -0.0529,-0.66323 0.4445,-0.88547 0.94192,-1.74977 2.20839,-1.86619 0.70556,0.95955 -0.10583,1.6898 -0.81844,2.42711"
       style="fill:#000000;fill-opacity:1;fill-rule:evenodd;stroke:none;stroke-width:0.0352778"
       id="path2304" />
    <path
       d="m 299.96632,149.54761 c -0.0176,-0.0212 -0.0247,-0.0423 -0.0423,-0.067 0.0353,0 0.0705,0.007 0.10583,0.0106 0.0106,0.0141 0.0212,0.0282 0.0318,0.0459 -0.0318,0 -0.06,0.0106 -0.0953,0.0106"
       style="fill:#000000;fill-opacity:1;fill-rule:evenodd;stroke:none;stroke-width:0.0352778"
       id="path2306" />
    <path
       d="m 300.29793,162.48044 c 0.27164,-0.27164 1.03717,-0.4445 1.40759,-0.32455 0.66322,0.21519 0.47625,1.28411 -0.34573,1.69686 -0.36336,0.18344 -0.94544,-0.0106 -1.4358,-0.0388 0.11289,-0.45508 0.067,-1.02305 0.37394,-1.3335"
       style="fill:#000000;fill-opacity:1;fill-rule:evenodd;stroke:none;stroke-width:0.0352778"
       id="path2308" />
    <path
       d="m -38.879196,195.87791 c -0.272345,0.27164 -0.543984,0.53975 -0.811742,0.80786 -0.246944,0.0565 -0.49918,0.1517 -0.734836,0.14464 -0.149225,-0.007 -0.272344,-0.1658 -0.412044,-0.25752 0.413102,-0.23284 0.808566,-0.49389 1.240013,-0.67734 0.201789,-0.0847 0.475192,-0.0176 0.718609,-0.0176"
       style="fill:#000000;fill-opacity:1;fill-rule:evenodd;stroke:none;stroke-width:0.0352778"
       id="path2310" />
    <path
       d="m 103.96617,201.55058 c 1.05904,-0.25753 2.10114,-0.43039 2.48532,0.64206 -0.7486,0.15875 -1.49825,0.35277 -2.25143,0.45155 -0.70203,0.0952 -1.04422,-0.19755 -0.85619,-0.66322 0.0699,-0.17639 0.38982,-0.37042 0.6223,-0.43039"
       style="fill:#000000;fill-opacity:1;fill-rule:evenodd;stroke:none;stroke-width:0.0352778"
       id="path2312" />
    <path
       d="m 106.74006,202.27025 c -0.0727,0.0317 -0.14605,0.067 -0.21908,0.0952 -0.0212,-0.06 -0.0473,-0.11289 -0.0695,-0.17286 0.0589,-0.0106 0.11712,-0.0282 0.17709,-0.0388 0.0321,0.0459 0.0769,0.0741 0.11148,0.11642"
       style="fill:#000000;fill-opacity:1;fill-rule:evenodd;stroke:none;stroke-width:0.0352778"
       id="path2314" />
    <path
       d="m 215.04918,198.3403 c 0.70909,-0.127 1.0795,0.0811 1.0407,0.66675 -0.0176,0.21167 -0.12347,0.47625 -0.29281,0.63853 -0.85725,0.83608 -1.91205,0.91369 -2.72697,0.23283 -0.0388,-0.19402 -0.1905,-0.43391 -0.1023,-0.57502 0.45155,-0.74789 1.29116,-0.81845 2.08138,-0.96309"
       style="fill:#000000;fill-opacity:1;fill-rule:evenodd;stroke:none;stroke-width:0.0352778"
       id="path2316" />
    <path
       d="m 94.912126,202.05505 c -0.371475,0.28575 -0.707672,0.71967 -1.121833,0.83961 -0.794103,0.21873 -1.228373,-0.16227 -1.534584,-0.67733 0.673806,-0.11289 1.350434,-0.23989 2.025297,-0.32808 0.206375,-0.0282 0.42157,0.10583 0.63112,0.1658"
       style="fill:#000000;fill-opacity:1;fill-rule:evenodd;stroke:none;stroke-width:0.0352778"
       id="path2324" />
    <path
       d="m 91.963609,202.26672 c -0.0018,-0.004 0.151342,-0.28928 0.151342,-0.28928 0.04057,0.0882 0.09384,0.16228 0.140758,0.23989 -0.09525,0.0176 -0.194028,0.0317 -0.2921,0.0494"
       style="fill:#000000;fill-opacity:1;fill-rule:evenodd;stroke:none;stroke-width:0.0352778"
       id="path2326" />
    <path
       d="m 86.320576,196.2448 c 0.595489,0.1905 1.258711,0.17286 1.995311,-0.0106 0.756356,-0.18697 1.411817,-0.0494 1.798814,0.52564 -1.597731,0.79375 -2.702278,0.15522 -3.794125,-0.51506"
       style="fill:#000000;fill-opacity:1;fill-rule:evenodd;stroke:none;stroke-width:0.0352778"
       id="path2328" />
    <path
       d="m 90.215595,196.88686 c -0.02928,-0.0529 -0.06879,-0.0776 -0.100894,-0.127 0.06597,-0.0318 0.123119,-0.0459 0.189089,-0.0811 0.02434,0.0564 0.06103,0.0882 0.08537,0.13758 -0.05715,0.0247 -0.114653,0.0459 -0.172861,0.067 l -7.06e-4,0.004"
       style="fill:#000000;fill-opacity:1;fill-rule:evenodd;stroke:none;stroke-width:0.0352778"
       id="path2330" />
    <path
       d="m 279.26532,200.36877 c 0.0247,0.14464 0.127,0.38453 0.067,0.42334 -0.20814,0.14464 -0.47272,0.21166 -0.71967,0.31044 -0.0353,-0.16933 -0.15522,-0.45155 -0.10583,-0.47978 0.22931,-0.12347 0.50094,-0.17638 0.75847,-0.254"
       style="fill:#000000;fill-opacity:1;fill-rule:evenodd;stroke:none;stroke-width:0.0352778"
       id="path2356" />
    <path
       d="m 110.00396,201.86455 c -0.40922,0.30339 -0.7807,0.74084 -1.23613,0.87842 -0.80399,0.23989 -1.55046,0.13053 -2.02777,-0.47272 0.7052,-0.30692 1.39559,-0.65264 2.1216,-0.83256 0.33267,-0.0847 0.75742,0.27164 1.1423,0.42686"
       style="fill:#000000;fill-opacity:1;fill-rule:evenodd;stroke:none;stroke-width:0.0352778"
       id="path2368" />
    <path
       d="m -79.946409,193.05569 -0.611717,-0.0494 0.512939,-0.3563 z"
       style="fill:#000000;fill-opacity:1;fill-rule:evenodd;stroke:none;stroke-width:0.0352778"
       id="path2404" />
    <path
       d="m -46.461449,197.27844 -0.632178,-0.004 0.47237,-0.39864 z"
       style="fill:#000000;fill-opacity:1;fill-rule:evenodd;stroke:none;stroke-width:0.0352778"
       id="path2408" />
    <path
       d="m 7.9164222,200.34408 c -0.1213556,0.14817 -0.20955,0.36689 -0.3686528,0.43392 -0.1774472,0.0741 -0.4148666,0.0106 -0.6290027,0.0106 0.1259416,-0.15522 0.219075,-0.37394 0.3848805,-0.44803 0.1675695,-0.0705 0.4060472,-0.004 0.612775,0.004"
       style="fill:#000000;fill-opacity:1;fill-rule:evenodd;stroke:none;stroke-width:0.0352778"
       id="path2410" />
    <path
       d="m 70.620907,197.68766 c 0.61983,-0.49036 0.868892,-0.49741 0.814564,0.0988 -0.0021,0.0176 -0.475897,0.0141 -0.711553,0.0811 -0.45085,0.13406 -0.887236,0.31397 -1.330325,0.47272 0.386645,-0.22578 0.8763,-0.37394 1.227314,-0.65264"
       style="fill:#000000;fill-opacity:1;fill-rule:evenodd;stroke:none;stroke-width:0.0352778"
       id="path2412" />
    <path
       d="m 79.087573,196.85158 -0.645936,0.0706 0.41522,-0.4445 z"
       style="fill:#000000;fill-opacity:1;fill-rule:evenodd;stroke:none;stroke-width:0.0352778"
       id="path2414" />
    <path
       d="m 90.389162,196.8163 c 0.639939,-0.23636 1.271764,-0.4833 1.920522,-0.67733 0.171803,-0.0494 0.409222,0.13053 0.61595,0.20108 -0.285044,0.33867 -0.502355,0.8502 -0.865011,0.98425 -0.726369,0.27164 -1.351492,0.0988 -1.671461,-0.508"
       style="fill:#000000;fill-opacity:1;fill-rule:evenodd;stroke:none;stroke-width:0.0352778"
       id="path2416" />
    <path
       d="m 78.033473,203.02166 c -0.142522,0.16934 -0.282927,0.3422 -0.426508,0.508 -0.230717,-0.0176 -0.462492,-0.0388 -0.693208,-0.06 0.138641,-0.1658 0.247297,-0.41628 0.42545,-0.4833 0.198966,-0.0741 0.459669,0.0176 0.694266,0.0353"
       style="fill:#000000;fill-opacity:1;fill-rule:evenodd;stroke:none;stroke-width:0.0352778"
       id="path2418" />
    <path
       d="m 295.69771,143.74089 c 0.0247,0.0353 0.0564,0.0705 0.0811,0.10936 -0.0635,0.0318 -0.13406,0.0741 -0.20108,0.1023 0.0282,-0.12347 0.007,-0.2293 0.0176,-0.34572 0.0423,0.0317 0.0741,0.067 0.11995,0.0988 -0.004,0.007 -0.0176,0.0247 -0.0176,0.0353"
       style="fill:#000000;fill-opacity:1;fill-rule:evenodd;stroke:none;stroke-width:0.0352778"
       id="path2420" />
    <path
       d="m 295.5954,143.60683 c -0.87488,-0.67733 -1.41816,-1.524 -1.62983,-2.54705 1.17828,0.54327 1.73567,1.38288 1.62983,2.54705"
       style="fill:#000000;fill-opacity:1;fill-rule:evenodd;stroke:none;stroke-width:0.0352778"
       id="path2422" />
    <path
       d="m 110.83016,206.08377 c 0.0455,0 0.0889,0.004 0.13547,0.007 l -0.11818,0.15169 c -0.0649,-0.004 -0.12206,-0.0106 -0.18027,-0.0141 0.0543,-0.0282 0.11042,-0.0529 0.16686,-0.0776 -0.002,-0.0212 -0.004,-0.0459 -0.004,-0.067"
       style="fill:#000000;fill-opacity:1;fill-rule:evenodd;stroke:none;stroke-width:0.0352778"
       id="path2424" />
    <path
       d="m 109.28923,206.22136 c 0.37641,-0.16934 0.89676,-0.0388 1.37795,0.007 -0.38488,0.17639 -0.76623,0.36689 -1.16664,0.45861 -0.67168,0.15523 -0.81632,-0.19402 -0.21131,-0.46566"
       style="fill:#000000;fill-opacity:1;fill-rule:evenodd;stroke:none;stroke-width:0.0352778"
       id="path2426" />
    <path
       d="m 307.19121,157.28403 c -0.16228,0.11994 -0.31397,0.28927 -0.49742,0.34219 -0.0847,0.0247 -0.2293,-0.17639 -0.34925,-0.27164 0.16228,-0.13053 0.31398,-0.30339 0.49742,-0.36336 0.0776,-0.0282 0.23283,0.18697 0.34925,0.29281"
       style="fill:#000000;fill-opacity:1;fill-rule:evenodd;stroke:none;stroke-width:0.0352778"
       id="path2428" />
    <path
       d="m 253.59016,176.37636 c 0.68791,0.0353 0.75494,0.3563 0.15169,0.79022 -0.14464,0.10231 -0.44097,0.0388 -0.66322,0.0529 -0.0423,-0.17992 -0.18345,-0.40923 -0.0988,-0.52564 0.11642,-0.15522 0.41981,-0.32809 0.61031,-0.3175"
       style="fill:#000000;fill-opacity:1;fill-rule:evenodd;stroke:none;stroke-width:0.0352778"
       id="path2430" />
    <path
       d="m 222.39049,189.23511 c -0.21519,0.06 -0.49036,-0.0811 -0.73731,-0.13406 0.15523,-0.19403 0.27517,-0.47625 0.47625,-0.55033 0.17639,-0.0706 0.44803,0.0917 0.67734,0.15169 -0.13759,0.18345 -0.24342,0.48331 -0.41628,0.5327"
       style="fill:#000000;fill-opacity:1;fill-rule:evenodd;stroke:none;stroke-width:0.0352778"
       id="path2432" />
    <path
       d="m 200.14432,199.14816 c 0.17992,0.10936 0.45861,0.17992 0.51859,0.33867 0.0705,0.16228 -0.0635,0.40569 -0.10936,0.61383 -0.18698,-0.11641 -0.37042,-0.23636 -0.55739,-0.35277 0.0494,-0.19756 0.0988,-0.39864 0.14816,-0.59973"
       style="fill:#000000;fill-opacity:1;fill-rule:evenodd;stroke:none;stroke-width:0.0352778"
       id="path2434" />
    <path
       d="m 228.21485,194.18105 c 0.0635,-0.0952 0.0988,-0.17991 0.13758,-0.26458 0.49037,-0.53622 1.02659,-0.81492 1.75331,-0.2787 0.06,0.0388 -0.15875,0.48684 -0.19756,0.48331 -0.51505,-0.0212 -1.016,-0.0952 -1.524,-0.15522 l -0.16933,0.21519"
       style="fill:#000000;fill-opacity:1;fill-rule:evenodd;stroke:none;stroke-width:0.0352778"
       id="path2436" />
    <path
       d="m 237.47174,193.23914 c -0.20814,-0.007 -0.41275,-0.0176 -0.62089,-0.0247 0.33514,-0.14817 0.67028,-0.2928 1.00894,-0.43744 -0.13052,0.15522 -0.25752,0.30691 -0.38805,0.46214"
       style="fill:#000000;fill-opacity:1;fill-rule:evenodd;stroke:none;stroke-width:0.0352778"
       id="path2438" />
    <path
       d="m -65.169607,194.77019 c 0.05786,-0.06 0.117122,-0.11994 0.176389,-0.17992 0.103717,0.43039 0.04163,0.4692 -0.176389,0.17992"
       style="fill:#000000;fill-opacity:1;fill-rule:evenodd;stroke:none;stroke-width:0.0352778"
       id="path2440" />
    <path
       d="m 275.60349,116.86275 0.0141,-0.18345 0.36336,0.0212 -0.22578,0.0953 c 0.13053,0.10583 0.30692,0.254 0.30692,0.254 l -0.45861,-0.18697"
       style="fill:#000000;fill-opacity:1;fill-rule:evenodd;stroke:none;stroke-width:0.0352778"
       id="path2442" />
    <path
       d="m 85.299637,196.15661 0.143581,-0.38806 0.18415,0.0635 c 0.234597,0.13053 0.46355,0.27164 0.693208,0.41275 -0.255058,-0.0811 -0.498475,-0.20461 -0.727075,-0.37394 -0.07267,0.0705 -0.293864,0.28575 -0.293864,0.28575"
       style="fill:#000000;fill-opacity:1;fill-rule:evenodd;stroke:none;stroke-width:0.0352778"
       id="path2444" />
    <path
       d="m 288.8256,139.23239 c 0.18697,-0.45861 0.29633,-0.96661 1.22414,-1.09009 1.48519,-0.19755 0.71966,0.86078 1.09008,1.26295 l 0.0388,0.10583 c -0.82198,0 -1.64395,0.007 -2.47298,0.0176 -0.0282,0.0282 -0.06,0.0635 -0.0882,0.0917 0.007,-0.0141 -0.25753,-0.0811 -0.25753,-0.0811 0.0564,-0.14111 0.10936,-0.28575 0.16581,-0.42686 0.0988,0.0388 0.19755,0.0811 0.29986,0.11995"
       style="fill:#000000;fill-opacity:1;fill-rule:evenodd;stroke:none;stroke-width:0.0352778"
       id="path2446" />
    <path
       d="m 122.35929,196.07194 -0.46919,0.21872 0.036,-0.48683 z"
       style="fill:#000000;fill-opacity:1;fill-rule:evenodd;stroke:none;stroke-width:0.0352778"
       id="path2448" />
    <path
       d="m 293.61632,138.60444 c 1.24178,0.63147 0.34925,1.44639 0.29633,2.21545 0.0176,0.10583 0.0388,0.16933 0.0529,0.23989 -0.94544,-0.51859 -1.86267,-1.03364 -2.78694,-1.5487 0,0 -0.0388,-0.10583 -0.0388,-0.10583 0.77611,-0.39864 1.22414,-1.43581 2.4765,-0.80081"
       style="fill:#000000;fill-opacity:1;fill-rule:evenodd;stroke:none;stroke-width:0.0352778"
       id="path2450" />
    <path
       d="m 110.83016,206.08377 c -0.12241,-0.007 -0.24341,-0.0176 -0.36371,-0.0212 0.2286,-0.35631 0.34431,-0.33161 0.36371,0.0212"
       style="fill:#000000;fill-opacity:1;fill-rule:evenodd;stroke:none;stroke-width:0.0352778"
       id="path2452" />
    <path
       d="m 286.86768,151.75953 -0.19403,-0.29281 0.4692,-0.06 z"
       style="fill:#000000;fill-opacity:1;fill-rule:evenodd;stroke:none;stroke-width:0.0352778"
       id="path2454" />
    <path
       d="m 307.44168,163.53172 -0.37394,-0.23636 0.41275,-0.18697 z"
       style="fill:#000000;fill-opacity:1;fill-rule:evenodd;stroke:none;stroke-width:0.0352778"
       id="path2458" />
    <path
       d="m 228.04199,193.12977 c 0.39511,0.13406 0.48683,0.40217 0.31044,0.7867 -0.17638,-0.12347 -0.38452,-0.21872 -0.51505,-0.37042 -0.0494,-0.0564 0.13053,-0.27164 0.20461,-0.41628"
       style="fill:#000000;fill-opacity:1;fill-rule:evenodd;stroke:none;stroke-width:0.0352778"
       id="path2460" />
    <path
       d="m 239.01338,197.82525 c 0.0317,0.0247 -0.0176,0.13405 -0.0811,0.25752 -0.40922,-0.47625 -0.381,-0.58561 0.0811,-0.25752"
       style="fill:#000000;fill-opacity:1;fill-rule:evenodd;stroke:none;stroke-width:0.0352778"
       id="path2462" />
    <g
       aria-label="6-9 Juli"
       id="text571"
       style="font-size:66.2523px;line-height:1.25;letter-spacing:0px;word-spacing:0px;fill:#fdfbf1;stroke-width:1.65631;fill-opacity:1">
      <path
         d="m 137.70236,168.76625 c 0.13251,-4.77016 -1.85506,-7.95028 -6.02896,-9.47408 -1.92131,-0.72877 -3.97514,-1.06003 -6.02896,-1.06003 -2.31883,0 -4.77016,0.46376 -7.28775,1.39129 1.78881,-5.49894 3.97514,-8.21528 6.69148,-8.21528 0.59627,0 1.2588,0.39751 1.98757,1.25879 0.59627,0.59627 1.12629,1.2588 1.72256,1.92132 l 5.63145,-9.60658 c -3.11386,-4.83642 -6.89024,-7.28776 -11.3954,-7.28776 -5.23393,0 -9.34157,2.9151 -12.45543,8.67905 -2.58384,4.77017 -3.90889,10.0041 -3.97514,15.63555 -0.0662,5.69769 1.12629,10.93163 3.57763,15.63554 2.98135,5.76395 7.02274,8.67905 12.25667,8.67905 4.04139,0 7.61901,-1.92132 10.73287,-5.8302 2.9151,-3.64388 4.43891,-7.55276 4.57141,-11.72666 z m -9.60658,2.05382 c 0.19875,0.46377 0.26501,0.86128 0.26501,1.2588 0,1.19254 -0.92753,2.25257 -2.71635,3.11385 -1.06003,0.46377 -2.05382,0.72878 -2.9151,0.72878 -2.18632,0 -3.84263,-1.65631 -4.90267,-4.90267 1.06004,-0.46377 2.18633,-0.79503 3.44512,-1.12629 0,0 0.72878,-0.19876 2.18633,-0.66252 0.99378,-0.33127 1.6563,-0.46377 2.05382,-0.46377 1.06004,0 1.92132,0.66252 2.58384,2.05382 z"
         style="font-family:BadaBoom;-inkscape-font-specification:BadaBoom;fill:#fdfbf1;fill-opacity:1"
         id="path919" />
      <path
         d="m 162.08322,161.14724 -20.93573,2.58384 2.71634,9.87159 c 5.89646,-1.19254 12.52169,-2.05382 19.87569,-2.65009 z"
         style="font-family:BadaBoom;-inkscape-font-specification:BadaBoom;fill:#fdfbf1;fill-opacity:1"
         id="path921" />
      <path
         d="m 201.43711,151.73941 c 0,-4.4389 -1.78881,-8.08278 -5.36644,-10.79912 -3.37886,-2.58384 -7.354,-3.71013 -11.85916,-3.37887 -4.57141,0.33126 -8.54654,2.12007 -11.92541,5.23393 -3.57762,3.24636 -5.36644,7.15525 -5.36644,11.59415 0,4.57141 1.78882,8.14903 5.36644,10.86538 3.37887,2.58384 7.354,3.64387 11.92541,3.31261 0.72878,-0.0662 1.52381,-0.1325 2.45134,-0.33126 l -4.3064,15.90055 10.40161,1.92132 c 1.65631,-8.54655 4.10764,-18.02062 7.354,-28.28973 0.86128,-1.92132 1.32505,-3.90889 1.32505,-6.02896 z m -12.05792,3.37887 c 0,2.65009 -2.65009,4.63766 -5.36643,4.83641 -2.71635,0.19876 -5.30019,-1.45755 -5.30019,-4.10764 0,-2.58384 2.65009,-4.63766 5.30019,-4.83642 1.32504,-0.0662 2.51758,0.19876 3.57762,0.92754 1.19254,0.86128 1.78881,1.92131 1.78881,3.18011 z"
         style="font-family:BadaBoom;-inkscape-font-specification:BadaBoom;fill:#fdfbf1;fill-opacity:1"
         id="path923" />
      <path
         d="m 253.51142,183.73927 c -0.86128,-7.75152 -1.25879,-15.23803 -1.25879,-22.52578 0,-7.61902 0.1325,-15.10552 0.46376,-22.39328 l -10.66662,2.05382 1.32505,33.12615 -7.75152,-1.25879 -3.24636,11.46165 6.16146,1.25879 c 3.37887,0.72877 5.23393,1.06004 5.63145,1.06004 z"
         style="font-family:BadaBoom;-inkscape-font-specification:BadaBoom;fill:#fdfbf1;fill-opacity:1"
         id="path925" />
      <path
         d="m 284.31872,183.73927 c -0.79503,-7.48651 -1.19254,-15.03927 -1.25879,-22.52578 -0.0663,-7.48651 0.1325,-14.90677 0.46376,-22.39328 l -10.66662,2.05382 0.99379,25.70589 -5.8302,3.90889 c -0.26501,-5.03517 -0.33127,-10.26911 -0.19876,-15.63554 0.0662,-5.36644 0.26501,-10.73287 0.53002,-16.03306 l -10.66662,2.05382 0.59627,40.61266 7.61901,3.71013 c 1.78881,-1.32505 3.18011,-2.31883 4.1739,-2.9151 1.92131,-1.3913 3.37886,-2.31883 4.3064,-2.84885 l 0.26501,7.15525 z"
         style="font-family:BadaBoom;-inkscape-font-specification:BadaBoom;fill:#fdfbf1;fill-opacity:1"
         id="path927" />
      <path
         d="m 309.22956,170.0913 -10.99788,1.78881 c -0.26501,-5.49894 -0.39751,-11.06414 -0.33126,-16.56308 0.0663,-5.49894 0.19875,-10.99788 0.46376,-16.49682 l -10.66662,2.05382 1.78882,45.71409 c 8.41404,-2.45134 15.50303,-3.97514 21.39949,-4.50516 z"
         style="font-family:BadaBoom;-inkscape-font-specification:BadaBoom;fill:#fdfbf1;fill-opacity:1"
         id="path929" />
      <path
         d="m 325.72636,183.73927 c -0.72877,-7.48651 -1.12629,-15.03927 -1.19254,-22.52578 -0.0662,-7.48651 0.0663,-14.90677 0.39752,-22.39328 l -10.60037,2.05382 1.78881,45.71409 z"
         style="font-family:BadaBoom;-inkscape-font-specification:BadaBoom;fill:#fdfbf1;fill-opacity:1"
         id="path931" />
    </g>
  </g>
</svg>
