<svg xmlns="http://www.w3.org/2000/svg" width="261.669" height="41.075" viewBox="0 0 69.233 10.868"><g aria-label="Kommt Bald" style="font-size:17.4563px;-inkscape-font-specification:&quot;sans-serif, Normal&quot;;stroke-width:.163653"><path d="m11.911 8.238.109.109v.109l-.109.108-.109-.108h-.108l-.978.652h-.109q0-.288 1.304-.87zm-4.238.218.108.978q.218 0 .326-.652h.11l.108.434-.326 1.74 1.195-.87h.109L7.999 11.28v.109l2.5-1.848.108.109q1.464-1.195 1.956-1.195h.109l.109.434-.87.87h.109q.217-.435.652-.435l.109.109v-.109l-.11-.109.11-.108h.326l.108.326q-.818.383-3.803 2.825.735 1.605 2.608 4.347v.218l-.109.76-.109-.108h-.108l-.109.434h-.435v-.217h-.108v.217h-.218q0-.383-2.39-4.02l-.218-.653-.543.109q-.14 2.615-.684 3.26v.109l-1.087-.109v-.326l.109-.76q-.326 0-.326-.653.179-1.086.358-1.086l-.11-.109q.327-2.992.653-3.586l-.109-.326.326-.87v-.108l-.108-.11v-.108h.217v.761h.109l.108-.326-.108-.109v-.108q.108-.326.652-.326zm2.825.652h.109l-.435.434h-.108Zm-3.695.543-.108.652v.435h.108l.109-.978V9.65Zm3.152-.109h.109l-.652.544h-.11Zm1.413.435-.435.326-.109.109v.108h.109l.435-.326.108-.108v-.109ZM9.52 16.172h.109l.326.326h-.109Zm.435.326q.275 0 .543 1.086v.11h-.108zM17.511 8.551q1.279 0 2.391.761l-.109.109v.109l.435.652h-.217l-.109-.11h-.109l.326 2.392h.11q0-.544.216-.544v.435q0 .614-1.086 2.826h.108q-.767 1.055-2.282 1.956l-.543.109h-.109q-2.583 0-3.26-2.065l-.435-.652.109-.109-.109-.76v-.218q0-.901 1.739-3.152v.109q-.8 1.074-1.304 2.39v.11h.108q.397-1.592 2.935-4.022l-.761.435h-.109q0-.498 2.065-.76zm-.543 1.848-.109-.109v.109l.109.109-.761.652q-.901 0-1.739 3.043 0 .869.978 1.521h.109q1.189 0 2.717-2.5.543-1.188.543-1.738v-.87q0-.3-1.086-.434h-.11l-.108.108h-.109v-.108zm3.151.326h.218v.543h-.218zm-5.542 1.195-.326.652h.109l.326-.652zm4.238.652-.434 1.087h.326l.326-.76-.11-.327zm.761.435-.109.326v.218h.109l.109-.435v-.109zm-6.412.435v.87h.109v-.87zm5.108.326-.435.543h.109l.435-.543zm-3.478 2.39v.11l.544.326v-.11zM26.39 8.43h.218l-.02.217-.255.435-.096-.109h-.108Zm-4.027.109h.218l.306.217.007-.109q.582.109.825.544.377 0 .78 2.282L26 9.19l.115-.109h.108l-.006.109-1.54 2.717h.217q1.707-3.37 2.033-3.37l.306.218.007-.109q.467 0 1.106 1.087l-.032.326-.115.109.096.109-.039.434h-.217l.16.652-.211 1.196-.032.326.102.108-.013.11-.23.216.192.218-.23.217.192.217-.115.11h-.11l.103.108-.268 3.043q-.326 0-.352.326-.326 0-.377.543h-.326l-.614-.435.166-.652-.16-.652.736-4.673q-.544.57-1.19 2.391-.057.633-.51.87h-.11l.007-.11.121-.108.013-.108-.102-.11.237-.216.025-.327h-.217q-.045.595-.512.87h-.108l-.493-.543q-.287 0-.345-.979-.556-1.131-.511-1.63h-.109l-.224 1.304-.076.87-.135.326.058.543-.205 2.391q-.217 0-.249.326l-.588.544h-.109l-.735-.327.16-.543-.007-1.195.045-.544.115-.108-.096-.11.013-.108q.147-1.662.64-3.586h.108l-.102-.109.013-.108.147-.435-.077-.435.013-.108h.108l-.019.217h.109l.032-.326-.102-.109.396-.76.026-.327-.122.11h-.109l-.095-.11.025-.326h.109l.102.109h.109zm2.724 4.89.083.326h.108q.045-.582 1.343-2.934l.153-.543q-.812 1.01-1.687 3.151zm1.937-2.282-.116.109-.242 2.716h.108l.313-2.282-.102-.108h.109l-.096-.11.006-.108.122-.108.006-.11zm-.71 5.651-.077.87h.109l.16-.544-.083-.326zM34.139 8.43h.217l-.02.217-.255.435-.096-.109h-.108zm-4.028.109h.218l.306.217.007-.109q.582.109.824.544.378 0 .78 2.282L33.75 9.19l.115-.109h.108l-.006.109-1.54 2.717h.217q1.707-3.37 2.033-3.37l.306.218.007-.109q.467 0 1.106 1.087l-.032.326-.115.109.096.109-.039.434h-.217l.16.652-.211 1.196-.032.326.102.108-.013.11-.23.216.192.218-.23.217.192.217-.115.11h-.11l.103.108-.268 3.043q-.326 0-.352.326-.326 0-.377.543h-.326l-.614-.435.166-.652-.16-.652.736-4.673q-.544.57-1.19 2.391-.057.633-.51.87h-.11l.007-.11.121-.108.013-.108-.102-.11.236-.216.026-.327h-.217q-.045.595-.512.87h-.108l-.493-.543q-.287 0-.345-.979-.556-1.131-.511-1.63h-.109l-.224 1.304-.076.87-.135.326.058.543-.205 2.391q-.217 0-.249.326l-.588.544h-.109l-.735-.327.16-.543-.007-1.195.045-.544.115-.108-.096-.11.013-.108q.147-1.662.64-3.586h.108l-.102-.109.013-.108.147-.435-.077-.435.013-.108h.108l-.019.217h.109l.032-.326-.102-.109.396-.76.026-.327-.122.11h-.109l-.096-.11.026-.326h.109l.102.109h.109zm2.724 4.89.083.326h.108q.045-.582 1.343-2.934l.153-.543q-.812 1.01-1.687 3.151zm1.937-2.282-.116.109-.242 2.716h.108l.313-2.282-.102-.108h.109l-.096-.11.006-.108.122-.108.006-.11zm-.71 5.651-.077.87h.109l.16-.544-.083-.326z" style="font-size:13.0923px;font-family:&quot;Edo SZ&quot;;-inkscape-font-specification:&quot;Edo SZ, Normal&quot;" transform="translate(-5.685 -8.085)"/><path d="m42.762 8.385.326.109v.217h-.326l.218.326q-.237.544-1.739.544l-.76.108-.11.326h.11q-.327.774-1.305 6.956l.326 1.412h-.109q-.242 0-.434-1.086l.108-1.087v-.109h-.108v.218q-.326 0-.326.217v.109l.217 1.738v.11h-.217l-.435-.327-.109.109h-.108q-.435-.94-.435-1.63l.109.108h.108l-.217-.76.326-.11v-.542h-.217v-.11q.326 0 .326-.216v-.11h-.218q0-.869.326-.869v-1.412q.173-.154.435-2.283l-.76.11-1.522-.11v-.108l.543-.109v.109l.109-.109h1.63v-.326l-1.739.217-.108-.108h-.11l-.651.108-.326-.217.108-.543-.108-.109q0-.543 1.304-.543zm-.652.326v.109h.435v-.109Zm-4.02 6.086-.218 2.391h.217l-.108-.543v-.218l.217-.326h-.109l.109-.108v-.11l-.109-.108v-.108l.218-.435-.109-.435zM50.063 8.257l.524.167-.013.108-.537-.057zm-2.078-.012.3.255.998-.108.096.121.109.013.332-.07q1.828.191 2.64 1.815.218.026.16.563l-.083.76-.217-.025.012-.109.147-.313-.096-.122.116-.095-.096-.122-.211-.02q-.07.621-1.24 1.286l-.013.109.108.006q.41.051 1.145-.416l-.02.218-.62.588q.601.064 1.758 1.937-.127 1.189-3.548 2.455-1.463.71-2.256.626l-.192-.25-.109-.006q-.032.326-.466.275-.039.3-.218.3h-.038q-.217-.025-.128-.78l-.109-.006-.166.525-.108-.013q.115-1.074-.211-1.106l-.058-.448.122-.095-.103-.122 1.055-4.59-.096-.115.109.013-.096-.115.288-1.611.006-.109-.134-.78.108.007q.608-.333.953-.333.038 0 .07.007zm2.583 1.38-.013.11.857.204q.019-.218-.3-.25Zm-2.09 1.08.031.768.991-.109-.019.218 1.605-.697-.013.108-.825.563q1.35-.37 1.451-1.26l-.217-.025q-.064.537-.383.505l.019-.217-.109-.007.147-.32.096.122.109.02.012-.11q-.396-.376-1.265-.466-1.509-.173-1.63.908Zm2.531-.153-.006.11-.243.184-.109-.006zm-.499 2.57-.006.103 1.061.23.109.006.013-.109-.422-.153zm-2.442.384-.326 1.93.096.122.109.013q.78.09 3.535-1.362l.243-.192q-.02-.44-.818-.524l-.863-.102zm3.887.422-.262.415.467-.275-.096-.121zm.71.518q-.039.338-2.148 1.623 2.403-.959 2.455-1.476l-.11-.013-.089-.122z" style="font-size:13.0923px;font-family:&quot;Edo SZ&quot;;-inkscape-font-specification:&quot;Edo SZ, Normal&quot;" transform="translate(-5.685 -8.085)"/><path d="M57.638 8.085q.07.326.87.326l.87 3.803h.76v.11l-.652.108v.109q.326 0 .326.217h.87v.109q0 .242-1.088.434l.218.652-.109.326.109.652-.109.11h.109l-.109.108.109 1.304v.652l-.109-.109h-.109l.326 1.63h-.217q0-.326-.217-.326v.109l.108.326h-.108l-.109-.109h-.109q0 .326-.217.326l-.543-1.847h-.109v.435h-.109l-.217-1.304.326.217v-.109q-.09-.978-.326-.978l.109-.109v-.326h-.218v.326h-.108v-.434l.108-.109h-.108l-.109.109v-.435h.109l.108.109h.109l-.109-.109v-.652l-2.39.543v.218l.76-.218.435.109.543-.109v.218q-2.282.409-2.282 1.086-.288 1.196-.652 1.522v.217h-.326l-.109-.108h-.108v.108l-.326-.217.217-.652h-.109q-.326 0-.326.87l-.217-.218.109-.652-.326-.326 1.847-4.456h.109q0 .326.217.326l.109-.543-.109.108h-.109v-.434l.11-.544.108.109h.108l-.108-.109v-.108l.217-.435h.109l.108.109h.11v-.109q0-.217-.327-.217l.543-1.522h.435l-.109.109v.109q.755-.435 1.413-.435Zm-.652 2.5-.87 2.282h.218q1.087 0 1.196-.653l-.435-1.63zm-.978.651-.217.761-.109-.109h-.109l.11.435h.108l.326-.978v-.109zm-1.195.978-.109.11v.217h.109l.108-.327zm.652.435-.109.435h.109l.108-.109v-.326zm-.978.109-.109.435h.109l.217-.435zm1.847.326v.109h.218q.978-.11.978-.326h-.11zm1.522 2.39h.217v.653h-.109zm1.521.762v.217l.109.435h.108v-.218l-.108-.434zm-1.087.326v.217l.326-.109v-.217zM62.657 8.52q.217 0 .217.652h.217l.326-.218.109.109-.543 6.086q.69-.326 3.695-.761h.108v.109q-3.803.62-3.803.978l1.195-.326v.108l2.065-.434v.108l.109-.108h.108l.109.108.543-.108h.435l.76.108v.11q0 .325-1.63.542v.11l.11-.11h.108l.76.11.11-.11v.326l-3.587.87-2.282.87h-.326l-.435-.544h-.109v-.109q0-.275.435-.326v-.326l-.326-.435.435-4.89h.108v.435l-.108.76h.217l-.217 1.413.108.109-.108.435v.543h.108l.435-5.76q.218 0 .218-.326l.108-.108z" style="font-size:13.0923px;font-family:&quot;Edo SZ&quot;;-inkscape-font-specification:&quot;Edo SZ, Normal&quot;" transform="translate(-5.685 -8.085)"/><path d="M69.375 8.551h.435l.326.218.76-.109q1.887 0 3.478 2.174l.544 1.086-.109.11.109.542v.544q0 2.793-4.565 4.238l-1.086.109q0-.275-.435-.326v.435h-.326v-.652l-.109-.11.109-.108v-.108q-.652-.448-.652-.761.326-4.923 1.087-7.173h.108l.109.109zm-.434 1.087-.544 3.152v.109h.109l.543-3.043v-.218Zm1.738.761q0 .217-.434.217-.435 1.982-.652 4.565.633 0 3.26-1.087v-.109h-.217q.869-.888.869-1.847v-.326q0-1.196-1.63-1.413zm2.174 0v.109l.435.217v-.109l-.326-.217zm.978 1.521-.109 1.305h.218v-.326l.108-.435-.108-.544zm.76.87-.543 1.739v.108h.11l.542-1.63v-.217zm-1.086.76-.217.435h.108l.218-.434zm-.652 1.957q.256-.039.76-.652v-.109zm-2.5.652v.108h.435l.544-.217v-.109h-.11Zm-.869.108.109.327h.217l.217-.218v-.109h-.108l-.326.11zm-1.195.653h.108v.108l-.217.218h-.109v-.11z" style="font-size:13.0923px;font-family:&quot;Edo SZ&quot;;-inkscape-font-specification:&quot;Edo SZ, Normal&quot;" transform="translate(-5.685 -8.085)"/></g></svg>