<?xml version="1.0" encoding="UTF-8" standalone="no"?>
<!-- Created with Inkscape (http://www.inkscape.org/) -->

<svg
   width="261.66882"
   height="41.074516"
   viewBox="0 0 69.233208 10.867632"
   version="1.1"
   id="svg1772"
   inkscape:version="1.2.2 (b0a8486541, 2022-12-01)"
   sodipodi:docname="kommt-bald.svg"
   xmlns:inkscape="http://www.inkscape.org/namespaces/inkscape"
   xmlns:sodipodi="http://sodipodi.sourceforge.net/DTD/sodipodi-0.dtd"
   xmlns="http://www.w3.org/2000/svg"
   xmlns:svg="http://www.w3.org/2000/svg">
  <sodipodi:namedview
     id="namedview1774"
     pagecolor="#ffffff"
     bordercolor="#000000"
     borderopacity="0.25"
     inkscape:showpageshadow="2"
     inkscape:pageopacity="0.0"
     inkscape:pagecheckerboard="0"
     inkscape:deskcolor="#d1d1d1"
     inkscape:document-units="mm"
     showgrid="false"
     inkscape:zoom="2.587745"
     inkscape:cx="203.26578"
     inkscape:cy="51.589318"
     inkscape:window-width="2555"
     inkscape:window-height="1397"
     inkscape:window-x="0"
     inkscape:window-y="0"
     inkscape:window-maximized="1"
     inkscape:current-layer="layer1" />
  <defs
     id="defs1769">
    <rect
       x="142.09109"
       y="345.66391"
       width="523.55103"
       height="162.85826"
       id="rect1830" />
  </defs>
  <g
     inkscape:label="Layer 1"
     inkscape:groupmode="layer"
     id="layer1"
     transform="translate(-5.6846155,-8.0847974)">
    <g
       aria-label="Kommt Bald"
       id="text2044"
       style="font-size:17.4563px;-inkscape-font-specification:'sans-serif, Normal';stroke-width:0.163653">
      <path
         d="m 11.911129,8.2382228 0.108677,0.1086763 V 8.4555754 L 11.911129,8.5642517 11.802453,8.4555754 H 11.693777 L 10.71569,9.1076333 h -0.108676 q 0,-0.2876726 1.304115,-0.8694105 z M 7.6727529,8.4555754 7.7814292,9.4336623 q 0.2173527,0 0.326029,-0.6520579 H 8.2161345 L 8.3248108,9.2163097 7.9987819,10.955131 9.1942214,10.08572 h 0.1086763 l -1.3041158,1.19544 v 0.108676 l 2.4995551,-1.8474974 0.108677,0.1086763 q 1.463934,-1.1954395 1.956173,-1.1954395 h 0.108677 l 0.108676,0.4347053 -0.869411,0.8694106 h 0.108677 Q 12.237158,9.324986 12.671864,9.324986 L 12.78054,9.4336623 V 9.324986 L 12.671864,9.2163097 12.78054,9.1076333 h 0.326029 l 0.108676,0.326029 Q 12.396977,9.8172258 9.4115741,12.259247 10.146737,13.863821 12.019806,16.6063 v 0.217352 L 11.911129,17.584386 11.802453,17.47571 H 11.693777 L 11.5851,17.910415 h -0.434705 v -0.217352 h -0.108676 v 0.217352 h -0.217353 q 0,-0.383563 -2.3908788,-4.021024 L 8.2161345,13.237334 7.6727529,13.34601 Q 7.532113,15.960634 6.9887313,16.6063 v 0.108676 L 5.9019681,16.6063 v -0.326029 l 0.1086764,-0.760735 q -0.326029,0 -0.326029,-0.652058 0.1789963,-1.086763 0.3579926,-1.086763 L 5.9339318,13.672039 Q 6.2599607,10.680244 6.5859897,10.08572 L 6.4773134,9.7596913 6.8033423,8.8902807 V 8.7816044 L 6.694666,8.6729281 V 8.5642517 H 6.9120186 V 9.324986 H 7.020695 L 7.1293713,8.998957 7.020695,8.8902807 V 8.7816044 q 0.1086763,-0.326029 0.6520579,-0.326029 z m 2.8255841,0.6520579 h 0.108677 L 10.172308,9.5423386 H 10.063632 Z M 6.8033423,9.6510149 6.694666,10.303073 v 0.434705 H 6.8033423 L 6.9120186,9.7596913 V 9.6510149 Z M 9.9549557,9.5423386 H 10.063632 L 9.4115741,10.08572 H 9.3028977 Z m 1.4127923,0.4347053 -0.434705,0.3260291 -0.108677,0.108676 v 0.108677 h 0.108677 l 0.434705,-0.326029 0.108676,-0.108677 V 9.9770439 Z M 9.5202504,16.171594 h 0.1086763 l 0.326029,0.326029 H 9.8462793 Z m 0.4347053,0.326029 q 0.2748873,0 0.5433813,1.086763 v 0.108677 h -0.108676 z"
         style="font-size:13.0923px;font-family:'Edo SZ';-inkscape-font-specification:'Edo SZ, Normal'"
         id="path269" />
      <path
         d="m 17.511157,8.5514663 q 1.278544,0 2.390879,0.7607342 l -0.108677,0.1086764 v 0.1086763 l 0.434706,0.6520578 h -0.217353 l -0.108676,-0.108676 h -0.108677 l 0.326029,2.390879 h 0.108677 q 0,-0.543382 0.217352,-0.543382 v 0.434706 q 0,0.613701 -1.086763,2.825584 h 0.108676 q -0.767127,1.0548 -2.282202,1.956174 l -0.543382,0.108676 H 16.53307 q -2.582661,0 -3.26029,-2.06485 l -0.434705,-0.652058 0.108676,-0.108676 -0.108676,-0.760735 v -0.217352 q 0,-0.901374 1.738821,-3.151614 v 0.108677 q -0.799091,1.073978 -1.304116,2.390879 v 0.108676 h 0.108676 q 0.396349,-1.591788 2.934261,-4.0210238 l -0.760734,0.4347053 h -0.108677 q 0,-0.4986325 2.064851,-0.7607342 z m -0.543382,1.8474977 -0.108676,-0.108677 v 0.108677 l 0.108676,0.108676 -0.760734,0.652058 q -0.901375,0 -1.738821,3.042937 0,0.869411 0.978086,1.521469 h 0.108677 q 1.189047,0 2.716908,-2.499556 0.543381,-1.189047 0.543381,-1.738821 v -0.869411 q 0,-0.300458 -1.086763,-0.434705 h -0.108676 l -0.108676,0.108676 H 17.40248 v -0.108676 z m 3.151613,0.326029 h 0.217353 v 0.543381 h -0.217353 z m -5.542492,1.195439 -0.326029,0.652058 h 0.108676 l 0.326029,-0.652058 z m 4.238376,0.652058 -0.434705,1.086763 h 0.326029 l 0.326029,-0.760734 -0.108676,-0.326029 z m 0.760735,0.434705 -0.108677,0.326029 v 0.217353 h 0.108677 l 0.108676,-0.434705 v -0.108677 z m -6.411903,0.434706 v 0.86941 h 0.108676 v -0.86941 z m 5.107787,0.326029 -0.434706,0.543381 h 0.108677 l 0.434705,-0.543381 z m -3.477643,2.390879 v 0.108676 l 0.543382,0.326029 v -0.108676 z"
         style="font-size:13.0923px;font-family:'Edo SZ';-inkscape-font-specification:'Edo SZ, Normal'"
         id="path271" />
      <path
         d="m 26.390652,8.4300045 h 0.217352 l -0.01918,0.2173527 -0.255709,0.4347052 -0.09589,-0.1086763 H 26.12855 Z m -4.027417,0.1086763 h 0.217353 l 0.30685,0.2173527 0.0064,-0.1086763 q 0.581738,0.1086763 0.824662,0.5433816 0.37717,0 0.779912,2.2822032 l 1.50229,-2.2822032 0.115069,-0.1086764 h 0.108677 l -0.0064,0.1086764 -1.540647,2.7169082 h 0.217353 Q 26.601611,8.5386808 26.92764,8.5386808 l 0.306851,0.2173527 0.0064,-0.1086763 q 0.466669,0 1.105941,1.0867632 l -0.03196,0.3260286 -0.115069,0.108677 0.09589,0.108676 -0.03836,0.434705 h -0.217352 l 0.159818,0.652058 -0.21096,1.19544 -0.03196,0.326029 0.102284,0.108676 -0.01279,0.108676 -0.230138,0.217353 0.191782,0.217353 -0.230138,0.217352 0.191782,0.217353 -0.11507,0.108676 h -0.108676 l 0.102284,0.108677 -0.268495,3.042937 q -0.326029,0 -0.3516,0.326029 -0.326029,0 -0.37717,0.543381 h -0.326029 l -0.613702,-0.434705 0.166211,-0.652058 -0.159818,-0.652058 0.735163,-4.673082 q -0.543381,0.568953 -1.189047,2.390879 -0.05753,0.63288 -0.511418,0.869411 h -0.108676 l 0.0064,-0.108677 0.121462,-0.108676 0.01279,-0.108676 -0.102284,-0.108676 0.236531,-0.217353 0.02557,-0.326029 h -0.217352 q -0.04475,0.594523 -0.511418,0.86941 h -0.108677 l -0.49224,-0.543381 q -0.287672,0 -0.345207,-0.978087 -0.556167,-1.131512 -0.511418,-1.630145 h -0.108676 l -0.223745,1.304116 -0.07671,0.869411 -0.134247,0.326029 0.05753,0.543381 -0.204567,2.390879 q -0.217353,0 -0.249316,0.326029 l -0.588131,0.543382 h -0.108676 l -0.735164,-0.326029 0.159818,-0.543382 -0.0064,-1.195439 0.04475,-0.543382 0.115069,-0.108676 -0.09589,-0.108677 0.01279,-0.108676 q 0.147033,-1.662108 0.639273,-3.586318 h 0.108676 l -0.102283,-0.108677 0.01279,-0.108676 0.147033,-0.434705 -0.07671,-0.434706 0.01279,-0.108676 h 0.108676 l -0.01918,0.217353 h 0.108676 l 0.03196,-0.326029 -0.102284,-0.108677 0.396349,-0.7607339 0.02557,-0.326029 -0.121462,0.1086763 h -0.108676 l -0.09589,-0.1086763 0.02557,-0.3260289 h 0.108676 l 0.102284,0.1086763 h 0.108676 z m 2.723301,4.8904342 0.0831,0.326029 h 0.108676 q 0.04475,-0.581738 1.342473,-2.93426 l 0.153425,-0.543382 q -0.811876,1.01005 -1.687679,3.151613 z m 1.936995,-2.282202 -0.115069,0.108676 -0.242923,2.716908 h 0.108676 l 0.313244,-2.282203 -0.102284,-0.108676 h 0.108676 l -0.09589,-0.108676 0.0064,-0.108677 0.121462,-0.108676 0.0064,-0.108676 z m -0.709592,5.651168 -0.07671,0.869411 h 0.108676 l 0.159819,-0.543382 -0.08311,-0.326029 z"
         style="font-size:13.0923px;font-family:'Edo SZ';-inkscape-font-specification:'Edo SZ, Normal'"
         id="path273" />
      <path
         d="m 34.138634,8.4300045 h 0.217352 l -0.01918,0.2173527 -0.255709,0.4347052 -0.09589,-0.1086763 h -0.108676 z m -4.027417,0.1086763 h 0.217353 l 0.30685,0.2173527 0.0064,-0.1086763 q 0.581738,0.1086763 0.824662,0.5433816 0.37717,0 0.779912,2.2822032 l 1.50229,-2.2822032 0.115069,-0.1086764 h 0.108677 l -0.0064,0.1086764 -1.540647,2.7169082 h 0.217353 q 1.706857,-3.3689662 2.032886,-3.3689662 l 0.306851,0.2173527 0.0064,-0.1086763 q 0.466669,0 1.105941,1.0867632 l -0.03196,0.3260286 -0.115069,0.108677 0.09589,0.108676 -0.03836,0.434705 h -0.217352 l 0.159818,0.652058 -0.21096,1.19544 -0.03196,0.326029 0.102284,0.108676 -0.01279,0.108676 -0.230138,0.217353 0.191782,0.217353 -0.230138,0.217352 0.191782,0.217353 -0.115069,0.108676 h -0.108677 l 0.102284,0.108677 -0.268495,3.042937 q -0.326029,0 -0.3516,0.326029 -0.326028,0 -0.37717,0.543381 h -0.326029 l -0.613702,-0.434705 0.166211,-0.652058 -0.159818,-0.652058 0.735163,-4.673082 q -0.543381,0.568953 -1.189047,2.390879 -0.05753,0.63288 -0.511418,0.869411 h -0.108676 l 0.0064,-0.108677 0.121462,-0.108676 0.01279,-0.108676 -0.102284,-0.108676 0.236531,-0.217353 0.02557,-0.326029 H 32.6747 q -0.04475,0.594523 -0.511418,0.86941 h -0.108677 l -0.49224,-0.543381 q -0.287672,0 -0.345207,-0.978087 -0.556167,-1.131512 -0.511418,-1.630145 h -0.108676 l -0.223745,1.304116 -0.07671,0.869411 -0.134247,0.326029 0.05753,0.543381 -0.204567,2.390879 q -0.217353,0 -0.249316,0.326029 l -0.588131,0.543382 h -0.108676 l -0.735164,-0.326029 0.159819,-0.543382 -0.0064,-1.195439 0.04475,-0.543382 0.115069,-0.108676 -0.09589,-0.108677 0.01279,-0.108676 q 0.147033,-1.662108 0.639273,-3.586318 h 0.108676 l -0.102283,-0.108677 0.01279,-0.108676 0.147033,-0.434705 -0.07671,-0.434706 0.01279,-0.108676 h 0.108676 l -0.01918,0.217353 h 0.108676 l 0.03196,-0.326029 -0.102284,-0.108677 0.396349,-0.7607339 0.02557,-0.326029 -0.121462,0.1086763 H 29.62537 l -0.09589,-0.1086763 0.02557,-0.3260289 h 0.108676 l 0.102284,0.1086763 h 0.108676 z m 2.723301,4.8904342 0.0831,0.326029 h 0.108676 q 0.04475,-0.581738 1.342473,-2.93426 l 0.153425,-0.543382 q -0.811876,1.01005 -1.687679,3.151613 z m 1.936995,-2.282202 -0.115069,0.108676 -0.242923,2.716908 h 0.108676 l 0.313244,-2.282203 -0.102284,-0.108676 h 0.108676 l -0.09589,-0.108676 0.0064,-0.108677 0.121462,-0.108676 0.0064,-0.108676 z m -0.709592,5.651168 -0.07671,0.869411 h 0.108676 l 0.159819,-0.543382 -0.08311,-0.326029 z"
         style="font-size:13.0923px;font-family:'Edo SZ';-inkscape-font-specification:'Edo SZ, Normal'"
         id="path275" />
      <path
         d="m 42.762421,8.3852554 0.326029,0.1086764 v 0.2173526 h -0.326029 l 0.217352,0.326029 Q 42.743243,9.580695 41.240952,9.580695 L 40.480218,9.6893713 40.371542,10.0154 h 0.108676 q -0.326029,0.77352 -1.304116,6.955285 l 0.326029,1.412792 h -0.108676 q -0.242924,0 -0.434706,-1.086763 l 0.108677,-1.086763 v -0.108677 h -0.108677 v 0.217353 q -0.326028,0 -0.326028,0.217353 v 0.108676 l 0.217352,1.738821 v 0.108676 h -0.217352 l -0.434706,-0.326029 -0.108676,0.108677 H 37.980663 Q 37.545957,17.33507 37.545957,16.644656 l 0.108677,0.108676 h 0.108676 l -0.217353,-0.760734 0.326029,-0.108676 V 15.34054 h -0.217352 v -0.108676 q 0.326029,0 0.326029,-0.217353 V 14.905835 H 37.76331 q 0,-0.869411 0.326029,-0.869411 v -1.412792 q 0.172603,-0.153425 0.434705,-2.282203 l -0.760734,0.108677 -1.521469,-0.108677 v -0.108676 l 0.543382,-0.108676 v 0.108676 l 0.108676,-0.108676 h 1.630145 V 9.7980476 L 36.785223,10.0154 36.676547,9.9067239 H 36.56787 L 35.915812,10.0154 35.589784,9.7980476 35.69846,9.254666 35.589784,9.1459897 q 0,-0.5433816 1.304115,-0.5433816 z m -0.652058,0.326029 v 0.1086763 h 0.434705 V 8.7112844 Z m -4.021024,6.0858736 -0.217353,2.390879 h 0.217353 l -0.108676,-0.543381 v -0.217353 l 0.217352,-0.326029 h -0.108676 l 0.108676,-0.108676 v -0.108676 l -0.108676,-0.108677 v -0.108676 l 0.217353,-0.434705 -0.108677,-0.434706 z"
         style="font-size:13.0923px;font-family:'Edo SZ';-inkscape-font-specification:'Edo SZ, Normal'"
         id="path277" />
      <path
         d="m 50.062913,8.2574009 0.524203,0.1662109 -0.01279,0.1086763 -0.536989,-0.057535 z m -2.077636,-0.012785 0.300458,0.255709 0.997265,-0.1086763 0.09589,0.1214617 0.108677,0.012785 0.332421,-0.07032 q 1.82832,0.1917818 2.640196,1.8155336 0.217352,0.02557 0.159818,0.56256 l -0.08311,0.760734 -0.217352,-0.02557 0.01279,-0.108676 0.147033,-0.313243 -0.09589,-0.121462 0.115069,-0.09589 -0.09589,-0.121462 -0.21096,-0.01918 q -0.07032,0.620094 -1.240188,1.284938 l -0.01279,0.108676 0.108676,0.0064 q 0.409135,0.05114 1.144298,-0.415527 l -0.01918,0.217352 -0.620094,0.588131 q 0.600916,0.06393 1.757999,1.936996 -0.127854,1.189046 -3.547962,2.454806 -1.463934,0.709592 -2.256632,0.626487 l -0.191782,-0.249316 -0.108676,-0.0064 q -0.03196,0.326029 -0.466669,0.274887 -0.03836,0.300458 -0.217353,0.300458 h -0.03836 q -0.217353,-0.02557 -0.127855,-0.779912 l -0.108676,-0.0064 -0.166211,0.524203 -0.108676,-0.01279 q 0.115069,-1.073978 -0.21096,-1.105941 l -0.05753,-0.447491 0.121461,-0.09589 -0.102283,-0.121462 1.054799,-4.589976 -0.09589,-0.115069 0.108677,0.01279 -0.09589,-0.115069 0.287672,-1.6109665 0.0064,-0.1086763 -0.134247,-0.7799125 0.108676,0.00639 q 0.607309,-0.3324217 0.952516,-0.3324217 0.03836,0 0.07032,0.00639 z m 2.582661,1.3808285 -0.01279,0.1086764 0.856625,0.2045672 Q 51.430956,9.7213349 51.11132,9.6893713 Z m -2.090421,1.080371 0.03196,0.767127 0.990872,-0.108677 -0.01918,0.217353 1.604574,-0.696807 -0.01279,0.108676 -0.824661,0.56256 q 1.348865,-0.370778 1.451148,-1.259367 l -0.217352,-0.02557 q -0.06393,0.536989 -0.383564,0.505026 l 0.01918,-0.217353 -0.108676,-0.0064 0.147033,-0.319636 0.09589,0.121462 0.108676,0.01918 0.01279,-0.108676 Q 50.977072,9.8875458 50.107662,9.7980476 48.598979,9.625444 48.477517,10.705815 Z m 2.531519,-0.153426 -0.0064,0.108676 -0.242923,0.185389 -0.108676,-0.0064 z m -0.498632,2.569876 -0.0064,0.102283 1.061192,0.230138 0.108677,0.0064 0.01279,-0.108676 -0.42192,-0.153426 z m -2.442021,0.383563 -0.326029,1.930603 0.09589,0.121462 0.108676,0.01278 q 0.779912,0.0895 3.535177,-1.36165 l 0.242923,-0.191782 q -0.01918,-0.441098 -0.818268,-0.524203 l -0.863018,-0.102284 z m 3.886776,0.42192 -0.262101,0.415527 0.466669,-0.274887 -0.09589,-0.121462 z m 0.709593,0.517811 q -0.03836,0.338814 -2.147956,1.623752 2.403665,-0.958909 2.454807,-1.47672 l -0.108677,-0.01279 -0.0895,-0.121462 z"
         style="font-size:13.0923px;font-family:'Edo SZ';-inkscape-font-specification:'Edo SZ, Normal'"
         id="path279" />
      <path
         d="m 57.63829,8.0847974 q 0.07032,0.3260289 0.869411,0.3260289 l 0.869411,3.8036717 h 0.760734 v 0.108676 l -0.652058,0.108676 v 0.108677 q 0.326029,0 0.326029,0.217352 h 0.86941 v 0.108677 q 0,0.242923 -1.086763,0.434705 l 0.217353,0.652058 -0.108676,0.326029 0.108676,0.652058 -0.108676,0.108676 h 0.108676 l -0.108676,0.108676 0.108676,1.304116 v 0.652058 l -0.108676,-0.108676 h -0.108677 l 0.326029,1.630145 h -0.217352 q 0,-0.326029 -0.217353,-0.326029 v 0.108676 l 0.108676,0.326029 h -0.108676 l -0.108676,-0.108676 h -0.108677 q 0,0.326029 -0.217352,0.326029 l -0.543382,-1.847498 h -0.108676 v 0.434705 h -0.108677 l -0.217352,-1.304115 0.326029,0.217352 v -0.108676 q -0.0895,-0.978087 -0.326029,-0.978087 l 0.108676,-0.108676 v -0.326029 h -0.217353 v 0.326029 h -0.108676 v -0.434706 l 0.108676,-0.108676 h -0.108676 l -0.108676,0.108676 v -0.434705 h 0.108676 l 0.108676,0.108676 h 0.108677 L 57.964319,14.388024 V 13.735966 L 55.57344,14.279348 V 14.4967 l 0.760735,-0.217352 0.434705,0.108676 0.543381,-0.108676 V 14.4967 q -2.282202,0.409135 -2.282202,1.086764 -0.287673,1.195439 -0.652058,1.521468 v 0.217353 h -0.326029 l -0.108676,-0.108677 h -0.108677 v 0.108677 l -0.326029,-0.217353 0.217353,-0.652058 h -0.108676 q -0.326029,0 -0.326029,0.869411 l -0.217353,-0.217353 0.108676,-0.652058 -0.326029,-0.326029 1.847498,-4.455729 h 0.108676 q 0,0.326029 0.217353,0.326029 l 0.108676,-0.543382 -0.108676,0.108677 h -0.108677 v -0.434706 l 0.108677,-0.543381 0.108676,0.108676 h 0.108676 l -0.108676,-0.108676 v -0.108677 l 0.217353,-0.434705 h 0.108676 l 0.108676,0.108676 h 0.108677 v -0.108676 q 0,-0.2173525 -0.326029,-0.2173525 L 55.899469,8.30215 h 0.434706 L 56.225498,8.4108263 V 8.5195027 Q 56.97984,8.0847974 57.63829,8.0847974 Z m -0.652057,2.4995556 -0.869411,2.282203 h 0.217353 q 1.086763,0 1.195439,-0.652058 l -0.434705,-1.630145 z m -0.978087,0.652058 -0.217353,0.760734 -0.108676,-0.108676 H 55.57344 l 0.108677,0.434705 h 0.108676 l 0.326029,-0.978087 v -0.108676 z m -1.19544,0.978087 -0.108676,0.108676 v 0.217353 h 0.108676 l 0.108676,-0.326029 z m 0.652058,0.434705 -0.108676,0.434705 h 0.108676 l 0.108676,-0.108676 v -0.326029 z m -0.978087,0.108676 -0.108676,0.434705 h 0.108676 l 0.217353,-0.434705 z m 1.847498,0.326029 v 0.108676 h 0.217352 q 0.978087,-0.108676 0.978087,-0.326028 h -0.108676 z m 1.521468,2.390879 h 0.217353 v 0.652058 h -0.108677 z m 1.521469,0.760735 v 0.217352 l 0.108676,0.434705 h 0.108676 v -0.217352 l -0.108676,-0.434705 z m -1.086764,0.326028 v 0.217353 l 0.326029,-0.108676 v -0.217353 z"
         style="font-size:13.0923px;font-family:'Edo SZ';-inkscape-font-specification:'Edo SZ, Normal'"
         id="path281" />
      <path
         d="m 62.656578,8.5195027 q 0.217353,0 0.217353,0.6520579 h 0.217352 l 0.326029,-0.2173527 0.108677,0.1086764 -0.543382,6.0858737 q 0.690414,-0.326029 3.694995,-0.760734 h 0.108676 V 14.4967 q -3.803671,0.620095 -3.803671,0.978087 l 1.19544,-0.326029 v 0.108677 l 2.06485,-0.434706 v 0.108677 l 0.108676,-0.108677 h 0.108676 l 0.108677,0.108677 0.543381,-0.108677 h 0.434706 l 0.760734,0.108677 v 0.108676 q 0,0.326029 -1.630145,0.543382 v 0.108676 l 0.108676,-0.108676 h 0.108677 l 0.760734,0.108676 0.108676,-0.108676 v 0.326029 l -3.586318,0.86941 -2.282203,0.869411 H 61.569815 L 61.13511,17.104932 h -0.108677 v -0.108676 q 0,-0.274887 0.434706,-0.326029 v -0.326029 l -0.326029,-0.434705 0.434705,-4.890435 h 0.108676 v 0.434705 l -0.108676,0.760735 h 0.217353 l -0.217353,1.412792 0.108676,0.108676 -0.108676,0.434705 v 0.543382 h 0.108676 l 0.434705,-5.7598451 q 0.217353,0 0.217353,-0.3260289 l 0.108676,-0.1086763 z"
         style="font-size:13.0923px;font-family:'Edo SZ';-inkscape-font-specification:'Edo SZ, Normal'"
         id="path283" />
      <path
         d="m 69.375332,8.5514663 h 0.434705 l 0.326029,0.2173526 0.760735,-0.1086763 q 1.885853,0 3.477642,2.1735264 l 0.543381,1.086763 -0.108676,0.108677 0.108676,0.543381 v 0.543382 q 0,2.793621 -4.564405,4.238376 l -1.086763,0.108677 q 0,-0.274888 -0.434706,-0.326029 v 0.434705 h -0.326028 v -0.652058 l -0.108677,-0.108676 0.108677,-0.108677 v -0.108676 q -0.652058,-0.447491 -0.652058,-0.760734 0.326029,-4.922398 1.086763,-7.1726374 h 0.108676 l 0.108676,0.1086763 z m -0.434705,1.0867632 -0.543382,3.1516135 v 0.108676 h 0.108677 L 69.049303,9.8555821 V 9.6382295 Z m 1.738821,0.7607345 q 0,0.217352 -0.434705,0.217352 -0.434706,1.981745 -0.652058,4.564406 0.632879,0 3.260289,-1.086763 v -0.108677 h -0.217352 q 0.86941,-0.888588 0.86941,-1.847497 v -0.326029 q 0,-1.19544 -1.630145,-1.412792 z m 2.173526,0 v 0.108676 l 0.434706,0.217353 v -0.108677 l -0.326029,-0.217352 z m 0.978087,1.521468 -0.108676,1.304116 h 0.217353 v -0.326029 l 0.108676,-0.434705 -0.108676,-0.543382 z m 0.760735,0.869411 -0.543382,1.738821 v 0.108676 h 0.108676 l 0.543382,-1.630145 v -0.217352 z m -1.086764,0.760734 -0.217352,0.434705 h 0.108676 l 0.217353,-0.434705 z m -0.652058,1.956174 q 0.255709,-0.03836 0.760735,-0.652058 v -0.108676 z m -2.499555,0.652058 v 0.108676 h 0.434705 l 0.543382,-0.217353 V 15.941456 H 71.22283 Z m -0.869411,0.108676 0.108677,0.326029 h 0.217352 l 0.217353,-0.217353 v -0.108676 h -0.108676 l -0.326029,0.108676 z m -1.195439,0.652058 h 0.108676 v 0.108676 l -0.217352,0.217353 h -0.108677 v -0.108676 z"
         style="font-size:13.0923px;font-family:'Edo SZ';-inkscape-font-specification:'Edo SZ, Normal'"
         id="path285" />
    </g>
  </g>
</svg>
