<?xml version="1.0" encoding="UTF-8" standalone="no"?>
<!-- Created with Inkscape (http://www.inkscape.org/) -->

<svg
   width="404.22977mm"
   height="152.15729mm"
   viewBox="0 0 404.22977 152.15729"
   version="1.1"
   id="svg5914"
   inkscape:version="1.2.1 (9c6d41e410, 2022-07-14)"
   sodipodi:docname="brush2.svg"
   xmlns:inkscape="http://www.inkscape.org/namespaces/inkscape"
   xmlns:sodipodi="http://sodipodi.sourceforge.net/DTD/sodipodi-0.dtd"
   xmlns="http://www.w3.org/2000/svg"
   xmlns:svg="http://www.w3.org/2000/svg">
  <sodipodi:namedview
     id="namedview5916"
     pagecolor="#ffffff"
     bordercolor="#666666"
     borderopacity="1.0"
     inkscape:showpageshadow="2"
     inkscape:pageopacity="0.0"
     inkscape:pagecheckerboard="0"
     inkscape:deskcolor="#d1d1d1"
     inkscape:document-units="mm"
     showgrid="false"
     inkscape:zoom="0.10044367"
     inkscape:cx="826.33378"
     inkscape:cy="1045.362"
     inkscape:window-width="735"
     inkscape:window-height="677"
     inkscape:window-x="0"
     inkscape:window-y="0"
     inkscape:window-maximized="1"
     inkscape:current-layer="layer1" />
  <defs
     id="defs5911" />
  <g
     inkscape:label="Layer 1"
     inkscape:groupmode="layer"
     id="layer1"
     transform="translate(96.749283,-75.38477)">
    <path
       d="m -78.185695,155.00155 c -0.0028,0.0212 -0.0028,0.0423 -0.0028,0.0635 -0.03775,0.007 0.0028,-0.0635 0.0028,-0.0635"
       style="fill:#000000;fill-opacity:1;fill-rule:evenodd;stroke:none;stroke-width:0.0352778"
       id="path2214" />
    <path
       d="m 209.52468,193.285 c -0.96308,0.45861 -1.91911,0.93133 -2.8963,1.36172 -0.23283,0.1023 -0.5715,0.11289 -0.80081,0.0459 -0.17286,-0.0529 -0.3175,-0.28575 -0.34219,-0.46567 -0.0282,-0.17639 0.0388,-0.45155 0.18344,-0.57502 1.26295,-1.07245 2.57175,-0.0388 3.85939,-0.37748 0.0106,0 -0.004,0.0106 -0.004,0.0106"
       style="fill:#000000;fill-opacity:1;fill-rule:evenodd;stroke:none;stroke-width:0.0352778"
       id="path2216" />
    <path
       d="m -52.21596,151.3115 c 1.393472,-0.10231 2.727325,-0.36689 3.644547,-1.53459 -2.600325,-1.17122 -3.142191,-1.2065 -4.149725,-0.0282 -0.272344,0.32103 -0.160866,0.90311 -0.131938,1.35114 0.0078,0.10231 0.413102,0.22578 0.637116,0.21167 z m 88.483368,-22.098 c 0.872419,0.4833 2.320925,0.0212 2.561519,-0.77611 -0.05715,-0.17286 -0.04833,-0.39864 -0.167569,-0.46214 -0.867128,-0.48331 -2.342798,-0.0247 -2.562931,0.79375 -0.03845,0.14111 0.04375,0.37747 0.168981,0.4445 z m 39.509699,-2.10256 c 0.740833,0.23989 1.487311,0.59972 2.27083,0.60325 2.704395,0.0106 5.423959,-0.10583 8.137878,-0.17286 0.02434,0.0247 0.04269,0.0564 0.06809,0.0811 0.04339,-0.0318 0.08608,-0.0635 0.128764,-0.0953 0.505178,-0.0529 1.012119,-0.0917 1.514475,-0.17286 0.247297,-0.0423 0.688622,-0.1905 0.692503,-0.26811 0.02293,-0.58561 -0.375356,-0.73025 -1.029759,-0.35984 -0.416983,0.23284 -0.789164,0.52564 -1.177219,0.80081 -0.02117,0.004 -0.04269,0.007 -0.06385,0.007 -0.0448,0.004 -0.09031,0.004 -0.132997,0.007 -0.45085,-0.47625 -0.750358,-1.23472 -1.335969,-1.40758 -2.831395,-0.82197 -5.804253,-1.04775 -8.881534,-0.004 -0.234597,0.0811 -0.473075,0.33867 -0.569383,0.55386 -0.04621,0.10231 0.197203,0.37042 0.378178,0.42686 z m 75.858153,54.78639 c 0.80681,0.0247 1.65241,0.0635 2.44264,-0.11994 0.42651,-0.0988 0.76376,-0.64559 1.14229,-0.98778 -0.39476,-0.26106 -0.76059,-0.73025 -1.19556,-0.74084 -1.4351,-0.0388 -2.68006,0.63853 -2.84198,1.32292 0.15028,0.18697 0.27517,0.52211 0.45261,0.52564 z m 10.9347,-0.57856 c 0.69498,-0.0952 0.87842,-0.51505 0.47978,-0.91016 -0.14111,-0.13406 -0.51505,-0.26106 -0.65969,-0.18697 -0.38453,0.20108 -0.6985,0.51505 -1.04423,0.78669 0.41275,0.11642 0.82903,0.36689 1.22414,0.31044 z m 11.46175,0.28223 0.19756,-0.1905 c 0.0282,0.0882 0.0564,0.17639 0.067,0.30339 l 0.13405,-0.49742 -0.20108,0.19403 c -0.11289,-0.35984 -0.34925,-0.40923 -0.7232,-0.11642 0.17639,0.11289 0.35278,0.22225 0.52564,0.30692 z m 2.0567,-64.37136 c 0.79375,0.51505 1.905,0.84314 2.94216,0.88547 2.50825,0.10231 4.98123,-0.45508 7.4295,-1.28764 0.6985,-0.23636 1.56634,0.0106 2.35303,0.0353 0.0423,0.007 0.06,-0.0106 0.0776,-0.0353 1.08656,-0.58914 2.1202,-0.24694 3.20322,-0.18344 1.36878,0.0847 2.77637,0.0811 4.16984,-0.0635 0.37041,-0.0388 0.77258,-0.70203 1.06891,-1.12536 0.0706,-0.10231 -0.15875,-0.45509 -0.3563,-0.55739 -1.46756,-0.75495 -3.13972,-0.81845 -4.8507,-0.46214 -1.48166,0.30339 -2.44475,1.28764 -3.23497,2.39183 -0.0212,0.0106 -0.0388,0.0176 -0.06,0.0282 -0.32808,-1.37936 -0.87489,-2.4518 -2.68464,-2.99155 -2.99508,-0.89959 -6.04661,0.0635 -9.05933,0.11641 -0.88195,0.0141 -1.86267,0.77964 -1.76389,1.35467 0.11642,0.67733 0.23989,1.55928 0.76553,1.89442 z m 29.99316,65.12983 c 1.2312,-0.27517 2.43064,-0.71614 3.63714,-1.1042 0.0353,0.0459 0.0741,0.0776 0.10584,0.127 0.0529,-0.0282 0.1023,-0.0529 0.15169,-0.0811 0.10231,0.19755 0.18697,0.44097 0.34925,0.47977 2.09903,0.47625 4.28625,0.45509 6.49111,0.13053 0.52564,-0.0811 1.0407,-0.45861 1.52753,-0.74436 0.22578,-0.13053 0.57503,-0.50094 0.5468,-0.53269 -0.27163,-0.30339 -0.55386,-0.71967 -0.94544,-0.80081 -2.77989,-0.55739 -5.42572,0.11289 -7.96925,1.46756 -0.0141,-0.0353 -0.0353,-0.0776 -0.06,-0.10937 -0.0635,0.0212 -0.127,0.0423 -0.19756,0.0635 -0.93839,-1.19944 -2.2613,-1.4993 -3.91583,-0.72319 -0.39158,0.17992 -0.82197,0.80081 -0.7867,1.143 0.0282,0.29986 0.74084,0.75847 1.06539,0.68439 z m 28.55384,0.20461 c 0.47625,-0.0847 1.07244,-0.49742 1.3088,-0.88194 0.22225,-0.37042 0.26106,-1.05481 0.0106,-1.32292 -0.47977,-0.50447 -1.28411,-1.21003 -1.84502,-1.10067 -1.02306,0.20461 -1.98261,0.92428 -2.93159,1.48167 -0.14111,0.0847 -0.0705,0.46567 -0.1023,0.70555 0.81139,1.1042 2.0955,1.37584 3.55953,1.11831 z M 224.2708,93.960416 c 0.11641,0.02117 0.23636,0.03881 0.35277,0.0635 0.127,0.05292 0.25753,0.105833 0.38806,0.15875 0.12347,0.236361 0.25047,0.472722 0.37394,0.712611 0.21167,-0.09878 0.42686,-0.201084 0.64206,-0.303389 -0.33867,-0.137584 -0.67733,-0.275167 -1.016,-0.409222 -0.0811,-0.155223 -0.16228,-0.313973 -0.24342,-0.465667 -0.17991,0.09172 -0.32808,0.162278 -0.49741,0.243417 -3.09387,-0.60325 -6.23006,-0.553861 -9.87425,0.649111 5.13997,1.090083 6.56519,1.005416 9.87425,-0.649111 z m 19.64972,76.326994 c 0.70908,0.0741 0.93486,-0.25047 0.53622,-0.77963 -0.10936,-0.14112 -0.46567,-0.20109 -0.6985,-0.16581 -0.12347,0.0176 -0.22578,0.32103 -0.33867,0.49389 0.16228,0.15875 0.30339,0.43392 0.50095,0.45155 z M 226.86371,90.640777 c 0.0882,-0.01764 0.14817,-0.02822 0.22578,-0.04939 0.27517,0.257528 0.53269,0.543278 0.87136,0.716139 0.5962,0.310444 1.26647,0.529166 1.91206,0.779639 0.58208,-0.328084 1.12889,-0.673806 1.67569,-1.016 -0.55739,0.338666 -1.11478,0.680861 -1.67217,1.019527 -0.0917,-0.201083 -0.14816,-0.409222 -0.23988,-0.60325 -0.58562,-1.255888 -0.62795,-1.298222 -2.54706,-0.896055 -0.0423,-0.03881 -0.0847,-0.08114 -0.127,-0.119945 -0.0847,0.01764 -0.16933,0.03528 -0.254,0.05292 -0.70203,-0.606778 -1.58397,-0.807861 -2.58586,-0.381 -1.2065,0.515056 -2.3495,1.167695 -3.5172,1.760361 0.18698,-1.887361 -0.13405,-2.427111 -1.59455,-2.420055 -0.47272,0.0035 -1.06892,0.246944 -1.4605,0.53975 -0.58208,0.433916 -0.14464,1.375833 0.71614,1.545166 0.77258,0.155223 1.56986,0.232834 2.35655,0.342195 0.78317,-0.204611 1.55928,-0.430389 2.3495,-0.606778 1.24178,-0.275167 2.49061,-0.522111 3.73592,-0.779639 0.0494,0.04233 0.10936,0.07056 0.15522,0.116417 z m 26.15847,77.843943 0.14817,-0.26458 -0.25753,0.0459 c 0,0 0.11995,0.22225 0.10936,0.21872 z M 238.43129,90.894777 c 0.3422,-0.532695 0.06,-0.6985 -0.72672,-0.455084 -0.0106,0.179917 -0.0212,0.352778 -0.0317,0.525639 0.26106,-0.01764 0.68792,0.03528 0.75847,-0.07055 z m 9.52853,34.099503 c 1.28764,1.00188 2.92453,1.15005 4.58611,0.65263 1.31234,-0.38805 2.54353,-1.10066 3.77825,-1.72508 0.67028,-0.33867 0.94192,-1.44286 0.57856,-1.9438 -0.46567,-0.63853 -1.18533,-0.94898 -2.01436,-0.73731 -1.34056,0.34219 -2.64231,0.85725 -5.01297,1.65453 0.0176,-0.007 -0.98425,0.42686 -1.95087,0.91722 -0.21166,0.10936 -0.4198,0.43392 -0.41275,0.635 0.007,0.20108 0.254,0.39864 0.44803,0.54681 z m 8.99231,2.13783 c 1.62278,1.02658 3.53483,1.01953 5.54214,0.47978 0.47625,-1.35467 0.0247,-2.38831 -1.15006,-3.1362 -1.40053,-0.889 -4.6108,0.0141 -5.05178,1.46756 -0.10936,0.3563 0.28223,0.9525 0.6597,1.18886 z m 0.32103,-18.91242 c -1.77095,-1.17122 -3.7712,-1.7533 -6.17362,-0.97366 0.14464,0.42686 0.29281,0.85372 0.43745,1.28411 0.89958,0.0141 1.67217,0.22578 2.13078,0.9525 -0.94898,0.0353 -1.80975,-0.0776 -2.27895,-0.82197 -1.31586,0.0811 -2.75166,0.65616 -3.83469,-0.2787 -0.0176,0.007 -0.0423,0.0176 -0.06,0.0247 0.28575,1.143 0.30338,2.39536 2.04963,2.70227 1.34056,0.23284 2.55764,0.92075 3.91231,1.02659 1.17122,0.0882 2.11314,-0.64559 2.10961,-1.88031 0.508,-0.27517 1.12536,-0.47978 1.47461,-0.86078 0.26811,-0.28575 0.42334,-1.0548 0.23284,-1.17475 z m -9.0417,-0.21166 c 0.85725,-0.28223 1.71097,-0.56798 2.5647,-0.8502 -1.03717,-0.49389 -1.85209,-0.11994 -2.5647,0.8502 z m -108.94095,-0.37395 c -0.003,-0.0494 -0.0282,-0.0917 -0.0205,-0.14111 -0.0921,0.0459 -0.18415,0.0776 -0.27517,0.11642 -0.53234,-0.26459 -1.0481,-0.635 -1.62136,-0.65617 -0.60396,-0.0212 -1.2573,0.23636 -1.89724,0.43745 -0.0632,-0.0529 -0.13088,-0.0988 -0.19403,-0.15875 -0.11924,0.0459 -0.23566,0.0952 -0.35595,0.14463 -1.53388,-0.86077 -3.13549,-0.61736 -4.78014,0.22225 -0.0261,-0.0459 -0.0656,-0.0741 -0.09,-0.12347 -0.11924,0.0353 -0.23671,0.067 -0.35701,0.10231 -1.97097,-0.9525 -3.98992,-0.0635 -5.99687,0.51153 -0.0243,-0.0212 -0.0522,-0.0318 -0.0748,-0.0529 -0.29351,0.0564 -0.59125,0.11642 -0.88512,0.17286 -0.48189,0.0423 -0.96449,0.0776 -1.42734,0.0353 -1.06362,-0.0917 -1.96426,0.20461 -2.81552,0.8008 -0.24624,-0.33161 -0.2988,-0.98777 -0.63535,-1.09714 -2.74849,-0.89605 -5.53332,-1.16769 -8.23454,0.82198 -0.0981,-0.004 -0.12312,0.004 -0.16087,0.007 -0.22401,-0.34925 -0.34819,-0.91722 -0.66322,-0.98425 -1.58326,-0.32455 -3.22968,-0.127 -4.73957,0.65617 -0.34219,0.17992 -0.65546,0.91722 -0.54398,1.24883 0.39582,1.18886 1.37901,1.89795 2.84127,2.07081 1.03717,-1.00189 0.85514,-2.97392 3.1055,-2.99156 0.0134,0.0212 0.0251,0.0529 0.0406,0.0706 0.0409,-0.0318 0.0797,-0.0494 0.1203,-0.0776 2.94287,0.19402 5.85823,0.53269 8.87272,0.28222 1.41393,-0.28222 2.82539,-0.56092 4.24003,-0.84314 0.24448,-0.0212 0.49072,-0.0423 0.73413,-0.0564 0.0755,-0.0176 0.14923,-0.0423 0.22578,-0.0635 0.69532,0.66322 1.58256,0.78316 2.63066,0.47977 1.12078,-0.32808 2.24438,-0.65969 3.36621,-0.9913 0.0875,0.0423 0.17286,0.067 0.25612,0.11289 0.0639,-0.0353 0.12911,-0.06 0.19085,-0.0917 0.46637,0.79023 1.29363,1.00895 2.29905,0.71967 0.84455,-0.24342 1.65911,-0.60678 2.48109,-0.94192 0.0727,0.0423 0.14464,0.067 0.21625,0.11289 0.11042,-0.0282 0.22401,-0.0635 0.33373,-0.0988 1.01318,0.85372 2.22214,0.762 3.5186,0.21872 0.0533,0.0282 0.1076,0.0564 0.16087,0.0811 0.0437,-0.0212 0.0903,-0.0353 0.13476,-0.0564 0.0282,0.49389 0.58667,0.84667 0.73872,0.61384 0.70591,-1.09362 0.0148,-0.93839 -0.73872,-0.61384 z m -46.871112,0.4692 c -2.228144,1.03364 -4.295422,2.38477 -6.408208,3.63714 -0.07937,0.0459 -0.04163,0.47977 0.09137,0.57855 0.88512,0.65617 2.105025,0.60678 3.045531,0.16933 1.970969,-0.91369 3.814233,-2.08491 5.695244,-3.14325 -0.3937,-1.0795 -1.380772,-1.72861 -2.423937,-1.24177 z m -5.69348,0.49389 c -0.38982,-0.19756 -1.026936,-0.06 -1.554339,-0.0741 -0.01834,0.45156 -0.214136,0.99484 -0.01058,1.32997 0.295628,0.49389 0.917223,0.42334 1.458384,0 0.555625,-0.43744 0.674864,-0.97013 0.106539,-1.25588 z m -17.4371,1.21002 c -0.164042,0.067 -0.214489,0.37042 -0.316089,0.5715 0.222956,0.06 0.49142,0.22578 0.651581,0.16228 0.162983,-0.0705 0.214136,-0.37394 0.316089,-0.57503 -0.221192,-0.0635 -0.490714,-0.2293 -0.651581,-0.15875 z m -5.374569,-0.47625 c -1.639711,0.26811 -2.408414,1.38995 -1.719086,2.98803 0.292805,0.27517 0.730955,0.86078 1.360311,1.19945 0.291041,0.15875 1.329266,-0.10584 1.382536,-0.27517 0.28328,-0.91017 0.366536,-1.85561 0.507294,-2.78695 0.09596,-0.65616 -0.726369,-1.25588 -1.531055,-1.12536 z m -14.374283,2.90336 c -0.317853,-0.89958 -0.536928,-1.92969 -2.102203,-1.48519 -0.365125,0.10231 -0.633942,0.56797 -0.94615,0.86783 0.208492,0.11995 0.398639,0.3175 0.637117,0.35278 0.801864,0.127 1.619955,0.19403 2.435577,0.28575 0.641703,-0.29986 1.284817,-0.59972 1.927578,-0.90311 -0.896055,-0.19403 -1.298222,0.59619 -1.951919,0.88194 z M 36.69956,111.11953 c -2.451099,-0.0776 -4.91878,-0.067 -7.379405,-0.0847 l -0.06809,0.35278 0.2667,-0.29634 c 0.327025,0.58209 0.470253,1.5875 0.98425,1.70745 2.108905,0.50447 4.344811,0.39864 6.550378,-0.381 0.22613,-0.0776 0.564444,-0.49389 0.528813,-0.53975 -0.244475,-0.29633 -0.541161,-0.74436 -0.88265,-0.75847 z m -133.260038,52.05588 c 0.753533,-0.29633 1.534936,-0.64911 2.316339,-0.74083 4.80448,-0.5715 9.615663,-0.99483 14.415205,-1.64394 2.227086,-0.30339 4.433711,-0.99131 6.641747,-1.53811 0.176389,-0.0423 0.377119,-0.37748 0.406047,-0.57856 0.0321,-0.22931 -0.05327,-0.635 -0.20073,-0.66322 -1.06927,-0.20814 -2.153356,-0.41981 -3.260725,-0.48684 -1.838325,-0.10936 -2.060223,-1.16063 -1.945923,-2.45886 5.30472,-1.39347 10.679289,-1.92616 16.059503,-2.43416 1.390297,-0.13053 2.781653,-0.53975 4.162425,-0.86784 0.231775,-0.0564 0.547864,-0.35983 0.579614,-0.55739 0.02928,-0.18344 -0.225778,-0.51152 -0.429331,-0.5468 -2.170994,-0.32808 -4.329289,-0.88547 -6.544733,-0.8502 -5.449358,0.0776 -10.465858,-1.38288 -15.778339,-1.74977 -0.406047,-0.0282 -0.923925,-0.60678 -0.963789,-1.00189 -0.03281,-0.34572 0.443089,-0.94897 0.854428,-1.15359 1.5494,-0.76552 3.206397,-1.36525 4.129264,-2.84338 0.1397,-0.22225 0.375356,-0.60325 0.286103,-0.69145 -0.295628,-0.2928 -0.676628,-0.61736 -1.104195,-0.68439 -0.527755,-0.0811 -1.175455,0.20109 -1.6891,0.0988 -0.381,-0.0741 -0.915458,-0.51153 -0.880533,-0.77964 0.06421,-0.44803 0.494595,-0.90664 0.841728,-1.31939 0.155222,-0.18344 0.479072,-0.33161 0.741539,-0.381 3.108677,-0.60325 6.217355,-1.39347 9.331677,-1.72155 5.959828,-0.62089 11.890022,-0.89253 17.700625,-3.14678 2.369961,-0.92075 5.105047,-1.40053 7.615414,-1.44286 5.154436,-0.0917 10.260188,-1.11831 15.37476,-1.4852 3.760964,-0.27164 7.397045,-0.97366 11.033125,-1.89794 4.756856,-1.21708 9.5563972,-2.14842 14.3848665,-2.65642 9.3990582,-0.98778 18.8034075,-1.84503 28.2074045,-2.70228 4.827411,-0.44097 9.647414,-0.60325 14.481881,-0.9913 13.958005,-1.12183 27.946702,-2.30717 41.843677,-2.27189 11.039827,0.0317 22.123404,-0.71614 33.175574,-0.9913 11.93377,-0.29634 23.87917,-0.74084 35.81788,-1.12537 4.83623,-0.15522 9.6714,-0.27516 14.51151,-0.49741 1.397,-0.067 2.8187,-0.41628 4.22628,-0.6597 0.79728,-0.14111 1.4852,-1.00189 1.25589,-1.72508 -0.13406,-0.42686 -0.42686,-1.01247 -0.81844,-1.10067 -1.0407,-0.2293 -2.23309,-0.0988 -3.27025,-0.33866 -4.86481,-1.12536 -9.78677,-1.31939 -15.03998,-0.65617 -5.07788,0.63853 -10.20304,0.46214 -15.30032,0.56092 -2.83316,0.0564 -5.64798,-0.13053 -8.4829,-0.0811 -8.49947,0.13758 -17.02611,0.61383 -25.52559,0.70908 -6.804727,0.0776 -13.651791,0.41981 -20.485802,0.96661 -4.827411,0.38806 -9.626952,0.75847 -14.437077,0.72672 -4.801306,-0.0318 -9.639653,0.14464 -14.470239,0.41981 -2.545291,0.14464 -5.125155,0.93133 -7.659863,1.01953 -9.405056,0.32808 -18.803056,1.48872 -28.207405,2.42711 -7.7021974,0.76553 -15.4079222,1.4358 -23.0607304,2.95275 -4.3187056,0.85725 -8.4917136,0.28928 -12.7201076,0.36336 -1.244953,0.0212 -2.422878,-0.86431 -3.954992,-0.71261 -7.405864,0.74789 -14.81455,1.42522 -22.219355,2.08844 -1.133475,0.10231 -2.271536,0.0388 -3.398308,0 -0.231775,-0.007 -0.628298,-0.2928 -0.595489,-0.38805 0.135114,-0.381 0.329847,-0.95956 0.638175,-1.06186 1.637594,-0.55387 3.31223,-1.25589 4.978047,-1.41817 6.548614,-0.62442 13.054541,-2.30011 19.624322,-2.28247 0.841727,0.004 1.791758,-0.0247 2.547408,-0.34572 3.588455,-1.53812 7.342716,-1.43934 10.9967886,-1.77095 5.1050471,-0.46919 10.16811366,-1.16769 15.2287108,-2.12372 -0.00388,0.0388 -0.00494,0.0776 -0.011642,0.11289 0.1075972,-0.0494 0.2102556,-0.0953 0.3160889,-0.14464 2.4006527,-0.0847 4.7769637,-1.15711 7.2245367,-0.64558 1.656997,0.34925 3.264605,-0.51153 4.828469,-1.143 1.099608,-0.4445 2.155472,-0.52564 3.15595,-0.0423 0.0011,-0.0459 0.02999,-0.0811 0.0388,-0.12347 0.642056,0.17992 1.3081,0.29633 0.83185,-0.68086 -0.103716,-0.20461 -0.732014,0.18697 -0.83185,0.68086 -0.04833,-0.0106 -0.09596,-0.0247 -0.142522,-0.0388 -3.444875,-1.59455 -7.052733,-1.70038 -10.875786,0.0706 -1.3934722,0.64206 -2.8052889,1.27 -4.2294527,1.92264 -0.065969,0.004 -0.1298222,0.0141 -0.19685,0.0141 -0.035983,0.007 -0.073731,0.0141 -0.1075972,0.0176 0.071614,-0.70556 -0.062089,-1.45345 -0.98425,-1.49578 -2.8126972,-0.127 -5.6331554,-0.0282 -8.4634915,0.89958 -1.3409083,0.44098 -2.782711,0.67734 -4.1818277,0.8255 -7.9498469,0.83256 -15.8965189,1.62631 -23.8463659,2.39184 -2.264833,0.22225 -4.528961,0.31397 -6.826955,0.46919 0.104775,-0.34925 0.09419,-0.67028 0.265641,-0.79375 0.456848,-0.32455 1.015295,-0.53975 1.489428,-0.85725 0.222956,-0.14464 0.532342,-0.55386 0.479072,-0.6103 -0.285044,-0.32103 -0.669925,-0.83256 -1.023055,-0.80081 -1.98367,0.16933 -3.967339,0.45508 -5.949245,0.73378 -1.410052,0.20461 -2.866319,0.71967 -4.218869,0.64205 -4.222397,-0.24341 -8.47725,-0.0106 -12.734572,0.1905 -2.051755,0.0952 -3.840691,-0.49036 -5.5626,-1.22766 -0.224014,-0.0988 -0.53728,-0.44803 -0.484011,-0.51859 0.272697,-0.37041 0.622653,-0.71966 1.000831,-1.016 0.20955,-0.1658 0.531283,-0.3175 0.788105,-0.32102 6.2357,-0.14111 12.466108,-1.7145 18.706394,-1.66511 1.684514,0.0141 3.409245,-0.28575 5.113867,-0.48331 2.554816,-0.29986 5.108575,-0.74083 7.660569,-0.94192 8.546042,-0.66322 17.093141,-1.22766 25.6398881,-1.88383 1.6968611,-0.127 3.425825,-0.36689 5.0994027,-0.762 5.6825443,-1.35467 11.4081275,-1.35819 16.9869552,-1.28411 5.687836,0.0741 11.320286,-0.27164 17.004947,-0.83961 2.240492,-0.22225 4.570589,0.067 6.698897,-0.51506 2.620786,-0.71614 5.108928,-0.49036 7.639403,-0.65264 2.550936,-0.1658 5.091289,0.23989 7.635522,0 7.982655,-0.762 15.894755,-0.94191 23.805444,-0.70555 4.196644,0.127 8.482188,-0.29281 12.728927,-0.52564 4.231217,-0.23283 8.47337,-0.66675 12.705641,-0.81139 10.23302,-0.35631 20.47769,-1.40406 30.72236,-2.39183 5.39961,-0.51859 10.78088,-0.67028 16.16921,-0.7232 8.22008,-0.0776 16.47402,-0.522109 24.71844,-0.811387 2.86808,-0.102305 5.54213,-0.627944 8.28322,-1.943805 2.92805,-1.404056 6.06777,-1.344084 8.73477,0.328083 0.635,0.398639 1.32998,0.903111 2.08492,0.970139 4.15572,0.377472 8.35378,1.121833 12.26256,-1.93675 0.53622,-0.423333 1.69686,-0.137583 2.48002,-0.419806 1.29117,-0.462138 1.62631,-1.361722 1.03364,-2.642305 -2.38125,-0.06703 -4.93183,-0.04586 -7.43302,-0.232833 -2.79048,-0.208139 -5.52803,-0.733778 -8.16681,1.213555 -0.33514,0.250472 -1.15006,0.186972 -1.62983,0.04233 -1.52048,-0.462138 -3.21381,-0.709083 -4.18748,-1.968499 l -0.127,0.179916 c -0.0776,-0.04586 -0.16227,-0.08467 -0.23988,-0.130528 0.0917,-0.01411 0.18344,-0.02469 0.27869,-0.03528 0.55033,-2.039056 -0.13758,-3.520723 -2.24719,-4.395611 -1.06892,-0.4445 -2.1202,-0.92075 -3.17853,-1.386417 2.96333,-0.878417 5.90197,-1.30175 8.91469,-0.811389 1.31586,0.215195 2.78342,-0.04939 4.17689,-0.07408 4.81895,-0.08114 9.63436,-0.141111 14.44978,-0.225778 10.78089,-0.1905 21.47005,0.430389 32.30386,-0.225778 1.66511,-0.102305 3.31258,0.254 4.96005,0.426861 0.67734,0.07408 1.16417,1.252361 0.71614,1.837973 -0.30339,0.398638 -0.80786,0.687916 -1.19591,1.044222 -0.8502,0.776111 -0.73378,2.166055 0.22225,2.261305 1.93675,0.186972 3.90877,0.215195 5.82083,0.458611 0.77964,0.102306 1.73214,0.423334 2.12019,0.941917 1.17828,1.576917 2.27542,3.263194 1.905,5.376333 -0.0635,0.370417 -0.64205,0.948972 -1.04422,1.033639 -2.032,0.416278 -3.89114,0.197556 -5.52803,-0.853722 -1.95086,-1.245306 -3.94758,-2.448278 -6.04661,-3.506611 -0.58208,-0.292806 -1.61925,-0.102306 -2.40947,0.06703 -0.508,0.105833 -0.91722,0.66675 -1.4358,0.885472 -2.7552,1.167694 -4.36739,3.429 -6.45936,5.228163 -0.28223,0.24342 -0.31398,0.97014 -0.127,1.30528 0.20461,0.35984 0.78316,0.74436 1.23472,0.74084 3.11502,-0.0282 6.24064,-0.0212 9.36625,-0.2787 7.44008,-0.61736 14.71789,-0.50094 21.77697,1.02306 1.77094,0.38452 3.34786,-0.32456 4.56847,-1.88031 1.82386,0.38806 3.67947,0.78317 5.68678,1.2065 0.067,-1.34408 0.127,-2.52236 0.18344,-3.668889 1.60514,-0.8255 3.12561,-1.608666 4.35681,-2.243666 2.81517,0.22225 5.32341,0.381 7.79991,0.642055 0.80081,0.08114 1.59809,0.342195 2.26484,0.694972 0.39864,0.211667 0.75494,0.747889 0.72672,1.153584 -0.0282,0.377474 -0.52211,0.980724 -0.93133,1.118304 -1.03717,0.34572 -2.35303,0.17286 -2.90689,1.3335 -0.9772,2.03553 -2.61409,1.524 -4.191,1.26295 -1.15006,0.62441 -1.23825,1.69333 -1.66864,2.59291 -0.67381,1.41111 -1.13947,2.8822 -1.84856,4.28273 -0.39863,0.79022 -1.28058,0.9913 -2.13077,0.67027 -1.1677,-0.44802 -2.1202,-0.37041 -2.74461,0.87842 -0.67734,1.34761 -1.68275,2.03906 -3.37962,1.63689 -0.46919,-0.11289 -1.0795,0.0988 -1.69686,0.1658 -1.18886,1.43934 -2.50825,2.86456 -3.56658,4.4062 -0.39158,0.56797 -0.43392,1.54164 -0.15522,2.12019 0.40922,0.85373 1.19944,1.55928 1.91558,2.26131 1.21003,1.19239 1.27353,2.53647 0.56092,4.10633 -0.28928,0.635 -0.27517,1.34408 -0.40217,2.00731 2.55058,0.85372 5.13292,0.75847 7.66939,0.66322 1.73919,-0.0635 3.30906,-0.82197 4.63197,-2.01789 1.04775,-0.94544 0.97014,-2.61056 -0.33514,-3.12208 -0.72672,-0.28928 -1.60866,-0.31398 -2.36714,-0.56092 -0.635,-0.20814 -1.19591,-0.56444 -2.01083,-0.96661 1.70039,-1.55222 3.1362,-2.86808 4.57553,-4.18394 -0.0212,0.0353 0.0318,0.0564 0.0847,0.0741 -0.0247,0.0459 -0.0423,0.0917 -0.067,0.13758 0.25753,-0.067 0.15875,-0.1023 0.067,-0.13758 0.46566,-0.90664 0.83608,-1.8415 1.43933,-2.65289 0.4445,-0.60325 1.24883,-1.40406 1.88383,-1.45697 1.89442,-0.1517 2.34597,-1.24178 2.80106,-2.48709 0.254,-0.68791 0.59619,-1.651 1.52752,-1.397 0.5715,0.15875 0.92781,1.09362 1.08656,1.75684 0.34219,1.44639 -0.0212,2.89983 -0.67381,4.37091 -0.2928,0.65617 -0.19402,1.42875 -0.18344,2.13431 0.004,0.127 0.55739,0.35278 0.68439,0.27869 0.70555,-0.39158 1.44286,-0.79727 2.00025,-1.32997 1.64747,-1.57339 0.69144,-3.99697 2.794,-5.45041 0.30339,0.34925 0.81139,0.65969 0.86783,1.05833 0.28928,1.95792 0.10936,3.88408 -1.63336,5.59153 -0.381,0.37041 -0.8643,0.81491 -0.94192,1.24177 -0.53622,2.90689 -1.397,5.79614 -1.63688,8.72067 -0.67028,-1.00894 -1.30881,-2.03906 -2.04259,-3.01272 -0.254,-0.33867 -0.74083,-0.54681 -1.15711,-0.77259 -0.47625,-0.26105 -1.62983,0.45862 -1.94028,1.24884 -0.28222,0.71966 -0.40569,1.48166 -0.73377,2.18369 -1.29823,2.82222 -3.21028,4.90714 -7.04498,4.69547 -0.45861,-0.0247 -1.02305,0.30692 -1.47813,0.56092 -0.18345,0.0952 -0.30692,0.4445 -0.29281,0.65617 0.0106,0.22578 0.15875,0.57503 0.34572,0.61383 0.75847,0.15522 1.58397,0.41275 2.33186,0.26106 1.37936,-0.27164 2.78342,-1.143 4.09928,-0.55739 0.53975,0.23989 0.77611,1.11478 0.86078,1.75683 0.0318,0.23636 -0.7867,0.89958 -1.17122,0.89958 -1.37936,0.0176 -2.73756,-0.1658 -3.91584,-0.26458 -2.87866,1.67922 -5.59505,3.22439 -8.25852,4.84364 -0.40923,0.25047 -0.82198,0.88547 -0.76553,1.24883 0.0529,0.35278 0.65264,0.67381 1.10419,0.8502 1.38642,0.53269 2.80459,1.00894 4.2157,1.4993 0.0176,0.0529 0.0388,0.11289 0.0564,0.16581 -0.48683,0.16228 -0.98778,0.38805 -1.43228,0.3563 -3.81352,-0.31044 -7.28133,1.09362 -10.71386,2.54706 -0.68439,0.28928 -1.38641,0.98778 -1.67569,1.60867 -0.508,1.08655 0.17991,2.82575 1.12183,3.21733 0.45156,0.1905 1.09008,0.35278 1.55222,0.21519 1.36173,-0.41275 2.73403,-0.87136 3.98286,-1.51341 1.01953,-0.52917 1.56634,-0.0741 2.21192,0.26458 1.67922,0.88547 3.18911,0.23989 4.66372,-0.762 1.0407,-0.70555 1.47461,-1.65805 1.27706,-2.65994 -0.2152,-1.11478 -0.635,-2.18723 -0.98778,-3.27378 0.067,-0.0212 0.13406,-0.0459 0.20108,-0.0635 2.00378,0.98778 4.06048,1.92264 5.13998,3.85233 0.38452,0.68792 0.43744,2.25425 -0.11995,2.80811 -2.73403,2.71639 -5.51039,5.36575 -9.89541,5.70795 -2.53295,0.20108 -5.06942,0.47978 -7.52475,1.38994 -1.37584,0.51153 -2.58234,1.16417 -3.07623,2.58939 1.5875,1.47461 3.22439,2.93158 4.77661,4.45911 0.77612,0.76553 0.57856,1.77095 0.16934,2.7552 -0.17286,0.42686 -0.35631,0.85372 -0.53622,1.28058 0,0.0282 -0.0176,0.06 -0.0388,0.0917 -0.007,0.0176 -0.0141,0.0353 -0.0212,0.0529 v -0.14817 c -0.762,-0.46566 -1.80269,-0.42333 -2.13077,0.30692 -1.09714,2.43769 -2.44475,2.5788 -4.35328,1.10066 -0.32103,-0.24694 -1.07597,-0.19755 -1.60514,-0.0988 -2.08492,0.381 -3.70064,1.51341 -5.15761,2.88925 -1.10772,1.04069 -1.28059,2.2225 -1.39347,3.50308 -0.23989,2.64936 -0.58562,2.86456 -3.60892,2.97039 -0.74789,0.0247 -1.66511,-0.49389 -2.31422,0.85725 -0.0388,0.44803 -0.067,1.1818 -0.18345,1.90853 -0.2293,1.42875 -1.53105,2.50472 -2.83633,2.29658 -1.09361,-0.17639 -2.17311,-0.83608 -3.20322,-0.67028 -3.52072,0.55386 -6.65692,-0.0282 -9.91306,-0.74436 -2.35303,-0.51858 -5.03414,-0.30339 -7.58119,-0.20108 -1.08303,0.0459 -2.24014,0.53975 -3.27378,1.00541 -0.85019,0.381 -1.03364,1.00189 -0.61383,1.81681 0.65616,1.29469 -0.67734,2.38125 -1.34409,3.44311 -0.31044,0.49036 -1.44639,0.68439 -2.23661,0.90664 -1.04069,0.29633 -2.34244,0.16933 -2.56822,1.54517 -0.50447,-2.15195 -2.14489,-3.08681 -4.62492,-3.18206 -0.45508,-0.0212 -0.88194,-0.22225 -1.31233,-0.38453 0,0 -0.004,-0.29986 -0.004,-0.29986 l -0.23283,0.2152 c 0.0776,0.0247 0.15875,0.0564 0.23636,0.0847 -2.81869,0.53623 -2.8575,0.53975 -2.82222,2.74461 0.004,0.24342 0.1023,0.48331 0.0882,0.72673 -0.0353,0.73025 -1.01953,1.34408 -1.74978,1.143 -1.95791,-0.5327 -3.34786,-1.5875 -3.80647,-3.3655 -0.24341,-0.93134 -0.127,-1.96498 -0.33514,-2.91042 -0.59266,-2.69522 -2.83986,-4.00756 -6.09247,-3.54189 -0.81492,0.11642 -1.77094,0.35278 -2.3883,0.81845 -2.921,2.20486 -6.36411,3.84527 -8.9147,6.46994 -0.20108,0.20461 -0.99836,0.0423 -1.48166,-0.0564 -0.13053,-0.0282 -0.13406,-0.4445 -0.15523,-0.68792 -0.12347,-1.27 0.38806,-2.44122 1.0407,-3.62656 1.28764,-2.34244 0.50094,-2.96333 -2.44122,-3.05152 -1.41112,-0.0459 -2.82928,-0.0565 -4.25098,-0.0141 -8.79475,0.25753 -17.59479,0.52564 -26.39589,0.80434 -9.94621,0.3175 -19.88749,0.52211 -29.84323,1.01247 -10.22139,0.50094 -20.423362,0.41275 -30.682845,1.86619 -1.120775,0.15875 -2.260953,-0.004 -3.396544,0 -8.209492,0.0423 -16.433447,0.22578 -24.684567,0.73025 -11.092391,0.67734 -22.180549,1.01248 -33.270824,1.98262 -10.511366,0.92075 -21.01673572,1.42522 -31.5390383,2.73402 -5.9570047,0.74084 -11.9355297,0.78317 -17.8974747,2.08845 -1.470025,0.32455 -3.260019,0.58561 -4.575527,-0.635 2.52483,-0.8502 4.961114,-1.68628 7.411508,-2.4765 0.541867,-0.17286 1.145117,-0.26459 1.699683,-0.25047 1.400175,0.0247 2.782711,0.17638 4.182886,0.19402 0.830086,0.0106 1.755775,0.0459 2.509309,-0.24341 3.351741,-1.28764 6.7920296,-1.16064 10.1875157,-1.47814 9.6696386,-0.90311 19.3403363,-1.68981 29.0110333,-2.51884 3.417005,-0.29633 6.863997,-0.83608 10.243961,-0.81491 9.626952,0.06 19.308232,-1.09714 28.954941,-1.38289 8.795102,-0.26811 17.627246,-0.99131 26.409649,-1.03717 9.638947,-0.0529 19.324104,-0.8255 28.981394,-1.1818 5.39362,-0.20461 10.80876,-0.68792 16.21543,-1.04775 1.92934,-0.69145 3.83752,-0.59267 5.78556,-0.53975 1.62983,0.0494 3.30729,-0.16581 4.95476,-0.39511 0.39652,-0.0565 0.756,-0.63853 1.13242,-0.9772 -0.19685,-0.15169 -0.36478,-0.40922 -0.60043,-0.4445 -3.9751,-0.56797 -7.67997,0.64558 -11.32382,2.34597 -0.36053,-1.81327 -1.94309,-2.13077 -3.73662,-2.06375 -18.16735,0.73025 -36.350214,1.74978 -54.497102,2.01084 -13.901208,0.19755 -27.890258,1.23472 -41.846852,2.07786 -7.402689,0.4445 -14.819136,1.34408 -22.226763,1.90853 -7.6813838,0.58561 -15.3585336,0.98777 -23.038505,1.52752 -1.703564,0.11995 -3.411009,0.51153 -5.12057,0.6985 -7.404805,0.81492 -14.812433,1.61573 -22.217238,2.39184 -7.393164,0.77964 -14.78915,1.48872 -22.179491,2.31775 -1.394178,0.15169 -2.773186,0.71614 -4.160661,1.09714 0.03986,0.0564 0.06809,0.0917 0.09913,0.13405 -0.05927,0.06 -0.119239,0.11995 -0.177447,0.17992 0,0 0.04339,-0.26811 0.06879,-0.31397 -0.01834,0.007 -0.06879,0.31397 -0.06879,0.31397 0.195792,-1.60867 -0.01658,-2.23309 -0.891117,-2.20839 -1.084086,0.0353 -2.186516,0.28222 -3.265663,0.28928 -0.7874,0.004 -1.611489,-0.13053 -2.301875,-0.39864 -0.35172,-0.13759 -0.511881,-0.68439 -0.626181,-1.08656 -0.04374,-0.15169 0.243417,-0.53269 0.454731,-0.6103 1.834444,-0.65617 3.687233,-1.26295 5.533319,-1.88736 -0.02046,0.0705 -0.06385,0.127 -0.09596,0.1905 0.08149,-0.0353 0.161925,-0.0706 0.240595,-0.10937 0.335491,0.18698 0.660047,0.39159 1.03258,0.51153 0.165806,0.0529 0.579614,-0.0882 0.682625,-0.23283 0.408164,-0.5715 0.172509,-0.87842 -0.573264,-0.71967 -0.391583,0.0847 -0.762,0.26811 -1.141941,0.44097 -0.04375,-0.0247 -0.08643,-0.0494 -0.130175,-0.0741 0.597253,-1.09361 1.462264,-1.96497 2.73438,-2.58586 0.950031,-0.45861 2.24155,-0.61383 2.545292,-1.79917 -0.0078,-0.95602 -0.01552,-1.89441 -0.02328,-3.04447 1.933222,-0.83608 3.890786,-1.67922 5.848702,-2.52589 0.05221,0.0318 0.103364,0.0635 0.15487,0.0917 0.06209,-0.0353 0.124177,-0.067 0.185208,-0.0988 0.596194,0.70202 1.470025,0.91016 2.473325,0.64205 0.883356,-0.23989 1.733903,-0.6103 2.593975,-0.94191 0.05221,0.0423 0.102658,0.067 0.154869,0.11288 0.08149,-0.0423 0.16122,-0.0847 0.239536,-0.127 0.280106,0.20109 0.554567,0.40923 0.865012,0.56798 0.05997,0.0282 0.502355,-0.29281 0.483658,-0.33514 -0.301272,-0.74084 -0.820208,-0.508 -1.34867,-0.23284 -0.04057,-0.0318 -0.08149,-0.06 -0.124883,-0.0917 -0.09031,0.0353 -0.178505,0.0706 -0.269522,0.10584 -1.621367,-1.30175 -3.334456,-0.63853 -5.0673,0.29986 -0.03104,-0.0388 -0.06773,-0.0564 -0.09878,-0.0952 -0.07867,0.0317 -0.159103,0.067 -0.2413,0.1023 -0.618772,-0.34219 -1.196622,-0.79728 -1.893005,-0.93133 -3.241322,-0.635 -6.576483,-0.89253 -9.995253,-0.79375 -2.22638,0.0635 -4.494036,0.254 -6.812491,-0.35983 -1.248834,-1.61925 -2.583039,-3.34081 -4.12362,-5.334 -1.519414,-0.42686 -4.249913,0.89958 -5.552016,-1.25589 0.127,-0.24695 0.208491,-0.508 0.380294,-0.70909 0.347134,-0.41627 0.771525,-0.78669 1.121834,-1.20297 1.47073,-1.7533 1.097491,-3.56658 -0.797278,-4.17336 -1.829506,-0.58914 -3.713339,-0.762 -5.754511,-0.52564 -2.544234,0.28928 -5.090231,0.41628 -7.635522,0.56797 -0.132645,0.0106 -0.31997,-0.35277 -0.355953,-0.5715 -0.03175,-0.19755 0.04762,-0.58208 0.181328,-0.635"
       style="fill:#000000;fill-opacity:1;fill-rule:evenodd;stroke:none;stroke-width:0.0352778"
       id="path2218" />
    <path
       d="m 290.55774,128.81133 c -0.46567,0.17639 -0.9525,0.29633 -1.3582,0.53622 -0.70555,0.42334 -0.98072,0.34573 -0.77964,-0.32102 0.0353,-0.11289 0.44803,-0.21873 0.67734,-0.23637 0.49036,-0.0317 0.97366,-0.004 1.4605,-0.004 0.0176,0.004 0,0.0247 0,0.0247"
       style="fill:#000000;fill-opacity:1;fill-rule:evenodd;stroke:none;stroke-width:0.0352778"
       id="path2220" />
    <path
       d="m 274.99671,145.5718 c -0.0564,-0.0106 -0.0917,-0.0282 -0.127,-0.0459 0.0423,0.0176 0.0882,0.0318 0.127,0.0459"
       style="fill:#000000;fill-opacity:1;fill-rule:evenodd;stroke:none;stroke-width:0.0352778"
       id="path2222" />
    <path
       d="m 274.70743,145.44833 c 0.0564,0.0247 0.10936,0.0529 0.16228,0.0776 -0.0494,-0.0176 -0.0988,-0.0317 -0.15169,-0.0494 -0.004,-0.0106 -0.007,-0.0212 -0.0106,-0.0282"
       style="fill:#000000;fill-opacity:1;fill-rule:evenodd;stroke:none;stroke-width:0.0352778"
       id="path2224" />
    <path
       d="m 17.840061,104.37794 c 0.01658,-0.0564 0.03104,-0.11641 0.04763,-0.17286 0.04939,0.004 -0.04763,0.17286 -0.04763,0.17286"
       style="fill:#000000;fill-opacity:1;fill-rule:evenodd;stroke:none;stroke-width:0.0352778"
       id="path2226" />
    <path
       d="m 182.50544,90.104555 c 1.40052,1.231194 3.16794,1.905 4.77661,2.811638 -5.51392,0.726723 -11.02784,1.411111 -16.34067,3.400778 -0.52564,0.194028 -1.27353,0.455083 -1.64747,0.28575 -3.62303,-1.643944 -7.73995,-0.567972 -11.61204,-0.493889 -6.1669,0.123472 -12.38673,-0.162278 -18.57375,1.686278 -0.53234,0.162278 -1.21673,0.310444 -1.66652,0.15875 -4.28378,-1.439333 -8.87271,-0.01411 -13.31066,0.03528 -2.52588,0.02822 -5.01367,0.01411 -7.44466,-0.627945 -3.14714,-0.836083 -6.56132,-0.465666 -9.92258,-0.05644 -0.21626,0.02469 -0.61102,0.328083 -0.6022,0.462139 0.18803,3.086806 -2.53753,1.837972 -4.07811,2.321286 -0.26282,0.0811 -0.56233,0.0564 -0.84455,0.0705 -1.343023,0.0776 -1.672517,-0.78317 -2.067275,-1.587503 0.227894,0.03881 0.45473,0.09172 0.679802,0.0635 0.799043,-0.105833 1.672523,-0.250472 1.907113,-1.090083 0.16475,-0.592667 -0.87347,-1.414639 -1.63583,-1.305278 -7.926207,1.143 -15.734238,0.366889 -23.654099,1.058333 -5.618691,0.490361 -11.227858,0.165806 -16.895233,0.596195 -10.452099,0.79375 -20.899613,1.287639 -31.352771,1.950861 -3.091039,0.197555 -6.188075,0.543285 -9.344025,0.829035 -0.358775,1.28411 -0.675569,2.413 -0.988836,3.5313 -3.343981,-0.23989 -6.638925,-0.23989 -10.0700416,0.76553 -2.1769916,0.635 -4.554361,0.78669 -6.8107276,0.8255 -4.5356638,0.0847 -9.0480442,-0.06 -13.5713608,-0.10583 -1.116894,-0.0141 -2.316339,-0.28223 -3.337278,0.0353 -3.095977,0.94898 -6.246988,0.82198 -9.318625,1.44992 -2.098322,0.43392 -3.879497,0.54328 -5.702299,-0.23989 -1.286581,-0.55386 -2.7178,-0.24694 -4.137378,0.23284 -2.494844,0.83255 -5.035903,1.23472 -7.612239,1.09361 -1.200503,-0.0635 -2.115608,-0.45509 -2.776008,-1.62278 1.062919,-0.40217 2.080683,-1.00189 3.125258,-1.143 3.693936,-0.50447 7.405511,-0.75142 11.095919,-1.28764 4.229453,-0.62089 8.573911,-0.70556 12.553245,-2.81869 1.066447,-0.56798 2.211563,-0.50095 3.305527,-0.21873 2.179461,0.55739 4.240742,0.86078 6.3528224,-0.96308 0.7249583,-0.624421 2.1766388,-0.860782 3.2519054,-0.871365 2.5403528,-0.02117 5.08917215,-0.246945 7.6256443,0.06703 3.3065861,0.41275 6.7031304,0.515055 10.1712889,-0.119945 6.544733,-1.199444 13.098286,-1.231194 19.646899,-1.689805 3.127022,-0.22225 6.275917,-0.08467 9.374011,-0.575028 8.223956,-1.298222 16.439444,-0.148167 24.647877,-2.264833 0.535164,-0.141112 1.126773,-0.0071 1.691217,-0.01411 5.957006,-0.07408 11.915069,-0.141111 17.873486,-0.232833 3.112205,-0.04586 6.240991,0.119945 9.341908,-0.257528 10.243613,-1.241777 20.413843,-1.231194 30.610173,-1.686277 1.98261,-0.08819 3.9744,-0.310445 5.95807,-0.433917 8.24265,-0.493889 16.50047,-1.933222 24.73924,-1.866194 1.65806,0.01411 3.46463,-0.306917 5.06272,-0.871362 2.33186,-0.818444 4.61786,-0.864305 6.7063,-0.370416 3.66889,0.874889 7.24606,0.345722 10.90436,-0.747889 l -0.18344,-0.09525 c 0.0776,0.0035 0.14816,-0.01411 0.22225,-0.01764 -0.0106,0.03528 -0.0247,0.05997 -0.0317,0.09525 1.34761,0.578556 2.90689,0.970139 3.90878,1.848556"
       style="fill:#000000;fill-opacity:1;fill-rule:evenodd;stroke:none;stroke-width:0.0352778"
       id="path2228" />
    <path
       d="m 99.099951,98.426582 c 0.02399,0.04586 0.04762,0.09525 0.07161,0.144639 -0.04833,-0.01058 -0.09596,-0.01764 -0.144286,-0.02469 l 0.07267,-0.119945"
       style="fill:#000000;fill-opacity:1;fill-rule:evenodd;stroke:none;stroke-width:0.0352778"
       id="path2230" />
    <path
       d="m 184.05766,197.23964 c 1.17827,-0.77612 2.97391,-0.61737 3.28083,0.6103 0.22931,0.9137 0.0882,1.9297 0.11994,3.12914 1.78506,0.73378 3.98287,1.24178 4.86128,3.22086 0.41628,0.93839 1.58045,1.25589 2.70581,1.36878 3.05153,0.31044 6.12069,0.53269 9.16164,0.87136 0.30339,0.0353 0.45155,0.64558 0.76552,1.12889 -1.91205,0.70908 -3.75355,1.57339 -5.67972,2.04258 -1.32997,0.32809 -3.0868,0.53975 -4.11339,0.0459 -3.20322,-1.54164 -7.11552,-0.97719 -10.30111,-2.27189 -0.87136,1.12889 -1.59808,2.17664 -2.4518,3.14678 -0.49036,0.56092 -1.91559,0.508 -2.26836,0.0635 -1.28764,-1.6263 -1.8415,-3.55953 -1.31234,-5.53861 0.79023,-2.95628 2.13431,-5.78203 5.2317,-7.81755"
       style="fill:#000000;fill-opacity:1;fill-rule:evenodd;stroke:none;stroke-width:0.0352778"
       id="path2232" />
    <path
       d="m 238.98163,198.13922 c 0.97366,-1.12536 2.50472,-1.88031 2.94569,-3.37608 0.3175,-1.0795 1.45345,-1.59103 2.51884,-1.94028 3.22791,-1.05834 6.477,-2.04611 9.73313,-3.02684 0.60325,-0.17991 1.016,0.13759 1.1042,0.73025 0.0317,0.21873 0.0388,0.55387 -0.10936,0.67734 -1.66511,1.41111 -3.40078,2.75872 -5.04472,4.18747 -1.62984,1.41464 -3.17853,2.90336 -4.70606,4.30742 -1.38289,-0.12348 -2.52942,-0.0988 -3.55953,-0.35278 -1.02658,-0.25047 -1.93675,-0.77258 -2.8963,-1.17475 l -0.18345,0.19755 c 0.0353,-0.0811 0.0988,-0.18697 0.14817,-0.28575 0.0212,0.0212 0.0282,0.0353 0.0494,0.0564"
       style="fill:#000000;fill-opacity:1;fill-rule:evenodd;stroke:none;stroke-width:0.0352778"
       id="path2234" />
    <path
       d="m 63.666952,196.48116 c 1.112308,0.0494 2.236963,0.0388 3.346097,0.10584 1.251655,0.0776 1.83268,0.87489 2.335741,1.72508 -4.079875,-0.21167 -8.230658,-0.0811 -12.413544,0.0952 -4.287661,0.18344 -8.701264,0.91722 -12.853811,-0.0741 1.759656,-0.51859 3.558117,-1.29117 5.231695,-1.24884 4.781902,0.13759 9.599788,-0.8008 14.353822,-0.60325"
       style="fill:#000000;fill-opacity:1;fill-rule:evenodd;stroke:none;stroke-width:0.0352778"
       id="path2236" />
    <path
       d="m 44.081435,198.33325 c -0.186266,0.0529 -0.372533,0.10583 -0.557741,0.15522 l 0.1524,-0.24342 c 0.136525,0.0353 0.270227,0.0529 0.405341,0.0882"
       style="fill:#000000;fill-opacity:1;fill-rule:evenodd;stroke:none;stroke-width:0.0352778"
       id="path2238" />
    <path
       d="m 259.56268,183.17791 c 1.7392,-0.94191 3.51014,-1.83444 5.27403,-2.74108 1.50636,-0.77964 3.0092,-1.56986 4.53672,-2.31422 0.20461,-0.0953 0.7232,-0.0318 0.78317,0.0917 0.17639,0.381 0.36689,0.85019 0.25047,1.24178 -0.14111,0.45861 -0.49389,0.99836 -0.93133,1.28411 -2.12372,1.37583 -4.30389,2.67758 -6.24064,3.86997 -1.16417,0.19403 -2.00378,0.43039 -2.81869,0.42333 -0.45862,0 -0.92781,-0.3563 -1.26648,-0.66322 -0.38452,-0.33866 -0.21872,-0.85372 0.41275,-1.19239"
       style="fill:#000000;fill-opacity:1;fill-rule:evenodd;stroke:none;stroke-width:0.0352778"
       id="path2240" />
    <path
       d="m 261.22427,178.98339 c -0.42686,0.21872 -1.11125,0.17286 -1.60161,0.06 -0.48331,-0.11642 -0.90312,-0.43392 -1.27353,-0.73731 -0.0953,-0.0741 0.0388,-0.43744 0.16228,-0.63147 1.49577,-2.37772 4.04283,-3.54189 6.92502,-4.70606 0.51506,0.23989 1.27353,0.44803 1.79917,0.87137 0.61031,0.49036 0.4445,1.59455 -0.15875,1.93322 -1.94028,1.09008 -3.86997,2.1978 -5.85258,3.21028"
       style="fill:#000000;fill-opacity:1;fill-rule:evenodd;stroke:none;stroke-width:0.0352778"
       id="path2242" />
    <path
       d="m 297.03121,143.34578 c 2.82928,0.25752 3.94758,3.00919 6.858,3.24555 0.45508,0.0353 0.86078,0.51858 1.17122,0.88195 0.30339,0.3563 0.61384,0.79727 0.64206,1.23472 0.0247,0.44097 -0.21167,0.98072 -0.52917,1.35114 -0.11289,0.13052 -1.07244,0.0282 -1.21355,-0.19756 -0.81492,-1.32644 -1.83092,-1.397 -3.23145,-0.35983 -0.13405,0.0988 -0.44097,0.0212 -0.6985,-0.0106 -1.41817,-1.8803 -2.8328,-3.76061 -4.25097,-5.64091 0.43392,-0.22578 0.88194,-0.53975 1.25236,-0.50447"
       style="fill:#000000;fill-opacity:1;fill-rule:evenodd;stroke:none;stroke-width:0.0352778"
       id="path2244" />
    <path
       d="m 29.041813,198.54491 c -0.06385,0.0141 -0.129822,0.0247 -0.194027,0.0353 l 0.09984,-0.18344 c 0.03316,0.0423 0.06209,0.0988 0.09419,0.14816"
       style="fill:#000000;fill-opacity:1;fill-rule:evenodd;stroke:none;stroke-width:0.0352778"
       id="path2246" />
    <path
       d="m 43.523694,198.48847 c -0.100895,-0.0388 -0.204611,-0.06 -0.306211,-0.0917 0.150988,-0.0529 0.301272,-0.0882 0.451555,-0.14464 0.0071,-0.007 -0.145344,0.23636 -0.145344,0.23636"
       style="fill:#000000;fill-opacity:1;fill-rule:evenodd;stroke:none;stroke-width:0.0352778"
       id="path2248" />
    <path
       d="m 29.760422,199.40569 c -0.296686,-0.0212 -0.492831,-0.50447 -0.718609,-0.86078 4.812242,-0.84314 9.630128,-1.72508 14.17567,-0.14816 -4.501798,1.51341 -8.987367,1.35114 -13.457061,1.00894"
       style="fill:#000000;fill-opacity:1;fill-rule:evenodd;stroke:none;stroke-width:0.0352778"
       id="path2250" />
    <path
       d="m 28.847786,198.58019 c -0.04445,-0.0141 -0.0889,-0.0176 -0.135467,-0.0317 0.07761,-0.0494 0.153106,-0.0882 0.2286,-0.14111 0.0067,-0.0106 -0.09313,0.17286 -0.09313,0.17286"
       style="fill:#000000;fill-opacity:1;fill-rule:evenodd;stroke:none;stroke-width:0.0352778"
       id="path2252" />
    <path
       d="m 28.712319,198.54844 c -2.638425,1.778 -5.515328,1.91911 -8.453967,1.60161 -0.229658,-0.0282 -0.421922,-0.20814 -0.634294,-0.31044 0.379236,-0.32103 0.807861,-0.92781 1.126772,-0.9137 2.643011,0.11642 5.370689,-1.13241 7.961489,-0.37747"
       style="fill:#000000;fill-opacity:1;fill-rule:evenodd;stroke:none;stroke-width:0.0352778"
       id="path2254" />
    <path
       d="m -86.075217,157.0018 c -0.210256,-0.0459 -0.469195,-0.27516 -0.47872,-0.45155 -0.0127,-0.21167 0.148167,-0.54328 0.352778,-0.67734 1.471789,-0.96308 3.072694,-1.53105 4.77908,-1.10419 0.995892,0.25047 1.920875,0.64206 3.031773,0.33514 -1.781881,0.78669 -3.52037,1.63689 -5.341409,2.24367 -0.673805,0.22225 -1.568802,-0.17639 -2.343502,-0.34573"
       style="fill:#000000;fill-opacity:1;fill-rule:evenodd;stroke:none;stroke-width:0.0352778"
       id="path2256" />
    <path
       d="m -78.20404,155.01919 c 0.01835,-0.0176 -0.02222,0.0529 -0.02222,0.0529 -0.05715,0.0212 -0.109714,0.0141 -0.164041,0.0317 0.06138,-0.0282 0.124177,-0.0564 0.186266,-0.0847"
       style="fill:#000000;fill-opacity:1;fill-rule:evenodd;stroke:none;stroke-width:0.0352778"
       id="path2258" />
    <path
       d="m 24.11633,102.72342 c 0.02999,0.0494 0.06985,0.0776 0.101953,0.127 -0.05927,0.0141 -0.118533,0.0282 -0.175683,0.0423 -0.02999,-0.0282 -0.06315,-0.0318 -0.0949,-0.06 0.05433,-0.0353 0.113242,-0.0635 0.165806,-0.10584 l 0.0028,-0.004"
       style="fill:#000000;fill-opacity:1;fill-rule:evenodd;stroke:none;stroke-width:0.0352778"
       id="path2260" />
    <path
       d="m 33.711533,103.61594 c -0.1397,-0.11994 -0.278342,-0.23989 -0.441325,-0.254 -2.375606,-0.21166 -4.742392,-0.51152 -7.211836,0.0776 -0.7874,0.18698 -1.436864,-0.0176 -1.840089,-0.58913 1.328208,-0.32809 2.65183,-0.6985 3.989917,-0.93487 2.319161,-0.41275 4.071055,0.36337 5.503333,1.70039"
       style="fill:#000000;fill-opacity:1;fill-rule:evenodd;stroke:none;stroke-width:0.0352778"
       id="path2262" />
    <path
       d="m 172.10202,210.52172 c -0.48331,-2.02495 -0.77611,-3.18911 -1.01953,-4.36033 -0.0282,-0.14817 0.2787,-0.52564 0.37395,-0.51859 0.26105,0.0141 0.62088,0.11642 0.71613,0.29281 0.92781,1.70744 1.60162,3.49603 1.50989,5.4998 -0.0106,0.17639 -0.27164,0.51153 -0.4198,0.52564 -0.25047,0.0212 -0.65617,-0.0847 -0.73025,-0.25047 -0.29281,-0.64911 -0.48331,-1.34408 -0.43039,-1.18886"
       style="fill:#000000;fill-opacity:1;fill-rule:evenodd;stroke:none;stroke-width:0.0352778"
       id="path2264" />
    <path
       d="m 84.085729,202.56658 c 2.526594,0.49389 5.078589,-1.01953 7.603419,-0.36336 -2.500489,1.32997 -5.038725,1.4358 -7.603419,0.36336"
       style="fill:#000000;fill-opacity:1;fill-rule:evenodd;stroke:none;stroke-width:0.0352778"
       id="path2266" />
    <path
       d="m 91.961845,202.26319 c -0.09137,-0.0318 -0.183444,-0.0353 -0.272697,-0.06 0.138642,-0.0776 0.283281,-0.13758 0.425803,-0.22578 l -0.153106,0.28575"
       style="fill:#000000;fill-opacity:1;fill-rule:evenodd;stroke:none;stroke-width:0.0352778"
       id="path2268" />
    <path
       d="m 248.58071,202.7218 c 1.62983,-0.80786 3.09033,-0.74083 4.33917,0.3422 -1.39347,1.25589 -2.88925,1.20297 -4.41325,0.6738 -0.18345,-0.0635 -0.40922,-0.29633 -0.381,-0.43391 0.0423,-0.20462 0.24341,-0.47625 0.45508,-0.58209"
       style="fill:#000000;fill-opacity:1;fill-rule:evenodd;stroke:none;stroke-width:0.0352778"
       id="path2270" />
    <path
       d="m 166.90913,224.19891 c 0.6985,0.2152 1.53458,0.51153 1.85208,1.02659 0.37395,0.60325 -0.70555,2.032 -1.66158,2.29305 -0.40569,0.11289 -0.92075,-0.20814 -1.55222,-0.381 0.0952,-0.65617 0.0952,-1.37583 0.34219,-2.04258 0.13406,-0.35984 0.84314,-0.94897 1.01953,-0.89606"
       style="fill:#000000;fill-opacity:1;fill-rule:evenodd;stroke:none;stroke-width:0.0352778"
       id="path2272" />
    <path
       d="m 69.591149,101.63686 c 0.192969,0.0776 0.365477,0.21167 0.501297,0.44097 2.300111,-0.95603 4.571647,-2.00378 7.104239,-2.120192 -2.186517,1.418162 -4.759678,1.368782 -7.092598,2.134302 -0.190147,-0.15169 -0.352072,-0.29986 -0.512938,-0.45508"
       style="fill:#000000;fill-opacity:1;fill-rule:evenodd;stroke:none;stroke-width:0.0352778"
       id="path2274" />
    <path
       d="m 67.071257,101.58042 c -0.134761,-0.0564 -0.122061,-0.33867 -0.176389,-0.52212 0.544689,-0.0847 1.219553,-0.37394 1.610431,-0.21166 0.420864,0.16933 0.754239,0.47978 1.08585,0.79022 -0.492478,-0.19756 -1.120775,-0.0212 -1.697567,0.004 -0.284339,0.0106 -0.599369,0.0353 -0.822325,-0.06"
       style="fill:#000000;fill-opacity:1;fill-rule:evenodd;stroke:none;stroke-width:0.0352778"
       id="path2276" />
    <path
       d="m 244.40029,77.453944 c -0.64911,-0.292806 -1.19944,-0.726722 -1.72508,-1.058334 0.11289,-0.402166 0.10231,-0.687916 0.26106,-0.832555 0.14816,-0.137583 0.49389,-0.197556 0.71966,-0.172861 0.7867,0.08819 1.59456,0.194028 1.90148,0.934861 0.0847,0.201083 0.11994,0.455083 0.0564,0.670278 -0.13758,0.493889 -0.63147,0.719666 -1.21356,0.458611"
       style="fill:#000000;fill-opacity:1;fill-rule:evenodd;stroke:none;stroke-width:0.0352778"
       id="path2278" />
    <path
       d="m 170.58155,216.61066 c 0.24341,0.0282 0.66675,-0.004 0.70202,0.0952 0.18345,0.57856 0.43392,1.18181 0.35278,1.77448 -0.0494,0.36336 -0.59619,0.86783 -1.02658,1.02305 -0.24342,0.0882 -0.889,-0.31397 -1.03364,-0.63147 -0.49742,-1.09361 -0.0212,-2.04258 1.00542,-2.26131"
       style="fill:#000000;fill-opacity:1;fill-rule:evenodd;stroke:none;stroke-width:0.0352778"
       id="path2280" />
    <path
       d="m 268.67846,168.08961 c 0.68086,0.13758 0.81845,0.60678 0.49389,1.1818 -0.41628,0.74084 -1.07597,1.23825 -1.98614,1.25942 -1.09008,0.0247 -2.17311,-0.0635 -3.25614,-0.10936 1.04775,-1.74625 2.49414,-2.78342 4.74839,-2.33186"
       style="fill:#000000;fill-opacity:1;fill-rule:evenodd;stroke:none;stroke-width:0.0352778"
       id="path2282" />
    <path
       d="m 117.24472,200.77447 c 0.47131,-0.0847 0.99307,0.0988 1.46615,0.2293 0.22683,0.06 0.58173,0.33162 0.5528,0.381 -0.21237,0.35278 -0.50729,0.67028 -0.77576,0.99837 -0.51576,0.0529 -1.11513,0.254 -1.52717,0.11288 -0.37889,-0.13052 -0.74366,-0.60677 -0.75706,-0.97366 -0.008,-0.22225 0.65052,-0.67734 1.04104,-0.74789"
       style="fill:#000000;fill-opacity:1;fill-rule:evenodd;stroke:none;stroke-width:0.0352778"
       id="path2284" />
    <path
       d="m 27.615533,205.62869 c -0.367242,0.32103 -0.711553,0.82903 -1.117953,0.91017 -0.478719,0.0988 -1.030817,-0.14817 -1.515533,-0.30692 -0.2286,-0.0741 -0.378178,-0.29633 -0.56515,-0.45155 0.43815,-0.27164 0.843491,-0.6597 1.317625,-0.7867 1.214966,-0.33514 1.853847,-0.0705 1.881011,0.635"
       style="fill:#000000;fill-opacity:1;fill-rule:evenodd;stroke:none;stroke-width:0.0352778"
       id="path2286" />
    <path
       d="m 97.526209,196.04372 c 0.723195,-0.59972 1.531761,-0.61031 2.330803,-0.33161 0.0099,0.004 -0.144286,0.52916 -0.327731,0.62089 -0.4953,0.24341 -1.040341,0.43039 -1.583266,0.55033 -0.239536,0.0564 -0.519642,-0.0988 -0.780345,-0.16228 0.117122,-0.2293 0.169686,-0.51505 0.360539,-0.67733"
       style="fill:#000000;fill-opacity:1;fill-rule:evenodd;stroke:none;stroke-width:0.0352778"
       id="path2288" />
    <path
       d="m 67.039154,77.841999 c 0.09031,0.03175 0.180622,0.03175 0.271639,0.05292 -0.133703,0.07761 -0.27058,0.141111 -0.401461,0.232833 l 0.129822,-0.28575"
       style="fill:#000000;fill-opacity:1;fill-rule:evenodd;stroke:none;stroke-width:0.0352778"
       id="path2290" />
    <path
       d="m 67.310793,77.894916 c 2.003072,-1.185333 4.2672,-1.188861 6.449836,-1.55575 -0.702028,0.335139 -1.404055,0.677333 -2.118783,0.994833 -1.424164,0.631473 -2.868789,0.927806 -4.331053,0.560917"
       style="fill:#000000;fill-opacity:1;fill-rule:evenodd;stroke:none;stroke-width:0.0352778"
       id="path2292" />
    <path
       d="m 74.46054,76.557888 c -0.321028,-0.130528 -0.403225,-0.229305 -0.301625,-0.299861 -0.133703,0.0247 -0.262466,0.05644 -0.398286,0.08114 0.257881,-0.123472 0.518583,-0.246944 0.777522,-0.366889 l 0.231775,0.162278 c -0.08431,0.02117 -0.173566,0.03175 -0.260702,0.04939 -0.01482,0.127 -0.03034,0.250472 -0.04868,0.373944"
       style="fill:#000000;fill-opacity:1;fill-rule:evenodd;stroke:none;stroke-width:0.0352778"
       id="path2294" />
    <path
       d="m -95.13702,157.93666 c 0.06315,-0.37041 0.03881,-0.6985 0.133703,-0.73377 0.762353,-0.29634 1.541639,-0.56092 2.329039,-0.77964 0.131939,-0.0353 0.328789,0.18697 0.495652,0.28928 -0.183444,0.19402 -0.330905,0.4833 -0.552802,0.55738 -0.765881,0.25753 -1.556103,0.43745 -2.405592,0.66675"
       style="fill:#000000;fill-opacity:1;fill-rule:evenodd;stroke:none;stroke-width:0.0352778"
       id="path2296" />
    <path
       d="m 59.558854,78.23711 c 0.104775,-0.01058 0.212373,-0.02822 0.318911,-0.03528 0.708025,-0.04586 1.401939,0.271638 2.105025,0.426861 -1.092552,-0.197556 -1.822802,-0.328084 -2.423936,-0.391584"
       style="fill:#000000;fill-opacity:1;fill-rule:evenodd;stroke:none;stroke-width:0.0352778"
       id="path2298" />
    <path
       d="m 59.558854,78.23711 c -0.902758,0.06703 -1.811161,0.183445 -2.715683,0.321028 1.075972,-0.338666 1.719086,-0.430389 2.715683,-0.321028"
       style="fill:#000000;fill-opacity:1;fill-rule:evenodd;stroke:none;stroke-width:0.0352778"
       id="path2300" />
    <path
       d="m 55.532249,78.988527 -0.26282,-0.204611 c 0.08326,-0.01058 0.16757,-0.0247 0.251884,-0.03528 -0.0039,-0.07761 -0.0067,-0.155222 -0.0085,-0.232833 0.219075,0.08819 0.300567,0.148166 0.277989,0.194028 0.352072,-0.04939 0.702028,-0.102306 1.052336,-0.151695 -0.373592,0.116417 -0.784578,0.254 -1.310922,0.430389"
       style="fill:#000000;fill-opacity:1;fill-rule:evenodd;stroke:none;stroke-width:0.0352778"
       id="path2302" />
    <path
       d="m 299.14788,151.97472 c -0.47625,0.49036 -0.98073,0.53622 -1.33703,0.10231 -0.127,-0.15523 -0.14817,-0.4692 -0.0529,-0.66323 0.4445,-0.88547 0.94192,-1.74977 2.20839,-1.86619 0.70556,0.95955 -0.10583,1.6898 -0.81844,2.42711"
       style="fill:#000000;fill-opacity:1;fill-rule:evenodd;stroke:none;stroke-width:0.0352778"
       id="path2304" />
    <path
       d="m 299.96632,149.54761 c -0.0176,-0.0212 -0.0247,-0.0423 -0.0423,-0.067 0.0353,0 0.0705,0.007 0.10583,0.0106 0.0106,0.0141 0.0212,0.0282 0.0318,0.0459 -0.0318,0 -0.06,0.0106 -0.0953,0.0106"
       style="fill:#000000;fill-opacity:1;fill-rule:evenodd;stroke:none;stroke-width:0.0352778"
       id="path2306" />
    <path
       d="m 300.29793,162.48044 c 0.27164,-0.27164 1.03717,-0.4445 1.40759,-0.32455 0.66322,0.21519 0.47625,1.28411 -0.34573,1.69686 -0.36336,0.18344 -0.94544,-0.0106 -1.4358,-0.0388 0.11289,-0.45508 0.067,-1.02305 0.37394,-1.3335"
       style="fill:#000000;fill-opacity:1;fill-rule:evenodd;stroke:none;stroke-width:0.0352778"
       id="path2308" />
    <path
       d="m -38.879196,195.87791 c -0.272345,0.27164 -0.543984,0.53975 -0.811742,0.80786 -0.246944,0.0565 -0.49918,0.1517 -0.734836,0.14464 -0.149225,-0.007 -0.272344,-0.1658 -0.412044,-0.25752 0.413102,-0.23284 0.808566,-0.49389 1.240013,-0.67734 0.201789,-0.0847 0.475192,-0.0176 0.718609,-0.0176"
       style="fill:#000000;fill-opacity:1;fill-rule:evenodd;stroke:none;stroke-width:0.0352778"
       id="path2310" />
    <path
       d="m 103.96617,201.55058 c 1.05904,-0.25753 2.10114,-0.43039 2.48532,0.64206 -0.7486,0.15875 -1.49825,0.35277 -2.25143,0.45155 -0.70203,0.0952 -1.04422,-0.19755 -0.85619,-0.66322 0.0699,-0.17639 0.38982,-0.37042 0.6223,-0.43039"
       style="fill:#000000;fill-opacity:1;fill-rule:evenodd;stroke:none;stroke-width:0.0352778"
       id="path2312" />
    <path
       d="m 106.74006,202.27025 c -0.0727,0.0317 -0.14605,0.067 -0.21908,0.0952 -0.0212,-0.06 -0.0473,-0.11289 -0.0695,-0.17286 0.0589,-0.0106 0.11712,-0.0282 0.17709,-0.0388 0.0321,0.0459 0.0769,0.0741 0.11148,0.11642"
       style="fill:#000000;fill-opacity:1;fill-rule:evenodd;stroke:none;stroke-width:0.0352778"
       id="path2314" />
    <path
       d="m 215.04918,198.3403 c 0.70909,-0.127 1.0795,0.0811 1.0407,0.66675 -0.0176,0.21167 -0.12347,0.47625 -0.29281,0.63853 -0.85725,0.83608 -1.91205,0.91369 -2.72697,0.23283 -0.0388,-0.19402 -0.1905,-0.43391 -0.1023,-0.57502 0.45155,-0.74789 1.29116,-0.81845 2.08138,-0.96309"
       style="fill:#000000;fill-opacity:1;fill-rule:evenodd;stroke:none;stroke-width:0.0352778"
       id="path2316" />
    <path
       d="m 46.539944,100.68789 c -0.02399,-0.0141 -0.05009,-0.0282 -0.07726,-0.0388 l 0.05115,-0.127 c 0.0039,0.06 0.02222,0.10584 0.02611,0.16581"
       style="fill:#000000;fill-opacity:1;fill-rule:evenodd;stroke:none;stroke-width:0.0352778"
       id="path2318" />
    <path
       d="m 47.795832,101.19589 c 1.324328,-0.007 1.592087,0.8643 2.026356,1.62278 -1.297164,-0.49389 -3.122083,-0.43039 -3.282244,-2.13078 0.418041,0.19755 0.818444,0.508 1.255888,0.508"
       style="fill:#000000;fill-opacity:1;fill-rule:evenodd;stroke:none;stroke-width:0.0352778"
       id="path2320" />
    <path
       d="m -45.972852,119.0288 c 0.145698,0.10937 0.301625,0.22225 0.454731,0.33867 -0.193675,0.16933 -0.366183,0.43039 -0.586317,0.48683 -0.813505,0.20814 -1.067858,-0.0317 -0.631472,-0.55033 0.134761,-0.16228 0.499533,-0.18697 0.763058,-0.27517"
       style="fill:#000000;fill-opacity:1;fill-rule:evenodd;stroke:none;stroke-width:0.0352778"
       id="path2322" />
    <path
       d="m 94.912126,202.05505 c -0.371475,0.28575 -0.707672,0.71967 -1.121833,0.83961 -0.794103,0.21873 -1.228373,-0.16227 -1.534584,-0.67733 0.673806,-0.11289 1.350434,-0.23989 2.025297,-0.32808 0.206375,-0.0282 0.42157,0.10583 0.63112,0.1658"
       style="fill:#000000;fill-opacity:1;fill-rule:evenodd;stroke:none;stroke-width:0.0352778"
       id="path2324" />
    <path
       d="m 91.963609,202.26672 c -0.0018,-0.004 0.151342,-0.28928 0.151342,-0.28928 0.04057,0.0882 0.09384,0.16228 0.140758,0.23989 -0.09525,0.0176 -0.194028,0.0317 -0.2921,0.0494"
       style="fill:#000000;fill-opacity:1;fill-rule:evenodd;stroke:none;stroke-width:0.0352778"
       id="path2326" />
    <path
       d="m 86.320576,196.2448 c 0.595489,0.1905 1.258711,0.17286 1.995311,-0.0106 0.756356,-0.18697 1.411817,-0.0494 1.798814,0.52564 -1.597731,0.79375 -2.702278,0.15522 -3.794125,-0.51506"
       style="fill:#000000;fill-opacity:1;fill-rule:evenodd;stroke:none;stroke-width:0.0352778"
       id="path2328" />
    <path
       d="m 90.215595,196.88686 c -0.02928,-0.0529 -0.06879,-0.0776 -0.100894,-0.127 0.06597,-0.0318 0.123119,-0.0459 0.189089,-0.0811 0.02434,0.0564 0.06103,0.0882 0.08537,0.13758 -0.05715,0.0247 -0.114653,0.0459 -0.172861,0.067 l -7.06e-4,0.004"
       style="fill:#000000;fill-opacity:1;fill-rule:evenodd;stroke:none;stroke-width:0.0352778"
       id="path2330" />
    <path
       d="m 77.379071,99.834165 c 0.288925,-0.585611 0.764822,-0.765527 1.277761,-0.384527 0.506236,0.377472 0.391936,0.864302 -0.259645,1.104192 -0.655461,0.23636 -1.063625,-0.0318 -1.151819,-0.59972 -0.006,-0.02469 0.0388,-0.04586 0.0822,-0.07408 l 0.05151,-0.04586"
       style="fill:#000000;fill-opacity:1;fill-rule:evenodd;stroke:none;stroke-width:0.0352778"
       id="path2332" />
    <path
       d="m -8.9361246,96.034749 c 0.00953,-0.08819 0.4099277,-0.201083 0.6378222,-0.232833 0.064911,-0.0071 0.1435805,0.232833 0.2173111,0.359833 -0.5866695,0.391583 -0.9151056,0.345722 -0.8551333,-0.127"
       style="fill:#000000;fill-opacity:1;fill-rule:evenodd;stroke:none;stroke-width:0.0352778"
       id="path2334" />
    <path
       d="m 39.423358,102.76222 c -1.87325,0.20814 -3.7592,0.0706 -5.527675,0.99483 0.690386,-0.46919 1.334205,-1.00894 2.076802,-1.38641 1.362428,-0.69497 2.565753,-0.62442 3.450873,0.39158"
       style="fill:#000000;fill-opacity:1;fill-rule:evenodd;stroke:none;stroke-width:0.0352778"
       id="path2336" />
    <path
       d="m 33.895683,103.75705 c -0.06809,-0.0423 -0.127,-0.0882 -0.18415,-0.14111 0.05891,0.0494 0.11818,0.10231 0.180269,0.14464 0.0018,0 0.0018,0 0.0039,-0.004"
       style="fill:#000000;fill-opacity:1;fill-rule:evenodd;stroke:none;stroke-width:0.0352778"
       id="path2338" />
    <path
       d="m 135.48298,88.404166 c 0.0938,0.01058 0.18697,0.02117 0.28187,0.03528 0.0526,-0.09525 0.10795,-0.186973 0.16016,-0.282223 0.12524,0.15875 0.16792,0.261056 0.15416,0.321028 0.21238,0.02822 0.42581,0.05292 0.63712,0.08114 -0.32667,0.03175 -0.67592,0.0635 -1.08126,0.105833 l -0.15205,-0.261055"
       style="fill:#000000;fill-opacity:1;fill-rule:evenodd;stroke:none;stroke-width:0.0352778"
       id="path2340" />
    <path
       d="m 141.18704,88.993305 0.19297,0.15875 c -1.55539,-0.197556 -3.10656,-0.395112 -4.66372,-0.592667 2.54212,-0.239889 2.99226,-0.15875 4.47075,0.433917"
       style="fill:#000000;fill-opacity:1;fill-rule:evenodd;stroke:none;stroke-width:0.0352778"
       id="path2342" />
    <path
       d="m 55.840577,101.10064 c -1.995311,0.57855 -3.989211,1.15358 -5.984522,1.73214 1.904294,-1.03011 3.802944,-2.03906 5.984522,-1.73214"
       style="fill:#000000;fill-opacity:1;fill-rule:evenodd;stroke:none;stroke-width:0.0352778"
       id="path2344" />
    <path
       d="m 92.636709,100.33864 c 0.105481,0.0282 0.202495,0.0318 0.30727,0.0564 -0.154164,0.0706 -0.304448,0.14464 -0.458611,0.20814 l 0.151341,-0.26458"
       style="fill:#000000;fill-opacity:1;fill-rule:evenodd;stroke:none;stroke-width:0.0352778"
       id="path2346" />
    <path
       d="m 92.943979,100.39508 c 0.766939,-0.35278 1.526116,-0.730248 2.325158,-0.973665 1.201208,-0.366888 2.441222,-0.582083 3.668889,-0.853722 -1.823861,1.361722 -3.725334,2.289527 -5.994047,1.827387"
       style="fill:#000000;fill-opacity:1;fill-rule:evenodd;stroke:none;stroke-width:0.0352778"
       id="path2348" />
    <path
       d="m 99.068906,98.468916 c 0.03105,-0.04233 -0.04163,0.07761 -0.04163,0.07761 -0.03034,0.0071 -0.06209,0.01058 -0.08925,0.02117 0.04269,-0.03528 0.08819,-0.0635 0.13088,-0.09878"
       style="fill:#000000;fill-opacity:1;fill-rule:evenodd;stroke:none;stroke-width:0.0352778"
       id="path2350" />
    <path
       d="m 179.57385,214.57514 c 0.52564,-0.28928 1.12184,0.49741 1.13242,1.55927 0,0.20461 -0.20461,0.56092 -0.38453,0.61736 -0.20108,0.067 -0.61383,-0.0705 -0.70203,-0.2293 -0.22225,-0.4057 -0.36689,-0.86078 -0.42686,-1.31586 -0.0247,-0.18697 0.17639,-0.52564 0.381,-0.63147"
       style="fill:#000000;fill-opacity:1;fill-rule:evenodd;stroke:none;stroke-width:0.0352778"
       id="path2352" />
    <path
       d="m 150.66689,211.573 c 0.37712,-0.18698 1.08197,-0.127 1.45238,0.067 0.53693,0.28223 0.43322,0.80081 -0.0755,1.24884 -0.51012,-0.0141 -1.14935,0.12347 -1.50213,-0.0811 -0.50306,-0.28928 -0.43638,-0.9525 0.12524,-1.23472"
       style="fill:#000000;fill-opacity:1;fill-rule:evenodd;stroke:none;stroke-width:0.0352778"
       id="path2354" />
    <path
       d="m 279.26532,200.36877 c 0.0247,0.14464 0.127,0.38453 0.067,0.42334 -0.20814,0.14464 -0.47272,0.21166 -0.71967,0.31044 -0.0353,-0.16933 -0.15522,-0.45155 -0.10583,-0.47978 0.22931,-0.12347 0.50094,-0.17638 0.75847,-0.254"
       style="fill:#000000;fill-opacity:1;fill-rule:evenodd;stroke:none;stroke-width:0.0352778"
       id="path2356" />
    <path
       d="m 39.92536,102.74458 c 2.154414,-0.6985 4.293659,-1.38289 6.431492,-2.06375 -1.824567,1.81328 -4.077053,2.15195 -6.431492,2.06375"
       style="fill:#000000;fill-opacity:1;fill-rule:evenodd;stroke:none;stroke-width:0.0352778"
       id="path2358" />
    <path
       d="m 39.92536,102.74458 c -0.123119,0.0388 -0.244122,0.0776 -0.366183,0.11642 -0.05821,-0.0176 -0.09913,-0.0529 -0.135819,-0.0988 0.08537,-0.007 0.169686,-0.0141 0.252236,-0.0212 0.08502,0.004 0.165805,0.004 0.249766,0.004"
       style="fill:#000000;fill-opacity:1;fill-rule:evenodd;stroke:none;stroke-width:0.0352778"
       id="path2360" />
    <path
       d="m 46.462685,100.64908 c -0.03422,0.0106 -0.07091,0.0212 -0.105833,0.0318 0.0448,-0.0423 0.09031,-0.0741 0.132997,-0.11994 0.02399,-0.0388 -0.02716,0.0882 -0.02716,0.0882"
       style="fill:#000000;fill-opacity:1;fill-rule:evenodd;stroke:none;stroke-width:0.0352778"
       id="path2362" />
    <path
       d="m 17.865461,104.33914 c -0.0254,0.0388 0.07161,-0.13053 0.07161,-0.13053 0.04551,-0.0106 0.0949,-0.0141 0.141464,-0.0247 -0.07056,0.0494 -0.141464,0.1023 -0.213078,0.15522"
       style="fill:#000000;fill-opacity:1;fill-rule:evenodd;stroke:none;stroke-width:0.0352778"
       id="path2364" />
    <path
       d="m 23.947702,102.83278 c -1.787172,1.29822 -3.908425,0.92427 -5.869163,1.35114 0.797983,-0.5715 1.538816,-1.19239 2.398888,-1.55575 1.200503,-0.50448 2.468739,-0.59973 3.470275,0.20461"
       style="fill:#000000;fill-opacity:1;fill-rule:evenodd;stroke:none;stroke-width:0.0352778"
       id="path2366" />
    <path
       d="m 110.00396,201.86455 c -0.40922,0.30339 -0.7807,0.74084 -1.23613,0.87842 -0.80399,0.23989 -1.55046,0.13053 -2.02777,-0.47272 0.7052,-0.30692 1.39559,-0.65264 2.1216,-0.83256 0.33267,-0.0847 0.75742,0.27164 1.1423,0.42686"
       style="fill:#000000;fill-opacity:1;fill-rule:evenodd;stroke:none;stroke-width:0.0352778"
       id="path2368" />
    <path
       d="m -48.975696,108.15972 c -2.156178,0.94545 -4.408664,0.35278 -6.634692,0.92428 -2.484261,0.635 -5.044016,0.99483 -7.577666,1.32292 -6.148917,0.79727 -6.152092,0.76552 -9.372953,-3.50662 -0.295627,-0.38805 -0.545747,-0.80433 -0.818091,-1.21002 l -0.198967,-0.16581 c 0.05609,0.20108 0.18027,0.4057 0.154164,0.60678 -0.06879,0.54328 -0.495653,0.87136 -0.923925,0.63853 -0.210608,-0.11642 -0.214489,-0.74084 -0.04269,-1.03717 0.248003,-0.43392 0.591255,-0.46567 0.863953,-0.20108 2.895247,0.53975 6.141155,-0.254 8.863894,1.05127 0.657578,0.3175 1.61925,0.26812 2.454275,0.26459 3.648428,-0.0282 7.303911,-0.11995 10.950575,-0.14111 0.794102,-0.007 1.58115,0.14816 2.342444,0.30691 0.189089,0.0388 0.354894,0.381 0.3556,0.60325 0.0032,0.16934 -0.219781,0.45861 -0.415925,0.54328"
       style="fill:#000000;fill-opacity:1;fill-rule:evenodd;stroke:none;stroke-width:0.0352778"
       id="path2370" />
    <path
       d="M 5.5080084,82.145888 C 5.6251306,81.997721 5.7076806,81.786055 5.8646667,81.715499 6.0304722,81.637889 6.2633056,81.694329 6.4658,81.694329 6.3504417,81.842495 6.26895,82.050634 6.1147861,82.12119 5.9461584,82.1988 5.713325,82.14236 5.5080084,82.14588"
       style="fill:#000000;fill-opacity:1;fill-rule:evenodd;stroke:none;stroke-width:0.0352778"
       id="path2372" />
    <path
       d="m 16.405314,81.588499 c 0.129822,-0.176389 0.220839,-0.419805 0.399344,-0.504472 0.185914,-0.08819 0.451908,-0.02117 0.682625,-0.02117 -0.122414,0.169334 -0.247297,0.342195 -0.371475,0.511528 -0.237419,0.0035 -0.474133,0.01058 -0.710494,0.01411"
       style="fill:#000000;fill-opacity:1;fill-rule:evenodd;stroke:none;stroke-width:0.0352778"
       id="path2374" />
    <path
       d="m 64.218696,77.616222 c 1.006475,-0.440973 1.837267,-0.370417 2.456039,0.278694 -1.565981,0.243417 -3.129845,0.486833 -4.690886,0.733778 0.745419,-0.338667 1.487311,-0.680861 2.234847,-1.012472"
       style="fill:#000000;fill-opacity:1;fill-rule:evenodd;stroke:none;stroke-width:0.0352778"
       id="path2376" />
    <path
       d="m 67.03739,77.838472 c 0.0018,0.0035 -0.128058,0.289277 -0.128058,0.289277 -0.07161,-0.09878 -0.156986,-0.151694 -0.234597,-0.232833 0.120297,-0.02117 0.239536,-0.03881 0.362655,-0.05644"
       style="fill:#000000;fill-opacity:1;fill-rule:evenodd;stroke:none;stroke-width:0.0352778"
       id="path2378" />
    <path
       d="m 50.941199,91.31811 0.767997,0.01058 -0.609953,0.455084 z"
       style="fill:#000000;fill-opacity:1;fill-rule:evenodd;stroke:none;stroke-width:0.0352778"
       id="path2380" />
    <path
       d="m 56.387382,91.452166 c 0.01341,-0.155223 -0.01552,-0.426861 0.04833,-0.448028 0.680861,-0.243417 0.928158,-0.08819 0.608894,0.373944 -0.06597,0.09525 -0.42933,0.05292 -0.657225,0.07408"
       style="fill:#000000;fill-opacity:1;fill-rule:evenodd;stroke:none;stroke-width:0.0352778"
       id="path2382" />
    <path
       d="m 76.703148,90.453805 0.659342,-0.07056 -0.448028,0.430389 z"
       style="fill:#000000;fill-opacity:1;fill-rule:evenodd;stroke:none;stroke-width:0.0352778"
       id="path2384" />
    <path
       d="m 56.715113,101.17825 c -0.109714,0.0106 -0.219075,0.0212 -0.327731,0.0212 0.0049,-0.004 0.07549,-0.13406 0.12312,-0.22225 l -0.118181,0.21519 c -0.189089,-0.0459 -0.368653,-0.0635 -0.551744,-0.0917 0.238477,-0.067 0.475897,-0.13759 0.716491,-0.20461 0.05539,0.0917 0.103717,0.18697 0.158045,0.28222"
       style="fill:#000000;fill-opacity:1;fill-rule:evenodd;stroke:none;stroke-width:0.0352778"
       id="path2386" />
    <path
       d="m 57.951246,101.95789 c -0.195792,0.1023 -0.625475,0.13758 -0.714375,0.0353 -0.21343,-0.24342 -0.36583,-0.52917 -0.521758,-0.81492 0.412044,-0.0282 0.826911,-0.0706 1.221669,-0.0247 0.724253,0.0811 0.733072,0.42687 0.01446,0.80434"
       style="fill:#000000;fill-opacity:1;fill-rule:evenodd;stroke:none;stroke-width:0.0352778"
       id="path2388" />
    <path
       d="m 92.643412,100.321 c -0.0067,0.0176 -0.158044,0.28222 -0.158044,0.28222 -0.07161,-0.14464 -0.143581,-0.28575 -0.213431,-0.43039 0.121356,0.0529 0.250119,0.0952 0.371475,0.14817"
       style="fill:#000000;fill-opacity:1;fill-rule:evenodd;stroke:none;stroke-width:0.0352778"
       id="path2390" />
    <path
       d="m 91.894818,99.417888 c 0.125941,0.250472 0.251177,0.504472 0.377119,0.754942 -0.3556,-0.14464 -0.708731,-0.285748 -1.066447,-0.423331 0.230716,-0.112889 0.459669,-0.22225 0.689328,-0.331611"
       style="fill:#000000;fill-opacity:1;fill-rule:evenodd;stroke:none;stroke-width:0.0352778"
       id="path2392" />
    <path
       d="m 141.37507,89.102666 c -0.0765,-0.680861 -0.097,-1.340556 1.02094,-1.506361 0.0194,0.384527 0.19121,0.818444 0.0272,1.150055 -0.254,0.515056 -0.66393,0.596195 -1.04811,0.356306"
       style="fill:#000000;fill-opacity:1;fill-rule:evenodd;stroke:none;stroke-width:0.0352778"
       id="path2394" />
    <path
       d="m 141.18105,88.972138 c 0.0621,0.05997 0.13123,0.08819 0.19402,0.130528 0.003,0.01764 0.003,0.03528 0.005,0.04939 0,0 -0.19297,-0.15875 -0.19896,-0.179917"
       style="fill:#000000;fill-opacity:1;fill-rule:evenodd;stroke:none;stroke-width:0.0352778"
       id="path2396" />
    <path
       d="m 148.88183,87.871471 0.74542,0.01058 -0.59831,0.440972 z"
       style="fill:#000000;fill-opacity:1;fill-rule:evenodd;stroke:none;stroke-width:0.0352778"
       id="path2398" />
    <path
       d="m 181.64466,87.112999 c 0.0706,-0.04586 0.14464,-0.08467 0.21519,-0.134055 0.0917,0.04233 0.18345,0.08114 0.27517,0.119944 -0.12347,0.03528 -0.23989,0.06703 -0.35983,0.105833 -0.0459,-0.03881 -0.0847,-0.05997 -0.13053,-0.09172"
       style="fill:#000000;fill-opacity:1;fill-rule:evenodd;stroke:none;stroke-width:0.0352778"
       id="path2400" />
    <path
       d="m 178.62841,88.160749 c 0.61383,-1.993194 1.40405,-2.257778 3.01625,-1.04775 -0.91722,0.596195 -1.905,1.001889 -3.01625,1.04775"
       style="fill:#000000;fill-opacity:1;fill-rule:evenodd;stroke:none;stroke-width:0.0352778"
       id="path2402" />
    <path
       d="m -79.946409,193.05569 -0.611717,-0.0494 0.512939,-0.3563 z"
       style="fill:#000000;fill-opacity:1;fill-rule:evenodd;stroke:none;stroke-width:0.0352778"
       id="path2404" />
    <path
       d="m 251.49113,85.613694 c -0.11289,-0.112889 -0.10231,-0.377473 -0.0529,-0.557389 0.0212,-0.08114 0.28222,-0.134056 0.43745,-0.197556 0.127,0.144639 0.3563,0.275167 0.36688,0.437445 0.0353,0.663222 -0.27163,0.79375 -0.75141,0.3175"
       style="fill:#000000;fill-opacity:1;fill-rule:evenodd;stroke:none;stroke-width:0.0352778"
       id="path2406" />
    <path
       d="m -46.461449,197.27844 -0.632178,-0.004 0.47237,-0.39864 z"
       style="fill:#000000;fill-opacity:1;fill-rule:evenodd;stroke:none;stroke-width:0.0352778"
       id="path2408" />
    <path
       d="m 7.9164222,200.34408 c -0.1213556,0.14817 -0.20955,0.36689 -0.3686528,0.43392 -0.1774472,0.0741 -0.4148666,0.0106 -0.6290027,0.0106 0.1259416,-0.15522 0.219075,-0.37394 0.3848805,-0.44803 0.1675695,-0.0705 0.4060472,-0.004 0.612775,0.004"
       style="fill:#000000;fill-opacity:1;fill-rule:evenodd;stroke:none;stroke-width:0.0352778"
       id="path2410" />
    <path
       d="m 70.620907,197.68766 c 0.61983,-0.49036 0.868892,-0.49741 0.814564,0.0988 -0.0021,0.0176 -0.475897,0.0141 -0.711553,0.0811 -0.45085,0.13406 -0.887236,0.31397 -1.330325,0.47272 0.386645,-0.22578 0.8763,-0.37394 1.227314,-0.65264"
       style="fill:#000000;fill-opacity:1;fill-rule:evenodd;stroke:none;stroke-width:0.0352778"
       id="path2412" />
    <path
       d="m 79.087573,196.85158 -0.645936,0.0706 0.41522,-0.4445 z"
       style="fill:#000000;fill-opacity:1;fill-rule:evenodd;stroke:none;stroke-width:0.0352778"
       id="path2414" />
    <path
       d="m 90.389162,196.8163 c 0.639939,-0.23636 1.271764,-0.4833 1.920522,-0.67733 0.171803,-0.0494 0.409222,0.13053 0.61595,0.20108 -0.285044,0.33867 -0.502355,0.8502 -0.865011,0.98425 -0.726369,0.27164 -1.351492,0.0988 -1.671461,-0.508"
       style="fill:#000000;fill-opacity:1;fill-rule:evenodd;stroke:none;stroke-width:0.0352778"
       id="path2416" />
    <path
       d="m 78.033473,203.02166 c -0.142522,0.16934 -0.282927,0.3422 -0.426508,0.508 -0.230717,-0.0176 -0.462492,-0.0388 -0.693208,-0.06 0.138641,-0.1658 0.247297,-0.41628 0.42545,-0.4833 0.198966,-0.0741 0.459669,0.0176 0.694266,0.0353"
       style="fill:#000000;fill-opacity:1;fill-rule:evenodd;stroke:none;stroke-width:0.0352778"
       id="path2418" />
    <path
       d="m 295.69771,143.74089 c 0.0247,0.0353 0.0564,0.0705 0.0811,0.10936 -0.0635,0.0318 -0.13406,0.0741 -0.20108,0.1023 0.0282,-0.12347 0.007,-0.2293 0.0176,-0.34572 0.0423,0.0317 0.0741,0.067 0.11995,0.0988 -0.004,0.007 -0.0176,0.0247 -0.0176,0.0353"
       style="fill:#000000;fill-opacity:1;fill-rule:evenodd;stroke:none;stroke-width:0.0352778"
       id="path2420" />
    <path
       d="m 295.5954,143.60683 c -0.87488,-0.67733 -1.41816,-1.524 -1.62983,-2.54705 1.17828,0.54327 1.73567,1.38288 1.62983,2.54705"
       style="fill:#000000;fill-opacity:1;fill-rule:evenodd;stroke:none;stroke-width:0.0352778"
       id="path2422" />
    <path
       d="m 110.83016,206.08377 c 0.0455,0 0.0889,0.004 0.13547,0.007 l -0.11818,0.15169 c -0.0649,-0.004 -0.12206,-0.0106 -0.18027,-0.0141 0.0543,-0.0282 0.11042,-0.0529 0.16686,-0.0776 -0.002,-0.0212 -0.004,-0.0459 -0.004,-0.067"
       style="fill:#000000;fill-opacity:1;fill-rule:evenodd;stroke:none;stroke-width:0.0352778"
       id="path2424" />
    <path
       d="m 109.28923,206.22136 c 0.37641,-0.16934 0.89676,-0.0388 1.37795,0.007 -0.38488,0.17639 -0.76623,0.36689 -1.16664,0.45861 -0.67168,0.15523 -0.81632,-0.19402 -0.21131,-0.46566"
       style="fill:#000000;fill-opacity:1;fill-rule:evenodd;stroke:none;stroke-width:0.0352778"
       id="path2426" />
    <path
       d="m 307.19121,157.28403 c -0.16228,0.11994 -0.31397,0.28927 -0.49742,0.34219 -0.0847,0.0247 -0.2293,-0.17639 -0.34925,-0.27164 0.16228,-0.13053 0.31398,-0.30339 0.49742,-0.36336 0.0776,-0.0282 0.23283,0.18697 0.34925,0.29281"
       style="fill:#000000;fill-opacity:1;fill-rule:evenodd;stroke:none;stroke-width:0.0352778"
       id="path2428" />
    <path
       d="m 253.59016,176.37636 c 0.68791,0.0353 0.75494,0.3563 0.15169,0.79022 -0.14464,0.10231 -0.44097,0.0388 -0.66322,0.0529 -0.0423,-0.17992 -0.18345,-0.40923 -0.0988,-0.52564 0.11642,-0.15522 0.41981,-0.32809 0.61031,-0.3175"
       style="fill:#000000;fill-opacity:1;fill-rule:evenodd;stroke:none;stroke-width:0.0352778"
       id="path2430" />
    <path
       d="m 222.39049,189.23511 c -0.21519,0.06 -0.49036,-0.0811 -0.73731,-0.13406 0.15523,-0.19403 0.27517,-0.47625 0.47625,-0.55033 0.17639,-0.0706 0.44803,0.0917 0.67734,0.15169 -0.13759,0.18345 -0.24342,0.48331 -0.41628,0.5327"
       style="fill:#000000;fill-opacity:1;fill-rule:evenodd;stroke:none;stroke-width:0.0352778"
       id="path2432" />
    <path
       d="m 200.14432,199.14816 c 0.17992,0.10936 0.45861,0.17992 0.51859,0.33867 0.0705,0.16228 -0.0635,0.40569 -0.10936,0.61383 -0.18698,-0.11641 -0.37042,-0.23636 -0.55739,-0.35277 0.0494,-0.19756 0.0988,-0.39864 0.14816,-0.59973"
       style="fill:#000000;fill-opacity:1;fill-rule:evenodd;stroke:none;stroke-width:0.0352778"
       id="path2434" />
    <path
       d="m 228.21485,194.18105 c 0.0635,-0.0952 0.0988,-0.17991 0.13758,-0.26458 0.49037,-0.53622 1.02659,-0.81492 1.75331,-0.2787 0.06,0.0388 -0.15875,0.48684 -0.19756,0.48331 -0.51505,-0.0212 -1.016,-0.0952 -1.524,-0.15522 l -0.16933,0.21519"
       style="fill:#000000;fill-opacity:1;fill-rule:evenodd;stroke:none;stroke-width:0.0352778"
       id="path2436" />
    <path
       d="m 237.47174,193.23914 c -0.20814,-0.007 -0.41275,-0.0176 -0.62089,-0.0247 0.33514,-0.14817 0.67028,-0.2928 1.00894,-0.43744 -0.13052,0.15522 -0.25752,0.30691 -0.38805,0.46214"
       style="fill:#000000;fill-opacity:1;fill-rule:evenodd;stroke:none;stroke-width:0.0352778"
       id="path2438" />
    <path
       d="m -65.169607,194.77019 c 0.05786,-0.06 0.117122,-0.11994 0.176389,-0.17992 0.103717,0.43039 0.04163,0.4692 -0.176389,0.17992"
       style="fill:#000000;fill-opacity:1;fill-rule:evenodd;stroke:none;stroke-width:0.0352778"
       id="path2440" />
    <path
       d="m 275.60349,116.86275 0.0141,-0.18345 0.36336,0.0212 -0.22578,0.0953 c 0.13053,0.10583 0.30692,0.254 0.30692,0.254 l -0.45861,-0.18697"
       style="fill:#000000;fill-opacity:1;fill-rule:evenodd;stroke:none;stroke-width:0.0352778"
       id="path2442" />
    <path
       d="m 85.299637,196.15661 0.143581,-0.38806 0.18415,0.0635 c 0.234597,0.13053 0.46355,0.27164 0.693208,0.41275 -0.255058,-0.0811 -0.498475,-0.20461 -0.727075,-0.37394 -0.07267,0.0705 -0.293864,0.28575 -0.293864,0.28575"
       style="fill:#000000;fill-opacity:1;fill-rule:evenodd;stroke:none;stroke-width:0.0352778"
       id="path2444" />
    <path
       d="m 288.8256,139.23239 c 0.18697,-0.45861 0.29633,-0.96661 1.22414,-1.09009 1.48519,-0.19755 0.71966,0.86078 1.09008,1.26295 l 0.0388,0.10583 c -0.82198,0 -1.64395,0.007 -2.47298,0.0176 -0.0282,0.0282 -0.06,0.0635 -0.0882,0.0917 0.007,-0.0141 -0.25753,-0.0811 -0.25753,-0.0811 0.0564,-0.14111 0.10936,-0.28575 0.16581,-0.42686 0.0988,0.0388 0.19755,0.0811 0.29986,0.11995"
       style="fill:#000000;fill-opacity:1;fill-rule:evenodd;stroke:none;stroke-width:0.0352778"
       id="path2446" />
    <path
       d="m 122.35929,196.07194 -0.46919,0.21872 0.036,-0.48683 z"
       style="fill:#000000;fill-opacity:1;fill-rule:evenodd;stroke:none;stroke-width:0.0352778"
       id="path2448" />
    <path
       d="m 293.61632,138.60444 c 1.24178,0.63147 0.34925,1.44639 0.29633,2.21545 0.0176,0.10583 0.0388,0.16933 0.0529,0.23989 -0.94544,-0.51859 -1.86267,-1.03364 -2.78694,-1.5487 0,0 -0.0388,-0.10583 -0.0388,-0.10583 0.77611,-0.39864 1.22414,-1.43581 2.4765,-0.80081"
       style="fill:#000000;fill-opacity:1;fill-rule:evenodd;stroke:none;stroke-width:0.0352778"
       id="path2450" />
    <path
       d="m 110.83016,206.08377 c -0.12241,-0.007 -0.24341,-0.0176 -0.36371,-0.0212 0.2286,-0.35631 0.34431,-0.33161 0.36371,0.0212"
       style="fill:#000000;fill-opacity:1;fill-rule:evenodd;stroke:none;stroke-width:0.0352778"
       id="path2452" />
    <path
       d="m 286.86768,151.75953 -0.19403,-0.29281 0.4692,-0.06 z"
       style="fill:#000000;fill-opacity:1;fill-rule:evenodd;stroke:none;stroke-width:0.0352778"
       id="path2454" />
    <path
       d="m 156.89836,206.16139 -0.1524,0.19755 c -0.10443,-0.0388 -0.20638,-0.0847 -0.30904,-0.127 -0.0243,0 -0.0455,0.004 -0.0688,0.007 -0.0282,-0.0529 -0.067,-0.067 -0.10583,-0.0847 0.37429,-0.54681 0.58667,-0.54328 0.63606,0.007"
       style="fill:#000000;fill-opacity:1;fill-rule:evenodd;stroke:none;stroke-width:0.0352778"
       id="path2456" />
    <path
       d="m 307.44168,163.53172 -0.37394,-0.23636 0.41275,-0.18697 z"
       style="fill:#000000;fill-opacity:1;fill-rule:evenodd;stroke:none;stroke-width:0.0352778"
       id="path2458" />
    <path
       d="m 228.04199,193.12977 c 0.39511,0.13406 0.48683,0.40217 0.31044,0.7867 -0.17638,-0.12347 -0.38452,-0.21872 -0.51505,-0.37042 -0.0494,-0.0564 0.13053,-0.27164 0.20461,-0.41628"
       style="fill:#000000;fill-opacity:1;fill-rule:evenodd;stroke:none;stroke-width:0.0352778"
       id="path2460" />
    <path
       d="m 239.01338,197.82525 c 0.0317,0.0247 -0.0176,0.13405 -0.0811,0.25752 -0.40922,-0.47625 -0.381,-0.58561 0.0811,-0.25752"
       style="fill:#000000;fill-opacity:1;fill-rule:evenodd;stroke:none;stroke-width:0.0352778"
       id="path2462" />
    <path
       d="m 229.29788,214.00011 c 0.0247,0.0317 -0.29986,0.27869 -0.46214,0.42333 -0.19756,-0.11289 -0.56797,-0.27164 -0.53975,-0.33867 0.23636,-0.5715 0.61736,-0.60325 1.00189,-0.0847"
       style="fill:#000000;fill-opacity:1;fill-rule:evenodd;stroke:none;stroke-width:0.0352778"
       id="path2464" />
    <path
       d="m 231.74968,213.47447 c -0.96661,0.31044 -1.94027,0.63147 -2.91394,0.94897 0.94192,-0.43744 1.82033,-1.1183 2.91394,-0.94897"
       style="fill:#000000;fill-opacity:1;fill-rule:evenodd;stroke:none;stroke-width:0.0352778"
       id="path2466" />
    <path
       d="m 232.04602,213.53091 c -0.0212,0.0459 -0.0388,0.0741 -0.0565,0.10584 -0.0212,-0.0423 -0.0388,-0.0847 -0.06,-0.127 -0.06,-0.0141 -0.11994,-0.0282 -0.17992,-0.0353 0.0459,-0.0141 0.0952,-0.0317 0.14464,-0.0494 -0.004,0.0106 0.1517,0.10583 0.1517,0.10583"
       style="fill:#000000;fill-opacity:1;fill-rule:evenodd;stroke:none;stroke-width:0.0352778"
       id="path2468" />
    <path
       d="m 232.89974,215.637 c -0.0141,-0.0282 -0.0247,-0.0529 -0.0388,-0.0776 0.004,0 0.0459,0.0741 0.0388,0.0776"
       style="fill:#000000;fill-opacity:1;fill-rule:evenodd;stroke:none;stroke-width:0.0352778"
       id="path2470" />
    <path
       d="m 231.71793,214.19061 c 0.06,-0.18697 0.16934,-0.36689 0.27164,-0.55386 0.28928,0.635 0.57856,1.28058 0.87136,1.92264 -1.56633,0.0141 -1.56986,0.0141 -1.143,-1.36878"
       style="fill:#000000;fill-opacity:1;fill-rule:evenodd;stroke:none;stroke-width:0.0352778"
       id="path2472" />
    <path
       d="m 236.91082,215.56644 0.21167,0.20814 c -0.0635,0.0282 -0.12347,0.0282 -0.18345,0.0529 -0.004,0.24694 -0.20108,0.35277 -0.635,0.27516 0.0141,-0.0388 0.0318,-0.0776 0.0423,-0.11641 -1.18534,0.25752 -2.28247,0.0176 -3.35492,-0.38806 0.44803,-0.17286 0.91017,-0.33514 1.35467,-0.53269 1.10066,-0.48684 1.96144,-0.35984 2.56469,0.50094"
       style="fill:#000000;fill-opacity:1;fill-rule:evenodd;stroke:none;stroke-width:0.0352778"
       id="path2474" />
    <path
       d="m 232.87152,215.55586 c 0.0388,0.0176 0.0776,0.0282 0.11994,0.0423 -0.0317,0.0106 -0.0635,0.0282 -0.0917,0.0388 0.007,-0.004 -0.0353,-0.0776 -0.0282,-0.0811"
       style="fill:#000000;fill-opacity:1;fill-rule:evenodd;stroke:none;stroke-width:0.0352778"
       id="path2476" />
  </g>
</svg>
