<?xml version="1.0" encoding="UTF-8" standalone="no"?>
<!-- Created with Inkscape (http://www.inkscape.org/) -->

<svg
   width="5.8731799mm"
   height="6.2657475mm"
   viewBox="0 0 5.8731799 6.2657475"
   version="1.1"
   id="svg5"
   inkscape:version="1.2.1 (9c6d41e410, 2022-07-14)"
   sodipodi:docname="euro.svg"
   xmlns:inkscape="http://www.inkscape.org/namespaces/inkscape"
   xmlns:sodipodi="http://sodipodi.sourceforge.net/DTD/sodipodi-0.dtd"
   xmlns="http://www.w3.org/2000/svg"
   xmlns:svg="http://www.w3.org/2000/svg">
  <sodipodi:namedview
     id="namedview7"
     pagecolor="#ffffff"
     bordercolor="#666666"
     borderopacity="1.0"
     inkscape:showpageshadow="2"
     inkscape:pageopacity="0.0"
     inkscape:pagecheckerboard="0"
     inkscape:deskcolor="#d1d1d1"
     inkscape:document-units="mm"
     showgrid="false"
     inkscape:zoom="9.0911235"
     inkscape:cx="36.90413"
     inkscape:cy="20.34952"
     inkscape:window-width="1703"
     inkscape:window-height="1385"
     inkscape:window-x="0"
     inkscape:window-y="0"
     inkscape:window-maximized="1"
     inkscape:current-layer="layer1" />
  <defs
     id="defs2" />
  <g
     inkscape:label="Layer 1"
     inkscape:groupmode="layer"
     id="layer1"
     transform="translate(-34.416624,-115.19649)">
    <g
       aria-label="€"
       id="text236"
       style="font-size:10.5833px;line-height:1.25;letter-spacing:0px;word-spacing:0px;stroke-width:0.264583">
      <path
         d="m 39.604921,116.98707 q -0.444416,0.13436 -0.857826,0.28939 -0.41341,0.15503 -0.682126,0.46509 -0.206705,0.062 -0.37207,0.16536 -0.165364,0.093 -0.310057,0.21704 0.113688,0 0.21704,0 0.113688,-0.0103 0.227376,-0.0207 0.165364,0.0517 0.382404,0.062 0.227376,0 0.434081,0.031 0.21704,0.0207 0.392739,0.11369 0.1757,0.0827 0.248047,0.28938 0.144693,0.0103 0.206705,0.062 0.07235,0.0517 0.09302,0.12403 0.02067,0.0723 0.01033,0.16536 0,0.0827 0,0.16536 -0.21704,0.1447 -0.599445,0.21705 -0.372069,0.0723 -0.795814,0.10335 -0.41341,0.0207 -0.837156,0.031 -0.41341,0 -0.713132,0.0103 0.02067,0.0517 0.04134,0.10335 0.03101,0.0413 0.05168,0.093 0.651121,0.2067 1.374589,0.25838 0.733803,0.0413 1.457271,0.062 0.07235,0.10335 0.165364,0.18604 0.09302,0.0827 0.165364,0.1757 0.08268,0.093 0.124023,0.21704 0.05168,0.12402 0.02067,0.28938 -0.144693,0.1447 -0.310057,0.27905 -0.155029,0.12403 -0.320393,0.25839 -0.07235,0.0103 -0.175699,0.0103 -0.103353,-0.0103 -0.217041,-0.0103 -0.103352,0 -0.21704,0.0103 -0.103353,0.0103 -0.19637,0.0517 -0.527098,-0.0207 -1.064531,-0.13436 -0.527098,-0.11369 -0.981849,-0.27905 -0.09302,-0.10336 -0.19637,-0.19637 -0.09302,-0.10336 -0.258381,-0.1447 -0.237711,-0.19637 -0.39274,-0.47542 -0.144694,-0.27905 -0.227376,-0.59944 -0.103352,0.0207 -0.175699,0.0413 -0.06201,0.0207 -0.103352,0.0413 -0.186035,-0.0103 -0.299723,-0.0724 -0.103352,-0.062 -0.175699,-0.14469 -0.07235,-0.093 -0.113688,-0.19637 -0.05168,-0.11369 -0.124023,-0.22738 0.04134,-0.0827 0.02067,-0.21704 -0.02067,-0.14469 -0.103353,-0.21704 0.07235,-0.0207 0.113688,-0.11368 0.03101,-0.10336 0,-0.15503 0.206705,-0.0517 0.423745,-0.0517 0.227376,-0.0103 0.434081,-0.031 0.155029,-0.42374 0.41341,-0.7338 0.258381,-0.32039 0.527098,-0.63045 0.165364,-0.16536 0.320393,-0.24805 0.165364,-0.093 0.279052,-0.25838 0.19637,-0.0413 0.351398,-0.13435 0.165364,-0.10336 0.310058,-0.20671 0.144693,-0.10335 0.299722,-0.19637 0.155029,-0.093 0.361734,-0.14469 0.07235,-0.093 0.175699,-0.1447 0.113688,-0.062 0.217041,-0.11368 0.113688,-0.0517 0.21704,-0.11369 0.103353,-0.062 0.165364,-0.16537 0.05168,0.0827 0.134358,0.062 0.09302,-0.031 0.1757,-0.062 0.04134,-0.0103 0.07235,0.0207 0.04134,0.031 0.06201,0.062 0.03101,0.031 0.05168,0.0413 0.03101,0 0.05168,-0.062 0.05168,0.0103 0.03101,0.062 -0.02067,0.0517 -0.03101,0.062 0.08268,-0.0103 0.134358,0.0413 0.05168,0.0413 0.165364,0.062 0.04134,0.0413 0.02067,0.0724 -0.02067,0.0207 -0.02067,0.0827 0.289387,0.093 0.372069,0.29972 0.08268,0.19637 0.01033,0.41341 -0.06201,0.20671 -0.23771,0.39274 -0.1757,0.1757 -0.382405,0.23771 z"
         style="font-family:'Permanent Marker';-inkscape-font-specification:'Permanent Marker'"
         id="path434" />
    </g>
  </g>
</svg>
