<?xml version="1.0" encoding="UTF-8" standalone="no"?>
<!-- Created with Inkscape (http://www.inkscape.org/) -->

<svg
   xmlns:dc="http://purl.org/dc/elements/1.1/"
   xmlns:cc="http://creativecommons.org/ns#"
   xmlns:rdf="http://www.w3.org/1999/02/22-rdf-syntax-ns#"
   xmlns:svg="http://www.w3.org/2000/svg"
   xmlns="http://www.w3.org/2000/svg"
   xmlns:sodipodi="http://sodipodi.sourceforge.net/DTD/sodipodi-0.dtd"
   xmlns:inkscape="http://www.inkscape.org/namespaces/inkscape"
   width="160.24559mm"
   height="25.464542mm"
   viewBox="0 0 160.24559 25.464542"
   version="1.1"
   id="svg2034"
   inkscape:version="0.92.3 (2405546, 2018-03-11)"
   sodipodi:docname="logotype.svg">
  <defs
     id="defs2028" />
  <sodipodi:namedview
     id="base"
     pagecolor="#ffffff"
     bordercolor="#666666"
     borderopacity="1.0"
     inkscape:pageopacity="0.0"
     inkscape:pageshadow="2"
     inkscape:zoom="0.35"
     inkscape:cx="1624.2549"
     inkscape:cy="253.83625"
     inkscape:document-units="mm"
     inkscape:current-layer="layer1"
     showgrid="false"
     fit-margin-top="0"
     fit-margin-left="0"
     fit-margin-right="0"
     fit-margin-bottom="0"
     inkscape:window-width="1920"
     inkscape:window-height="1029"
     inkscape:window-x="0"
     inkscape:window-y="27"
     inkscape:window-maximized="1" />
  <metadata
     id="metadata2031">
    <rdf:RDF>
      <cc:Work
         rdf:about="">
        <dc:format>image/svg+xml</dc:format>
        <dc:type
           rdf:resource="http://purl.org/dc/dcmitype/StillImage" />
        <dc:title></dc:title>
      </cc:Work>
    </rdf:RDF>
  </metadata>
  <g
     inkscape:label="Layer 1"
     inkscape:groupmode="layer"
     id="layer1"
     transform="translate(464.1466,-190.52963)">
    <text
       xml:space="preserve"
       style="font-style:normal;font-weight:normal;font-size:15.97179985px;line-height:1.25;font-family:sans-serif;letter-spacing:0px;word-spacing:0px;fill:#ffffff;fill-opacity:1;stroke:none;stroke-width:0.39929497"
       x="-441.05032"
       y="212.5255"
       id="text817"><tspan
         sodipodi:role="line"
         id="tspan815"
         x="-441.05032"
         y="212.5255"
         style="font-style:normal;font-variant:normal;font-weight:bold;font-stretch:normal;font-family:ObelixPro;-inkscape-font-specification:'ObelixPro Bold';fill:#ffffff;stroke-width:0.39929497">STREETNOISE</tspan></text>
    <path
       style="fill:#46b623;fill-opacity:1;stroke-width:0.08466666"
       d="m -457.98868,215.69775 c -0.17052,-0.17851 -0.41364,-0.51507 -0.54028,-0.7479 -0.12664,-0.23283 -0.35426,-0.65193 -0.50583,-0.93133 -0.15156,-0.2794 -0.36172,-0.7747 -0.46701,-1.10067 -0.24346,-0.75372 -0.4795,-1.09445 -1.72607,-2.49166 -0.55793,-0.62535 -1.19211,-1.4064 -1.40928,-1.73567 -0.21717,-0.32927 -0.51433,-0.71057 -0.66034,-0.84734 -0.2009,-0.18818 -0.26549,-0.32174 -0.26549,-0.549 0,-0.25881 0.0742,-0.37072 0.53657,-0.80966 0.29511,-0.28013 0.63516,-0.64269 0.75566,-0.80567 0.47503,-0.64249 0.88244,-2.3212 1.16057,-4.78206 0.0945,-0.83638 0.17187,-1.53715 0.17187,-1.55725 0,-0.0456 -1.74234,0.0614 -2.03572,0.12501 -0.14063,0.0305 -0.2838,-0.009 -0.41254,-0.11295 -0.17534,-0.14198 -0.2287,-0.3605 -0.48224,-1.97503 -0.32641,-2.07851 -0.35041,-2.49254 -0.149,-2.56983 0.0758,-0.0291 0.42824,-0.11121 0.78317,-0.18248 2.44842,-0.49167 4.36045,-1.72277 5.39371,-3.47286 0.26803,-0.45396 0.39482,-0.59141 0.56423,-0.61164 0.27286,-0.0326 0.25165,-0.10465 0.56818,1.93109 0.33116,2.12983 0.28586,1.9851 0.71349,2.27931 0.44166,0.30387 0.64472,0.74257 0.64472,1.39288 0,0.34667 -0.0487,0.5182 -0.20985,0.73912 -0.52439,0.71888 -0.4884,0.90969 0.14165,0.75104 0.57176,-0.14397 0.94834,0.0385 1.17674,0.57009 0.40559,0.94404 1.2609,3.70928 1.63135,5.27423 0.50471,2.1321 1.06717,4.90182 1.07528,5.29506 0.006,0.31695 0.31284,1.25331 0.32481,0.99294 0.005,-0.10394 -0.071,-0.80879 -0.16847,-1.56633 -0.23516,-1.82838 -0.19606,-2.62733 0.16567,-3.38527 0.14602,-0.30596 0.26549,-0.61005 0.26549,-0.67577 0,-0.18055 -0.44823,-0.84186 -0.74949,-1.10579 -0.28505,-0.24972 -0.32728,-0.39155 -0.16491,-0.55391 0.28048,-0.28048 0.93008,0.0103 1.59231,0.71291 0.2558,0.27137 0.75728,0.723 1.1144,1.00361 1.63845,1.28743 2.01769,1.68269 2.01769,2.10295 0,0.19721 -0.0344,0.2276 -0.25794,0.2276 -0.14187,0 -0.54592,-0.14239 -0.89789,-0.31643 l -0.63994,-0.31643 -0.19347,0.24264 c -0.18954,0.23771 -0.24508,0.42495 -0.37945,1.27922 -0.0742,0.47181 0.085,2.31127 0.29199,3.37295 0.28068,1.43986 0.10265,2.23261 -0.60172,2.6793 -1.07543,0.68202 -2.33873,0.21424 -2.85818,-1.05835 -0.11373,-0.27861 -0.26622,-0.62026 -0.33887,-0.7592 -0.0727,-0.13895 -0.17432,-0.45609 -0.22594,-0.70476 -0.0786,-0.37861 -0.11677,-0.44078 -0.23473,-0.38237 -0.25233,0.12496 -1.55998,0.0559 -2.45718,-0.12976 -0.48234,-0.0998 -0.93002,-0.18148 -0.99483,-0.18148 -0.18069,0 -0.14414,0.36543 0.13973,1.397 0.14096,0.51223 0.3168,1.15041 0.39077,1.41817 l 0.13449,0.48683 h 0.35474 c 0.2845,0 0.40345,0.0508 0.6008,0.25684 0.21288,0.2222 0.2505,0.33532 0.27895,0.83875 0.0313,0.55367 0.0219,0.5891 -0.19332,0.73011 -0.19639,0.12869 -0.2821,0.13531 -0.65056,0.0503 -0.56859,-0.13124 -0.55953,-0.1335 -0.62291,0.15508 -0.0693,0.31564 -0.0688,0.31535 -0.68049,0.38278 -0.50285,0.0554 -0.50641,0.0543 -0.81509,-0.26891 z m 3.78137,-7.92329 c 0,-0.33482 0.0197,-0.36573 0.28193,-0.44285 0.25541,-0.0751 0.27761,-0.10697 0.23607,-0.33867 -0.0252,-0.14067 -0.0912,-0.54973 -0.14654,-0.90902 -0.0554,-0.3593 -0.13258,-0.63356 -0.17156,-0.60947 -0.20113,0.12431 -1.06176,0.27629 -1.8509,0.32687 -0.83155,0.0533 -1.95264,0.19328 -2.01039,0.25103 -0.15858,0.15858 0.48765,0.57589 1.45654,0.94058 0.73526,0.27675 1.27742,0.55719 1.69685,0.87773 0.18627,0.14235 0.37677,0.25992 0.42333,0.26128 0.0466,0.001 0.0847,-0.15951 0.0847,-0.35748 z m -1.15826,-3.87705 c 0.29429,-0.0478 0.65991,-0.0915 0.8125,-0.0973 l 0.27742,-0.0104 -0.15476,-0.8546 c -0.0851,-0.47003 -0.19774,-1.17845 -0.25028,-1.57427 -0.11447,-0.86233 -0.35955,-2.03051 -0.52401,-2.49767 -0.0941,-0.26731 -0.16725,-0.34437 -0.34719,-0.36575 -0.19998,-0.0238 -0.22237,-0.003 -0.18246,0.16933 0.0877,0.37857 0.38404,2.35469 0.38404,2.56069 0,0.11444 -0.037,0.23093 -0.0822,0.25886 -0.1095,0.0677 -0.5118,-0.14603 -0.72235,-0.38372 -0.26487,-0.29901 -1.3553,-0.98405 -1.87722,-1.17932 -0.26025,-0.0974 -0.48338,-0.16618 -0.49585,-0.1529 -0.0125,0.0133 0.0117,0.2337 0.0538,0.48981 0.042,0.25612 0.10842,0.83308 0.14751,1.28214 0.0634,0.72862 0.10618,0.87649 0.39742,1.37437 0.28886,0.49379 0.37065,0.57192 0.71179,0.67984 0.21199,0.0671 0.53783,0.18036 0.7241,0.25175 0.40957,0.15698 0.45178,0.15882 1.12774,0.0491 z"
       id="path2086"
       inkscape:connector-curvature="0" />
  </g>
</svg>
