<?xml version="1.0" encoding="UTF-8" standalone="no"?>
<!-- Generator: Adobe Illustrator 24.2.1, SVG Export Plug-In . SVG Version: 6.00 Build 0)  -->

<svg
   version="1.1"
   x="0px"
   y="0px"
   viewBox="0 0 679.99323 622.5022"
   xml:space="preserve"
   id="svg128"
   sodipodi:docname="logo_name_no_margin.svg"
   width="679.99323"
   height="622.5022"
   inkscape:version="1.2.1 (9c6d41e410, 2022-07-14)"
   xmlns:inkscape="http://www.inkscape.org/namespaces/inkscape"
   xmlns:sodipodi="http://sodipodi.sourceforge.net/DTD/sodipodi-0.dtd"
   xmlns="http://www.w3.org/2000/svg"
   xmlns:svg="http://www.w3.org/2000/svg"><defs
   id="defs132" /><sodipodi:namedview
   id="namedview130"
   pagecolor="#ffffff"
   bordercolor="#666666"
   borderopacity="1.0"
   inkscape:showpageshadow="2"
   inkscape:pageopacity="0.0"
   inkscape:pagecheckerboard="0"
   inkscape:deskcolor="#d1d1d1"
   showgrid="false"
   inkscape:zoom="0.902"
   inkscape:cx="341.46341"
   inkscape:cy="312.08426"
   inkscape:window-width="5120"
   inkscape:window-height="1440"
   inkscape:window-x="0"
   inkscape:window-y="0"
   inkscape:window-maximized="1"
   inkscape:current-layer="svg128" />
<style
   type="text/css"
   id="style2">
	.st0{fill:#020203;}
</style>
<g
   id="logo"
   transform="translate(-160.00505,-188.75)">
	<g
   id="g124">
		<g
   id="g66">
			<g
   id="g6">
				<path
   class="st0"
   d="m 421.01,296.26 c -0.14,-1.48 -0.4,-3.05 -1.61,-4.16 -1.62,-1.49 -4.36,-1.65 -6.81,-1.69 -7.17,-0.12 -14.34,-0.14 -21.52,-0.1 -2.88,0.02 -5.21,-2.32 -5.21,-5.2 0,-12.22 0,-21.29 0.01,-25.15 0,-0.09 0,-0.17 0,-0.26 0,-1.75 0,-3.5 0,-5.24 0,-3.47 -0.44,-5.84 -2.03,-8.24 -1.82,-2.75 -4.48,-3.4 -6.96,-3.28 -6.33,0.31 -12.66,-0.01 -19.03,0.18 -3.49,0.1 -7.48,0.57 -9.15,6.47 -0.32,1.12 -0.5,15.27 -0.6,35.55 -0.01,2.85 -2.33,5.16 -5.18,5.17 -3.81,0.01 -21.82,0.04 -25.63,0.11 -2.44,0.04 -5.18,0.2 -6.81,1.69 -1.2,1.11 -1.47,2.69 -1.61,4.16 -0.27,2.8 -0.3,5.62 -0.09,8.43 0.08,1 0.2,2.04 0.86,2.89 1.05,1.34 3.14,1.83 5.07,2.07 2,0.25 21.34,0.44 28.2,0.58 2.83,0.06 5.1,2.34 5.1,5.18 -0.07,56.94 0.21,157.24 0.21,160.93 0,4.63 -0.73,11.07 0.48,15.32 1.68,5.89 5.66,6.36 9.15,6.47 6.37,0.19 12.7,-0.13 19.03,0.18 2.48,0.12 5.14,-0.53 6.96,-3.28 1.59,-2.41 2.03,-4.77 2.03,-8.24 0,-1.75 0,-3.5 0,-5.24 0,-0.09 0,-0.17 0,-0.26 -0.01,-13.11 -0.01,-112.47 -0.01,-165.72 0,-2.85 2.31,-5.14 5.15,-5.17 11.74,-0.12 21.26,-0.36 24.16,-0.72 1.93,-0.24 4.02,-0.73 5.07,-2.07 0.66,-0.85 0.78,-1.89 0.86,-2.89 0.21,-2.85 0.18,-5.67 -0.09,-8.47 z"
   id="path4" />
			</g>
			<path
   class="st0"
   d="m 453.48,460.27 h -32.29 c -1.65,0 -3,-1.35 -3,-3 V 191.75 c 0,-1.65 1.35,-3 3,-3 h 32.29 c 1.65,0 3,1.35 3,3 v 265.51 c 0,1.66 -1.35,3.01 -3,3.01 z"
   id="path8" />
			<path
   class="st0"
   d="M 506.09,697.62 H 473.8 c -1.65,0 -3,-1.35 -3,-3 V 510.58 c 0,-1.65 1.35,-3 3,-3 h 32.29 c 1.65,0 3,1.35 3,3 v 184.04 c 0.01,1.65 -1.35,3 -3,3 z"
   id="path10" />
			<path
   class="st0"
   d="m 548.1,467.11 -22.08,9.07 c -1.53,0.63 -3.29,-0.11 -3.92,-1.64 l -76.36,-185.9 c -0.63,-1.53 0.11,-3.29 1.64,-3.92 l 22.08,-9.07 c 1.53,-0.63 3.29,0.11 3.92,1.64 l 76.36,185.9 c 0.62,1.52 -0.11,3.29 -1.64,3.92 z"
   id="path12" />
			<path
   class="st0"
   d="m 315.88,330.41 c -37.06,-2.74 -74.08,4.17 -111.14,6.94 -1.65,0.12 -3.46,0.2 -4.8,-0.78 -1.55,-1.13 -1.92,-3.27 -2.12,-5.18 -0.96,-9.14 1.42,-28.93 1.42,-28.93 22.53,-1.58 37.28,-3.15 53.95,-4.72 v 7.29 c 0,5.97 4.84,10.81 10.81,10.81 h 21.04 c 5.97,0 10.81,-4.84 10.81,-10.81 v -17.46 c 0.06,-0.79 0.08,-1.58 0.07,-2.35 -0.06,-12.31 -0.12,-24.62 -0.18,-36.94 -0.02,-3.21 -0.08,-6.61 -1.74,-9.36 -3.53,-5.84 -11.89,-5.76 -18.67,-4.97 -36.49,4.29 -52.94,8.57 -89.43,12.86 -5.08,0.6 -10.89,1.65 -13.48,6.06 -1.25,2.13 -1.49,4.69 -1.66,7.15 -1.87,26.28 0.19,52.84 6.11,78.52 1.3,5.66 3.23,11.87 8.29,14.71 2.65,1.5 5.79,1.81 8.83,2.06 26.75,2.16 97.25,-0.58 102.91,2.39 5.66,2.97 7.54,25.55 1.79,26.54 -2.97,0.51 -16.54,0.41 -19.42,0.39 -18.89,-0.12 -37.79,-0.25 -56.68,-0.37 v -4.39 c 0,-5.97 -4.84,-10.81 -10.81,-10.81 H 180.9 c -5.97,0 -10.81,4.84 -10.81,10.81 0,0 0.11,7.59 0.36,15.9 -0.02,0.62 -0.03,1.23 -0.03,1.83 0.02,4.31 0.29,8.62 0.67,12.91 0.13,1.89 0.26,3.51 0.42,4.64 0.02,0.12 0.07,0.23 0.09,0.34 0.88,7.22 2.22,14.39 4.11,21.41 1.04,3.88 2.56,8.11 6.13,9.95 2.29,1.18 4.99,1.12 7.56,1.03 39.25,-1.29 78.51,-2.59 117.76,-3.88 6.11,-0.2 13.44,0.03 17.32,-4.69 3.6,-4.38 2.63,-24.07 2.73,-31.12 0.26,-16.96 5.13,-76.56 -11.33,-77.78 z"
   id="path14" />
			<g
   id="g24">
				<g
   id="g18">
					<path
   class="st0"
   d="m 556.08,545.82 c 36.15,-2.53 52.27,-5.05 88.42,-7.58 2.11,-0.15 4.38,-0.36 5.98,-1.74 2.15,-1.86 2.3,-5.08 2.29,-7.92 -0.06,-12.31 -0.12,-24.62 -0.18,-36.93 -0.02,-3.21 -0.08,-6.61 -1.74,-9.36 -3.53,-5.84 -11.89,-5.76 -18.67,-4.97 -36.49,4.29 -52.94,8.57 -89.43,12.86 -5.08,0.6 -10.89,1.65 -13.48,6.06 -1.25,2.13 -1.49,4.69 -1.66,7.15 -1.87,26.28 0.19,52.84 6.11,78.52 1.3,5.66 3.23,11.87 8.29,14.71 2.65,1.49 5.79,1.81 8.83,2.06 26.75,2.16 53.64,1.25 80.48,1.22 6.39,-0.01 16.77,-1.8 22.43,1.17 5.66,2.97 7.54,25.55 1.79,26.54 -2.97,0.51 -16.54,0.41 -19.42,0.39 -31.94,-0.21 -63.88,-0.42 -95.82,-0.63 -3.25,-0.02 -6.77,0.05 -9.33,2.06 -3.29,2.59 -3.71,7.35 -3.7,11.54 0.06,13.26 1.85,26.5 5.29,39.3 1.04,3.88 2.56,8.11 6.13,9.95 2.29,1.18 4.99,1.12 7.56,1.03 39.25,-1.29 78.51,-2.59 117.76,-3.88 6.11,-0.2 12.77,-0.61 17.32,-4.69 2,-1.79 1.71,-7.6 1.9,-9.95 0.57,-7.04 0.73,-14.11 0.83,-21.17 0.25,-16.95 0.02,-33.93 -0.69,-50.86 -0.36,-8.56 1.85,-26.02 -10.64,-26.91 -37.07,-2.64 -74.08,4.17 -111.14,6.94 -1.65,0.12 -3.46,0.2 -4.8,-0.78 -1.55,-1.13 -1.92,-3.27 -2.12,-5.18 -0.96,-9.16 1.41,-28.95 1.41,-28.95 z"
   id="path16" />
				</g>
				<path
   class="st0"
   d="m 614.56,559.19 h 33.61 c 2.5,0 4.53,-2.03 4.53,-4.53 v -38.14 h -42.67 v 38.14 c 0.01,2.51 2.03,4.53 4.53,4.53 z"
   id="path20" />
				<path
   class="st0"
   d="m 568.61,612.41 h -30.86 c -5.97,0 -10.81,4.84 -10.81,10.81 0,0 0.41,27.84 1.42,35.28 1.74,12.78 51.07,-3.43 51.07,-3.43 v -31.86 c -0.01,-5.96 -4.85,-10.8 -10.82,-10.8 z"
   id="path22" />
			</g>
			<path
   class="st0"
   d="m 547.74,216.81 c -0.11,-7.73 -6.21,-14.05 -13.9,-14.47 l -93.92,-4.93 v 100.7 h 94.14 c 8.19,0 14.83,-6.7 14.68,-14.9 z m -22.09,55.58 c -0.04,0.92 -0.11,1.92 -0.6,2.7 -1.03,1.63 -3.3,1.77 -5.21,1.77 -16.17,-0.25 -32.35,-0.96 -48.45,-2.16 -3.44,-0.25 -7.31,-0.74 -9.4,-3.48 -1.67,-2.2 -1.67,-5.21 -1.6,-8.02 0.25,-5.96 0.6,-11.92 1.1,-17.84 0.11,-1.42 0.25,-2.87 0.99,-4.04 1.88,-2.98 6.24,-2.73 9.72,-2.09 0,0 29.62,1.45 45.69,1.84 1.45,0.04 2.98,0.11 4.19,0.92 1.67,1.13 2.16,3.33 2.45,5.36 1.19,8.29 1.58,16.7 1.12,25.04 z"
   id="path26" />
			<g
   id="g30">
				<path
   class="st0"
   d="m 478.09,469.66 c -1.97,-0.47 -4.44,-0.67 -5.5,1.6 -0.42,0.9 -0.5,2.01 -0.57,3.07 -0.28,4.53 -0.49,9.06 -0.62,13.6 -0.06,2.11 -0.06,4.41 0.9,6.09 1.19,2.09 3.38,2.46 5.33,2.66 9.14,0.9 18.31,1.44 27.47,1.63 1.1,0.02 2.39,-0.1 2.97,-1.35 0.28,-0.6 0.32,-1.33 0.34,-2.03 0.25,-6.37 0.03,-12.76 -0.65,-19.07 -0.16,-1.52 -0.43,-3.21 -1.38,-4.08 -0.68,-0.63 -1.56,-0.68 -2.39,-0.7 -9.09,-0.32 -25.9,-1.42 -25.9,-1.42 z"
   id="path28" />
			</g>
			<g
   id="g38">
				<path
   class="st0"
   d="m 778.63,444.66 h -15.47 c -3.95,0 -7.17,-3.05 -7.17,-6.77 V 237.46 c 0,-3.72 3.23,-6.77 7.17,-6.77 h 23.95 c 3.95,0 7.17,3.05 7.17,6.77 l -8.48,200.43 c 0,3.72 -3.23,6.77 -7.17,6.77 z"
   id="path32" />
				<g
   id="g36">
					<path
   class="st0"
   d="m 733.7,207.87 c -6.87,-0.76 -15.5,-1.08 -19.21,2.57 -1.47,1.45 -1.76,3.23 -1.99,4.94 -1,7.29 -1.71,14.59 -2.15,21.9 -0.2,3.4 -0.2,7.1 3.13,9.81 4.14,3.36 11.8,3.97 18.62,4.28 31.94,1.44 63.96,2.32 95.98,2.62 3.83,0.04 8.36,-0.16 10.37,-2.17 0.96,-0.96 1.1,-2.14 1.2,-3.27 0.87,-10.25 0.11,-20.56 -2.28,-30.72 -0.58,-2.45 -1.51,-5.17 -4.81,-6.57 -2.38,-1.01 -5.45,-1.09 -8.33,-1.13 -31.79,-0.49 -90.53,-2.26 -90.53,-2.26 z"
   id="path34" />
				</g>
			</g>
			<g
   id="g42">
				<path
   class="st0"
   d="m 810.57,484.83 c -1.15,-4.04 -2.47,-8.12 -5.28,-11.17 -4.45,-4.86 -11.54,-6.1 -18.05,-6.84 -16.69,-1.9 -68.58,-3.17 -79.78,-3.01 -2.1,0.04 -4.33,0.12 -6.18,1.15 -3.75,2.1 -4.49,7.09 -4.78,11.37 -3.54,53.78 -1.4,107.89 6.43,161.22 1.15,7.87 3.38,17.02 10.76,20.07 2.72,1.11 5.73,1.2 8.65,1.24 18.17,0.33 36.31,0.62 54.48,0.95 5.77,0.08 11.95,0.08 16.81,-3.09 8.94,-5.89 8.65,-18.92 7.38,-29.55 -0.82,-6.63 -2.39,-14.38 -8.49,-17.1 -2.51,-1.15 -5.4,-1.15 -8.16,-1.15 -15.5,0.04 -30.99,0.08 -46.49,0.17 -2.31,0 -4.7,-0.04 -6.8,-0.99 -2.27,-1.07 -3.92,-3.17 -5.11,-5.4 -2.88,-5.36 -3.5,-11.62 -4.08,-17.72 -1.07,-11.04 -2.14,-22.13 -3.21,-33.22 -0.12,-1.44 -0.25,-3.01 0.49,-4.29 0.91,-1.53 2.76,-2.1 4.45,-2.47 9.6,-2.1 63.67,3.21 80.94,2.93 2.64,-0.04 5.44,-0.12 7.67,-1.52 4.2,-2.6 4.9,-8.32 4.9,-13.27 0.09,-16.29 -2.14,-32.61 -6.55,-48.31 z m -15.41,35.6 c -0.04,0.78 -0.12,1.57 -0.58,2.27 -1.03,1.36 -3.3,1.52 -5.23,1.48 -16.07,-0.21 -32.14,-0.82 -48.18,-1.81 -3.42,-0.21 -7.25,-0.62 -9.31,-2.97 -1.69,-1.85 -1.69,-4.41 -1.61,-6.76 0.25,-5.07 0.58,-10.14 1.11,-15.17 0.08,-1.2 0.25,-2.43 0.99,-3.42 1.85,-2.51 6.18,-2.31 9.64,-1.77 0,0 29.47,1.24 45.41,1.57 1.44,0 3.01,0.08 4.2,0.78 1.65,0.95 2.1,2.84 2.39,4.53 1.21,7.06 1.62,14.19 1.17,21.27 z"
   id="path40" />
			</g>
			<g
   id="g46">
				<path
   class="st0"
   d="m 620.97,399.62 c -2.16,-1.12 -4.65,-1.12 -7.02,-1.12 -13.34,0.04 -26.67,0.08 -40.01,0.16 -1.99,0 -4.04,-0.04 -5.85,-0.96 -1.95,-1.04 -3.37,-3.08 -4.4,-5.24 -2.48,-5.2 -3.02,-11.28 -3.51,-17.2 -0.31,-3.67 -0.63,-10.21 -0.94,-17.61 14.68,-0.16 29.37,-0.62 44.05,-1.48 1.93,-0.11 4.2,-0.43 5.13,-2 0.44,-0.75 0.46,-1.64 0.46,-2.48 0,-7.68 -0.82,-15.33 -2.46,-22.82 -0.39,-1.81 -0.98,-3.8 -2.7,-4.72 -1.24,-0.67 -2.79,-0.61 -4.25,-0.54 -11.81,0.59 -31,1.2 -40.29,1.47 0.33,-7.93 0.66,-14.99 0.99,-18.87 0.5,-5.92 1.03,-12 3.51,-17.2 1.03,-2.16 2.45,-4.2 4.4,-5.24 1.81,-0.92 3.87,-0.96 5.85,-0.96 13.34,0.08 26.67,0.12 40.01,0.16 2.38,0 4.86,0 7.02,-1.12 5.25,-2.64 6.6,-10.16 7.31,-16.6 1.1,-10.32 1.35,-22.96 -6.35,-28.67 -4.19,-3.08 -9.51,-3.08 -14.47,-3 -15.64,0.32 -31.25,0.6 -46.89,0.92 -2.52,0.04 -5.11,0.12 -7.45,1.2 -6.35,2.96 -8.26,11.84 -9.26,19.48 -2.89,22.15 -4.85,48.87 -5.94,76.26 v 18.6 c 1.09,27.39 3.05,54.11 5.94,76.26 0.99,7.64 2.91,16.52 9.26,19.48 2.34,1.08 4.93,1.16 7.45,1.2 15.64,0.32 31.25,0.6 46.89,0.92 4.97,0.08 10.29,0.08 14.47,-3 7.7,-5.72 7.45,-18.36 6.35,-28.67 -0.71,-6.45 -2.06,-13.97 -7.3,-16.61 z"
   id="path44" />
			</g>
			<path
   class="st0"
   d="m 732.86,273.06 c -0.99,-3.48 -2.13,-6.99 -4.54,-9.61 -3.83,-4.19 -9.93,-5.25 -15.54,-5.89 -14.37,-1.63 -59.02,-2.73 -68.67,-2.59 -1.81,0.04 -3.72,0.11 -5.32,0.99 -3.23,1.81 -3.87,6.1 -4.11,9.79 -3.05,46.29 -1.21,92.86 5.53,138.76 0.99,6.77 2.91,14.65 9.26,17.27 2.34,0.96 4.93,1.03 7.45,1.06 15.64,0.28 31.25,0.53 46.89,0.82 4.97,0.07 10.29,0.07 14.47,-2.66 4.52,-2.98 6.26,-8.08 6.74,-13.63 0.07,-0.27 0.14,-0.54 0.18,-0.84 0.79,-7.44 1.11,-35.28 1.11,-35.28 0,-5.97 -3.77,-10.81 -8.43,-10.81 h -24.05 c -4.65,0 -8.43,4.84 -8.43,10.81 v 22.79 c 0,3.72 -2.97,6.76 -6.69,6.82 -3.02,0.05 -6.06,0.09 -9.15,0.11 -3.13,0.02 -6.16,-0.28 -7.41,-3.58 -1.11,-2.93 -2.6,-16.17 -3.12,-19.63 -0.93,-6.15 -1.9,-12.32 -2.5,-18.51 -0.92,-9.51 -1.84,-19.05 -2.77,-28.59 -0.11,-1.24 -0.21,-2.59 0.43,-3.69 0.78,-1.31 2.38,-1.81 3.83,-2.13 8.26,-1.81 54.8,2.77 69.66,2.52 2.27,-0.04 4.68,-0.11 6.6,-1.31 3.62,-2.23 4.22,-7.17 4.22,-11.42 0.07,-14.01 -1.85,-28.06 -5.64,-41.57 z m -13.27,30.65 c -0.04,0.67 -0.11,1.35 -0.5,1.95 -0.89,1.17 -2.84,1.31 -4.5,1.28 -13.83,-0.18 -27.67,-0.71 -41.46,-1.56 -2.94,-0.18 -6.24,-0.53 -8.02,-2.55 -1.45,-1.6 -1.45,-3.8 -1.38,-5.82 0.21,-4.36 0.5,-8.73 0.96,-13.05 0.07,-1.03 0.21,-2.09 0.85,-2.94 1.6,-2.16 5.32,-1.99 8.3,-1.53 0,0 25.36,1.06 39.09,1.35 1.24,0 2.59,0.07 3.62,0.67 1.42,0.82 1.81,2.45 2.06,3.9 1.02,6.06 1.37,12.2 0.98,18.3 z"
   id="path48" />
			<g
   id="g60">
				<path
   class="st0"
   d="m 309.71,670.93 -10.92,9.26 c -1.35,1.1 -2.98,1.67 -4.61,1.67 -2.06,0 -4.08,-0.89 -5.53,-2.55 L 268.04,648.59 173.37,507.42 c -2.59,-3.05 -2.2,-7.63 0.82,-10.14 l 10.92,-9.26 c 3.01,-2.52 7.59,-2.13 10.14,0.92 l 72.78,108.47 42.53,63.38 c 2.55,3.04 2.16,7.62 -0.85,10.14 z"
   id="path50" />
				<g
   id="g54">
					<path
   class="st0"
   d="m 197.37,501.92 c 0,-0.08 0,-0.16 0,-0.24 0,-1.6 0,-3.2 0,-4.79 0,-3.18 -0.44,-5.34 -2.03,-7.53 -1.82,-2.52 -4.48,-3.11 -6.96,-3 -6.33,0.28 -12.66,-0.01 -19.03,0.16 -3.49,0.1 -7.48,0.52 -9.15,5.91 -1.21,3.88 3.56,193.15 4.76,197.03 1.68,5.39 5.66,5.82 9.15,5.91 6.37,0.17 7.94,-0.12 14.27,0.16 2.48,0.11 5.14,-0.48 6.96,-3 1.59,-2.2 2.03,-4.36 2.03,-7.53 0,-1.6 0,-3.2 0,-4.79 0,-0.08 0,-0.16 0,-0.24 -0.02,-18.06 -0.02,-160 0,-178.05 z"
   id="path52" />
				</g>
				<g
   id="g58">
					<path
   class="st0"
   d="m 323.99,675.51 c -0.54,1.29 -1.38,2.45 -2.66,3.41 -3.65,2.72 -8.68,2.83 -13.04,2.9 -6.46,0.11 -10.04,0.04 -14.12,0.04 -2.06,0 -4.08,-0.89 -5.53,-2.55 L 268.03,648.59 V 471.44 c -0.04,-3.37 0.74,-5.64 3.48,-7.98 3.16,-2.66 7.77,-3.3 12.06,-3.19 11,0.32 21.96,0 32.99,0.18 6.03,0.11 12.95,0.57 15.85,6.28 0.59,1.16 0.29,3.26 0.31,4.51 0.06,3.59 0.02,7.18 -0.03,10.77 -0.07,5.28 -0.19,10.56 -0.32,15.85 -0.17,6.58 -0.36,13.16 -0.57,19.74 -0.24,7.48 -0.49,14.97 -0.76,22.45 -0.29,7.99 -0.59,15.99 -0.9,23.98 -0.32,8.11 -0.65,16.22 -1,24.33 -0.33,7.83 -0.68,15.66 -1.04,23.49 -0.33,7.16 -0.67,14.31 -1.04,21.47 -0.31,6.09 -0.63,12.18 -0.98,18.27 -0.27,4.63 -0.55,9.26 -0.88,13.88 -0.25,3.32 0.06,7.02 -1.21,10.04 z"
   id="path56" />
				</g>
			</g>
			<g
   id="g64">
				<path
   class="st0"
   d="m 452.05,519.32 c -0.21,-2.31 -0.57,-4.93 -2.45,-6.31 -1.42,-1.06 -3.37,-1.14 -5.18,-1.14 -10.14,0.04 -67.22,3.44 -89.74,6.63 -1.74,0.25 -3.62,0.53 -4.97,1.74 -1.81,1.63 -2.06,4.36 -2.13,6.81 -1.28,37.99 -0.25,76.05 3.05,113.93 0.64,6.99 1.35,14.05 3.76,20.61 0.78,2.09 1.84,4.22 3.76,5.32 1.49,0.82 3.26,0.89 4.97,0.96 19.37,0.67 38.77,1.38 58.14,2.06 11.53,0.43 25.22,-0.28 31.32,-10.04 3.05,-4.89 3.37,-10.92 3.51,-16.67 1.14,-41.33 -0.21,-82.72 -4.04,-123.9 z m -25.72,88.82 c -0.04,1.28 -0.11,2.62 -0.46,3.69 -0.78,2.27 -2.48,2.48 -3.94,2.45 -12.2,-0.32 -24.37,-1.31 -36.53,-2.94 -2.59,-0.35 -5.5,-1.03 -7.06,-4.82 -1.28,-3.05 -1.28,-7.2 -1.21,-11.03 0.18,-8.23 0.43,-16.46 0.82,-24.65 0.07,-1.92 0.21,-3.94 0.74,-5.57 1.42,-4.11 4.72,-3.76 7.31,-2.87 0,0 22.35,1.99 34.44,2.52 1.1,0.07 2.27,0.14 3.19,1.28 1.24,1.6 1.6,4.65 1.81,7.41 0.93,11.4 1.21,23 0.89,34.53 z"
   id="path62" />
			</g>
		</g>
		<g
   id="g122">
			<g
   id="g74">
				<path
   class="st0"
   d="m 436.5,807.24 h -14.83 c -0.76,0 -1.38,-0.62 -1.38,-1.38 v -84.54 c 0,-0.76 0.62,-1.38 1.38,-1.38 h 14.83 c 0.76,0 1.38,0.62 1.38,1.38 v 84.54 c -0.01,0.76 -0.63,1.38 -1.38,1.38 z"
   id="path68" />
				<path
   class="st0"
   d="M 474.34,802.34 H 459.5 c -0.76,0 -1.38,-0.62 -1.38,-1.38 v -84.54 c 0,-0.76 0.62,-1.38 1.38,-1.38 h 14.83 c 0.76,0 1.38,0.62 1.38,1.38 v 84.54 c 0.01,0.76 -0.62,1.38 -1.37,1.38 z"
   id="path70" />
				<path
   class="st0"
   d="m 425.83,771.43 v -15.69 c 0,-0.52 0.43,-0.95 0.95,-0.95 h 39.78 c 0.52,0 0.95,0.43 0.95,0.95 v 15.69 c 0,0.52 -0.43,0.95 -0.95,0.95 h -39.78 c -0.52,0 -0.95,-0.42 -0.95,-0.95 z"
   id="path72" />
			</g>
			<g
   id="g84">
				<g
   id="g78">
					<path
   class="st0"
   d="m 550.34,750.79 c 13.55,-0.95 19.58,-1.89 33.13,-2.84 0.79,-0.06 1.64,-0.13 2.24,-0.65 0.81,-0.7 0.86,-1.9 0.86,-2.97 -0.02,-4.61 -0.05,-9.23 -0.07,-13.84 -0.01,-1.2 -0.03,-2.48 -0.65,-3.51 -1.32,-2.19 -4.45,-2.16 -6.99,-1.86 -13.67,1.61 -19.84,3.21 -33.51,4.82 -1.9,0.22 -4.08,0.62 -5.05,2.27 -0.47,0.8 -0.56,1.76 -0.62,2.68 -0.7,9.85 0.07,19.8 2.29,29.42 0.49,2.12 1.21,4.45 3.11,5.51 0.99,0.56 2.17,0.68 3.31,0.77 10.02,0.81 20.1,0.47 30.15,0.46 2.39,0 6.28,-0.67 8.4,0.44 2.12,1.11 2.82,9.57 0.67,9.94 -1.11,0.19 -6.2,0.15 -7.28,0.15 -11.97,-0.08 -23.93,-0.16 -35.9,-0.24 -1.22,-0.01 -2.54,0.02 -3.49,0.77 -1.23,0.97 -1.39,2.75 -1.38,4.32 0.02,4.97 0.69,9.93 1.98,14.73 0.39,1.45 0.96,3.04 2.3,3.73 0.86,0.44 1.87,0.42 2.83,0.39 14.71,-0.48 29.41,-0.97 44.12,-1.45 2.29,-0.08 4.78,-0.23 6.49,-1.76 0.75,-0.67 0.64,-2.85 0.71,-3.73 0.21,-2.64 0.27,-5.29 0.31,-7.93 0.09,-6.35 0.01,-12.71 -0.26,-19.06 -0.13,-3.21 0.69,-9.75 -3.99,-10.08 -13.89,-0.99 -27.75,1.56 -41.64,2.6 -0.62,0.05 -1.3,0.07 -1.8,-0.29 -0.58,-0.43 -0.72,-1.22 -0.8,-1.94 -0.36,-3.43 0.53,-10.85 0.53,-10.85 z"
   id="path76" />
				</g>
				<path
   class="st0"
   d="m 572.25,755.81 h 12.59 c 0.94,0 1.7,-0.76 1.7,-1.7 v -14.29 h -15.99 v 14.29 c 0.01,0.94 0.77,1.7 1.7,1.7 z"
   id="path80" />
				<path
   class="st0"
   d="m 555.04,775.75 h -11.56 c -2.24,0 -4.05,1.81 -4.05,4.05 0,0 0.15,10.43 0.53,13.22 0.65,4.79 19.13,-1.28 19.13,-1.28 V 779.8 c 0,-2.24 -1.82,-4.05 -4.05,-4.05 z"
   id="path82" />
			</g>
			<g
   id="g92">
				<path
   class="st0"
   d="m 333.25,806.19 h -10.13 c -0.52,0 -0.94,-0.42 -0.94,-0.94 v -83.31 c 0,-0.52 0.42,-0.94 0.94,-0.94 h 10.13 c 0.52,0 0.94,0.42 0.94,0.94 v 83.31 c 0,0.52 -0.42,0.94 -0.94,0.94 z"
   id="path86" />
				<path
   class="st0"
   d="m 362.94,808.33 -6.93,2.85 c -0.48,0.2 -1.03,-0.03 -1.23,-0.51 l -23.96,-58.33 c -0.2,-0.48 0.03,-1.03 0.51,-1.23 l 6.93,-2.85 c 0.48,-0.2 1.03,0.03 1.23,0.51 l 23.96,58.33 c 0.2,0.48 -0.03,1.04 -0.51,1.23 z"
   id="path88" />
				<path
   class="st0"
   d="m 362.83,729.79 c -0.03,-2.43 -1.95,-4.41 -4.36,-4.54 L 329,723.7 v 31.6 h 29.54 c 2.57,0 4.65,-2.1 4.61,-4.67 z m -6.94,17.44 c -0.01,0.29 -0.03,0.6 -0.19,0.85 -0.32,0.51 -1.04,0.56 -1.64,0.56 -5.08,-0.08 -10.15,-0.3 -15.2,-0.68 -1.08,-0.08 -2.29,-0.23 -2.95,-1.09 -0.52,-0.69 -0.52,-1.64 -0.5,-2.52 0.08,-1.87 0.19,-3.74 0.35,-5.6 0.03,-0.45 0.08,-0.9 0.31,-1.27 0.59,-0.93 1.96,-0.86 3.05,-0.66 0,0 9.29,0.46 14.34,0.58 0.46,0.01 0.93,0.03 1.31,0.29 0.52,0.36 0.68,1.05 0.77,1.68 0.38,2.61 0.5,5.25 0.35,7.86 z"
   id="path90" />
			</g>
			<g
   id="g100">
				<path
   class="st0"
   d="m 646.38,806.19 h -10.13 c -0.52,0 -0.94,-0.42 -0.94,-0.94 v -83.31 c 0,-0.52 0.42,-0.94 0.94,-0.94 h 10.13 c 0.52,0 0.94,0.42 0.94,0.94 v 83.31 c 0,0.52 -0.42,0.94 -0.94,0.94 z"
   id="path94" />
				<path
   class="st0"
   d="m 676.07,808.33 -6.93,2.85 c -0.48,0.2 -1.03,-0.03 -1.23,-0.51 l -23.96,-58.33 c -0.2,-0.48 0.03,-1.03 0.51,-1.23 l 6.93,-2.85 c 0.48,-0.2 1.03,0.03 1.23,0.51 l 23.96,58.33 c 0.2,0.48 -0.03,1.04 -0.51,1.23 z"
   id="path96" />
				<path
   class="st0"
   d="m 675.96,729.79 c -0.03,-2.43 -1.95,-4.41 -4.36,-4.54 l -29.47,-1.55 v 31.6 h 29.54 c 2.57,0 4.65,-2.1 4.61,-4.67 z m -6.93,17.44 c -0.01,0.29 -0.03,0.6 -0.19,0.85 -0.32,0.51 -1.04,0.56 -1.64,0.56 -5.08,-0.08 -10.15,-0.3 -15.2,-0.68 -1.08,-0.08 -2.29,-0.23 -2.95,-1.09 -0.52,-0.69 -0.52,-1.64 -0.5,-2.52 0.08,-1.87 0.19,-3.74 0.35,-5.6 0.03,-0.45 0.08,-0.9 0.31,-1.27 0.59,-0.93 1.96,-0.86 3.05,-0.66 0,0 9.29,0.46 14.34,0.58 0.46,0.01 0.93,0.03 1.31,0.29 0.52,0.36 0.68,1.05 0.77,1.68 0.37,2.61 0.49,5.25 0.35,7.86 z"
   id="path98" />
			</g>
			<g
   id="g108">
				<path
   class="st0"
   d="m 619.56,810.3 h -7.1 c -1.81,0 -3.3,-1.4 -3.3,-3.11 v -92.07 c 0,-1.71 1.48,-3.11 3.3,-3.11 h 11 c 1.81,0 3.3,1.4 3.3,3.11 l -3.9,92.07 c 0,1.71 -1.49,3.11 -3.3,3.11 z"
   id="path102" />
				<g
   id="g106">
					<path
   class="st0"
   d="m 598.92,701.53 c -3.16,-0.35 -7.12,-0.5 -8.82,1.18 -0.68,0.67 -0.81,1.48 -0.92,2.27 -0.46,3.35 -0.79,6.7 -0.99,10.06 -0.09,1.56 -0.09,3.26 1.44,4.51 1.9,1.55 5.42,1.82 8.55,1.96 14.67,0.66 29.38,1.06 44.09,1.2 1.76,0.02 3.84,-0.07 4.76,-1 0.44,-0.44 0.51,-0.98 0.55,-1.5 0.4,-4.71 0.05,-9.44 -1.05,-14.11 -0.26,-1.13 -0.69,-2.37 -2.21,-3.02 -1.09,-0.46 -2.5,-0.5 -3.83,-0.52 -14.58,-0.21 -41.57,-1.03 -41.57,-1.03 z"
   id="path104" />
				</g>
			</g>
			<g
   id="g112">
				<path
   class="st0"
   d="m 682.92,797.53 c 1.17,1.66 2.51,3.34 5.35,4.6 4.52,2 11.71,2.51 18.31,2.82 16.93,0.78 69.57,1.31 80.94,1.24 2.13,-0.02 4.39,-0.05 6.27,-0.47 3.8,-0.86 4.56,-2.92 4.85,-4.68 3.6,-22.13 1.42,-44.4 -6.52,-66.34 -1.17,-3.24 -3.43,-7 -10.91,-8.26 -2.76,-0.46 -5.81,-0.49 -8.78,-0.51 -18.44,-0.14 -36.83,-0.25 -55.27,-0.39 -5.85,-0.03 -12.12,-0.03 -17.06,1.27 -9.07,2.43 -8.78,7.78 -7.48,12.16 0.84,2.73 2.43,5.92 8.61,7.04 2.55,0.47 5.48,0.47 8.28,0.47 15.72,-0.02 31.44,-0.03 47.16,-0.07 2.34,0 4.77,0.02 6.9,0.41 2.3,0.44 3.97,1.31 5.18,2.22 2.93,2.2 3.55,4.78 4.14,7.29 1.09,4.54 2.17,9.11 3.26,13.67 0.13,0.59 0.25,1.24 -0.5,1.76 -0.92,0.63 -2.8,0.86 -4.52,1.02 -9.74,0.86 -64.6,-1.32 -82.11,-1.2 -2.68,0.02 -5.52,0.05 -7.78,0.63 -4.26,1.07 -4.98,3.43 -4.98,5.46 -0.07,6.68 2.19,13.39 6.66,19.86 z m 15.64,-14.66 c 0.04,-0.32 0.13,-0.64 0.59,-0.93 1.05,-0.56 3.34,-0.63 5.31,-0.61 16.31,0.08 32.61,0.34 48.88,0.75 3.47,0.08 7.36,0.25 9.45,1.22 1.71,0.76 1.71,1.81 1.63,2.78 -0.25,2.09 -0.59,4.17 -1.13,6.24 -0.08,0.49 -0.25,1 -1,1.41 -1.88,1.03 -6.27,0.95 -9.78,0.73 0,0 -29.89,-0.51 -46.07,-0.64 -1.46,0 -3.05,-0.03 -4.26,-0.32 -1.67,-0.39 -2.13,-1.17 -2.43,-1.87 -1.24,-2.91 -1.65,-5.84 -1.19,-8.76 z"
   id="path110" />
			</g>
			<path
   class="st0"
   d="m 530.52,735.68 c -0.46,-1.6 -0.98,-3.21 -2.09,-4.42 -1.76,-1.92 -4.56,-2.41 -7.14,-2.7 -6.6,-0.75 -27.11,-1.25 -31.54,-1.19 -0.83,0.02 -1.71,0.05 -2.44,0.46 -1.48,0.83 -1.78,2.8 -1.89,4.5 -1.4,21.26 -0.55,42.65 2.54,63.74 0.46,3.11 1.34,6.73 4.25,7.93 1.08,0.44 2.26,0.47 3.42,0.49 7.19,0.13 14.35,0.24 21.54,0.37 2.28,0.03 4.72,0.03 6.65,-1.22 2.07,-1.37 2.87,-3.71 3.09,-6.26 0.03,-0.12 0.07,-0.25 0.08,-0.39 0.36,-3.42 0.51,-16.21 0.51,-16.21 0,-2.74 -1.73,-4.97 -3.87,-4.97 h -11.05 c -2.14,0 -3.87,2.22 -3.87,4.97 v 10.47 c 0,1.71 -1.36,3.1 -3.07,3.13 -1.39,0.02 -2.79,0.04 -4.2,0.05 -1.44,0.01 -2.83,-0.13 -3.41,-1.64 -0.51,-1.35 -1.19,-7.43 -1.43,-9.02 -0.43,-2.82 -0.87,-5.66 -1.15,-8.5 -0.42,-4.37 -0.85,-8.75 -1.27,-13.13 -0.05,-0.57 -0.1,-1.19 0.2,-1.69 0.36,-0.6 1.09,-0.83 1.76,-0.98 3.8,-0.83 25.17,1.27 32,1.16 1.04,-0.02 2.15,-0.05 3.03,-0.6 1.66,-1.03 1.94,-3.29 1.94,-5.25 0.03,-6.44 -0.85,-12.89 -2.59,-19.1 z m -6.1,14.08 c -0.02,0.31 -0.05,0.62 -0.23,0.9 -0.41,0.54 -1.3,0.6 -2.07,0.59 -6.35,-0.08 -12.71,-0.33 -19.05,-0.72 -1.35,-0.08 -2.87,-0.24 -3.68,-1.17 -0.67,-0.73 -0.67,-1.74 -0.64,-2.67 0.1,-2 0.23,-4.01 0.44,-6 0.03,-0.47 0.1,-0.96 0.39,-1.35 0.73,-0.99 2.44,-0.91 3.81,-0.7 0,0 11.65,0.49 17.95,0.62 0.57,0 1.19,0.03 1.66,0.31 0.65,0.37 0.83,1.12 0.95,1.79 0.49,2.78 0.65,5.6 0.47,8.4 z"
   id="path114" />
			<path
   class="st0"
   d="m 407.37,773.29 h -11.05 c -2.14,0 -3.87,2.22 -3.87,4.97 v 10.47 c 0,1.71 -1.36,3.1 -3.07,3.14 -1.39,0.02 -2.79,0.04 -4.21,0.05 -1.43,0.01 -2.82,-0.13 -3.4,-1.64 -0.51,-1.34 -1.19,-7.43 -1.43,-9.02 -0.42,-2.82 -0.87,-5.66 -1.15,-8.5 -0.61,-6.17 -0.61,-12.08 0,-18.31 0.28,-2.84 0.72,-5.68 1.15,-8.5 0.24,-1.59 0.92,-7.68 1.43,-9.02 0.58,-1.51 1.97,-1.65 3.4,-1.64 1.42,0.01 2.82,0.03 4.21,0.05 1.71,0.03 3.07,1.43 3.07,3.14 v 10.47 c 0,2.74 1.73,4.97 3.87,4.97 h 11.05 c 2.14,0 3.87,-2.22 3.87,-4.97 0,0 -0.15,-12.79 -0.51,-16.2 -0.01,-0.14 -0.05,-0.27 -0.08,-0.39 -0.22,-2.55 -1.02,-4.89 -3.09,-6.26 -1.92,-1.26 -4.37,-1.26 -6.64,-1.22 -7.19,0.13 -14.35,0.25 -21.54,0.38 -1.15,0.01 -2.35,0.05 -3.42,0.49 -2.92,1.2 -3.8,4.82 -4.25,7.93 -1.42,9.84 -2.71,19.74 -2.79,29.7 -0.08,10.1 1.34,20.21 2.79,30.19 0.45,3.11 1.33,6.73 4.25,7.93 1.07,0.44 2.26,0.48 3.42,0.49 7.19,0.13 14.35,0.25 21.54,0.38 2.28,0.03 4.72,0.03 6.64,-1.22 2.07,-1.37 2.87,-3.71 3.09,-6.26 0.03,-0.12 0.07,-0.25 0.08,-0.39 0.36,-3.42 0.51,-16.2 0.51,-16.2 0,-2.79 -1.74,-5.01 -3.87,-5.01 z"
   id="path116" />
			<g
   id="g120">
				<path
   class="st0"
   d="m 311.26,733.22 c -0.27,-1.06 -0.71,-2.26 -3.06,-2.9 -1.77,-0.49 -4.21,-0.52 -6.47,-0.52 -12.67,0.02 -83.96,1.58 -112.1,3.05 -2.17,0.11 -4.52,0.24 -6.2,0.8 -2.26,0.75 -2.57,2 -2.66,3.13 -1.6,17.45 -0.31,34.93 3.81,52.33 0.8,3.21 1.68,6.45 4.7,9.47 0.97,0.96 2.3,1.94 4.7,2.44 1.86,0.37 4.08,0.41 6.2,0.44 24.19,0.31 48.43,0.64 72.62,0.95 14.4,0.2 31.5,-0.13 39.12,-4.61 3.81,-2.25 4.21,-5.02 4.39,-7.66 1.42,-18.99 -0.27,-38 -5.05,-56.92 z m -15.15,40.8 c -0.07,0.59 -0.21,1.21 -0.89,1.69 -1.51,1.04 -4.82,1.14 -7.64,1.12 -23.68,-0.15 -47.29,-0.6 -70.9,-1.35 -5.02,-0.16 -10.67,-0.47 -13.7,-2.22 -2.48,-1.4 -2.48,-3.31 -2.34,-5.07 0.34,-3.78 0.83,-7.56 1.58,-11.32 0.14,-0.88 0.41,-1.81 1.45,-2.56 2.75,-1.89 9.15,-1.73 14.18,-1.32 0,0 43.36,0.91 66.83,1.16 2.13,0.03 4.41,0.07 6.19,0.59 2.41,0.73 3.1,2.13 3.51,3.41 1.8,5.24 2.35,10.57 1.73,15.87 z"
   id="path118" />
			</g>
		</g>
	</g>
</g>
<g
   id="guides"
   transform="translate(-160.00505,-188.75)">
</g>
</svg>
