<svg xmlns="http://www.w3.org/2000/svg" viewBox="0 0 190.448 73.174"><path d="M0 0c.176.015.353.029.529.045l-.15 1.359-.483-.051L0 0m128.568-15.729c-.172.059-.344.118-.516.175l-.438-1.335.463-.141.491 1.301m-50.462-.194c.927-.738 1.117-.685 1.487.287l-1.487-.287m-61.113 88.39-.076-.577 1.161-.222c.006.208.064.581.009.598-.351.11-.727.142-1.094.201m-1.748-52.515-.446-.113.548-2.064c.142.037.285.072.427.108l-.529 2.069m20.224 20.34.101-.528 1.452.275-.106.551-1.447-.298M-45.672-8.29l.28-.008-.417 2.565-.413-.069.55-2.488m98.439-77.009-.544-.103.36-1.546.406.073-.222 1.576m83.9 134.391.245-.368 1.464 1.044-.338.465-1.371-1.141M10.603 73.13l.88 1.48-.121.258c-.358-.135-.866-.177-1.026-.434-.137-.222.123-.69.267-1.304m-85.574-56.642-.888-1.458.202-.224c.404.299.82.587 1.188.925.03.028-.272.415-.502.757m39.596 65.832.005.604c-.385 0-.771.012-1.152-.026-.025-.002-.013-.377-.018-.578zM-67.302-5.426l.43.297-.861 1.329-.388-.24zM50.779-24.745l-.316.037v-1.923l.316-.002zM-.351 4.475l.532-.046v1.474l-.446.019-.086-1.447M-44.9-20.531l-.397.022-.402-2.683.376-.046zm158.888 62.613c.818.923.781 1.222-.206 1.897l.206-1.897M3.694-5.741l-.549.083-.18-1.427c.169-.017.48-.064.485-.045.101.459.169.924.244 1.389m7.138-2.486-.324.132-.57-.965 1.193-.386-.299 1.219m120.463 54.231.559.263-.719 1.445-.511-.249.671-1.459M105.406-8.867l-.37.122-.579-1.49c1.175.088 1.035.74.949 1.368m26.188-7.498.625.063c-.065.455-.126.911-.217 1.362-.002.014-.479-.038-.479-.057.002-.456.04-.912.071-1.368m-9.116 53.913c-1.188-.025-1.4-.295-1.415-1.69l1.415 1.69M29.404 7.431l.332.022c.09.313.282.64.238.931-.037.243-.351.443-.543.662-.129-.276-.35-.551-.36-.831-.008-.258.213-.523.333-.784m-61.197 19.565.61-.091c.048.489.108.976.116 1.464 0 .039-.365.084-.56.126l-.166-1.499m-37.54-16.31.32-.506c.378.24.772.461 1.115.743.04.033-.197.404-.306.618l-1.129-.855m206.028-49.472.002.395c-.366.045-.825.243-1.069.091-.217-.135-.197-.654-.281-1.004l.315-.1 1.033.618m-4.931 6.903.528.097-.367 1.999-.456-.077.295-2.019m2.298 85.183c1.282-.91 1.679-.872 2.256.306l-2.256-.306m-5.824-85.337.488.272-.42 1.056-.851-.366.783-.962M-45.87-28.475l-.658-.01.181-2.051.364.009.113 2.052m14.877 73.213v2.311c-1.061-.472-1.088-.801 0-2.311M-73.387 9.582l-.325-.509 1.14-.973c.072.254.287.632.192.74-.268.306-.662.503-1.007.742M77.431-21.08c-.338-.248-.677-.426-.899-.699-.075-.093.081-.509.243-.631.306-.233.691-.361 1.259-.635l-.603 1.965M58.66 14.751c1.66-.281 2.327-.05 3.004 1.061l-3.004-1.061M.081-42.109l.676.597-1.066.843c-.137-.18-.428-.448-.384-.525.175-.308.455-.557.774-.915m132.132 8.224-.34-.066c-.322-.968.04-2.118.818-2.402l-.478 2.468M.27-3.402l.532-.038.185 2.235-.578.041L.27-3.402m15.993 61.966.097-2.127c1.218 1.073 1.21 1.2-.097 2.127M-24.732-13.11c-.279.385-.366.627-.531.708-.313.153-.761.388-.989.271-.284-.146-.4-.615-.588-.945.331-.012.663-.027.995-.033.283-.006.565-.001 1.113-.001m48.049-2.472c-.845-.824.156-1.291.28-1.876.038-.18.399-.292.611-.436.028.26.159.569.063.771-.233.494-.572.939-.954 1.541m45.136-2.482 1.774-1.64c.319 1.116-.257 1.751-1.774 1.64m66.361 10.688.41.042c.46.689.476 1.325-.565 1.838l.155-1.88M-49.125.254l-.825.975c-.149-.267-.457-.567-.411-.794.074-.363.384-.676.594-1.01l.642.829m161.687 38.439c.01.151.021.301.03.452l-1.237.413-.243-1.201c.483.113.967.224 1.45.336M-74.221-1.927l-.369-.15 1.426-3.367.375.147-1.432 3.37m31.861-13.429a48.905 48.905 0 0 0-.383-.004v-2.787c.92 1.005.589 1.903.383 2.791m-12.262-8.908.516.241-1.436 2.618-.484-.258 1.404-2.601m176.038 81.389c-.26.47-.362.929-.631 1.072-.378.201-.879.185-1.331.219-.072.006-.246-.237-.222-.322.042-.15.177-.329.316-.383.476-.18.971-.311 1.868-.586M44.457-78.381l-.391.003v-2.434l.391.002zm-46.5 131.434.418-.124c.16.434.478.892.42 1.297-.033.231-.867.627-1.011.517-.805-.614-.09-1.143.173-1.69m37.639 13.48.523.217c.041 1.051-.633 1.758-1.307 2.464l-.369-.167 1.153-2.514M-45.653-24.92l-.764-2.773c1.374.839 1.425 1.029.764 2.773m124.28 5.109c1.188.926.99 1.892-.46 2.664l.46-2.664m3.319-4.662c-1.155.919-1.651-.068-2.435-.401 1.137-1.427 1.587-.064 2.435.401m-11.267 4.202c.111-.106.221-.212.331-.32.587.561 1.196 1.102 1.742 1.7.095.103-.045.462-.144.671-.024.049-.4.035-.474-.059-.506-.648-.974-1.325-1.455-1.992m-120.303-9.834.436.132c-.096.553-.138 1.124-.318 1.648-.062.179-.471.24-.722.354-.06-.289-.243-.625-.155-.857.173-.456.498-.855.759-1.277m89.671-3.152.349.1c.541 1.226-.438 2.023-.809 2.992l-.402-.114.862-2.978M-42.48-10.892l-.405-.024v-3.008l.537.022-.132 3.01m-13.391 45.965-.364-.057c-.513-1.353-.281-2.375.743-2.804l-.379 2.861m33.001-46.679 1.062-1.672c.199.452.581.923.538 1.351-.032.33-.581.634-.947.878-.057.038-.369-.309-.653-.557m-50.151 22.692.337.346-1.676 2.458c-.791-1.083.225-1.52.501-2.13.131-.291.55-.453.838-.674m64.038-29.185a61.405 61.405 0 0 1-.439-.022l.201-4.522.517.026-.279 4.518m-2.1-31.525c.919 2.353.877 2.788.003 2.722-.209-.535-.343-.972-.546-1.375-.311-.616-.265-1.068.543-1.347m61.582 29.915c-.585-.738-.34-2.979.45-3.832-.261 1.231.437 2.567-.45 3.832m-119.392 3.024.429.092c.485 1.126-.159 1.996-.764 2.833-.128.179-.577.127-.893.184.306-.508.573-.827.704-1.195.22-.622.354-1.274.524-1.914M42.672-19.58l.318-3.729c.998 1.04.884 2.376-.318 3.729m87.38 89.884-2.361-1.437c.207-.156.482-.489.609-.44.683.265 1.345.598 1.967.985.077.048-.128.551-.215.892m-79.746-88.47c1.34 1.159-.011 2.51.33 3.74-1.307-1.162-.321-2.486-.33-3.74m79.1 53.865c.047-.084.079-.146.115-.207.168-.281.309-.59.528-.823.053-.057.543.148.538.211-.049.653-.127 1.31-.281 1.945-.025.108-.449.137-.693.159-.066.006-.145-.146-.22-.223-.284-.288-.573-.573-.849-.868-.035-.038-.004-.133-.004-.26l.866.066m-53.603-47.8-.428.19c-.192-.2-.44-.372-.566-.608a7.01 7.01 0 0 1-.515-1.285c-.092-.315-.089-.66-.129-.992.396.1 1.062.101 1.141.316.276.753.348 1.581.497 2.379M45.958 18.045c-.188-1.536.269-4.344.721-4.621.568 1.795.267 3.96-.721 4.621M-18.56 30.001c-.052.501-.057.921-.152 1.319-.057.238-.255.44-.39.658-.12-.204-.287-.393-.352-.612a12.892 12.892 0 0 1-.374-1.597c-.063-.395-.036-.804-.049-1.207.388.252.817.461 1.148.774.158.148.131.493.169.665m-51.863-12.929c-.422-1.186.69-4.505 1.763-5.002l-1.763 5.002M92.401-16.937l.373-.159 1.836 1.194c.056-.063.112-.185.197-.209.315-.094.647-.231.954-.196.141.017.241.393.361.606-.276.15-.566.45-.822.423-.729-.078-1.495-.184-2.146-.491-.356-.167-.509-.764-.753-1.168m-12.699 2.683c-1.792 1.67-2.788 1.594-3.21-.23.426 0 .955.163 1.244-.032.749-.505 1.315-.316 1.966.262m26.475 8.744-.239.015c-.061-.208-.16-.413-.173-.624-.022-.357.011-.716.022-1.074.387.031.782.031 1.163.104.351.067.715.164 1.022.338.286.16.603.399.718.681.072.177-.153.663-.329.713-.258.072-.654-.042-.878-.219-.42-.331-.758-.766-1.306-1.342zM-38.801-17.282c-1.021-.613-1.249-1.241-1.04-2.148.175-.763.176-1.57.219-2.359.032-.58.006-1.163.006-1.745l.349-.012.466 6.264m171.539 68.433a20.85 20.85 0 0 1-.163.143c-.267-.213-.774-.439-.764-.638.071-1.363-1.504-1.261-1.885-2.206-.081-.201-.421-.297-.64-.441.085-.113.198-.331.251-.318.271.071.63.128.769.325.472.663.862.803 1.35.026.08-.128.357-.133.544-.195.029.202.078.402.086.604.019.487-.033.981.043 1.456.068.426.267.831.409 1.244M-43.228-9.846l.366-.066c.513.455.254 5.266-.366 6.645zm-21.474-16.681c.398.953-1.467 5.573-2.609 7.026a33.7 33.7 0 0 1-.283-.116l2.892-6.91m159.33 13.562c1.019.207.997.206 1.052-.765.013-.22.245-.428.376-.641.152.183.447.378.433.547a32.67 32.67 0 0 1-.374 2.82c-.075.43-.259.842-.412 1.321-.93-.823-.661-2.073-1.075-3.282m30.823 68.249-1.298-.67-1.1-2.053 2.557-.369-.553 1.226 1.009.382-.615 1.484M36.869 20.788l.444-.012c.03.673.042 1.347.099 2.017.028.326.122.649.218.964.098.313.415.716.313.897-.14.249-.575.412-.902.452-.352.042-.726-.101-1.004-.149l.832-4.169m16.056-8.679c.439 0 .634-.05.787.008 1.326.511 2.652 1.021 3.954 1.586.239.105.368.462.547.703-.298.084-.666.323-.884.227-1.338-.591-2.645-1.25-3.953-1.907-.136-.07-.205-.272-.451-.617M-9.838-35.452l-2.45-2.214c.153-.259.413-.523.461-.823.082-.509.086-1.137.791-.824.522.233 1.392.432 1.022 1.42-.224.6-.448 1.21.226 1.723.084.065-.021.377-.05.718m25.965 52.624-.405-.054c-.017-.376-.168-.813-.028-1.117.564-1.221 1.249-2.384 1.825-3.599.315-.665.5-1.391.751-2.088.147-.406.309-.806.463-1.209l.297.127c-.672 2.756-1.133 5.589-2.903 7.94m76.395-50.908c1.663.199 5.881 5.004 5.793 6.548l-5.793-6.548M35.523 37.746l-1.433-2.424.175-.366c.957 1.169 1.949 1.315 3.098-.06l-1.213 4.571-1.632-1.4 1.005-.321M52.354-69.925l.326.003c.07.116.198.23.203.349.088 2.302.161 4.603.237 6.905.002.037.003.088-.019.109-.125.119-.262.324-.385.318-.127-.006-.339-.214-.349-.347a88.954 88.954 0 0 1-.187-3.225c-.03-.709-.062-1.422-.033-2.131.027-.662.135-1.321.207-1.981m82.884 52.084.421.001c.054.194.156.39.158.585.037 2.719.069 5.438.072 8.157 0 .206-.185.51-.365.592-.201.092-.558.066-.727-.064-.141-.109-.16-.446-.146-.676.123-2.07.262-4.141.402-6.21.054-.796.122-1.59.185-2.385M-49.448-1.13c-.933-.595-1.062-1.396-.484-2.309.46-.726 1.14-1.417.074-2.207-.095-.071.031-.409.015-.62-.093-1.204 1.128-2.251.405-3.566-.097-.178.343-.65.534-.986l.467.109c-.089 3.169-.17 6.338-1.011 9.579m87.91 11.566c.788.374.742 1.292.678 1.988-.188 2.052-1.076 4.047-.415 6.17.049.159-.233.593-.399.615-.462.062-1.119-1.074-1.058-1.573.125-1.015.175-2.039.259-3.06.018-.222.026-.449.078-.665.262-1.095.538-2.186.857-3.475M130.27-9.779l-.218-.323c.202-.108.424-.19.603-.328 1.048-.808 1.154-1.183.279-2.18-.587-.669-.025-.951.254-1.309.163-.209.516-.27.782-.397.109.413.286.822.311 1.24.039.662-.178 1.372-.013 1.988.413 1.538-.397 2.943-.335 4.434.014.337-.235.683-.363 1.026l-.356-.063-.349-3.362.79-.532c-.642-.09-1.013-.143-1.385-.194m-170.231-6.412.736.026c.006 1.244.044 2.489.005 3.731-.021.67-.22 1.333-.259 2.004-.104 1.739-.148 3.481-.26 5.218-.011.184-.311.35-.477.524-.153-.187-.438-.374-.437-.559.002-.712.089-1.424.157-2.135.19-1.957.401-3.911.568-5.87.028-.321-.179-.658-.175-.986.01-.652.091-1.303.142-1.953m-24.765 5.033-.384-.209c1.097-2.654 2.365-5.252 3.245-7.976.948-2.933 2.558-6.842 3.559-7.664-.987 2.675-1.832 5.429-3.012 8.03-1.172 2.584-1.811 5.435-3.408 7.819m88.549-7.158-.571-.258c.325-1.136.752-2.253.953-3.41.399-2.295.673-4.613.999-6.921.026-.187-.009-.413.086-.552.214-.314.492-.586.744-.874.278.425.362.687.319.928-.575 3.204-1.145 6.41-1.776 9.603-.103.524-.495.99-.754 1.484m25.988 5.587.65.006c.098 1.304.248 2.606.279 3.91.029 1.268-.112 2.54-.096 3.809.023 1.751.14 3.502.163 5.254.003.215-.318.436-.489.653-.159-.222-.451-.442-.458-.67-.067-2.463-.083-4.928-.125-7.393-.018-1.081-.089-2.162-.081-3.243.005-.776.101-1.551.157-2.326m-.176 44.394-.37.025c-.095-.31-.264-.619-.271-.931a84.037 84.037 0 0 1-.029-4.14c.082-3.648.195-7.296.299-10.944.011-.374.006-.761.102-1.116.041-.154.312-.308.497-.334.11-.015.331.2.368.345.073.285.08.597.066.895-.111 2.518-.247 5.036-.349 7.556-.117 2.88-.21 5.763-.313 8.644m75.483-42.269c1.526-1.069 1.302-2.521 1.604-4.116l.88-.65c.299.724.487 1.292.757 1.818 1.077 2.109.891 3.139-.882 4.731-.094.083-.135.224-.274.47 1.667-.311.995.728 1.245 1.508-1.219-.346-1.931-.732-2.02-1.911-.056-.748.26-1.875-1.31-1.85M22.522 31.725l-.493-.026c-.036-.546-.188-1.115-.08-1.631.158-.749.534-1.448.762-2.186.459-1.491.88-2.995 1.324-4.491.042-.143.152-.263.206-.403.558-1.445 1.186-2.869 1.648-4.344.619-1.982 1.104-4.006 1.656-6.008.225-.814.454-1.626.729-2.423.071-.206.321-.35.49-.523.142.149.42.312.404.442-.077.68-.163 1.372-.373 2.019-.24.741-.683 1.415-.915 2.157-.819 2.617-1.582 5.252-2.377 7.877-.184.609-.402 1.21-.616 1.809-.435 1.221-.928 2.423-1.304 3.66-.409 1.341-.712 2.713-1.061 4.071m21.95-79.361.468.146c-.078.45-.154.9-.235 1.35-.073.403-.217.804-.216 1.205.008 1.893.284 3.817.024 5.667-.267 1.909.479 3.918-.584 5.73-.033.058-.01.148-.01.225.009 1.873.06 3.747.012 5.618-.03 1.124-.198 2.247-.344 3.365-.031.236-.241.449-.479.867-.175-.412-.309-.576-.304-.736.075-2.327.142-4.656.266-6.982.156-2.921.366-5.84.547-8.76.141-2.275.259-4.55.427-6.823.022-.299.279-.582.428-.872M39.856 73.84l.344-.134c.655.701 1.336 1.381 1.959 2.109.414.485.634 1.233 1.137 1.526 1.738 1.012.686 2.426.633 3.751-.385-.292-.745-.657-.772-1.046-.073-1.067-.105-2.036-1.516-2.197-.29-.034-.528-.501-.796-.762-.596-.582-1.032-1.324-2.128-1.195-.393.045-.872-.64-1.312-.992l.157-.218.718.104.114-.343c-.361-.122-.755-.188-1.073-.381-.377-.228-.942-.537-.977-.86-.078-.718.124-1.466.218-2.249.063.012.236-.006.339.071.943.704 1.101 2.582 2.997 1.925l-.042.891m4.593-122.37a75.342 75.342 0 0 0-.442-.052c-.056-.368-.166-.738-.157-1.105.043-1.723.157-3.445.175-5.167.04-3.714.032-7.428.055-11.142.003-.4.125-.802.109-1.2-.071-1.846-.206-3.691-.247-5.536-.025-1.106.064-2.216.135-3.322.027-.433.145-.86.221-1.291.354.27.472.506.482.747.051 1.262.092 2.525.106 3.788.047 4.154.112 8.307.111 12.46a436.475 436.475 0 0 1-.149 10.235c-.013.531-.26 1.056-.399 1.585m6.939 15.825-.644.029c-.06-.888-.221-1.785-.158-2.665.124-1.728-.502-3.473.309-5.208.322-.691.139-1.628.146-2.454.004-.523-.065-1.047-.1-1.57.165-.494.275-.994.312-1.501.161-2.196.355-4.392.429-6.591.058-1.718-.066-3.44-.057-5.161.002-.403.216-.803.333-1.204l.374-.147c.075.176.22.353.215.526-.176 6.082-.332 12.164-.572 18.243-.101 2.571-.386 5.136-.587 7.703M-55.754 31.453c-.138-.468-.369-.824-.313-1.127.433-2.329.928-4.646 1.39-6.972.137-.693.195-1.404.349-2.094.502-2.246 1.073-4.478 1.537-6.732.357-1.738.582-3.503.888-5.253.23-1.31.464-2.623.767-3.918.084-.358.424-.656.647-.981.116.395.385.814.324 1.181a316.308 316.308 0 0 1-1.411 7.88c-.093.498-.39.961-.454 1.459-.29 2.254-.49 4.521-.811 6.771-.102.713-.479 1.387-.73 2.079-.138.681-.082 1.442-.155 2.191-.061.625-.451 1.255-.381 1.847.172 1.473-.447 2.527-1.647 3.669m5.384-56.435.53-.016c.108.451.355.919.302 1.35-.382 3.12-.813 6.233-1.253 9.345-.347 2.456-.742 4.906-1.087 7.363-.135.952-.155 1.919-.293 2.872-.14.952-.371 1.89-.543 2.839-.088.479-.063.991-.215 1.445-.35 1.049-.777 2.071-1.262 3.337-.355-.188-1.147-.35-1.277-.736-.182-.54-.06-1.387.983-1.316.042.003.297-.741.163-.931-.63-.888-.609-1.173.134-1.829.213-.187.349-.86.22-.975-1.065-.956.094-1.752.184-2.672l.602.643-.549-3.65 1.152.603c-.244-.609-.451-.935-.494-1.281-.061-.498-.215-1.249.041-1.477 1.178-1.051.511-2.453.829-3.65.349-1.311.375-2.707.563-4.062.14-1.019.296-2.035.477-3.047.248-1.389.527-2.771.793-4.155m-5.194 32.458c-.055.27-.24.642-.137.757 1.16 1.301.33 2.737.299 4.101-.028 1.184-1.109 2.26-.381 3.56.059.105-.262.582-.487.663-1.326.472-1.075 1.621-.686 2.329.752 1.367-.479 2.275-.487 3.443-.006.799-.38 1.592-.56 2.395-.067.301-.052.622-.074.934l-.33-.003-.316-1.513c-.231.912-.44 1.591-.569 2.286-.233 1.244-1.225 2.462-.171 3.779.058.072-.114.34-.194.509-.401.843-.843 1.668-1.195 2.53-.135.331-.071.744-.098 1.12l.396.003c.036-.166.022-.371.116-.49.202-.254.459-.462.694-.69.017.322.111.664.036.961-.174.689-.418 1.361-.656 2.032-.128.359-.301.702-.454 1.052l-.273-.067.193-2.083-.425-.067c-.157.47-.278.958-.487 1.405-.107.228-.37.384-.563.572-.096-.278-.311-.579-.264-.83.094-.509.381-.979.5-1.485.381-1.622.736-3.25 1.07-4.882.11-.536.09-1.098.192-1.636.08-.417.235-.825.396-1.221.163-.395.465-.752.548-1.158.258-1.274.424-2.567.66-3.847.14-.757.354-1.501.518-2.255.332-1.526.601-3.068.992-4.578.35-1.353.326-2.902 1.782-3.881-.764-.998-.636-2.086-.218-3.252.23-.644.218-1.387.243-2.087.039-1.092.406-1.369 1.532-1.106 0 .705.02 1.403-.011 2.098-.012.274-.06.655-.238.78-.15.106-.511-.09-.893-.178m178.982 5.253c-1.833-1.916-4.215-1.981-5.97-3.318 1.976-.127 3.914-.126 5.825.1.701.082 1.196.733.859 1.65-.163.444-.203.956-.194 1.436.029 1.52.514 3.065-.305 4.531-.067.122-.064.294-.06.442.037 1.594.06 3.189.13 4.781.037.832.194 1.659.233 2.491.112 2.358.23 4.719.261 7.079.01.778-.235 1.56-.367 2.34-.032.182-.155.381-.111.537.333 1.188.697 2.367 1.08 3.651-.26.126-.714.276-1.08.544-.301.221-.497.582-.884 1.058l-.326-1.826c.975-.162 1.197-.59.707-1.413-.519-.872-1.084-1.716-1.578-2.602-.125-.224-.042-.559-.077-.84-.072-.593-.049-1.227-.262-1.766-.447-1.133-.987-2.233-1.551-3.313-.682-1.307-1.35-2.634-2.179-3.846-.453-.663-1.354-1.067-.396-1.98.11-.105.071-.449-.002-.646-.229-.628-.544-1.225-.757-1.857-.542-1.603-1.016-3.229-1.577-4.823-.411-1.169-.454-1.155.656-1.224.036-.002.072-.023.108-.027 1.89-.21 3.78-.401 5.666-.641.621-.08 1.227-.291 2.151-.518M-44.006 20.53c.337.116.493.133.607.213 2.15 1.497 4.317 2.975 6.427 4.528.467.344.956.926 1.045 1.463.221 1.344.434 2.755.245 4.082-.193 1.363-.707 2.745-1.372 3.958-.895 1.633-2.086 3.102-3.117 4.663-.5.756-.807 1.67-1.407 2.325-1.406 1.533-2.933 2.956-4.418 4.416-.616.606-1.252 1.193-2.058 1.959-.083-1.485-.257-2.606-.181-3.71.11-1.618.193-3.223.527-4.856.394-1.921.196-4.014.803-5.942.533-1.695.148-3.507.964-5.192.566-1.171.602-2.594.91-3.897.308-1.302.66-2.593 1.025-4.01m43.88 7.984c-.158-.402-.36-.693-.369-.989-.015-.547.078-1.099.133-1.648.08-.788.167-1.575.251-2.362l.412.058-.111 1.58c.299-.318.467-.412.472-.513.044-.975.085-1.952.079-2.927C.73 20.16.597 18.604.672 17.056c.098-1.992.419-3.972.519-5.963.107-2.16.029-4.33.108-6.492.08-2.179.254-4.353.39-6.529.019-.301-.047-.684.112-.879.196-.24.665-.526.879-.442 2.426.954 4.819 1.993 7.238 2.964.616.247 1.319.27 1.942.502 1.672.622 3.338 1.268 4.967 1.992.265.117.546.745.457 1.02-.493 1.524-1.143 2.998-1.647 4.519-.286.865-.38 1.792-.594 2.684-.064.265-.205.53-.37.751-.617.825-1.453 1.534-1.012 2.781.096.272-.177.697-.329 1.029-.267.58-.621 1.122-.85 1.715-.555 1.432-.99 2.913-1.599 4.319-.826 1.91-1.828 3.744-2.646 5.658-.88 2.056-1.619 4.172-2.446 6.252-.527 1.323-1.116 2.62-1.65 3.94a159.108 159.108 0 0 0-1.538 3.953c-.551 1.47-1.069 2.952-1.62 4.423-.061.162-.285.26-.357.421-.322.725-.646 1.453-.908 2.201-.106.304-.057.66-.09 1.149-.283-.215-.437-.275-.441-.344-.117-1.747-.291-3.495-.301-5.244-.011-1.722.162-3.445.229-5.167.076-1.977.123-3.955.187-5.931.036-1.146.01-2.246-1.233-2.857-.197-.097-.28-.424-.416-.646.291.006.657-.1.859.037.657.444 1.045.193 1.362-.358m117.691 16.907c-.667-.002-1.335-.005-2.003-.005-.424-.001-.847.003-1.27.004.099-.401.176-.812.309-1.202.066-.197.232-.359.266-.406l1.118.246-.013.021c.185-.585.316-1.194.572-1.745.184-.394.526-.718.817-1.055.208-.241.419-.563.688-.64.187-.053.495.227.713.403.353.285.677.606 1.041.938-.54 1.149.754 1.166 1.256 1.795l-.328 2.006.202.198 1.462-1.619.2-1.901c-1.062-.656-1.092-.752.049-1.382.523-.289 1.227-.238 1.779-.49.716-.326 1.09-.031 1.437.41l-1.551 1.321c.077.154.155.306.233.458l2.285-.558c-.332.524-.472 1.05-.763 1.154-2.213.793.084 2.823-1.21 3.844l.99.242.055.315c-.415.136-.883.454-1.232.355-.331-.094-.604-.593-.784-.97-.209-.438-.288-.937-.423-1.411l-.427.019c-.099.543-.403 1.152-.252 1.615.318.981 1.153 1.415 2.274 1.454l-1.795 1.151h2.24l-1.588.788.656 1.18-2.917-.183c.057-.085.112-.171.168-.257-.247-.355-.421-.889-.758-1.03-.832-.344-1.739-.509-2.616-.748l.02-.012c.427.695 1.027 1.349.455 2.26-.058.094.078.334.161.486.323.593.661 1.177.99 1.758-1.348.78-2.078.712-2.753-.17l1.086-1.196c-.944-.36-1.755-.672-2.567-.982 1.38-.336 1.413-.5.614-1.894-.447.357-.873.823-1.403 1.058-.194.086-.631-.37-1.116-.68l.97-.428-.304-.196.513-3.238c-.807.814-1.381 2.179-2.331.695-.139-.218.051-.848.288-1.045.222-.181.711-.038 1.083-.038.865-.311 1.731-.688 2.649.174.277-.324.514-.603.751-.883zM34.367-9.031c-.083-.357-.296-.74-.227-1.066.291-1.386.648-2.76 1.016-4.13.157-.586.402-1.149.606-1.723l.298.031.518 1.1.301-.051c-.061-.477-.101-.958-.191-1.429-.095-.494-.414-1.012-.327-1.46.314-1.633.755-3.241 1.158-4.856.009-.039.122-.054.336-.139l.103 1.796.444-.046c-.099-.743-.068-1.536-.332-2.215-.258-.661-.36-1.154.234-1.757l.442.761c1.22-1.247-.366-2.717.319-4.117.537.749 1.018 1.532 1.072 2.344.148 2.209.235 4.436.111 6.643-.079 1.4.294 2.297 1.539 2.912.595.294.633.728-.107 1.094l1.289 1.483-.172.354c-.359-.108-.788-.125-1.062-.341-.902-.706-1.531-.608-1.794.487-.375 1.568-.608 3.169-.904 4.757-.255 1.364-.489 2.732-.778 4.087-.133.623-.429.907-1.13.469-.493-.308-1.132-.567-1.692-.542-1.24.058-1.351-.61-1.117-1.498.469-1.783 1.018-3.545 1.505-5.323.152-.554.211-1.133.313-1.7l-.253-.017-1.538 4.102c.55 1.251-.7 1.952-.896 2.973-.335-1.193.212-2.113.916-2.983m-91.868-8.361c.167-1.217.538-2.342 1.395-3.458.362 1.401-.339 2.929-1.411 3.444.721 1.219-.25 2.177-.597 3.167-.764 2.178-1.791 4.264-2.645 6.415-.896 2.259-1.709 4.55-2.573 6.821-.211.556-.49 1.086-.715 1.637-.26.637-.494 1.283-.74 1.926l-.497-.139c.046-.28.045-.579.152-.834.093-.223.377-.37.458-.594a487.021 487.021 0 0 0 2.04-5.769c.832-2.383 1.603-4.788 2.499-7.147.672-1.769 1.496-3.481 2.269-5.213.052-.116.24-.172.365-.256M52.745-75.04c-.655-.944-.556-2.448.345-3.313.073.495.223.895.164 1.261-.111.697-.341 1.376-.524 2.064.091 1.338.182 2.674.271 4.011l-.489.003c-.627-1.353.08-2.685.233-4.026m83.661 121.148-.271-.917c.17-.072.237-.125.303-.125.389.003.777.02 1.165.031-.256-.306-.596-.576-.748-.927-.221-.508-.306-1.074-.469-1.691l-.821.209c-.068-.106-.181-.199-.178-.287.036-1.01.007-2.033.169-3.023.092-.56.542-.89 1.207-.481.195.12.523.019.79.019l.026-.375-2.022-1.02 2.44-1.413a463.49 463.49 0 0 1-.876-1.176l.996.081-1.626-4.472.295-.198 1.082 1.177c-.215-2.238-.35-4.431-.683-6.594-.092-.599-.775-1.106-1.227-1.708 1.461.165 1.364-.928 1.3-1.85-.084-1.229-.317-2.447-.489-3.67-.02-.145-.09-.29-.078-.43.147-1.79.306-3.58.46-5.37.004-.038.016-.08.005-.113-.501-1.461-.049-2.935-.078-4.402-.041-2.095-.196-4.188-.321-6.279-.102-1.724-.256-3.446-.331-5.17-.014-.33.346-.679.326-1.006-.019-.332-.295-.65-.488-1.029.879-1.91.375-4.032.494-6.102.086-1.491.245-2.979.346-4.469.091-1.352.165-2.706.212-4.06.054-1.585.086-3.171.096-4.758.011-1.82.273-3.698-.084-5.447-.598-2.927.511-5.761.105-8.638 1.005-1.657-.487-2.951-.485-4.462l-.418-.05c-.115.495-.276.986-.332 1.488-.058.508-.013 1.027-.013 1.674-.234-.122-.427-.159-.454-.247-.356-1.144-1.202-1.467-2.304-1.525-.833-.044-1.135.284-.968 1.139.112.576.086 1.178.122 1.769l-.524.161c-.503-.957-1.07-1.886-1.488-2.878-.334-.793-.458-1.672-.737-2.491-.078-.228-.38-.379-.58-.565-.181.204-.467.381-.522.615-.111.47-.068.976-.146 1.459-.062.391-.109.843-.334 1.137-.441.573-.821 1.026.07 1.531.087.048.009.723-.14.792-.683.316-.911.709-.6 1.437.068.162-.179.458-.281.692-.165-.197-.433-.372-.479-.592-.214-1.027-.333-2.072-.554-3.097-.12-.558-.377-1.086-.588-1.672-1.149.788-1.475 1.811-1.186 2.938.12.469.061.992.044 1.489-.025.676-.132 1.351-.127 2.026.042 5.242.076 10.483.169 15.724.034 1.938.223 3.874.327 5.812.012.219-.1.443-.102.666-.01 1.107.067 2.219-.02 3.32-.073.902-.346 1.786-.501 2.682-.074.43-.127.874-.108 1.307.052 1.204-.227 1.507-1.398 1.429-2.158-.145-4.319-.256-6.473-.446-.855-.077-1.69-.364-2.544-.494-1.214-.185-2.445-.372-3.518.72-.084-.308-.144-.474-.175-.645-.195-1.073-.718-1.375-1.715-.987-1.025.401-1.251.22-1.364-.846-.154-1.435-.059-2.926-1.134-4.156-.326-.372-.222-1.091-.413-1.614-.936-2.557-1.932-5.092-2.839-7.659-.186-.526-.083-1.154-.112-1.735l.431-.073 2.546 7.019.361-.096c0-.224.056-.465-.009-.667-.646-2.005-1.176-4.062-2.026-5.977-.435-.976-.631-2.278-2.068-2.693-.474-.138-.718-1.078-1.066-1.651-.951-1.565-1.815-3.193-2.877-4.677-1.002-1.4-2.193-2.67-3.35-3.951-.28-.311-.757-.443-1.143-.655.319.399.629.806.959 1.196 1.501 1.776 3.065 3.503 4.489 5.338.762.981 1.515 2.055 1.446 3.417-1.607-1.874-3.19-3.738-4.795-5.584-1.582-1.821-3.186-3.622-4.781-5.432.342-.09.641-.013.909.123.606.304 1.196.637 1.793.958-.681-1.471-2.15-1.901-3.436-2.555-.145-.074-.444.183-.679.258-.64.205-1.284.395-1.927.591l-.221-.525 1.604-.873c-.677-.394-1.378-1.086-2.162-1.198-1.505-.211-3.093-.358-4.523.458-.95.542-1.693.35-2.18-.585-.101-.193-.325-.323-.491-.482-.126.162-.279.312-.374.49-.253.485-.111 1.248-1.161 1.066-.322-.057-.81.87-1.23 1.34-1.118 1.248-2.316 2.435-3.336 3.757-.783 1.015-1.381 2.181-1.972 3.327-.107.208.216.639.296.849-.643.609-1.32 1.13-1.832 1.781-.294.375-.315.964-.467 1.454-.086.279-.102.668-.296.81-1.474 1.087-2.15 2.6-2.517 4.33-.122.575-.585 1.085-.674 1.658-.465 2.985-.932 5.972-1.256 8.973-.236 2.195-.182 4.421-.4 6.619-.106 1.062-.578 2.081-.814 3.137-.358 1.606-.631 3.231-.989 4.839-.171.768-.357 1.564-.727 2.245-.185.343-.794.456-1.412.776l1.167.589-.316.464c-2.01-.444-3.767-1.598-5.788-2.357l1.037-.57c-.941-.994-1.497-1.033-2.011-.227L52.688.763l.016-.013-.63.954c-.172-.329-.491-.657-.492-.986-.007-2.84.041-5.681.077-8.521.024-1.909.029-3.82.089-5.728.121-3.849.269-7.697.423-11.544.014-.347.15-.688.384-1.018.82 1.967.029 4.04.653 6.015l.826-18.943-.607-.032c-.029 2.005-.163 4.016-.057 6.013.106 2.028-.232 3.959-.499 5.917l-.473-.008c-.045-.446-.144-.893-.124-1.337.129-3.045.288-6.09.427-9.135.155-3.412.284-6.825.461-10.236.048-.945.298-1.881.329-2.824.057-1.81.009-3.622.037-5.433.009-.561.164-1.12.175-1.681.037-1.947.038-3.894.057-5.841.003-.263.017-.528.049-.789.191-1.516.473-3.026.561-4.547.1-1.719.008-3.448.041-5.173.012-.705.099-1.415.224-2.109.031-.167.348-.283.532-.422.118.205.336.411.333.613-.022 1.715-.091 3.429-.128 5.143-.005.203.096.409.165.68.657-1.085.646-6.422-.016-8.162l-.453 1.071c-.678-1-.607-1.291.328-1.716 1.198-.544.152-1.307.098-2.015l-.447.792-.206.008v-3.93l.229-.092.453 1.633.253.015.224-4.173-.389-.008c.031.347.124.703.072 1.037-.031.211-.246.439-.439.564-.115.073-.456.014-.506-.082-.098-.191-.098-.452-.076-.679.021-.218.245-.53.167-.624-.742-.893-.059-1.737.025-2.602.089-.913-.054-1.773-.963-2.62l-.85 3.403-.422.039c-.188-.67-.492-1.332-.537-2.011-.071-1.06.082-2.139-1.079-2.771-.15-.082-.173-.39-.265-.588-.156-.336-.321-.667-.481-1.001-.356.284-.726.551-1.061.858-.119.11-.151.315-.232.497-.56-.502-.689-1.87-.849-4.251-.092-1.367.302-3.047-1.502-4.14v1.415c-.616-.309-.616-.309-.994-2.434-1.871.786-1.364-1.082-2.031-1.955l-.544 2.603-.279-.048-.75-2.43-.447.038v4.312c-.419-.29-.54-.351-.63-.442-.095-.097-.161-.223-.388-.55-.186.898-.348 1.574-.462 2.259-.169 1.009-.378 2.021-.421 3.036-.021.525.279 1.063.669 1.515 0 1.731-.037 3.464.012 5.193.04 1.366.192 2.73.282 4.095.134 2.012.253 4.023.385 6.035.041.636.148 1.27.145 1.903-.017 3.348-.062 6.696-.092 10.043-.026 2.991-.127 5.984-.027 8.971.043 1.309.479 2.598-.323 3.828-.076.116.024.363.071.542.38 1.435.472 2.852.239 4.351-.236 1.517-.128 3.086-.214 4.63-.034.63-.183 1.254-.279 1.881l-.358.039-1.694-2.198c-1.209.145-1.336.009-1.421-1.271a6.352 6.352 0 0 0-.342-1.642c-.079-.227-.405-.493-.632-.508-.207-.012-.555.249-.632.465a126.457 126.457 0 0 0-1.524 4.577c-.458 1.457-.927 2.914-1.296 4.395-.272 1.092-.386 2.223-.584 3.334-.052.291-.155.573-.234.859l-.464-.045c0-.679-.086-1.372.017-2.035.335-2.152.657-4.313 1.144-6.434.351-1.529.995-2.988 1.416-4.504.096-.345-.073-.978-.335-1.149-.274-.178-1.006-.119-1.192.114-.78.973-1.581 1.983-2.086 3.109-.501 1.116-.64 2.393-.974 3.588-.07.25-.297.456-.451.682-.221-.169-.478-.307-.651-.516-.249-.3-.435-.651-.648-.98l-.425.075c0 1.328-.013 2.656.009 3.983.006.369.194.741.168 1.103a254.67 254.67 0 0 1-.498 5.913c-.058.602-.191 1.211-1.115 1.082.167-2.021.352-3.987.486-5.956.129-1.913.65-3.844-.393-5.774-.089.357-.264.717-.248 1.069.035.788.26 1.576.231 2.358-.032.834-.263 1.662-.414 2.491-.067.364-.163.725-.228 1.09-.196 1.116-.383 2.234-.577 3.352-.056.328-.146.653-.173.983-.051.598-.014 1.206-.105 1.795-.209 1.347-.471 2.683-.716 4.024-.359 1.962-.714 3.924-1.083 5.884-.478 2.534-.948 5.069-1.462 7.596-.338 1.662-.569 1.742-2.13 1.216A652.244 652.244 0 0 0 8.435-14.27c-1.536-.488-3.121-.822-4.671-1.272-.928-.27-1.446-.877-1.391-1.921.12-2.298.231-4.598.291-6.898.063-2.408.074-4.818.072-7.226 0-.257-.241-.514-.37-.771l-.184 3.052-.444-.006v-4.191l-.211.046.852 1.12c-.024-1.726-.147-3.459-.047-5.178.119-2.044.43-4.077.669-6.208-1.085-.659-1.154-.864-.54-2.306.628-1.477 1.386-2.909 1.882-4.428.364-1.115.397-2.338.577-3.513l-.288-.123c-.289.608-.596 1.207-.863 1.824-.493 1.138-.938 2.297-1.462 3.42-.112.24-.472.363-.718.539.005-.317-.036-.642.022-.949.241-1.288 1.596-2.39.62-3.913-.067-.105.513-.626.868-1.044-.365-.332-.406-1.33-1.527-1.293-.247.009-.512-.564-.948-1.082l-.337 2.278a30.255 30.255 0 0 0-.201-.17l-1.827 2.522-.438-.195c.201-.629.462-1.247.592-1.891.333-1.649.682-3.303.863-4.972.059-.539.014-1.443-1.091-1.291-.251.036-.552-.294-1.026-.572l-2.826 5.031-.322-.118c.014-1.955.732-3.784 1.294-5.626-1.218-.405-2.712.451-3.253 1.569-.863 1.778-1.914 3.465-2.782 5.242-.833 1.705-1.571 3.46-2.287 5.22-.9 2.215-1.726 4.445-3.035 6.488-.955 1.49-1.56 3.201-2.382 4.783a85.336 85.336 0 0 1-2.415 4.322c-.584.982-1.524 1.827-1.84 2.874-.514 1.703-1.732 2.932-2.49 4.451-.59 1.181-1.168 2.38-1.891 3.48-1.825 2.775-3.75 5.483-5.587 8.251-.489.735-.802 1.588-1.194 2.388-.049.1-.061.229-.131.308-1.22 1.371-2.464 2.721-3.66 4.113-.397.46-.67 1.028-1.311 1.599-.072-.447-.237-.902-.202-1.342.202-2.53.432-5.058.692-7.583.122-1.185-.19-2.5 1.046-3.394.236-.171.206-.782.21-1.191.019-1.994.009-3.987.009-5.923-.423-.134-.74-.235-1.058-.334.199-.301.422-.589.588-.907.134-.255.293-.548.282-.818-.088-2.262-.13-4.536-1.362-6.568-.189-.314-.381-.714-.351-1.056.175-2.035-1.277-2.919-2.659-3.839-.716-.476-1.508-.835-2.236-1.292-.277-.175-.587-.438-.688-.729-.684-1.963-2.409-2.731-4.114-3.163-1.972-.5-4.06-1.033-6.124-.37-1.875.602-3.726 1.459-4.868 3.077-1.709 2.417-3.242 4.973-4.663 7.574-1.18 2.161-2.102 4.465-3.115 6.716-.467 1.038-.836 2.12-1.32 3.149-1.002 2.133-2.085 4.229-3.062 6.372-.425.932-.631 1.962-1.007 2.919-.774 1.966-1.926 3.852-2.304 5.885-.385 2.066-1.987 3.423-2.4 5.433-.398 1.939-1.208 3.8-1.913 5.666-1.047 2.772-2.052 5.569-3.284 8.258-.912 1.991-1.605 4.036-2.301 6.099-.657 1.951-1.51 3.835-2.199 5.776-.588 1.659-1.067 3.359-1.586 5.042-.077.247-.07.526-.168.762-.627 1.504-1.363 2.969-1.885 4.508-.537 1.583-.855 3.239-1.299 4.856-.438 1.592-.939 3.167-1.367 4.763-.451 1.684-.842 3.386-1.275 5.076a67.206 67.206 0 0 1-.652 2.31c-.409 1.384-.855 2.759-1.22 4.156-.073.283.145.643.243 1.018-1.294.447-1.832 1.366-2.09 2.722-.405 2.136-1.151 4.204-1.655 6.324-.187.786-.077 1.641-.14 2.461-.132 1.725-.268 3.449-.462 5.168-.025.224-.421.604-.599.578-1.02-.144-2.028-.383-3.036-.604-.18-.039-.343-.184-.52-.199a704.82 704.82 0 0 0-6.319-.53c-.185-.014-.471-.038-.547.064-.962 1.297-2.259.89-3.603.638l-.322 2.151-3.498 1.007-.017.404c.262.122.55.207.777.376.226.168.391.419.583.633-.257.085-.552.298-.764.234-1.339-.4-2.644-.456-4.006-.049-1.18.354-1.595 1.229-.935 2.282.197.312.373.648.62.917.207.224.504.366.762.544l.001.405c-.636.175-1.277.333-1.906.531-.294.093-.705.199-.803.416-.091.203.146.568.272.848.067.15.281.261.296.404.136 1.257.856 2.013 2.404 2.232l-.479-3.609c1.519.609 1.778.527 1.832-.704 1.888.341 3.882.386 5.58 1.116 1.189.511 2.587.228 3.693 1.346.694.701 2.184.661 3.333.851 1.44.238 2.908.302 4.341.57 1.158.216 2.263.715 3.421.925 3.108.564 6.225 1.089 9.351 1.535 1.763.25 3.563.232 5.327.476 2.429.335 4.839.803 7.256 1.214.038.007.073.025.11.028 2.196.198 4.397.354 6.587.605 1.743.199 3.471.525 5.209.771 1.416.202 2.835.386 4.256.547 5.245.596 10.489 1.208 15.74 1.759 3.978.417 7.968.718 11.946 1.136 1.514.158 3.009.497 4.512.754l-.04.471c-2.787 0-5.582.133-8.359-.03-4.438-.261-8.866-.702-13.295-1.1-2.094-.189-4.178-.497-6.272-.669-.877-.074-1.772.107-2.656.084-.526-.014-1.043-.234-1.572-.3-2.387-.301-4.783-.388-7.139-1.08-1.66-.489-3.486-.408-5.236-.596a485.987 485.987 0 0 1-5.379-.607c-1.003-.12-1.999-.298-3.004-.393-.758-.072-1.617.264-2.109-.666-.046-.087-.317-.159-.403-.107-.958.585-1.751.172-2.625-.265-.274-.137-.822.271-1.316.458-2.527-1.689-5.638-1.534-8.642-1.847-.074-.008-.181.039-.22.004-1.154-1.051-2.635-.679-3.972-.945-2.616-.521-5.217-1.117-7.825-1.68-.779-.168-1.556-.429-2.342-.463-.681-.029-1.373.203-2.108.328l.276-.743c-1.473-1.056-2.601-.189-2.998 2.164.441.279.815.531 1.205.754.277.159.577.28.866.417.416.198.834.391 1.245.597.131.066.232.216.367.249a876.71 876.71 0 0 0 6.584 1.607c1.557.373 3.107.799 4.683 1.077 1.611.283 3.258.363 4.873.626 1.895.308 3.768.751 5.662 1.074 1.93.327 3.873.578 5.81.861.112.017.227.018.338.036 2.339.386 4.677.773 7.015 1.162 1.656.276 3.312.783 4.967.776 2.106-.009 4.168.299 6.239.492 3.172.297 6.312.921 9.478 1.294 4.112.485 8.263.694 12.35 1.325 5.382.829 10.772.581 16.15.398 2.404-.082 4.788-.913 7.168-1.458 1.642-.375 1.633-.415 3.188-2.022l-4.255-.897-.099-.232c.775-.226 1.541-.491 2.328-.665.733-.162 1.513-.14 2.224-.358.639-.197 1.211-.612 1.813-.93l-.068-.524-4.592-1.5c.749-.051 1.266-.112 1.784-.116 1.015-.007 2.034-.03 3.045.039 1.135.079 1.136-.577.993-1.37-.072-.398-.167-.793-.305-1.437-1.328-.348-2.822-.867-4.359-1.087-.806-.115-1.54-.076-2.092-.789-.147-.192-.436-.334-.681-.379-1.796-.326-3.599-.61-5.396-.933-.446-.08-.877-.25-1.314-.379l.104-.52 5.987.42-.582-1.366c-.927 1.214-1.397.315-2.183-.034-1.628-.724-3.418-1.205-5.188-1.464-3.873-.564-7.773-.958-11.668-1.356-1.424-.145-2.876-.02-4.299-.17-3.606-.379-7.199-.876-10.804-1.267-4.092-.444-8.19-.834-12.288-1.228-3.759-.361-7.521-.692-11.28-1.05-.253-.024-.495-.158-.741-.241.013-.148.027-.298.042-.446.675 0 1.355-.054 2.025.008 3.382.321 6.76.691 10.143 1.002 2.322.215 4.651.363 6.976.541 3.673.285 7.35.524 11.017.874 1.839.176 3.657.561 5.486.837.409.062.828.056 1.241.097 3.377.333 6.756.641 10.129 1.015 2.321.258 4.634.602 6.948.923 1.192.164 2.409.251 3.561.566 1.546.424 3.038 1.042 4.557 1.564.52.178 1.051.319 1.577.477l.187-.562c-1.291-.465-2.559-1.015-3.879-1.38a169.819 169.819 0 0 0-7.645-1.923c-1.125-.257-2.29-.36-3.443-.472-3.038-.296-6.079-.55-9.118-.835-9.766-.915-19.533-1.829-29.298-2.763-3.195-.305-6.385-.666-9.576-1.008-1.711-.184-2.105-.9-1.641-2.607.63-2.317 1.133-4.668 1.739-6.992a690.076 690.076 0 0 1 2.382-8.813c.755-2.743 1.561-5.472 2.291-8.222.584-2.203 1.044-4.44 1.639-6.64.591-2.181 1.302-4.33 1.92-6.505.471-1.654.642-3.443 1.388-4.954.658-1.331 1.011-2.69 1.413-4.074.511-1.758 1.101-3.492 1.667-5.233.256-.789.572-1.559.792-2.356.108-.393.061-.831.081-1.248.008-.181-.049-.387.021-.537 1.024-2.229 2.139-4.418 3.074-6.682.682-1.648 1.113-3.399 1.692-5.091.362-1.061.806-2.094 1.191-3.147.443-1.211.853-2.435 1.296-3.646.255-.699.546-1.385.823-2.076.786-1.96 1.606-3.906 2.349-5.882.7-1.862 1.296-3.761 1.982-5.627.282-.767.7-1.483 1.024-2.235.452-1.049.857-2.119 1.323-3.161.116-.26.388-.45.588-.673l.431.217c-.583 1.74-1.134 3.491-1.757 5.216a170.498 170.498 0 0 1-2.215 5.785c-.877 2.176-1.837 4.318-2.699 6.499-.387.979-.625 2.016-.931 3.025l.356.149c.39-.641.892-1.238 1.148-1.929.901-2.427 1.704-4.89 2.572-7.329.56-1.574 1.167-3.131 1.754-4.695l.408.059c.032.289.129.589.085.867-.348 2.206-.685 4.414-1.1 6.607-.412 2.18-.938 4.337-1.363 6.515-.592 3.032-1.123 6.077-1.713 9.11-.155.797-.455 1.563-.647 2.353-.241.993-.443 1.995-.652 2.995-.061.293-.052.605-.141.887-.252.8-.573 1.577-.805 2.382a394.2 394.2 0 0 0-2.19 7.768c-.473 1.767-.876 3.554-1.279 5.34-.313 1.382-.646 2.765-.851 4.166-.4 2.748-1.501 5.316-1.975 8.047-.171.994-.69 1.925-1.018 2.895-.446 1.316-.911 2.63-1.279 3.969-.545 1.982-1.173 3.964-1.465 5.989-.266 1.845-.233 3.753-.115 5.618.039.601.765 1.161 1.187 1.732.13.176.438.343.422.486-.152 1.284.862 1.294 1.645 1.583.404.148.784.36 1.264.586.536-.621 1.097-.419 1.894-.081 1.762.746 3.616 1.349 5.553.369.379-.192.888-.195 1.333-.18 2.976.11 5.712-1.069 8.345-2.067 2.856-1.084 5.387-3.055 8.012-4.716 3.68-2.329 7.038-5.096 10.312-7.951.874-.763 1.407-1.916 2.115-2.916l.479.639c.926-.803 1.854-1.562 2.729-2.377 1.473-1.373 2.992-2.71 4.341-4.199.935-1.032 1.633-2.283 2.403-3.458.364-.554.66-1.155.967-1.744.59-1.132.573-1.167-.608-1.66.102-.187.154-.46.305-.534 1.093-.537 1.092-1.242.705-2.33-.394-1.108-.35-2.365-.582-3.538-.102-.519-.308-1.083-.644-1.477-1.445-1.694-3.086-3.191-5.038-4.284-.976-.546-2.047-.921-3.071-1.381-2.058-.924-4.106-1.872-6.173-2.773-1.174-.512-2.398-.909-3.562-1.44-.693-.316-1.311-.795-2.085-1.276l-.496.466c0-.142-.006-.241.001-.339.113-1.553 1.362-2.446 2.141-3.601.993-1.471 2.082-2.883 3.181-4.28a719.24 719.24 0 0 1 5.896-7.362c2.284-2.829 4.625-5.613 6.86-8.479 1.357-1.739 2.591-3.577 3.813-5.415.318-.477.383-1.122.617-1.856 1.623.353 1.431-1.538 2.235-2.388l1.323 3.515c-.696.513-.854 2.469-.238 3.283.123.162.084.51.015.742-.114.386-.436.739-.456 1.117-.131 2.445-.168 4.896-.307 7.341-.096 1.693-.397 3.379-.448 5.072-.13 4.327-.143 8.656-.263 12.984-.041 1.501-.409 3.002-.359 4.494.07 2.135.489 4.257.568 6.391.066 1.775-.148 3.559-.225 5.339-.022.516-.003 1.034.005 1.551.019 1.162.036 2.323.066 3.484.023.886.046 1.773.101 2.657.119 1.87.26 3.739.366 5.256.73.677 1.271 1.166 1.798 1.671.344.329.681.666.994 1.025.22.251.611.614.549.804-.237.726-.627 1.401-.959 2.095l-.434.051-.744-2.129c-1.34.199-1.361.289-1.328 1.835a64.981 64.981 0 0 1-.089 4.935c-.044.836.436.957 1.037.965.682.011 1.025.109.887.985-.108.687.183 1.437.333 2.394-.391-.277-.66-.485-.947-.666-.255-.16-.529-.289-.794-.431-.112.3-.321.603-.316.902.017.976.105 1.951.178 2.926.264 3.511.516 7.021.81 10.53.109 1.304.373 2.595.474 3.899.1 1.289.275 2.616.075 3.871-.314 1.972.619 3.04 2.14 3.968 1.627.994 3.262 1.918 5.164 2.263.295.054.598.207.877.17 1.653-.223 3.298-.506 4.952-.726.339-.045.716.048 1.05.157 1.134.367 2.397-.234 2.774-1.402 2.49-.033 4.982-.252 7.226-1.504 1.31-.731 2.543-1.596 3.811-2.403.032-.02.079-.042.086-.071.497-2.065 2.78-3.186 2.858-5.508.027-.792.45-1.565.636-2.359.111-.473.212-.984.15-1.456-.349-2.673-.815-5.333-1.106-8.013-.187-1.72-.265-3.471-.176-5.197.179-3.441.508-6.873.768-10.309.033-.442-.018-.895.052-1.329.096-.609.255-1.209.414-1.805.209-.784.465-1.556.662-2.344.363-1.441.645-2.906 1.061-4.331.3-1.028.761-2.008 1.156-3.007.068-.173.202-.327.242-.503.304-1.329.555-2.671.891-3.992a172.91 172.91 0 0 1 1.561-5.705c.111-.38.498-.677.619-1.058.605-1.905 1.118-3.838 1.75-5.733.662-1.986 1.423-3.938 2.134-5.908.101-.277.168-.567.245-.852.306-1.142.577-2.295.945-3.417.066-.202.579-.447.796-.379a67.712 67.712 0 0 1 4.68 1.622c.215.083.403.64.35.931-.237 1.292-.567 2.566-.863 3.847-.051.221-.106.44-.15.662-.583 2.95-1.201 5.894-1.731 8.853-.299 1.671-.238 3.43-.718 5.037-.77 2.577-.667 5.245-1.153 7.844-.245 1.313-.122 2.691-.251 4.032-.175 1.829-.48 3.645-.635 5.476-.113 1.348-.006 2.715-.125 4.063-.094 1.052-.511 2.08-.56 3.129-.135 2.869-.278 5.749-.162 8.614.061 1.516.69 3.002.995 4.515.205 1.021.292 2.066.428 3.101.015.111-.033.242.012.334 1.034 2.13 1.914 4.359 3.179 6.343.79 1.241 2.123 2.158 3.285 3.134.964.809 2.036 1.492 3.058 2.233.091.066.162.211.252.219 1.662.15 3.326.286 4.88.416l.317-1.416c.363.241.701.541 1.094.714.979.428 1.968.844 2.982 1.177.663.218 1.405.472 2.063.375 1.198-.177 2.362-.589 3.532-.933.428-.125.822-.441 1.25-.482 1.856-.18 3.373-1.212 5.046-1.857 2.406-.927 4.212-2.591 5.9-4.361 1.515-1.591 2.743-3.461 4.046-5.244.248-.34.23-.864.383-1.286.902-2.504 1.896-4.979 2.693-7.517.345-1.096.709-2.394-.738-3.374 1.827-.184 1.368-1.652 1.495-2.592.193-1.424-.039-2.901-.041-4.356-.004-2.745.029-5.489.042-8.233 0-.147-.014-.316-.084-.438-1.745-3.033-2.148-6.619-3.964-9.618-.298-.492-.683-.929-1.027-1.391l-.409.24c.334.602.762 1.172.977 1.814.223.665.242 1.399.149 2.15-1.03-.765-1.345-1.79-1.332-3.031-.976-.287-1.961-.752-2.969-.81-.657-.038-1.348.515-2 .792-.156-.415-.205-1.079-.561-1.384-.724-.619-2.004-.331-2.665.371-.571.605-1.067 1.133-2.068 1.349-.739.16-1.376 1.474-1.766 2.397-.569 1.347-.957 2.788-1.269 4.221-.308 1.426-.552 2.888-.604 4.342-.12 3.376-.063 6.758-.17 10.135-.042 1.333-.397 2.653-.491 3.987-.16 2.273-1.172 4.467-.601 6.818.057.232-.415.592-.641.892-.196-.229-.511-.433-.566-.692a58.834 58.834 0 0 1-.688-3.864c-.317-2.223-.567-4.456-.885-6.678-.173-1.21-.52-2.401-.626-3.615-.143-1.637-.057-3.295-.202-4.933-.14-1.554-.153-3.093-.694-4.654-.44-1.268.037-2.832-.017-4.261-.062-1.653-.018-3.292-.426-4.961-.335-1.369.068-2.909.083-4.375.021-2.087-.015-4.176-.028-6.264-.001-.112-.068-.235-.039-.335.463-1.628.246-3.26.11-4.903-.026-.323.37-.682.571-1.023.167.359.451.709.478 1.08.068.963.023 1.935.023 2.904l.469.046c.158-.88.355-1.755.464-2.641.106-.863.518-1.138 1.308-.816 1.736.704 3.465 1.426 5.198 2.138.207.085.413.197.63.232 1.282.205 2.219.754 2.986 1.926.648.992 1.792 1.659 2.803 2.546.465-.712.982-1.103.161-1.605-.194-.118-.268-.435-.396-.661.279-.045.58-.184.83-.119 1.573.405 2.618 1.586 3.228 2.913.491 1.068 1.422 1.317 2.186 1.726.744.399 1.785.241 2.696.325.142.013.334-.037.42.038.418.365.923.474 1.089-.093.147-.5.113-1.2-.142-1.637-.356-.611-1.076-1.031-.691-2.01 1.426.698 2.752 1.345 4.187 2.046.351-.615.638-1.25 1.048-1.791.242-.32.649-.624 1.032-.709 1.172-.26 2.567-1.514 2.881-2.621.16-.562.56-1.06.696-1.625.21-.873.396-1.777.398-2.669.003-1.878-.128-3.756-.186-5.635-.013-.443.069-.888.065-1.331-.003-.405.09-.952-.127-1.187-.825-.895-.322-1.919-.444-2.877-.122-.956-.315-1.903-.482-2.854-.031-.18-.166-.394-.108-.531.844-1.993.091-4.021.153-6.03.005-.149-.077-.354-.006-.443 1.237-1.554-.311-2.749-.497-4.117-.116-.86-.079-1.742-.101-2.615-.007-.338.025-.678.018-1.015-.04-2.002-.658-2.484-2.9-1.884l1.807-2.298.264.121.152 1.229.246.045c.081-.329.234-.66.23-.988-.012-.901.038-1.694 1.038-2.151.274-.126.335-.716.497-1.092.43-1 1.09-1.075 1.8-.282.767.858 1.685 1.592 2.391 2.494.47.6.686 1.397 1.011 2.109.569 1.244 1.207 2.464 1.678 3.745.357.973.535 2.018.729 3.043.446 2.362.854 4.731 1.274 7.097.145.819.085 1.233-1.031 1.137-.66-.057-1.701.465-2.016 1.034-.78 1.405-.606 1.829.53 2.56.752.484 1.586.84 2.384 1.252.334.171.762.265.977.531.188.23.134.654.188.993-.3-.006-.623.055-.893-.039-.223-.077-.405-.318-.569-.518-.791-.96-1.396-1.047-2.344-.28-.284-.212-.561-.462-.878-.643-.286-.163-.615-.25-.915-.366-.747 1.237-.645 2.102.337 3.005 1.594 1.466 3.315 2.636 5.455 3.292.825.252 1.361 1.479 1.999 2.284.157.198.259.479.287.732.396 3.48 2.135 6.546 3.051 9.871.694 2.518 1.744 4.945 2.738 7.372.558 1.366 1.382 2.621 1.97 3.976.399.918.561 1.935.895 2.885.176.501.522.94.741 1.43.376.84.689 1.707 1.07 2.545.658 1.447 1.348 2.881 2.123 4.528.416-.434.727-.721.989-1.045.267-.33.488-.699.728-1.052l1.1 1.097.416-.531.238.084c-.107.339-.132.752-.35.99-.149.165-.575.049-.858.127a4.613 4.613 0 0 0-1.076.425c-.331.189-.611.466-1.008.779l1.235.664c-.506.732-.201 1.156.365 1.706.337.328.228 1.114.345 1.853 1.654-.274.926 1.852 2.125 2.339l-.579.467c.228.288.418.614.687.851.847.745 1.312 1.584 1.133 2.78-.095.627 1.903 2.535 2.765 2.773-.868 1.229.472 1.646.872 2.432.193.377.295.8.454 1.196.179.444.323.915.578 1.312.352.55.798 1.039 1.197 1.561.7.916 1.391 1.838 2.092 2.754.641.84 1.229 1.732 1.956 2.491.498.519 1.193.849 1.853 1.301-.16 1.269.182 1.759 1.527 1.981.594.098 1.203.123 1.792.243.54.111 1.061.305 1.885.549l-.351-2.189c.763.124 1.588.17 2.354.406.764.235 2.069-.142 2.717-.877.446-.506.673-1.44 1.748-.976.175.077.744-.393.904-.721.418-.855.709-1.771 1.129-2.867.692-.298.944-1.307.593-2.736-.272-1.109-.363-2.264-.568-3.391-.089-.491-.26-.966-.447-1.641.955-2.08.326-3.795-2.15-4.972 1.567-.29 1.441-1.27 1.28-2.34-.838-.004-1.726-.014-2.076-1.123.215-.111.398-.271.596-.297 1.036-.129 1.158-.548.474-1.303-.143-.158-.303-.415-.275-.599.231-1.516-.679-2.088-1.923-2.407l-1.329 1.397c1.189.641.008 1.204-.331 1.902l1.152.369c-.382.285-.668.621-.792.569-.528-.222-1.268-.144-1.36-1.066-.061-.614-.443-1.196-.742-1.943l1.088-.388c-.246-.208-.369-.397-.528-.432-1.052-.236-1.713-.879-2.348-1.752-.745-1.023-1.499-2.331-3.191-1.84l2.949 1.995-1.1 1.614-1.529-.865.349 1.959-.352.074-.425-.895-.882.229-.754-2.443 1.761.49v-2.169l-.419-1.072c.513-.131 1.073-.459 1.526-.348.752.184 1.434.651 2.186 1.019l-.571.843c.429.079.804.038.997.207.382.335.994.855.925 1.174-.201.941.372.854 1.274 1.136-.68-1.51-1.293-2.8-.482-4.212-1.114.805-1.653.155-2.178-.695l1.286-.645c-3.167-1.945-3.167-1.945-4.966-1.752.614-.299 1.37-.803 1.894-.625 1.055.359 1.819-.112 2.679-.425-.39-1.036-.246-1.299.676-1.241l.169-1.034.332-.011c.162.399.359.791.458 1.205.019.08-.347.251-.535.38l.348 2.287-1.003-.469-.28.291c.524.574.964 1.27 1.588 1.695 1.027.698.83 1.766.833 2.644.004 1.13.544 2.429 1.643 2.863" style="fill:#1d1d1b;fill-opacity:1;fill-rule:nonzero;stroke:none" transform="matrix(.35278 0 0 -.35278 72.555 36.223)"/><path d="m0 0-.564-.055.101-1.21c.194.029.557.058.557.085C.091-.786.039-.393 0 0m-5.951-79.288-.499.222-.547-1.019.418-.234.628 1.031m93.347 66.157c-.215-.485-.412-.731-.395-.962.011-.151.353-.415.504-.387.196.036.497.32.485.478-.016.226-.275.433-.594.871m12.01-43.76-.424.287-.791-1.168c.143-.089.401-.268.412-.254.283.366.541.753.803 1.135M-14.952-26.248l-.239-.499 1.384-.664.205.39zm-11.642-.708.212-.284c.296.198.656.345.862.613.118.151-.018.499-.04.758-.243-.214-.495-.419-.723-.648-.125-.125-.208-.292-.311-.439m-4.53-81.233c.849.689.663 1.221.343 1.756l-.343.005zm57.856 70.592.249-.401 1.648.854-.218.389-1.679-.842m63.952-22.786.15-.344c.751.316 1.503.63 2.254.945l-.173.396-2.231-.997m-132.699-53.725c.162.05.326.101.488.153l-.254 1.1a493.85 493.85 0 0 0-.649-.216l.415-1.037m33.323 84.133-.583.256-.481-1.302c.134-.041.364-.144.386-.111.244.373.456.768.678 1.157m-16.615-43.631.701 1.771c-.786-.286-1.53-.583-.701-1.771m-2.499 34.277c-1.073.087-1.404-.489-.896-1.622l.896 1.622m17.102-76.021-.144-.302c.407-.169.803-.414 1.226-.475.233-.033.513.242.771.379l-.098.262-1.755.136m-21.215 33.152c.135-.687.236-1.216.363-1.739.003-.01.32.056.49.086-.126.506-.251 1.011-.382 1.515-.005.019-.068.022-.471.138M89.635-12.535a56.36 56.36 0 0 1-.393-.098c-.053-.413-.14-.825-.144-1.238-.001-.175.176-.35.272-.525.172.108.496.224.49.322-.029.515-.141 1.026-.225 1.539M-17.826-112.624l.426-.491 1.006.953c-.145.131-.384.395-.42.37-.357-.25-.68-.548-1.012-.832m5.808.999-.535.261-.863-1.433c.276-.052.734-.225.798-.133.264.392.411.863.6 1.305m127.756 56.048-1.885-.605.106-.283 1.56-.222.219 1.11M35.236-34.714l-.233.485-1.97-.983.211-.436zM-8.253-92.236v1.748l-.508-.039c.049-.552.097-1.105.151-1.657.001-.008.067-.01.357-.052m86.541 17.649c.035-.077.071-.154.108-.23.496.037 1 .037 1.485.13.191.038.343.285.512.436-.205.121-.455.386-.605.338-.518-.166-1.003-.441-1.5-.674M47.97-107.12l.435-.221 1.134 2.224-.388.222c-.184-.867-1.343-1.15-1.181-2.225m44.299 41.137-.568-2.232.371-.161c.288.51.626 1.001.831 1.542.053.138-.312.435-.634.851M76.38-67.074l.189-.455 2.397 1.241-.129.32c-.921-.11-1.725-.519-2.457-1.106m-97.376 40.313.078-.175c.585.033 1.18.018 1.75.126.186.036.309.396.46.608-.214.098-.48.328-.633.267-.572-.223-1.106-.543-1.655-.826M-45.47-134.863l.332-.021c.614.781.659 1.59-.149 2.444l-.183-2.423m21.399 102.676-3.28.417a15.56 15.56 0 0 0-.015-.305c1.05-.571 2.781-.648 3.295-.112m-7.413-16.825.327.051.45 2.741c-.411-.369-.924-.61-.961-.91-.074-.61.107-1.253.184-1.882m10.454 7.764c-.747-.153-1.264-.203-1.242-1.141.013-.657-.367-1.323-.571-1.985l.321-.121 1.492 3.247M-77.573-7.553c.724-.599 2.031-.623 2.388-.089.127.191.089.705-.069.837-1.098.917-1.477-.392-2.319-.748M99.151-58.797c1.048.425 2.017.475 1.945 1.755-.004.077.83.362.297.759-.197.146-.959-.157-1.21-.463-.408-.495-.604-1.162-1.032-2.051m-3.382-6.588-.622 2.349c-.268-.294-.521-.529-.721-.804-.142-.194-.195-.452-.32-.662-.135-.229-.309-.436-.467-.653.288-.128.572-.35.865-.365.461-.023.929.093 1.265.135M-5.424-77.899c.382 1.914 2.433 2.964 2.528 5.027-1.076-1.556-2.84-2.754-2.528-5.027M-9.08-25.357l-.043.461c-1.202 0-2.409.059-3.603-.043-.29-.025-.535-.579-.8-.889.357-.148.95-.505 1.035-.409.853.955 2.022.24 2.955.637.158.068.305.162.456.243m-8.796-26.667c.755.535 1.498.803 1.529 1.137.066.708-.21 1.459-.417 2.171-.052.183-.358.362-.573.398-.112.018-.428-.358-.396-.416.444-.822-.204-1.286-.506-1.895-.123-.248.166-.699.363-1.395M78.1-55.726l.239-.461c.34.088.688.152 1.015.272.947.347 1.881.726 2.826 1.077 2.216.827 4.442 1.633 6.648 2.488.259.1.417.46.622.7-1.403-.265-2.625-.738-3.858-1.174-1.819-.645-3.529-1.573-5.544-1.685-.67-.037-1.3-.791-1.948-1.217M-22.785-28.972c-.678.411-1.33 1.09-2.042 1.159-.727.07-1.511-.458-2.425-.779l2.144-1.877-.837-.753c1.066-.677 2.791.593 3.16 2.25m107.82-26.043c-.057.114-.115.228-.174.341-.104.034-.226.122-.309.094-2.449-.824-4.894-1.659-7.339-2.495-.068-.024-.163-.07-.182-.126-.166-.496-.316-.997-.471-1.496.497.107 1.013.165 1.487.337.397.144.729.457 1.118.634.604.277 1.235.489 1.846.75a37.16 37.16 0 0 1 1.72.794c.773.38 1.537.778 2.304 1.167m-129.79-70.572.544.067c0 1.159-.038 2.319.022 3.474.02.408.176.907.451 1.187 1.367 1.388 1.389 1.369-.155 2.529-.204.153-.424.285-.633.425-1.228-1.585-1.228-1.585-.263-2.238-.783-1.269-.822-2.6-.359-2.88l.393-2.564M93.372-61.163l-.03.387c-.232.049-.49.192-.691.133a49.273 49.273 0 0 1-3.072-.992 445.441 445.441 0 0 1-7.263-2.703c-.879-.338-1.896-.474-2.441-1.441 4.752.86 8.975 3.162 13.497 4.616m-64.627 8.209.291-.329c2.458 1.6 4.957 3.14 7.352 4.831.977.689 2.238 1.239 2.558 2.719-3.911-1.831-7.291-4.208-10.201-7.221m6.932-60.963.4-.243 9.51 11.731c-.726-.226-1.321-.228-1.579-.525-1.118-1.286-2.104-2.689-3.203-3.992-1.173-1.389-2.42-2.715-3.667-4.107-.438-.856-.95-1.86-1.461-2.864m57.449 44.829-.222.441c-.165-.046-.353-.055-.492-.143-.708-.447-1.352-1.042-2.115-1.345-1.019-.403-2.151-.512-3.188-.879-1.794-.632-3.562-1.345-5.319-2.077-.328-.137-.556-.515-.829-.783l.289-.313c4.179 1.208 8.447 2.215 11.876 5.099m-53.929-50.536.425-.135c.989 1.202 1.985 2.397 2.963 3.608.62.767 1.259 1.525 1.805 2.343a198.078 198.078 0 0 1 3.367 5.265c.12.192.058.498.081.751-.24-.112-.564-.161-.707-.349-1.161-1.517-2.289-3.061-3.428-4.598-1.443-1.948-2.901-3.887-4.314-5.859-.184-.256-.134-.679-.192-1.026m6.088 69.114-.11.547c-.38-.028-.831.066-1.128-.107a36.725 36.725 0 0 1-2.909-1.914c-.358-.257-.612-.656-.927-.975-.365-.368-.708-.777-1.128-1.071-2.617-1.835-5.28-3.615-7.097-6.342-.119-.179-.082-.462-.117-.697.244.004.568-.093.72.027.645.512 1.236 1.092 1.853 1.638 1.616 1.427 3.181 2.92 4.875 4.246.795.622 1.75 1.002 2.145 2.049.094.247.391.447.636.604 1.053.678 2.123 1.332 3.187 1.995m2.472-.452a123.992 123.992 0 0 1-10.863-9.63c1.262-.278 2.222.039 2.972.708 1.019.906 1.843 2.03 2.858 2.941 1.148 1.031 2.362 2.009 3.646 2.864 1.312.872 1.662 1.422 1.387 3.117m-90.936-53.517c0 1.056-.008 1.965.003 2.875.007.674-.204 1.501.107 1.994.803 1.273.524 2.611.626 3.943.054.722.531 1.421.54 2.134.018 1.386-.15 2.774-.265 4.159-.018.212-.159.412-.244.618l-.291-.031c-.075-.993-.147-1.986-.228-2.98-.085-1.045-.11-2.102-.285-3.133-.235-1.393-.726-2.752-.86-4.15-.195-2.048-.146-4.118-.263-6.175-.02-.367-.344-.715-.634-1.28l.212-.461c-.406-.277-.923-.444-1.015-.744-.091-.295.19-.762.407-1.087.859-1.292.857-1.392-.243-2.498-.106-.106-.107-.317-.197-.608l1.022.174.216-.214c-.252-.276-.512-.544-.751-.829-.157-.188-.397-.408-.386-.601.009-.156.347-.283.52-.443.216-.201.555-.401.588-.636.064-.446-.071-.916-.089-1.378-.013-.337.029-.677.046-1.015.302.2.68.344.888.616.284.373.441.842.646 1.26-.91 1.217-.897 1.535.09 2.597-.224.321-.648.649-.637.963.039 1.134.094 2.297.387 3.384.328 1.213.444 1.182 1.381.601.086.069.173.136.26.203l-1.44 1.778 1.141.097.046.207-1.298.66m51.871-.007.218-.036c.456 1.286.92 2.57 1.366 3.86.282.815.591 1.627.791 2.463.215.896.303 1.821.47 2.73.101.55.2 1.108.383 1.633.306.875.632 1.75 1.04 2.581.269.55.818.976 1.035 1.536.863 2.226 1.645 4.483 2.458 6.727.026.069.066.136.106.198 1.021 1.597 2.041 3.194 3.067 4.788.387.6.83 1.167 1.164 1.793.138.26.092.642.045.954-.012.072-.481.197-.552.121-.886-.933-2.139-1.465-2.67-2.805-.551-1.393-1.357-2.686-2.053-4.021-.474-.907-1.03-1.78-1.412-2.723-.742-1.833-1.297-3.745-2.095-5.551-.854-1.934-1.645-3.849-1.856-5.988-.125-1.267-.518-2.505-.75-3.765-.275-1.494-.505-2.996-.755-4.495m15.342-12.388c.054-.074.108-.147.161-.222.504.188 1.031.332 1.507.573.815.41 1.781.715 2.359 1.358 1.471 1.636 2.751 3.442 4.129 5.163.886 1.106 1.877 2.131 2.706 3.276 1.282 1.774 2.403 3.666 3.71 5.42 1.181 1.585 2.915 2.854 2.54 5.377l-3.118-3.479 1.12.258c-.46-.634-.663-1.658-1.803-1.074-.157.08-.64-.111-.696-.272-.173-.498-.213-1.042-.28-1.422-.322-.08-.82-.057-.978-.277-.26-.364-.298-.884-.431-1.339-.421-1.012-.965-1.99-1.517-2.965a2.785 2.785 0 0 0-.38-.543c-1.167-1.235-2.371-2.436-3.502-3.702-.667-.747-1.075-2.038-1.862-2.302-1.567-.526-1.813-2.129-2.973-2.904-.302-.202-.465-.611-.692-.924m-62.79 40.413c.56 1.2-.134 2-.697 2.849l1.606 1.425-1.453 1.918.246.231 1.196-.278.921 1.184-.489.832h1.357l-1.126.947 1.249.802-.281 2.048-2.258.192.033.401c.38-.041.767-.149 1.139-.109.86.094 1.931-.005 2.503.471.569.472.514 1.533-.377 2.117l.751.572c-.071.578-.315 1.168-.139 1.349 1.341 1.38 2.061 3.036 2.426 4.885l-.592.457c.403.272.72.484 1.048.704l-.981 1.24h1.082l.663 1.221c-.095.125-.383.327-.391.54-.04 1.089-.508 1.092-1.373.742-.497-.2-.988-.017-.719.781.169.502.168 1.061.272 1.808.095.107.427.384.614.737.082.155-.136.466-.217.706-.412-.283-.935-.486-1.209-.868-.33-.458-.448-1.068-.7-1.721.479-.483.546-.833-.109-1.626-.667-.809-2.076-1.603-1.392-3.129.017-.04-.067-.125-.139-.254l-1.094.164c.479-1.745-.065-3.117-1.262-4.272l.58-.709-.931-3.145-.331.065c.33-.725.726-1.458-.376-1.85-.12-.043-.208-.318-.225-.492-.079-.85-.099-1.705-.196-2.552-.132-1.149-.254-2.302-.486-3.432-.345-1.678-1.641-3.126-1.183-5.011.1-.409.008-.863.004-1.296.317.338.631.677.955 1.007.034.035.134.005.593.005l-2.024-2.621.205-.127.817.47.223-.139-1.287-3.866.934-.358c-.23-.258-.445-.434-.573-.659-.189-.33-.409-.685-.444-1.046-.054-.569.046-1.151.06-1.728.014-.618.003-1.236.003-1.928.943.488.857.605.963 1.658.143 1.43.522 2.837.8 4.253l.37-.054.257-1.356c.279.795.309 1.539.686 1.822.869.651.501.813-.2 1.093-1.022.408-1.077.814-.382 1.744.142.19.115.524.121.793.007.33-.033.662-.066 1.221l1.025-.828m97.888 30.857.309-.38c-.442-.459-.823-1.008-1.337-1.362-1.869-1.287-3.805-2.478-5.67-3.769-.986-.682-1.78-1.718-2.84-2.189-1.1-.488-1.831-1.21-2.509-2.1-.089-.116-.245-.176-.356-.278-1.528-1.39-3.053-2.785-4.579-4.178l.181-.396c.376-.036.761-.146 1.125-.097 2.82.387 5.636.802 8.452 1.216.257.038.509.121.758.2 1.128.362 2.238.794 3.385 1.081 1.763.439 3.556.757 5.327 1.171 1.24.291 2.489.587 3.684 1.02.543.197 1.151.635 1.407 1.13.735 1.424 1.325 2.924 1.93 4.41.217.534.227 1.161.484 1.668.903 1.784 1.279 3.527.705 5.574-.687 2.442-2.136 3.986-4.425 4.798-3.172 1.126-6.421.589-9.646.273-.226-.022-.492-.312-.597-.542-.044-.096.247-.458.448-.534 1.012-.382 1.67-.985 2.024-2.081.326-1.01.967-1.919 1.667-3.246.03-.759-1.961-.74-1.669-2.23l1.742.841m-44.21-71.166c-1.225.513-2.182.082-2.163-.891.004-.208.437-.618.529-.581 1.282.517 2.675.909 3.77 1.704 1.604 1.166 2.939 2.684 4.362 4.08 1.533 1.504 3.224 2.822 4.317 4.721.085.147.29.31.446.316.946.039 1.313.774 1.784 1.402.71.95 1.426 1.895 2.163 2.823.84 1.055 1.658 2.133 2.57 3.122 1.221 1.325 2.567 2.534 3.771 3.871.737.818 1.236 1.85 1.972 2.669 1.192 1.324 2.659 2.43 3.7 3.853 1.106 1.515 2.127 3.034 3.601 4.256 1.656 1.372 1.535 1.799-.456 2.439-2.001.642-4.028 1.202-6.042 1.803-3.202.956-6.394 1.949-9.612 2.849-.697.194-1.802.39-2.169.027-1.185-1.172-2.14-2.583-3.124-3.944-.3-.415-.327-1.024-.619-1.449-1.493-2.174-2.603-4.511-3.29-7.061-.192-.709-.578-1.365-.869-2.049-.417-.983-.86-1.957-1.234-2.957-.222-.593-.318-1.233-.492-1.846-.65-2.298-1.312-4.593-1.961-6.892-.039-.14.014-.303-.015-.448-.17-.898-.303-1.807-.56-2.679-.068-.228-.532-.339-.844-.52-.483 1.368-.915 2.555.192 3.148.125.975.166 1.646.303 2.297.367 1.74.786 3.471 1.158 5.211.068.317-.084.695.025.986a99.615 99.615 0 0 0 1.767 4.48c.774 1.811 1.63 3.587 2.389 5.403.165.397.067.903.1 1.531.959.399 1.698 1.138 1.591 2.491-.023.297.304.71.58.93 1.583 1.267 1.239 3.237 1.796 4.953-.771-.384-1.615-.777-1.995-1.437-.936-1.63-1.655-3.384-2.474-5.081-.093-.193-.269-.345-.41-.511-.373-.437-.861-.819-1.096-1.321-.393-.841-.574-1.779-.937-2.636-.614-1.452-1.411-2.834-1.925-4.317-.554-1.603-.842-3.295-1.308-4.931-.167-.583-.533-1.106-.775-1.671-.15-.352-.313-.727-.338-1.101-.057-.816.116-1.673-.068-2.452-.32-1.354-.844-2.661-1.268-3.992-.042-.131.013-.294.026-.441.162-1.851.39-3.699.461-5.553.039-1.035-.183-2.08-.287-3.124.885-.443.995-.408 1.747.462-.266.651-.684 1.219-.686 1.787-.002.953.235 1.912.427 2.856.065.314.255.64.48.871.211.215.67.505.797.421.262-.171.528-.569.53-.876.009-2.063-.044-4.128-.099-6.193-.006-.244-.139-.484-.238-.808M3.211-65.056c.174.505.247 1.082.545 1.499.626.878 1.385 1.661 2.056 2.509.153.193.17.492.25.742l-.293.191c-1.144-1.21-2.289-2.419-3.428-3.634-.045-.048-.028-.148-.059-.217a17.033 17.033 0 0 0-3.208-4.797c-.846-.895-1.367-2.04-1.565-3.552 1.179 1.626 2.145 3.035 3.194 4.38.786 1.008 1.679 1.935 2.524 2.898-.14-.547-.145-1.186-.445-1.623-.898-1.311-1.926-2.532-2.874-3.812-.356-.48-.636-1.019-.943-1.536-.725-1.218-1.494-2.412-2.153-3.666-.536-1.023-.943-2.116-1.394-3.183-.562-1.33-1.145-2.652-1.655-4a128.883 128.883 0 0 1-2.059-5.801c-.088-.271.255-.68.398-1.026.184.324.457.627.535.975.154.686.066 1.447.316 2.084.602 1.535 2.05 2.571 2.353 4.363.233 1.383.989 2.679 1.532 4.005.299.733.593 1.474.97 2.167.97 1.79 1.983 3.558 2.988 5.329.147.26.337.497.513.74 1.111 1.53 2.209 3.07 3.346 4.581.346.46.801.838 1.208 1.253.389.395.844.747 1.137 1.203.118.183-.117.594-.192.902-.246-.1-.541-.144-.728-.31-.972-.871-1.916-1.772-2.869-2.664m-.698-26.06c.949.231.808 1.042.936 1.725.087.468.174.956.379 1.378.471.971 1.052 1.889 1.517 2.862.453.946.759 1.964 1.235 2.898.64 1.256 1.414 2.442 2.068 3.692.776 1.484 1.407 3.048 2.25 4.49.555.946 1.438 1.696 2.044 2.619.227.344.087.929.114 1.403-.459-.149-.944-.249-1.365-.471-.192-.101-.237-.459-.387-.671-.358-.505-.772-.972-1.104-1.492-.617-.964-1.491-1.891-1.719-2.949-.366-1.705-1.191-3.051-2.233-4.354a6.322 6.322 0 0 1-.884-1.508c-.711-1.722-1.284-3.505-2.077-5.186-.681-1.443-1.039-2.876-.756-4.451-.385-.264-1.076-.501-1.105-.8-.108-1.122.002-2.263.029-3.398l.603-.029.455 4.242m-34.669-27.447c-.256-.989-.647-1.965-.738-2.969a35.835 35.835 0 0 1-.097-4.838c.047-1.062.353-2.11.532-3.167.021-.126-.03-.265-.209-.409l-.246 1.865-.362.005c-.297-1.157-.822-2.31-.384-3.549.584-1.654.081-3.187-.338-4.745a554.3 554.3 0 0 0-1.505-5.514c-.161-.576-.424-1.125-.557-1.706-.084-.367-.031-.772.012-1.155.006-.05.422-.15.48-.082.269.314.501.669.705 1.031.145.258.209.56.34.826.11.226.342.415.386.646.389 2.054.681 4.129 1.135 6.168.529 2.377 1.229 4.716 1.791 7.087.645 2.721 1.031 5.481.97 8.289-.006.263-.03.549.055.787.206.569.391 1.052.202 1.74-.276.999-.244 2.079.559 2.959.125.138.087.434.106.657.28 3.364.519 6.732.849 10.09.208 2.125.234 4.347.921 6.323.721 2.072.305 4.172.818 6.207.204.81-.242 1.888.139 2.529 1.356 2.279.528 5.044 1.837 7.329.391.68.102 1.719.277 2.56.38 1.823.878 3.62 1.29 5.437.206.911.283 1.851.498 2.76.237 1.002-.006 2.011.863 3.008 1.095 1.255.403 3.355 1.588 4.77.175.21-.154.793-.01 1.087.282.578.732 1.075 1.185 1.704-.03.035-.297.217-.273.343.09.476.275.935.426 1.4.33-.276.886-.514.94-.838.099-.584-.079-1.222-.185-1.831a18.26 18.26 0 0 0-.436-1.978c-.137-.48-.287-.999-.587-1.378-.447-.565-.622-1.02-.242-1.724.254-.472.279-.973-.391-1.468-.499-.369-.696-1.276-.833-1.982-.306-1.578-.455-3.187-.741-4.77-.149-.827-.473-1.621-.686-2.437-.521-1.988-1.023-3.982-1.533-5.972-.019-.072-.091-.169-.067-.21.908-1.491-.588-2.801-.326-4.295.114-.655-.535-1.411-.673-2.152-.221-1.196-.29-2.42-.453-3.629-.09-.666-.288-1.318-.355-1.985-.236-2.343-.038-4.824-.768-6.996-.679-2.021-.592-4.076-1.119-6.064-.238-.898-.18-1.872-.286-2.808a836.903 836.903 0 0 0-.943-8.033c-.256-2.075-.552-4.146-.821-6.22-.24-1.858-.203-3.801-.758-5.558-1.034-3.269-1.175-6.719-2.24-9.967-.091-.277-.049-.825.121-.925 1.025-.605.462-1.323.223-2.267l-.586 1.409-.421.068-1.902-6.306a77.66 77.66 0 0 1-.516.14c.385.957-.608 2.184 1.17 3.055-.712.33-1.204.755-1.609.683-.303-.055-.626-.721-.708-1.159-.212-1.138-1.357-2.18-2.362-1.961-.111-.259-.226-.527-.342-.793l-.175.004v5.025l-.412.042-.61-3.736c-1.022.302-1.193-.338-1.008-1.106.166-.687.192-1.201-.501-1.611-.158-.093-.122-.515-.175-.786-1.625.403-1.805.68-1.737 2.163.07 1.546.09 3.096.052 4.643-.008.295-.391.58-.601.869-.177-.315-.474-.618-.512-.949-.177-1.558-.28-3.126-.421-4.688-.009-.092-.125-.174-.187-.253-.095.015-.218.006-.232.042-.546 1.309-1.839 2.239-1.865 3.822-.049 2.879-1.01 5.595-1.543 8.388-.329 1.719-.34 3.5-.521 5.25-.135 1.308-.484 2.619-.425 3.915.066 1.412-.406 2.9.403 4.253.105.177.16.46.1.651-.821 2.628-.316 5.318-.391 7.981-.061 2.14-.105 4.285-.058 6.425.042 1.975.223 3.947.328 5.92.054 1.015.01 2.039.129 3.046.258 2.177.605 4.343.889 6.517.092.71.112 1.429.146 2.145.12 2.453.18 4.91.37 7.359.083 1.067.422 2.115.656 3.169.073.329.205.645.265.975.34 1.844.687 3.686.988 5.535.143.878.146 1.779.29 2.657.179 1.096.457 2.175.655 3.269.119.657.203 1.324.238 1.99.065 1.234.239 2.406 1.255 3.271.138.117.308.301.31.456.019 1.277.554 1.999 2.099 1.712l.002.336-1.079 1.178c1.155.353 1.119 1.165.812 2.233-.149.518.07 1.254.354 1.761.584 1.037 1.143 2.04.91 3.369l.542-.045.526 1.949c-.744 1.607-.337 2.777 1.795 4.651-.472.786-.268 2.093.428 2.864.224.248.584.539.576.801-.042 1.582.668 2.905 1.319 4.256.081.168.092.402.217.513.943.836 1.044 2.106 1.643 3.116.58.979 1.166 1.954 1.71 2.952.412.756.547 1.682 1.568 2.01.174.055.346.875.188 1.059-.467.546-.14.832.12 1.272.583.989 1.073 2.031 1.618 3.042.121.226.342.398.463.623.218.407.396.835.59 1.254-.402.15-.812.446-1.205.426-3.233-.169-6.461-.414-9.694-.592-.655-.035-1.32.128-1.982.182-.246.019-.524.054-.74-.034-1.082-.448-2.131-.238-3.036.335-.866.545-1.486.662-2.035-.324-.037-.066-.202-.061-.464-.131l-.152 1.339c-.869-.246-1.704-.556-2.566-.698-.527-.087-1.097.103-1.649.14-.339.023-.698.052-1.022-.027-.433-.104-.84-.312-1.258-.475l.697 1.162-.288.204-2.126-1.167.082-.181h1.658c-1.199-.746-2.132-.709-2.866-.024-.761-.159-1.4-.428-2.025-.399-2.024.096-4.048.269-6.064.479-1.129.117-2.243.379-3.368.541-.124.019-.271-.255-.424-.276-.368-.051-.751-.079-1.118-.031-.405.055-.852.121-1.188.33-1.464.916-3.118.202-4.629.607-.423.114-.809.364-1.218.29-.512-.023-1.025-.029-1.535-.074-1.185-.103-2.373-.181-3.548-.351-1.079-.156-2.092-.489-2.939.665-.454.618-1.212.369-1.853-.02-.731-.445-1.513-.671-2.382-.166 1.224.565 2.573.854 3.441 2.142-2.213-.524-4.238.412-6.402.473l4.019 2.107-.198.493c-1.056-.308-2.111-.62-3.167-.923-.351-.1-.703-.232-1.062-.255-.579-.038-1.17-.051-1.743.022-.515.066-1.224.105-1.47.436-.388.52-.462 1.249.233 1.8.907.719 1.678 1.434 3.037 1.482 1.766.062 3.53.556 5.266.977.748.181 1.537.517 2.114 1.009 1.71 1.459 3.885 1.549 5.87 2.194.097.031.169.135.309.255-.459.957-1.317.551-1.956.51-1.616-.102-3.225-.329-4.834-.538-.225-.029-.441-.217-.637-.363-.341-.256-.622-.64-.999-.789-1.117-.443-2.293-.999-3.041.613-.1.213-.498.287-.851.475-.275-.406-.475-.822-.784-1.123-.34-.33-.759-.735-1.185-.789-.863-.111-.711-.466-.402-.922-.402-.258-.758-.543-1.161-.725-.282-.127-.628-.112-.945-.16-.019.352-.164.761-.033 1.043.322.692.769 1.327 1.168 1.983.039.064.108.173.143.166 1.268-.25 1.525.925 2.201 1.519.155.137.516.071.777.049.704-.062 1.434-.31 2.102-.192 1.003.178 1.462.196 2.212-.496.407.781 2.387.817 1.026 2.502l1.518-.677-.631 1.448c3.344 1.005 6.658 2.167 10.059 2.969 2.724.642 5.549.869 8.335 1.239 1.75.232 3.512.375 5.266.586 1.34.161 2.671.465 4.014.531 3.091.152 6.189.132 9.277.304 3.866.214 7.726.547 11.588.84 1.609.124 3.223.449 4.822.383 2.149-.086 4.223.391 6.337.499.625.033 1.266-.207 1.889-.166 3.027.2 6.048.491 9.076.673 2.824.172 5.653.262 8.481.361 1.397.049 2.798-.002 4.193.07.855.045 1.702.248 2.555.363.41.056.826.104 1.239.101 2.588-.02 5.179-.138 7.763-.056 2.126.067 4.245.388 6.37.555.974.077 1.958.043 2.937.079 2.849.104 5.696.241 8.546.312.703.018 1.414-.26 2.117-.239 3.841.114 7.681.316 11.522.415 2.59.066 5.181.013 7.856.013v-.911c3.059 1.676 6.254.488 9.336.749 1.35.115 2.721-.046 4.078.002.737.026 1.475.368 2.198.327 2.167-.122 4.326-.403 6.493-.548 2.936-.196 5.877-.348 8.817-.478 2.601-.114 5.209-.086 7.803-.279 2.839-.212 5.667-.579 8.494-.927 3.218-.395 6.434-.803 9.64-1.287 1.617-.244 3.207-.668 4.808-1.011.111-.023.221-.055.332-.073 1.836-.293 3.672-.582 5.507-.876.224-.036.481-.033.659-.147 1.528-.982 3.299-.827 4.975-1.126.651-.116 1.287-.382 1.896-.656.94-.422 1.847-.917 2.775-1.37 1.903-.926 3.844-1.781 5.701-2.794.963-.525 1.787-1.309 2.654-2.001 1.465-1.171 2.214-2.818 2.913-4.49a.987.987 0 0 0 .091-.437c-.08-1.098-.085-1.097.511-1.469.094-1.697.18-3.258.264-4.818.012-.221.106-.536-.003-.647-.727-.743-.436-1.329.063-1.697-.206-1.022-.35-1.89-.562-2.739-.242-.972-.58-1.919-.81-2.892-.242-1.019-.388-2.06-.61-3.085-.164-.755-.211-1.508-.263-2.274-.05-.733-.664-1.426-1.023-2.14-.691-1.378-1.358-2.769-2.073-4.135-.466-.888-.845-1.9-1.54-2.568-.86-.829-.379-2.386-1.723-2.843-.202-1.943-1.901-3.065-2.611-4.735-.162-.38-.518-.831-.881-.946-1.832-.579-2.863-2.042-3.994-3.41-.046-.056-.101-.159-.145-.155-.889.076-1.55-.386-2.222-.874-.262-.19-.623-.244-.939-.36l.878-.75c-2.078-.224-3.117-1.804-4.415-3.03l.012-.015c-.341.612-.75.74-1.493.563-.759-.179-1.626-.057-2.409.109-.258.054-.4.659-.681 1.17-.188-.116-.613-.233-.706-.475-.077-.205.171-.617.384-.828.252-.249.648-.345.931-.57.352-.281.912-.632.905-.942-.008-.361-.471-.835-.853-1.024-.279-.138-.827-.008-1.114.199-.535.385-1.012.875-1.435 1.388-1.118 1.356-2.649 1.42-4.366 1.654l.391-1.105c-1.216.188-1.959-.206-2.137-1.42-.032-.22-.524-.369-.798-.561-.541-.38-1.324-.648-.593-1.564-1.073-.001-2.263-1.011-2.713-2.336l3.804 1.715c.028-.081.054-.163.081-.244l1.135.689.159-1.472c.218.061.643.313.82.194.243-.161.506-.755.4-.903-.792-1.101-1.334-2.387-2.686-3.061-2.387-1.19-4.696-2.537-7.055-3.784a17.651 17.651 0 0 0-2.357-1.024c-2.071-.733-4.183-1.354-6.232-2.142-1.984-.763-3.901-1.697-5.863-2.52-.712-.299-1.467-.496-2.274-.764-.074.121-.161.393-.346.534-.211.161-.529.313-.765.271-.171-.029-.416-.392-.402-.59.087-1.228-.502-1.466-1.132-1.243l-2.728-1.517.046-.248c.773.097 1.567.109 2.312.31 1.337.361 2.645.831 3.962 1.267 2.886.957 5.809 1.818 8.64 2.919 1.908.742 3.607 2.074 5.543 2.678 1.415.44 2.481 1.261 3.692 1.938.225.126.738-.262 1.118-.414l.012.018-.73-.895a8.63 8.63 0 0 0 .137-.067c-1.771-1.07-3.476-2.272-5.329-3.173-1.831-.89-3.802-1.494-5.724-2.189a105.814 105.814 0 0 0-4.338-1.469c-2.043-.643-4.099-1.246-6.151-1.857-2.34-.698-4.679-1.401-7.029-2.066-.717-.203-1.488-.226-2.2-.445-1.241-.381-2.693-.567-3.621-1.351-1.205-1.017-2.026-2.511-2.93-3.857-.685-1.02-1.255-2.118-1.849-3.196-.43-.781-.759-1.62-1.235-2.369-.742-1.167-1.722-2.205-2.329-3.432-1.209-2.447-2.884-4.56-4.466-6.743-1.136-1.569-2.391-3.054-3.501-4.642-.655-.938-1.128-2.005-1.681-3.016-.461-.84-.717-1.76-1.907-2.069-.537-.139-.925-1.016-1.289-1.614-.781-1.289-1.463-2.639-2.257-3.919-1.135-1.834-2.324-3.635-3.513-5.434-.31-.468-.72-.867-1.063-1.314-.251-.327-.469-.68-.702-1.022l.248-.219c.595.487 1.287.894 1.768 1.475 2.005 2.418 4.107 4.778 5.87 7.367 2.229 3.273 4.147 6.756 6.231 10.129.549.89 1.234 1.696 1.828 2.56 1.483 2.159 2.948 4.33 4.426 6.493.033.049.129.054.481.185-.401-.88-.681-1.6-1.046-2.272-.663-1.22-1.376-2.412-2.074-3.613-.091-.157-.211-.42-.326-.425-1.233-.05-1.12-.969-1.225-1.783-.036-.285-.141-.693-.346-.804-1.733-.943-1.699-3.02-2.844-4.349-.872-1.008-1.578-2.163-2.324-3.274-1.063-1.586-2.093-3.194-3.144-4.789-.951-1.444-1.876-2.909-2.882-4.314-.52-.725-1.221-1.317-1.784-2.013-.65-.803-1.202-1.686-1.862-2.481-1.488-1.793-3.017-3.551-4.528-5.326-.315-.37-.616-.752-.939-1.114-.196-.22-.457-.617-.625-.586-1.281.234-1.615-.654-2.096-1.527-.62-1.125-1.68-1.655-3.041-1.71.142-.843-.273-.991-.992-.766-.202.063-.449.048-.661.002-2.074-.453-3.387.341-3.749 2.282-.102.034-.204.07-.305.105-.218-.73-.802-1.93-.585-2.099.668-.517 1.642-.64 2.58-.942-.342-1.718-1.563-.966-2.841-.329l.394-1.315c-3.394-.938-6.764-.918-10.047.421-.314-.794-1.551-1.344-2.225-1.178-.437.108-.906.203-1.348.161-1.036-.098-2.032-.327-3.087.104-.683.278-1.506.188-2.25.344-.641.133-1.295.302-1.878.588-1.733.847-3.435 1.759-5.146 2.65-.166.086-.353.172-.466.311-.882 1.079-1.669 2.248-2.641 3.237-1.043 1.062-2.216 2.009-3.401 2.917-1.653 1.266-2.432 3.121-3.44 4.829-.342.58-.703 1.147-1.054 1.722-.134.219-.322.427-.385.667-.575 2.162-1.016 4.366-1.712 6.486-.889 2.706-.891 5.522-1.044 8.276-.156 2.81.347 5.658.583 8.487.162 1.946.285 3.9.567 5.83.177 1.209.615 2.381.944 3.567.049.18.153.345.204.525.892 3.112 1.735 6.239 2.688 9.333.478 1.547 1.054 3.084 1.766 4.538 1.159 2.367 2.477 4.656 3.706 6.991.455.865.839 1.766 1.263 2.647a12.363 12.363 0 0 0 2.206 3.213c1.218 1.284 2.006 2.973 3.021 4.46.23.337.621.569.95.833.142.113.369.149.468.284C-.69-59.74.106-58.43 1.082-57.27c.956 1.138 2.12 2.098 3.134 3.191 1.335 1.438 2.82 2.799 3.858 4.435 1.247 1.968 2.581 3.765 4.366 5.281 1.126.956 1.914 2.309 3.04 3.264 1.249 1.06 2.683 1.912 4.086 2.774a64.358 64.358 0 0 0 4.388 2.46c.989.506 2.043.893 3.088 1.28 2.178.805 4.348 1.642 6.561 2.339 2.462.776 4.948 1.514 7.466 2.078 1.866.418 3.795.565 5.702.773 2.512.274 5.026.622 7.545.687 2.012.052 4.035-.272 6.052-.43.151-.011.303-.05.45-.035 3.827.404 6.894-1.493 9.943-3.353.695-.425 1.177-1.22 1.71-1.884 1.327-1.653 3.325-2.769 3.87-5.065.179-.753.995-1.355 1.166-2.107.4-1.756 1.472-3.346 1.204-5.278-.147-1.059-.026-2.154-.026-3.418.452.049.865 0 1.192.145 1.751.78 3.49 1.59 5.215 2.427 1.234.6 2.391 1.252 3.778 1.631 1.531.418 2.816 1.707 4.237 2.566 1.372.828 2.792 1.573 4.167 2.394.866.516 1.619 1.295 2.54 1.624 2.308.824 3.883 2.704 5.941 3.886 1.326.761 2.415 1.93 3.631 2.89.281.223.684.293.966.517.504.402 1.061.809 1.374 1.344.092.161-.475.943-.879 1.116-1.791.764-3.625 1.431-5.46 2.089-.526.188-1.199.078-1.644.358-2.135 1.342-4.666 1.133-6.949 1.876-1.644.536-3.317.983-4.989 1.431-.579.155-1.187.211-1.785.28-2.76.322-5.515.685-8.282.933-3.525.316-7.063.485-10.588.812-2.237.208-4.453.656-6.689.876-2.517.248-5.044.386-7.569.523-3.917.213-7.834.446-11.755.555-2.902.081-5.808-.009-8.712-.041-3.539-.04-7.079-.161-10.618-.128-1.822.018-3.641.406-5.462.42-1.764.013-3.527-.286-5.293-.365-3.383-.152-6.77-.234-10.154-.368-1.37-.055-2.737-.167-4.105-.266-.965-.07-2.341-1.393-2.681-2.281-.232-.611-.776-1.102-1.181-1.646l-.344.163.27 1.164c-.684-.259-1.406-.538-2.131-.807-1.108-.411.004-1.166-.364-1.664h2.295c-1.031-.313-1.366-.676-.531-1.548.15-.157.235-.557.143-.737-.855-1.658-1.777-3.281-2.631-4.938-.265-.514-.328-1.13-.584-1.65-.487-.989-.991-1.979-1.613-2.881-.155-.226-.792-.119-1.268-.172l.069-.876 1.098-.451c-.414-.5-.818-1.008-1.251-1.489-.071-.079-.275-.038-.458-.058.827-1.523-.323-2.653-.689-3.892-.334-1.129-1.157-2.118-1.462-3.25-.468-1.741-1.484-3.137-2.36-4.646-.607-1.048-.913-2.271-1.375-3.472l-.733.608.017-.015-.419.87.136 2.639-1.715-.96 1.262-.451c-.821-.557-1.467-.999-2.117-1.435-.642-.43-1.29-.851-1.886-1.244l.987-2.856c-.414.122-.702.206-.774.226-.295-.74-.385-1.68-.846-1.928-.49-.263-1.333.128-2.022.234l.057.288c.371.18.74.361 1.109.542l-.047.293-3.195.371.016.267h1.33v1.934c.12.018.417.064.755.114-.064.164-.087.274-.144.361-.608.921-.668 1.697-.084 2.805.853 1.619 1.006 3.492.594 5.347-.059.27.034.575.056.863l-.293.116c-.28-.772-.56-1.543-.862-2.38l-1.009.226c-.484-1.147-.93-2.201-1.409-3.339l.67-.261-2.378-2.9.113-.233 1.515.458c-.668-.922-1.251-1.663-1.764-2.45-.543-.832-1.356-1.546-.744-2.79.398-.808.235-1.721-.928-2.176 1.131-.994.732-1.839-.031-2.734-.299-.349-.411-.882-.536-1.351-.364-1.357-.781-2.709-.986-4.092-.072-.496.406-1.074.631-1.615l.312.027c-.456-.875-.878-1.77-1.376-2.621-.658-1.125-.62-2.343-.611-3.572.004-.521-.071-1.043-.13-1.82-.103-.405-.13-1.041-.42-1.517-.319-.523-.619-.76-.222-1.52.312-.595-.037-1.61-.259-2.392-.228-.809-.185-1.555-.161-2.38.036-1.235-.493-2.485-.77-3.684.085-.709.282-1.47.243-2.219-.073-1.409-.495-2.828-.376-4.208.115-1.332.02-2.3-1.549-2.8 1.324-.541.911-1.451.797-2.277-.171-1.238-.335-2.479-.545-3.712-.107-.626-.412-1.23-.444-1.854-.113-2.152-.095-4.312-.223-6.463-.119-2.009-.381-4.009-.541-6.016-.101-1.268-.106-2.544-.195-3.814-.12-1.675-.264-3.347-.427-5.018-.076-.779-.251-1.548-.328-2.328a432.373 432.373 0 0 1-.734-7.959c-.062-.783.015-1.58.075-2.366.015-.179.209-.458.354-.481.157-.026.453.156.514.315.161.417.292.866.322 1.311.235 3.536.393 7.079.679 10.611.185 2.295.529 4.578.836 6.862.198 1.473.552 2.929.669 4.406.126 1.614-.034 3.251.097 4.865.237 2.909.618 5.805.894 8.712.144 1.521.15 3.055.294 4.576.259 2.756.564 5.507.871 8.257.221 1.985.44 3.971.733 5.947.126.847.502 1.655.649 2.502.138.8.065 1.638.204 2.437.077.441.4.838.731 1.49-.702 1.823-.132 3.817.796 5.781.188.397.304.839.389 1.272.428 2.169.756 4.362 1.278 6.507.388 1.594.963 3.152 1.566 4.681.403 1.023.961 1.993 1.541 2.931.136.22.716.392.956.285 1.039-.47 2.028-1.052 3.272-1.721l-2.115-.995c.697-.567 1.511-.985 1.931-1.651.296-.468.058-1.274.058-1.929l-.316-.094-.542.998c-.341-.612-.762-1.209-.979-1.873-.056-.173.524-.555.944-.771.427-1.196-1.224-.791-1.498-1.692 1.037-.067 1.092-.722.904-1.472-.21-.833-.513-1.645-.684-2.485-.145-.716-.079-1.477-.258-2.182-.197-.782-.162-1.949-1.62-1.484-.104.033-.441-.663-.67-1.019l.293-.234.832.152c.045-.124.122-.23.114-.327-.059-.591-.113-1.186-.212-1.772-.358-2.108-.379-4.362-1.191-6.28-.985-2.329-.344-4.703-.9-7-.453-1.875-.671-3.808-.954-5.721-.082-.555.039-1.14-.05-1.691-.276-1.718-.66-3.42-.907-5.142-.287-2.004-.471-4.023-.71-6.034-.015-.126-.12-.242-.429-.349l-.154 2.705c-.535-.342-1.191-5.073-.921-6.15l.84.684v-2.615l-1.038.945.224-1.608z" style="fill:#1d1d1b;fill-opacity:1;fill-rule:nonzero;stroke:none" transform="matrix(.35278 0 0 -.35278 141.059 1.974)"/><path d="m0 0-.186-.354c.258-.15.514-.413.774-.417.254-.003.512.257.767.402l-.1.31L0 0m17.259-11.885-2.055 1.071c.799-1.337 1.007-1.457 2.055-1.071M55.665 7.211l.095-.599c.511.123 1.023.242 1.527.386.02.006-.038.374-.044.374-.528-.041-1.053-.101-1.578-.161M34.717-80.546c-1.277.193-1.378-.433-1.451-1.086l.297-.274 1.154 1.36M60.999 19.548l-.806 2.493c-.89-.947-.812-1.209.806-2.493M46.234-99.127l.371.086.18 2.046-1.455-.938.904-1.194M58.959 19.85c-.311-.771-.518-1.249-.693-1.739a1.357 1.357 0 0 1-.076-.607c.01-.071.251-.182.364-.159.744.15 1.259.491 1.228 1.381-.028.789-.355 1.153-.823 1.124m17.9-74.583c-.773.842.455 2.202-.805 3.001-.768-1.823-.557-2.721.805-3.001M29.36-79.028c1.129.392 1.927 1.784 3.451.068l-.313 1.771c-.692 0-1.477.232-1.91-.059-.556-.374-.831-1.168-1.228-1.78M45.257 4.201l-.542-.069.901-5.656.82.426-1.179 5.299m-54.13 37.248c1.66 1.861 2.105 3.71 1.158 5.068-.049-1.804-2.301-2.982-1.158-5.068m9.879 5.535-1.375 1.238a30.165 30.165 0 0 1-.237-.145l.498-1.177c-1.359-1.38-2.375-5.723-1.61-7.187l2.724 7.271m74.46-92.251c.07-.013.55.025.659-.158.566-.95 1.009-1.972 1.55-2.938.491-.876 1.054-1.713 1.585-2.568l.461.261c-.319.626-.709 1.227-.943 1.882-.964 2.703-2.471 5.094-4.133 7.402-.257.358-.501.727-.712 1.113-.829 1.518-1.883 2.83-3.526 3.667l3.185-5.165c-.226.038-.441.072-.954.155l1.603-2.852c.121.389-.022.649-.086.926-.072.314-.073.646-.105.97l.276.097 1.14-2.792M-16.51 46.348l.578-.936c.313.23.671.417.929.697.326.355.498.873.861 1.165 1.75 1.406 2.185 3.416 2.574 5.446.027.143-.49.542-.514.522-1.088-.872-2.42-1.604-3.14-2.726-.732-1.144-.858-2.675-1.288-4.168m86.907-93.353c-.066-.39-.278-.859-.177-1.247.122-.472.487-.891.784-1.307.734-1.026 1.179-2.399 2.693-2.555.403-.041.841.252 1.262.391-.257.339-.494.698-.779 1.011-.231.254-.605.402-.773.684-1.65 2.758-3.251 5.548-4.914 8.299-.416.687-1.005 1.27-1.414 1.776l-1.092-1.002.275-1.304c.329-.181.655-.274.846-.487.45-.499.835-1.055 1.246-1.587l.276.187-.362-1.036 1.456-.117-.396-1.374 1.069-.332m-15.902 2.763.165.204c-.117.165-.22.343-.352.494-2.044 2.326-4.786 3.747-7.23 5.552-3.201 2.362-6.773 4.179-9.78 6.847-1.441 1.28-3.205 2.195-4.821 3.277-2.248 1.504-4.513 2.982-6.733 4.525-1.443 1.003-2.765 2.19-4.241 3.138-2.044 1.312-4.207 2.438-6.272 3.721-1.88 1.168-3.796 2.312-5.517 3.691C6.89-10.53 4.22-8.075 1.463-5.728c-.538.458-1.237.73-1.76 1.2-1.03.924-1.992 1.926-2.978 2.9C-5.7.765-8.152 3.13-10.533 5.564c-1.195 1.222-2.276 2.557-3.374 3.87-.646.772-1.275 1.569-1.815 2.416-.434.68-.584 1.578-1.109 2.153-.732.805-1.713 1.379-2.553 2.093-.308.261-.529.633-.769.968-.493.689-.97 1.39-1.46 2.081-.083.118-.289.215-.286.317.034.977-.595 1.444-1.307 1.945-.681.477-1.245 1.119-1.861 1.689l-.332-.119c.108-.45.177-.914.333-1.346.621-1.731 2.706-2.663 2.624-4.785-.001-.027.049-.055.073-.083 1.037-1.247 1.983-2.588 3.141-3.708.764-.74.688-.98-.182-1.397-.811-.387-.611-.863.003-1.318.929 1.268 1.782 1.39 2.075.264.264-1.015.559-1.679 1.655-1.827.156-.02.344-.315.393-.513.219-.879.542-1.63 1.559-1.838.138-.028.337-.279.329-.414-.054-.881.603-.999 1.204-1.241 1.359-.545 1.99-1.6 1.827-3.089.967.155 1.74-.107 2.125-1.085.048-.12.24-.176.349-.28.812-.77 2.035-1.204 2.12-2.583.006-.104.191-.207.305-.295 1.79-1.382 3.624-2.711 5.361-4.158 1.428-1.19 2.701-2.565 4.115-3.773 1.597-1.363 3.284-2.619 4.912-3.946.463-.378.805-.919 1.297-1.241.401-.261.999-.217 1.412-.468 1.119-.682 2.094-1.785 3.293-2.115 2.989-.821 4.956-3.191 7.56-4.581 2.058-1.099 3.847-2.694 5.8-4.002 1.469-.984 3.017-1.852 4.518-2.791.789-.493 1.576-.996 2.324-1.55 1.023-.757 1.976-1.61 3.015-2.344 2.115-1.495 4.292-2.905 6.396-4.416 1.308-.941 3.16-1.121 3.943-2.8.021-.047.141-.041.208-.074.661-.328 1.345-.619 1.975-1 1.293-.783 2.556-1.613 3.832-2.422M2.365 39.379l.019-.012c-.065 1.354.333 2.566 1.121 3.656.243.335.555.635.733 1 .372.762.649 1.554-.149 2.347-.534-.703-.866-1.527-1.467-1.85-1.179-.635-1.367-1.726-1.619-2.773-.753-3.127-.138-6.209.471-9.278.098-.495.141-1.242.454-1.407.957-.504.948-1.365 1.157-2.192.144-.572.237-1.4.628-1.617.892-.494.931-1.299 1.185-2.062.09-.271.2-.544.35-.786.842-1.358 1.699-2.707 2.611-4.155-.307-.083-.444-.106-.57-.157-.134-.053-.258-.131-.386-.198 1.913.119 2.582-1.005 2.786-2.691L8.17 16.187l.214-.38c.661.233 1.323.466 2.22.784.2-.475.459-1.085.718-1.696.616-.712 1.454-1.371 2.317-1.996 1.436-1.04 2.928-2.005 4.321-3.099 1.537-1.207 2.613-2.911 4.313-3.974 1.392-.871 2.688-1.896 4.017-2.866.511-.374.992-.789 1.492-1.179.939-.731 1.891-1.447 2.82-2.193.35-.281.768-.572.943-.955.324-.704.844-.873 1.529-1.123 1.419-.516 2.698-1.348 3.349-2.898 1.975-.142 2.952-1.64 3.987-3.09.189-.263.559-.397.846-.591.167.323.53.689.471.964-.373 1.712-.77 3.426-1.293 5.097-.556 1.775-1.279 3.496-1.893 5.254-.523 1.498-1 3.013-1.488 4.524-.746 2.313-1.353 4.682-2.258 6.932-1.159 2.881-2.541 5.674-3.856 8.491a18.274 18.274 0 0 1-1.21 2.142c-.806 1.253-1.654 2.479-2.484 3.716-.348.517-.659 1.066-1.053 1.545-.714.866-1.509 1.666-2.215 2.537-.746.921-1.381 1.932-2.149 2.832-.917 1.074-1.919 2.078-2.895 3.101-1.081 1.134-2.088 2.36-3.281 3.363-2.499 2.1-5.018 4.226-8.51 4.63.03-1.964-1.098.141-1.45-.417-.192-.611-.523-1.131-.76-1.692-.437-1.03-.984-2.054-1.176-3.135-.163-.925-.508-1.358-1.391-1.436m71.253-92.772c-.639-.282-1.284-.548-1.903-.867-.062-.032-.018-.518.066-.549.742-.274 1.506-.492 2.357-.756l-.535 2.192c.885-.904 1.015-.067 1.355.571-.73.243-1.26.32-1.34-.591M69.491 1.006c1.192-1.443 1.474-3.026 1.323-4.955-.909.056-1.867-.06-2.698.214-.892.294-.61.958.298 1.466l-.411.197-1.816-.897-.588 1.66c-.173-.087-.296-.137-.292-.15.555-1.878-.835-2.808-1.926-3.847-.208-.197-.697-.141-1.054-.131-1.397.038-1.693-.335-1.305-1.685.058-.199.082-.407.121-.61-.119-.056-.238-.112-.357-.166-.246.536-.582 1.05-.719 1.613-.265 1.098-.354 2.238-.635 3.331-.383 1.492-.865 2.959-1.337 4.427-.071.22-.319.384-.485.575-.099-.278-.314-.572-.276-.83.088-.591.293-1.166.46-1.744.27-.931.058-1.564-1.126-1.655.249-.632-.125-1.672 1.344-1.227l.752-4.424c-1.394.16-1.521-.636-1.383-1.718.09-.71-.437-1.06-1.06-1.056-1.563.009-3.125.099-4.196.138l-2.606 3.336-1.241-1.852-.55 1.189-.189-.354-.207-1.622-1.625.327-.261-.377.961-.492-.095-.207c-.491.077-.981.152-1.472.227l-.133-.244c.182-.199.334-.442.55-.59 1.088-.742 2.225-1.415 3.285-2.195 1.718-1.267 3.39-2.595 5.079-3.902 1.949-1.506 3.902-3.009 5.835-4.537.438-.346.889-.733 1.179-1.198.578-.924 1.348-1.527 2.283-2.09.923-.555 1.656-1.448 2.415-2.249a124.562 124.562 0 0 0 3.63-3.991 70.278 70.278 0 0 0 2.917-3.576c.56-.739.961-1.597 1.503-2.352.821-1.142 1.772-2.196 2.543-3.37 1.063-1.619 2.023-3.308 3.003-4.98a356.764 356.764 0 0 0 3.749-6.508c.363-.652.559-1.394.859-2.082.093-.215.276-.391.419-.584l.266.102c-.164.643-.284 1.302-.503 1.925a221.137 221.137 0 0 1-2.005 5.476c-.097.254-.395.424-.555.663-.302.446-.581.909-.85 1.376-.144.248-.228.532-.374.779-.92 1.547-1.861 3.082-2.764 4.639-.152.262-.155.613-.227.923l.267.141c.334-.426.73-.816.994-1.282 1.676-2.957 3.35-5.917 4.965-8.908a18.966 18.966 0 0 0 1.342-3.166c.648-2.011 1.015-4.129 1.825-6.066.968-2.313.632-4.665.666-7.006.028-1.943-.353-3.899-.24-5.831a25.115 25.115 0 0 0-.785-7.935c-.039-.147-.048-.311-.124-.435-.912-1.512-1.771-3.063-2.771-4.516-1.035-1.502-2.218-2.903-3.315-4.363-.146-.192-.164-.478-.253-.716-.215-.571-.422-1.146-.662-1.706a5.433 5.433 0 0 0-.487-.867 17.023 17.023 0 0 0-.866-1.185c-.304-.377-.727-.682-.949-1.097-1.364-2.545-3.328-4.58-5.954-5.628-2.49-.993-4.567-2.902-7.338-3.229-1.568-.186-3.129-.553-4.698-.583-1.204-.024-2.424.307-3.62.562-1.335.285-2.651.658-3.973 1.005-.278.073-.625.124-.801.315-1.058 1.146-2.334 1.671-3.895 1.574-.263-.017-.546.176-.81.296-.425.192-.842.403-1.489.715.014-.032-.024.332-.222.477-.798.582-1.635 1.111-2.476 1.63-1.581.977-3.291 1.791-4.726 2.947-1.054.851-2.062 1.777-3.106 2.656-.918.774-1.465 1.986-2.187 2.996a.663.663 0 0 1-.355.256c-.797.17-1.217.67-1.43 1.437-.063.229-.345.398-.609.683l1.335.892-.015.202c-.356-.028-.835.08-1.047-.109-.78-.698-1.163-.244-1.626.369-1.066 1.411-2.175 2.789-3.307 4.234l.441.486c-.072.091-.108.184-.164.199-1.689.437-2 2.101-2.879 3.251-.649.85-1.203 1.773-1.803 2.661-.105.155-.264.283-.339.451-.965 2.157-1.951 4.307-2.869 6.484-1.478 3.504-.102 6.99.205 10.467.119 1.334.697 2.657 1.23 3.915.313.74.947 1.343 1.691 1.965.086-1.063.257-2.128.239-3.189-.037-2.078-.193-4.135.636-6.145.282-.68.063-1.553.205-2.313.085-.454.427-.86.781-1.527l.987 3.411-.396-.065c-.165.355-.45.7-.477 1.066-.171 2.366-.375 4.737-.383 7.106-.004 1.093.338 2.211.681 3.265.094.289.763.389 1.018.507l1.508-4.825.47.02c0 .398.137.867-.024 1.184-.605 1.196-.321 2.376.062 3.497.103.304.881.463 1.368.513.241.025.633-.292.767-.553.46-.888.835-1.822 1.242-2.738l.412.082-.304 2.628c.266-.105.532-.141.55-.227.414-2.001 2.577-2.225 3.645-3.574.28-.354.995-.368 1.512-.531.175-.055.41-.029.53-.138 1.605-1.454 3.23-2.89 4.769-4.413.549-.543.841-1.336 1.322-1.959.374-.485.857-.887 1.296-1.322.394-.392 1.044-.722 1.147-1.177.364-1.618 1.764-2.391 2.718-3.476 2.135-2.432 4.438-4.724 6.774-6.967 1.344-1.291 2.849-2.425 4.345-3.543a63.194 63.194 0 0 1 4.725-3.235c.778-.478 1.719-.697 2.593-1.012 1.026-.369 2.072-.686 3.087-1.083.779-.306 1.253-.13 1.411.705.167.883.452 1.776.423 2.657-.068 2.108-.174 4.227-.49 6.308-.256 1.69-.839 3.332-1.276 4.995-.028.109-.057.221-.065.332-.165 2.415-1.319 4.513-2.064 6.748-.596 1.791-1.775 2.986-2.952 4.278-1 1.099-1.876 2.334-2.985 3.305-1.964 1.722-3.994 3.387-6.125 4.896-2.432 1.721-4.976 3.292-7.523 4.843-2.202 1.34-4.501 2.52-6.711 3.848-1.54.926-2.982 2.013-4.504 2.97-1.386.871-2.837 1.636-4.227 2.502-.797.497-1.5 1.142-2.293 1.647-1.922 1.225-3.893 2.373-5.803 3.617-1.315.858-2.514 1.896-3.844 2.727-2.484 1.553-5.034 2.997-7.537 4.516-2.213 1.344-4.455 2.651-6.58 4.122-1.424.988-2.677 2.224-3.99 3.369-1.409 1.228-2.796 2.483-4.199 3.719C-5.2-7.626-6.61-6.432-7.977-5.187c-.991.902-1.938 1.855-2.887 2.802-.889.889-1.761 1.794-2.63 2.704-.224.235-.405.512-.467.592.405.66.78 1.155 1.004 1.71.066.163-.33.73-.452.71-.325-.051-.853-.289-.881-.506-.152-1.187-.782-.752-1.214-.341-.925.877-1.821 1.8-2.614 2.795-1.352 1.697-2.634 3.45-3.908 5.205a175.287 175.287 0 0 0-3.391 4.85c-.557.824-.991 1.733-1.556 2.553-.52.753-1.218 1.387-1.705 2.159-1.251 1.982-2.632 3.921-3.584 6.046-1.249 2.785-2.162 5.724-3.17 8.615-.611 1.757-1.387 3.513-1.625 5.33-.335 2.565-.32 5.187-.286 7.781.011.895.474 1.806.847 2.659.121.276.614.39 1.086.666l-.456.866c.359.738.677 1.462 1.053 2.153.47.866 1.028 1.637 2.377 1.147-.512 1.237.106 1.621.969 2.057.846.428 1.517 1.19 2.307 1.742.448.314.961.579 1.484.73.707.205 1.438.281 1.445 1.272.001.138.198.337.35.403 3.337 1.433 6.703 2.799 10.36 3.151 1.226.118 2.473.023 3.71.024h3.887v-1.024c.227 0 .421-.061.506.009 1.649 1.367 3.316.184 4.994.134 2.538-.078 4.525-1.652 6.91-2.132 1.381-.279 2.584-1.349 3.927-1.924 1.245-.534 2.57-.883 3.858-1.316.462-.157.974-.24 1.371-.497 2.715-1.753 5.838-2.476 8.799-3.619 1.258-.485 2.882-.545 3.602-2.073.072-.152.386-.224.601-.271 3.122-.687 5.64-2.63 8.374-4.097 2.356-1.265 4.615-2.74 6.789-4.302 1.93-1.387 3.67-3.035 5.527-4.526.357-.286.926-.3 1.302-.571a46.707 46.707 0 0 0 2.925-2.3c.621-.529 1.071-1.333 1.765-1.687 1.917-.979 3.137-2.646 4.424-4.23.437-.539.459-1.413.677-2.132.224-.735.592-1.019 1.433-.732.908.311 1.899-.821 1.733-1.796-.045-.27.053-.623.208-.858.758-1.147 1.578-2.255 2.321-3.412.115-.18-.058-.545-.108-.901l.799-.346c-.05-.367-.225-.74-.113-.98.449-.959.894-1.945 1.508-2.799 2.18-3.032 2.92-6.511 3.34-10.113.1-.854.256-1.706.438-2.547.222-1.023.362-2.007-.495-2.64" style="fill:#1d1d1b;fill-opacity:1;fill-rule:nonzero;stroke:none" transform="matrix(.35278 0 0 -.35278 13.18 26.085)"/><path d="M0 0c.483-.033.967-.082 1.451-.098 2.856-.089 4.426-2.293 6.37-3.874.408-.331.812-.689 1.128-1.103.8-1.043.762-2.447-.006-3.644-1.167-1.817-3.123-2.642-4.793-3.825-.141-.1-.429.007-.643.017-.068 1.283-.396 1.496-1.699 1.645-.877.102-1.875.046-2.495.994-.128.198-.693.112-1.155.169l-.413.767c-.734-1.408-2.436-1.723-3.324-.645-.21.255-.226.734-.205 1.103.033.591.007 1.17-.731 1.112-1.269-.098-1.232.813-1.195 1.551.047.931-.095 1.432-1.129 1.032-.668 1.85.109 3.57 2.245 4.594 1.342.642 2.801 1.061 4.237 1.48.469.137 1.066.053 1.542-.111.357-.124.614-.537.916-.821A44.426 44.426 0 0 1 0 0" style="fill:#1d1d1b;fill-opacity:1;fill-rule:nonzero;stroke:none" transform="matrix(.35278 0 0 -.35278 102.72 20.869)"/><path d="M0 0c.24-.321.538-.615.712-.97 1.21-2.467 2.397-4.947 2.659-7.738.12-1.288.207-2.579.305-3.869.009-.111.03-.25-.023-.334-.314-.504-.56-1.133-1.017-1.425-.183-.117-.845.515-1.289.806l.432.22c.021.75.183 1.531.031 2.244-.239 1.123-.776 2.182-1.016 3.305-.124.585.272 1.277.166 1.872C.669-4.26.228-2.659-.133-1.042c-.085.38-.091.778-.133 1.169L0 0" style="fill:#1d1d1b;fill-opacity:1;fill-rule:nonzero;stroke:none" transform="matrix(.35278 0 0 -.35278 37.962 21.477)"/><path d="M0 0c-.077-.448-.127-.903-.234-1.344-.322-1.322-1.032-2.581-.619-4.019.039-.132.025-.336-.054-.436-1.684-2.135-1.311-4.798-1.869-7.219-.035-.146-.004-.357-.093-.432-.253-.213-.553-.371-.833-.552-.1.304-.342.643-.277.906.663 2.727 1.407 5.435 2.059 8.164.254 1.064.262 2.187.522 3.249.16.658.584 1.25.889 1.872L0 0" style="fill:#1d1d1b;fill-opacity:1;fill-rule:nonzero;stroke:none" transform="matrix(.35278 0 0 -.35278 134.824 27.102)"/><path d="M0 0c-1.101-2.301-.274-4.846-1.604-6.986-.283-.453-.064-1.193-.207-1.769-.083-.336-.421-.61-.646-.912-.21.421-.631.865-.588 1.258.091.828.479 1.618.648 2.443.436 2.129.812 4.271 1.239 6.402.039.195.276.35.422.524L0 0" style="fill:#1d1d1b;fill-opacity:1;fill-rule:nonzero;stroke:none" transform="matrix(.35278 0 0 -.35278 133.12 36.757)"/><path d="M0 0c.45-1.704-.013-3.201-.598-4.71-.405-1.042-.57-2.174-.911-3.244-.382-1.199-.842-2.373-1.267-3.559l-.324.058c0 .26-.047.529.007.776.4 1.803.74 3.623 1.254 5.394C-1.318-3.496-.62-1.76 0 0" style="fill:#1d1d1b;fill-opacity:1;fill-rule:nonzero;stroke:none" transform="matrix(.35278 0 0 -.35278 131.333 47.352)"/><path d="M0 0c-.979.722-2.036 1.361-2.92 2.186-1.34 1.248-2.638 2.56-3.805 3.969-.86 1.037-2.023 1.95-2.176 3.792.564-.535.969-.857 1.299-1.243 1.988-2.319 3.951-4.66 5.938-6.979.519-.607 1.098-1.163 1.65-1.741z" style="fill:#1d1d1b;fill-opacity:1;fill-rule:nonzero;stroke:none" transform="matrix(.35278 0 0 -.35278 32.664 51.642)"/><path d="M0 0c2.378 1.013 4.606 2.548 7.568 2.024-.285-.237-.503-.515-.787-.637C5.062.644 3.322-.053 1.599-.787.741-1.153.229-.919 0 0" style="fill:#1d1d1b;fill-opacity:1;fill-rule:nonzero;stroke:none" transform="matrix(.35278 0 0 -.35278 64.332 6.737)"/><path d="M0 0c.468-1.578.832-3.197 1.433-4.724.595-1.511 1.652-2.85 1.648-4.568l-.278-.122c-.392 1.006-.797 2.008-1.172 3.021A99.334 99.334 0 0 0 .479-3.116C.152-2.123-.745-1.254-.514-.134L0 0" style="fill:#1d1d1b;fill-opacity:1;fill-rule:nonzero;stroke:none" transform="matrix(.35278 0 0 -.35278 50.175 33.28)"/><path d="M0 0c.131-.367.4-.746.37-1.101-.152-1.787-.373-3.569-.596-5.35-.032-.264-.194-.516-.323-.758-.014-.028-.292.029-.294.055-.011.267-.006.538.023.805.026.256.115.508.125.764.069 1.818.125 3.637.185 5.455L0 0" style="fill:#1d1d1b;fill-opacity:1;fill-rule:nonzero;stroke:none" transform="matrix(.35278 0 0 -.35278 133.206 33.638)"/><path d="M0 0c.349-2.28-.329-4.298-.53-6.602C-1.29-5.357-.909-.978 0 0" style="fill:#1d1d1b;fill-opacity:1;fill-rule:nonzero;stroke:none" transform="matrix(.35278 0 0 -.35278 132.252 40.408)"/><path d="m0 0 .387-11.215C-.12-10.551-.498-2.184 0 0" style="fill:#1d1d1b;fill-opacity:1;fill-rule:nonzero;stroke:none" transform="matrix(.35278 0 0 -.35278 91.972 55.561)"/><path d="M0 0c.608-.342 1.253-.631 1.816-1.036 1.244-.895 2.446-1.848 3.555-2.919C3.276-3.034 1.165-2.141.014.016Z" style="fill:#1d1d1b;fill-opacity:1;fill-rule:nonzero;stroke:none" transform="matrix(.35278 0 0 -.35278 32.66 51.647)"/><path d="M0 0c.435-.509.687-.777.904-1.072.097-.133.215-.364.161-.47-.08-.16-.32-.371-.459-.349a9.583 9.583 0 0 0-1.686.421c-.399.144-.755.408-1.434.789L0 0" style="fill:#1d1d1b;fill-opacity:1;fill-rule:nonzero;stroke:none" transform="matrix(.35278 0 0 -.35278 30.52 6.03)"/><path d="M0 0c.315-.223.665-.408.937-.675.499-.489 1.019-.981 1.396-1.559.197-.303.11-.79.152-1.195-.328.125-.792.155-.958.392C.9-2.142.37-1.178-.197-.239L0 0" style="fill:#1d1d1b;fill-opacity:1;fill-rule:nonzero;stroke:none" transform="matrix(.35278 0 0 -.35278 37.396 36.046)"/><path d="M0 0c.015 1.282 1.638 2.549 3.228 2.386C2.532.979 1.248.511-.013.015Z" style="fill:#1d1d1b;fill-opacity:1;fill-rule:nonzero;stroke:none" transform="matrix(.35278 0 0 -.35278 177.32 27.006)"/><path d="m0 0 .709-1.403c-1.015.139-.636-1.965-2.352-1.321 1.195.638.164 2.316 1.661 2.709z" style="fill:#1d1d1b;fill-opacity:1;fill-rule:nonzero;stroke:none" transform="matrix(.35278 0 0 -.35278 135.066 21.475)"/><path d="m0 0-.356 7.147C.939 4.917-.353 2.38.543.087L0 0" style="fill:#1d1d1b;fill-opacity:1;fill-rule:nonzero;stroke:none" transform="matrix(.35278 0 0 -.35278 59.346 42.459)"/><path d="M0 0v-6.326C-.647-4.902-.633-.718 0 0" style="fill:#1d1d1b;fill-opacity:1;fill-rule:nonzero;stroke:none" transform="matrix(.35278 0 0 -.35278 90.953 25.642)"/><path d="M0 0c1.376-.434 1.824-1.547 2.104-2.829C.409-2.581.547-1.04 0 0" style="fill:#1d1d1b;fill-opacity:1;fill-rule:nonzero;stroke:none" transform="matrix(.35278 0 0 -.35278 36.406 18.786)"/><path d="M0 0c-.565 2.146-.408 2.864.746 3.077L.427-.114 0 0" style="fill:#1d1d1b;fill-opacity:1;fill-rule:nonzero;stroke:none" transform="matrix(.35278 0 0 -.35278 133.378 33.501)"/><path d="m0 0 1.627-5.759a106.1 106.1 0 0 0-.278-.075L-.377-.069 0 0" style="fill:#1d1d1b;fill-opacity:1;fill-rule:nonzero;stroke:none" transform="matrix(.35278 0 0 -.35278 45.953 20.554)"/><path d="m0 0-.281-4.345-.423.02.26 4.319L0 0" style="fill:#1d1d1b;fill-opacity:1;fill-rule:nonzero;stroke:none" transform="matrix(.35278 0 0 -.35278 91.064 23.784)"/><path d="M0 0c.281.716.543 1.44.864 2.138.056.119.489.219.534.162.14-.179.311-.516.232-.654C1.253.993.796.385.368-.239L0 0" style="fill:#1d1d1b;fill-opacity:1;fill-rule:nonzero;stroke:none" transform="matrix(.35278 0 0 -.35278 137.847 17.606)"/><path d="m0 0-1.35 4.17.307.116L.443.152 0 0" style="fill:#1d1d1b;fill-opacity:1;fill-rule:nonzero;stroke:none" transform="matrix(.35278 0 0 -.35278 47.76 26.719)"/><path d="M0 0c.196 1.106-.354 2.313.354 3.35l.341-.04L.319-.065 0 0" style="fill:#1d1d1b;fill-opacity:1;fill-rule:nonzero;stroke:none" transform="matrix(.35278 0 0 -.35278 131.667 44.854)"/><path d="M0 0c-.523-.384-1.014-.837-1.589-1.113-.19-.091-.599.274-.909.429l-.013-.017.764.941 1.76-.255z" style="fill:#1d1d1b;fill-opacity:1;fill-rule:nonzero;stroke:none" transform="matrix(.35278 0 0 -.35278 177.315 27)"/><path d="M0 0c.55-1.08.298-2.156-.946-3.358L0 0" style="fill:#1d1d1b;fill-opacity:1;fill-rule:nonzero;stroke:none" transform="matrix(.35278 0 0 -.35278 67.144 25.049)"/><path d="M0 0v-3.695l-.57.038.586 3.644z" style="fill:#1d1d1b;fill-opacity:1;fill-rule:nonzero;stroke:none" transform="matrix(.35278 0 0 -.35278 91.142 35.954)"/><path d="M0 0v-3.939l-.172.001v3.922L0 0" style="fill:#1d1d1b;fill-opacity:1;fill-rule:nonzero;stroke:none" transform="matrix(.35278 0 0 -.35278 91.154 20.064)"/><path d="m0 0 .425-3.782-.403-.043-.376 3.788L0 0" style="fill:#1d1d1b;fill-opacity:1;fill-rule:nonzero;stroke:none" transform="matrix(.35278 0 0 -.35278 91.2 41.106)"/><path d="m0 0 1.923-2.161-.054-.043L-.283-.263 0 0" style="fill:#1d1d1b;fill-opacity:1;fill-rule:nonzero;stroke:none" transform="matrix(.35278 0 0 -.35278 38.616 37.482)"/><path d="m0 0 .731-1.828C-.449-1.599-.663-.962-.35-.097L0 0" style="fill:#1d1d1b;fill-opacity:1;fill-rule:nonzero;stroke:none" transform="matrix(.35278 0 0 -.35278 37.62 20.339)"/><path d="M0 0c.916-.315.998-1.057.02-2.259v2.28z" style="fill:#1d1d1b;fill-opacity:1;fill-rule:nonzero;stroke:none" transform="matrix(.35278 0 0 -.35278 129.708 43.808)"/><path d="m0 0 .157-2.894c-.092-.005-.183-.012-.275-.018L-.397-.03 0 0" style="fill:#1d1d1b;fill-opacity:1;fill-rule:nonzero;stroke:none" transform="matrix(.35278 0 0 -.35278 91.233 39.638)"/><path d="m0 0 .324 1.509.464-.103L.446-.099 0 0" style="fill:#1d1d1b;fill-opacity:1;fill-rule:nonzero;stroke:none" transform="matrix(.35278 0 0 -.35278 110.204 41.096)"/><path d="M0 0v1.739l.345.028L.486.012Z" style="fill:#1d1d1b;fill-opacity:1;fill-rule:nonzero;stroke:none" transform="matrix(.35278 0 0 -.35278 131.371 46.726)"/><path d="m0 0-1.854-1.232-.2.349C-1.565-.205-.91.147.012-.015L0 0" style="fill:#1d1d1b;fill-opacity:1;fill-rule:nonzero;stroke:none" transform="matrix(.35278 0 0 -.35278 182.358 22.602)"/><path d="m0 0-.125-2.06-.447.035.149 2.074L0 0" style="fill:#1d1d1b;fill-opacity:1;fill-rule:nonzero;stroke:none" transform="matrix(.35278 0 0 -.35278 79.77 11.65)"/><path d="M0 0c.5-.732 1.167-1.473.613-2.629L0 0" style="fill:#1d1d1b;fill-opacity:1;fill-rule:nonzero;stroke:none" transform="matrix(.35278 0 0 -.35278 45.208 18.061)"/><path d="m0 0 .314-2.141-.352-.051-.313 2.149L0 0" style="fill:#1d1d1b;fill-opacity:1;fill-rule:nonzero;stroke:none" transform="matrix(.35278 0 0 -.35278 91.687 51.875)"/><path d="m0 0-.212 3.756.203.016L.229.017 0 0" style="fill:#1d1d1b;fill-opacity:1;fill-rule:nonzero;stroke:none" transform="matrix(.35278 0 0 -.35278 72.607 23.703)"/><path d="m0 0 1.468-1.128c-.423-.436-.919-.935.043-1.57C.333-2.527.023-1.668-.376-.981c-.106.183.252.638.397.968L0 0" style="fill:#1d1d1b;fill-opacity:1;fill-rule:nonzero;stroke:none" transform="matrix(.35278 0 0 -.35278 114.34 18.677)"/><path d="M0 0c.203.18.562.534.587.513.637-.567 1.983-.241 2.011-1.642C1.492-1.266.729-.646-.013.021Z" style="fill:#1d1d1b;fill-opacity:1;fill-rule:nonzero;stroke:none" transform="matrix(.35278 0 0 -.35278 113.472 20.68)"/><path d="m0 0 2.224-.129C1.281-.909.662-.827.015.016L0 0" style="fill:#1d1d1b;fill-opacity:1;fill-rule:nonzero;stroke:none" transform="matrix(.35278 0 0 -.35278 114.025 20.205)"/><path d="m0 0 .606-2.188a60.925 60.925 0 0 0-.457-.122L-.332-.103 0 0" style="fill:#1d1d1b;fill-opacity:1;fill-rule:nonzero;stroke:none" transform="matrix(.35278 0 0 -.35278 85.701 42.441)"/><path d="M0 0c.228-.297.514-.566.671-.897.394-.832.046-1.326-1.108-1.48L.02-.012 0 0" style="fill:#1d1d1b;fill-opacity:1;fill-rule:nonzero;stroke:none" transform="matrix(.35278 0 0 -.35278 14.014 12.193)"/></svg>