<svg  version="1.1" viewBox="0 0 415 415" xml:space="preserve" xmlns="http://www.w3.org/2000/svg">

	<path d="m411.5 156.67c-53.244-22.644-97.92-58.752-146.88-88.74-1.224-0.612-2.448-1.224-3.06-1.224-1.225-7.344-12.24-9.792-14.076-1.224-3.672 16.524-3.672 33.66 0 50.184-30.601-12.24-64.261-17.748-96.697-25.092-22.032-4.896-44.064-9.18-65.484-14.688-7.344-1.836-14.076-3.672-21.42-6.12-3.672-1.224-11.628-5.508-11.628-1.836h-0.612c-2.448-3.06-7.956-3.672-9.18 1.224-0.612 1.836 0 3.672 1.224 5.508-7.956 7.956-15.912 15.912-22.032 25.704-4.284 6.732-11.016 15.912-12.852 24.48-0.612 0.612-0.612 0.612-0.612 1.224-11.016 39.78-7.956 88.128-7.344 129.13 0.612 21.42-2.448 75.888 22.644 86.292 3.06 1.224 5.508-1.224 6.732-3.672 20.196 11.628 58.752-2.448 76.5-7.344 33.048-9.181 66.708-20.196 98.532-33.66 0 7.956 0 16.523 0.612 24.479 0.612 8.568 0.612 20.809 8.569 26.316-2.448 3.672 1.224 9.18 6.12 6.731 61.199-31.212 128.52-61.199 178.7-108.94 3.06-3.06 2.447-6.732 0-9.18 2.447-9.792 4.283-19.584 6.731-28.764 2.448-9.792 6.732-21.42 4.896-31.824 0-0.612-0.612-1.836-1.225-2.448 1.225-1.224 2.448-2.448 3.672-3.672 2.45-3.67 2.45-11.014-1.834-12.85zm-352.51-72.216c44.676 20.196 170.14 35.496 190.94 38.556 3.06 3.672 11.016 2.448 10.403-3.06-1.224-12.852-1.224-25.704 0-39.168 43.452 29.988 85.681 62.424 134.03 84.456-41.616 40.392-84.456 75.888-130.97 110.16-0.612-0.612-1.225-1.225-2.448-1.225-1.836-4.284-0.612-14.688 0-19.584 0.612-7.344 3.672-19.584-1.224-25.704-2.448-2.447-6.732-2.447-9.792 0-1.225 1.225-1.836 2.448-2.448 3.673h-1.224c-31.824 9.791-63.649 18.359-95.473 25.703-26.316 6.12-55.692 12.24-78.948 27.54 5.508-27.54-4.896-63.036-8.568-89.964-5.507-37.943-9.791-73.439-4.283-111.38zm332.32 118.12c-2.448 11.628-5.509 23.868-6.12 35.496-50.185 41.004-108.94 66.096-162.18 101.59 0-6.732-3.672-14.076-4.283-20.809-1.225-9.18-1.837-18.972-1.837-28.764 3.061-4.284-1.224-12.852-7.956-11.016-28.765 9.792-57.528 21.42-86.292 30.6-22.644 7.344-69.156 26.928-91.8 14.076-1.224-0.612-3.06-0.612-4.284-0.612-3.06-7.956-6.12-15.3-7.344-23.868-4.284-22.031-3.672-45.287-3.672-67.932 0-30.6 6.12-66.096 0.612-97.308 0.612 0 1.836-0.612 2.448-1.224 7.344-6.732 11.016-17.748 15.912-26.316 3.06-5.508 5.508-11.016 7.956-16.524-5.508 26.316-1.224 55.692 1.836 80.784 2.448 22.644 6.12 45.288 9.18 67.932 2.448 17.137 1.224 34.885 4.896 52.021 0.612 3.672 4.284 4.896 7.344 4.284v0.611c0 0.612 0.612 1.225 1.224 1.836 7.344 3.061 11.628-0.611 18.36-4.283 18.972-9.181 41.004-14.076 61.2-18.973 32.436-7.956 68.544-12.239 99.145-26.315 0 3.672-0.612 6.731-0.612 10.403-0.612 7.956-1.836 19.584 4.896 25.704 2.447 2.448 6.12 2.448 8.567 1.225 0.612 3.06 3.672 5.508 7.956 4.284 48.349-17.137 90.576-61.812 127.3-100.37-1.224 4.285-1.836 9.181-2.447 13.465z"/>
















</svg>
