<svg version="1.1" width="30.439" height="50.838"  viewBox="0 0 30.439 50.838" xmlns="http://www.w3.org/2000/svg">
 <path d="m20.535 50.057c16.507-6.7 9.634-24.638-0.746-32.873-7.637-6.059-0.392-17.185-0.392-17.185-20.589 13.209-10.218 31.149-10.218 31.149-6.193-4.923-5.172-14.3-5.172-14.3-9.661 20.723 0.608 29.768 5.164 32.511 2.566 1.546 8.052 2.043 11.364 0.698z" fill="#e64a19" data-name="Pfad 51305"/>
 <path d="m20.535 50.057c16.507-6.7 9.634-24.638-0.746-32.873-7.637-6.059-0.392-17.185-0.392-17.185-20.589 13.209-10.218 31.149-10.218 31.149-6.193-4.923-5.172-14.3-5.172-14.3-9.661 20.723 0.608 29.768 5.164 32.511 2.566 1.546 8.052 2.043 11.364 0.698z" fill="#c86e00" data-name="Pfad 51306"/>
 <path d="m13.917 18.434c-4.65 6.791-2.476 19.379-2.476 19.379-2.826-0.46-6.427-4.417-6.427-4.417-1.4 8.124 2.269 14.546 5.789 16.688a15.828 15.828 0 0 0 9.731-0.027c0.106-0.043 0.21-0.087 0.314-0.131 7.877-5.317 1.842-15.136-2.34-19.732-4.31-4.736-4.591-11.76-4.591-11.76z" fill="#ffca28" data-name="Pfad 51307"/>
 <path d="m13.917 18.434c-4.65 6.791-2.476 19.379-2.476 19.379-2.826-0.46-6.427-4.417-6.427-4.417-1.4 8.124 2.269 14.546 5.789 16.688a15.828 15.828 0 0 0 9.731-0.027c0.106-0.043 0.21-0.087 0.314-0.131 7.877-5.317 1.842-15.136-2.34-19.732-4.31-4.736-4.591-11.76-4.591-11.76z" fill="#ffa600" data-name="Pfad 51308"/>
 <path d="m19.779 50.321c1.837-3.839 0.6-5.878-1.411-8.089a10.631 10.631 0 0 1-2.347-6.011c-2.377 3.471-1.265 9.9-1.265 9.9-1.444-0.235-3.285-2.258-3.285-2.258a8.026 8.026 0 0 0 2.318 6.852 15.555 15.555 0 0 0 5.99-0.394z" fill="#fff" data-name="Pfad 51309"/>
 <path d="m19.779 50.321c1.837-3.839 0.6-5.878-1.411-8.089a10.631 10.631 0 0 1-2.347-6.011c-2.377 3.471-1.265 9.9-1.265 9.9-1.444-0.235-3.285-2.258-3.285-2.258a8.026 8.026 0 0 0 2.318 6.852 15.555 15.555 0 0 0 5.99-0.394z" fill="#ffe7bb" data-name="Pfad 51310"/>
</svg>
