<svg viewBox="0 0 17.221 23.892" xmlns="http://www.w3.org/2000/svg">
  <g aria-label="9" style="fill:#eb8900;stroke-width:1.85208">
    <path d="M96.432 65.727c0-1.938-.781-3.529-2.343-4.715-1.476-1.128-3.211-1.62-5.179-1.475-1.996.144-3.731.925-5.207 2.285-1.562 1.417-2.343 3.124-2.343 5.062 0 1.996.781 3.558 2.343 4.744 1.476 1.129 3.211 1.592 5.207 1.447.319-.03.666-.058 1.07-.145l-1.88 6.943 4.542.839c.723-3.732 1.794-7.869 3.211-12.352a6.347 6.347 0 0 0 .579-2.633zm-5.265 1.476c0 1.157-1.157 2.024-2.343 2.111-1.186.087-2.315-.636-2.315-1.793 0-1.128 1.158-2.025 2.315-2.112.578-.029 1.099.087 1.562.405.52.376.78.839.78 1.389z" style="font-size:28.9278px;font-family:BadaBoom;-inkscape-font-specification:&quot;BadaBoom, Normal&quot;" transform="translate(-79.21 -56.82)" aria-label="9"/>
  </g>
  <g style="fill:none;stroke:#000;stroke-width:2.38125">
    <path d="M95.105 64.073c0-1.891-.762-3.443-2.286-4.6-1.44-1.101-3.133-1.58-5.052-1.44-1.947.141-3.64.903-5.08 2.23-1.524 1.383-2.286 3.048-2.286 4.939 0 1.947.762 3.471 2.286 4.628 1.44 1.1 3.133 1.552 5.08 1.411.31-.028.65-.056 1.044-.14l-1.834 6.773 4.43.818c.706-3.64 1.75-7.676 3.134-12.05a6.192 6.192 0 0 0 .564-2.57zm-5.136 1.44c0 1.128-1.13 1.975-2.286 2.06-1.158.084-2.258-.621-2.258-1.75 0-1.101 1.129-1.976 2.258-2.06.564-.029 1.072.084 1.524.395.508.366.762.818.762 1.354z" style="font-size:28.2222px;font-family:BadaBoom;-inkscape-font-specification:&quot;BadaBoom, Normal&quot;" transform="translate(-79.21 -56.82)" aria-label="9"/>
  </g>
</svg>
